<?xml version="1.0" encoding="UTF-8" standalone="no"?>
<!-- Created with Inkscape (http://www.inkscape.org/) -->

<svg
   width="5mm"
   height="2mm"
   viewBox="0 0 5 2"
   version="1.1"
   id="svg5"
   inkscape:version="1.2.1 (9c6d41e410, 2022-07-14, custom)"
   sodipodi:docname="picofusion-source.svg"
   inkscape:export-filename="gnd.png"
   inkscape:export-xdpi="2540"
   inkscape:export-ydpi="2540"
   xmlns:inkscape="http://www.inkscape.org/namespaces/inkscape"
   xmlns:sodipodi="http://sodipodi.sourceforge.net/DTD/sodipodi-0.dtd"
   xmlns="http://www.w3.org/2000/svg"
   xmlns:svg="http://www.w3.org/2000/svg">
  <sodipodi:namedview
     id="namedview7"
     pagecolor="#505050"
     bordercolor="#eeeeee"
     borderopacity="1"
     inkscape:showpageshadow="0"
     inkscape:pageopacity="0"
     inkscape:pagecheckerboard="0"
     inkscape:deskcolor="#505050"
     inkscape:document-units="mm"
     showgrid="false"
     inkscape:zoom="42.577049"
     inkscape:cx="8.5609503"
     inkscape:cy="4.5564454"
     inkscape:window-width="1910"
     inkscape:window-height="1011"
     inkscape:window-x="0"
     inkscape:window-y="0"
     inkscape:window-maximized="1"
     inkscape:current-layer="layer2" />
  <defs
     id="defs2" />
  <g
     inkscape:label="Source"
     inkscape:groupmode="layer"
     id="layer1"
     style="display:none">
    <path
       id="rect1055"
       style="fill:#120000;stroke-width:0.01"
       d="m 1.3,0.5 h 2.9 l -0.5,1 H 0.8 Z"
       sodipodi:nodetypes="ccccc" />
    <text
       xml:space="preserve"
       style="font-style:normal;font-variant:normal;font-weight:normal;font-stretch:normal;font-size:1.05833px;line-height:1.25;font-family:'Red Hat Display';-inkscape-font-specification:'Red Hat Display, Normal';font-variant-ligatures:normal;font-variant-caps:normal;font-variant-numeric:normal;font-variant-east-asian:normal;fill:#ff0000;fill-opacity:1;stroke:none;stroke-width:0.264583"
       x="1.2929703"
       y="1.3704156"
       id="text79"><tspan
         sodipodi:role="line"
         id="tspan77"
         style="font-style:normal;font-variant:normal;font-weight:bold;font-stretch:normal;font-size:1.05833px;font-family:'Red Hat Display';-inkscape-font-specification:'Red Hat Display, Normal';font-variant-ligatures:normal;font-variant-caps:normal;font-variant-numeric:normal;font-variant-east-asian:normal;fill:#ff0000;fill-opacity:1;stroke-width:0.264583"
         x="1.2929703"
         y="1.3704156">GND</tspan></text>
  </g>
  <g
     inkscape:groupmode="layer"
     id="layer2"
     inkscape:label="Mask"
     style="display:inline">
    <path
       id="rect1055-9"
       style="display:inline;fill:#120000;stroke-width:0.01"
       d="M 1.300179 0.50022786 L 0.79995117 1.5001668 L 3.7000326 1.5001668 L 4.1997437 0.50022786 L 1.300179 0.50022786 z M 1.7115234 0.61805013 C 1.7149227 0.61796843 1.7179189 0.61805013 1.721342 0.61805013 C 1.8441079 0.61805013 1.9584256 0.66976009 2.0293335 0.75654297 L 1.92288 0.85524495 C 1.871022 0.79280369 1.8007168 0.75861003 1.721342 0.75861003 C 1.5879926 0.75861003 1.488798 0.86235638 1.488798 0.99993896 C 1.488798 1.1375217 1.5915853 1.2423014 1.7259928 1.2423014 C 1.8307672 1.2423014 1.9120984 1.1777468 1.9311483 1.0877889 L 1.7120402 1.0877889 L 1.7120402 0.9544637 L 2.0949626 0.9544637 L 2.0949626 1.0009725 C 2.0949626 1.2200464 1.9377081 1.3818278 1.7239258 1.3818278 C 1.5037936 1.3818278 1.3311849 1.2137213 1.3311849 0.99993896 C 1.3311849 0.78949713 1.4973675 0.62319703 1.7115234 0.61805013 z M 2.1998657 0.62941895 L 2.34611 0.62941895 L 2.714563 1.1079427 L 2.714563 0.62941895 L 2.8582235 0.62941895 L 2.8582235 1.370459 L 2.7228312 1.370459 L 2.3450765 0.874882 L 2.3450765 1.370459 L 2.1998657 1.370459 L 2.1998657 0.62941895 z M 2.9925822 0.62941895 L 3.2773193 0.62941895 C 3.4985099 0.62941895 3.6690267 0.79142353 3.6690267 1.0009725 C 3.6690267 1.2094631 3.4985099 1.370459 3.2773193 1.370459 L 2.9925822 1.370459 L 2.9925822 0.62941895 z M 3.1460612 0.76636149 L 3.1460612 1.2340332 L 3.2762858 1.2340332 C 3.4075185 1.2340332 3.51038 1.1322052 3.51038 1.0009725 C 3.51038 0.86868148 3.4075185 0.76636149 3.2762858 0.76636149 L 3.1460612 0.76636149 z " />
  </g>
</svg>
