<?xml version="1.0" encoding="UTF-8" standalone="no"?>
<!-- Created with Inkscape (http://www.inkscape.org/) -->

<svg
   width="15mm"
   height="2mm"
   viewBox="0 0 15 2"
   version="1.1"
   id="svg35"
   inkscape:version="1.2.1 (9c6d41e410, 2022-07-14, custom)"
   sodipodi:docname="picofusion.svg"
   inkscape:export-filename="picofusion.png"
   inkscape:export-xdpi="952.5"
   inkscape:export-ydpi="952.5"
   xmlns:inkscape="http://www.inkscape.org/namespaces/inkscape"
   xmlns:sodipodi="http://sodipodi.sourceforge.net/DTD/sodipodi-0.dtd"
   xmlns="http://www.w3.org/2000/svg"
   xmlns:svg="http://www.w3.org/2000/svg">
  <sodipodi:namedview
     id="namedview37"
     pagecolor="#ffffff"
     bordercolor="#666666"
     borderopacity="1.0"
     inkscape:showpageshadow="2"
     inkscape:pageopacity="0.0"
     inkscape:pagecheckerboard="0"
     inkscape:deskcolor="#d1d1d1"
     inkscape:document-units="mm"
     showgrid="false"
     inkscape:zoom="22.627417"
     inkscape:cx="24.328893"
     inkscape:cy="6.6291261"
     inkscape:window-width="1910"
     inkscape:window-height="1007"
     inkscape:window-x="0"
     inkscape:window-y="0"
     inkscape:window-maximized="1"
     inkscape:current-layer="layer1" />
  <defs
     id="defs32" />
  <g
     inkscape:label="Layer 1"
     inkscape:groupmode="layer"
     id="layer1">
    <path
       id="path2986"
       style="stroke-width:0.00132292;stroke-miterlimit:9.99921"
       d="M 1.5001668,0.25 0.99993896,1.75 H 13.499951 l 0.500228,-1.5 z m 1.214913,0.2207723 c 0.00187,-9.53e-5 0.00379,0 0.00568,0 0.060677,0 0.1100708,0.0493932 0.1100708,0.1100708 0,0.0592665 -0.049393,0.1100708 -0.1100708,0.1100708 -0.060678,0 -0.1100708,-0.0508043 -0.1100708,-0.1100708 0,-0.0587814 0.046324,-0.10711651 0.1043864,-0.1100708 z m 4.3108479,0 c 0.00187,-9.53e-5 0.00379,0 0.00568,0 0.060678,0 0.1100708,0.0493932 0.1100708,0.1100708 0,0.0592665 -0.049393,0.1100708 -0.1100708,0.1100708 -0.060677,0 -0.1100708,-0.0508043 -0.1100708,-0.1100708 0,-0.0587814 0.046324,-0.10711651 0.1043864,-0.1100708 z m 4.9645553,0.0397908 c 0.0041,-1.0193e-4 0.0083,0 0.0124,0 0.200377,0 0.337447,0.11291965 0.337447,0.27801921 0,0.0945442 -0.03713,0.16890638 -0.135909,0.26768394 l -0.29869,0.3007568 0.450102,-0.00155 V 1.5136027 H 11.666988 V 1.3807943 l 0.411861,-0.4175456 c 0.05926,-0.0620887 0.08062,-0.10878111 0.08062,-0.16381429 0,-0.0733776 -0.06914,-0.12815755 -0.162264,-0.12815755 -0.09031,0 -0.160978,0.033951 -0.252698,0.12143961 L 11.640116,0.66559245 c 0.106628,-0.0997917 0.223833,-0.15186942 0.350367,-0.1550293 z m 0.88625,0 c 0.004,-9.951e-5 0.0084,0 0.0124,0 0.259642,0 0.434599,0.20421374 0.434599,0.50901285 0,0.3047993 -0.174957,0.5095296 -0.434599,0.5095296 -0.258233,0 -0.433566,-0.2047303 -0.433566,-0.5095296 0,-0.30003662 0.16955,-0.50274378 0.421163,-0.50901285 z M 1.6763835,0.52606608 h 0.4950602 c 0.1947328,0 0.3317627,0.12802577 0.3317627,0.31005859 0,0.17638843 -0.1398521,0.30489093 -0.3317627,0.30489093 H 1.8810221 V 1.5136027 H 1.6763835 Z m 2.9042155,0 H 5.3438599 V 0.70383301 H 4.7852376 V 0.93637695 H 5.1562744 V 1.1084595 H 4.7852376 V 1.5136027 H 4.580599 Z m 4.7015218,0 h 0.495577 c 0.1947328,0 0.3312462,0.12802577 0.3312462,0.31005859 0,0.17638843 -0.1393356,0.30489093 -0.3312462,0.30489093 H 9.4867594 V 1.5136027 H 9.2821208 Z m 0.9611812,0 h 0.763261 v 0.17776693 h -0.558622 v 0.23254394 h 0.371037 V 1.1084595 h -0.371037 v 0.4051432 h -0.204639 z m 2.631881,0.15244548 c -0.141612,0.007896 -0.23151,0.13737999 -0.23151,0.34106444 0,0.210255 0.09589,0.3415812 0.245463,0.3415812 0.150984,0 0.247013,-0.1313262 0.247013,-0.3415812 0,-0.21025491 -0.09602,-0.34106444 -0.247013,-0.34106444 -0.0047,0 -0.0094,-2.5473e-4 -0.01395,0 z M 1.8810221,0.70228271 v 0.26975098 h 0.2682007 c 0.0889,0 0.1467611,-0.0539256 0.1467611,-0.13435872 0,-0.0818442 -0.057861,-0.13539226 -0.1467611,-0.13539226 z m 7.6057373,0 v 0.26975098 h 0.2682007 c 0.088899,0 0.1467611,-0.0539256 0.1467611,-0.13435872 0,-0.0818442 -0.057861,-0.13539226 -0.1467611,-0.13539226 z m -6.1763671,0.0620117 c 0.00337,-8.153e-5 0.00642,0 0.00982,0 0.1171219,0 0.2286911,0.0480028 0.3048909,0.13125814 L 3.5067627,1.0211263 c -0.053622,-0.0592665 -0.113274,-0.0888835 -0.1824178,-0.0888835 -0.1114772,0 -0.197404,0.0931022 -0.197404,0.21445716 0,0.1213554 0.087755,0.2118734 0.2020549,0.2118734 0.066322,0 0.1224555,-0.025722 0.1746663,-0.082166 l 0.1157552,0.1214396 c -0.0762,0.081844 -0.1863179,0.1297078 -0.2992065,0.1297078 -0.2173105,0 -0.3849894,-0.1663669 -0.3849894,-0.3808553 0,-0.21113681 0.1628035,-0.37726916 0.3751709,-0.38240557 z m 0.7363891,0 c 0.00342,-8.153e-5 0.0069,0 0.010335,0 0.2201328,0 0.3922241,0.16791729 0.3922241,0.38240557 0,0.2144883 -0.1720913,0.3808553 -0.3922241,0.3808553 -0.2201328,0 -0.3927409,-0.166367 -0.3927409,-0.3808553 0,-0.21113691 0.1672182,-0.37726916 0.3824056,-0.38240557 z m 3.5811768,0 c 0.00342,-8.153e-5 0.0069,0 0.010335,0 0.2201325,0 0.3922241,0.16791729 0.3922241,0.38240557 0,0.2144883 -0.1720915,0.3808553 -0.3922241,0.3808553 -0.2201326,0 -0.3922242,-0.166367 -0.3922242,-0.3808553 0,-0.21113691 0.1667015,-0.37726916 0.3818889,-0.38240557 z m 0.9131225,0 c 0.00249,-4.952e-5 0.00472,0 0.00723,0 0.1707441,0 0.2909383,0.11995593 0.2909383,0.29352217 V 1.5136027 H 8.6459839 V 1.0862386 c 0,-0.0945442 -0.059313,-0.15554605 -0.1524455,-0.15554605 -0.064911,0 -0.1170282,0.026814 -0.1508952,0.0733806 V 1.5136027 H 8.1488566 V 0.77824707 h 0.1937866 v 0.0594279 c 0.053313,-0.0464783 0.1211216,-0.0718453 0.1984375,-0.0733805 z m -2.0505208,0.00155 c 0.00573,-1.7786e-4 0.011705,0 0.01757,0 0.1072442,0 0.2100685,0.0307897 0.3017903,0.0914673 L 6.7169027,0.98288574 C 6.6364695,0.93349704 6.5643152,0.9110555 6.4895264,0.9110555 c -0.069144,0 -0.1157552,0.029497 -0.1157552,0.0718302 0,0.0409222 0.028285,0.0609188 0.1002522,0.0707968 l 0.1410767,0.021187 c 0.1439333,0.021167 0.2242757,0.096023 0.2242757,0.2103231 0,0.1396995 -0.1365724,0.2423624 -0.3214274,0.2423624 -0.1340558,-7e-7 -0.2541923,-0.034964 -0.3374471,-0.1012858 l 0.096118,-0.1286743 c 0.086078,0.057856 0.1606175,0.084749 0.2382283,0.084749 0.086078,0 0.142627,-0.031087 0.142627,-0.079065 0,-0.0381 -0.027967,-0.059366 -0.091467,-0.069246 L 6.4249308,1.2128459 C 6.2795868,1.1916793 6.2016886,1.1169216 6.2016886,0.99838867 c 0,-0.13670095 0.1112922,-0.22703052 0.2888713,-0.23254394 z M 2.624646,0.77824707 H 2.8179159 V 1.5136027 H 2.624646 Z m 2.7755412,0 H 5.593457 V 1.2061279 c 0,0.094544 0.060724,0.1550293 0.1524455,0.1550293 0.066322,0 0.1171675,-0.026814 0.1524455,-0.073381 V 0.77824707 H 6.0916178 V 1.5136027 H 5.898348 v -0.059428 c -0.055033,0.047978 -0.1253787,0.07338 -0.2072225,0.07338 -0.1707439,0 -0.2909383,-0.119956 -0.2909383,-0.2935221 z m 1.5353068,0 H 7.1287638 V 1.5136027 H 6.935494 Z M 4.0571167,0.93224284 c -0.1128886,0 -0.2036051,0.0945132 -0.2036051,0.21445716 0,0.1199444 0.089306,0.2129069 0.2036051,0.2129069 0.1142998,0 0.2046387,-0.092963 0.2046387,-0.2129069 0,-0.119944 -0.090339,-0.21445716 -0.2046387,-0.21445716 z m 3.5811768,0 c -0.1128886,0 -0.2030884,0.0945132 -0.2030884,0.21445716 0,0.1199444 0.088789,0.2129069 0.2030884,0.2129069 0.1142996,0 0.2046386,-0.092963 0.2046386,-0.2129069 0,-0.119944 -0.090339,-0.21445716 -0.2046386,-0.21445716 z m 3.4178795,0.0971517 h 0.5302 v 0.1638143 h -0.5302 z"
       sodipodi:nodetypes="cccccssssssssssssssscccccccssccssssssscsssccccccccccccccccssscccccccccccccccssssssccssscccssscssccsssccssssssssssssssssssccssccccccsssccssccssccssccsscccccccssccccccssccccccssssssssssccccc" />
  </g>
</svg>
