<?xml version="1.0" encoding="UTF-8" standalone="no"?>
<!-- Created with Inkscape (http://www.inkscape.org/) -->

<svg
   width="17mm"
   height="2mm"
   viewBox="0 0 17 2"
   version="1.1"
   id="svg3191"
   inkscape:export-filename="surface-mount.png"
   inkscape:export-xdpi="952.5"
   inkscape:export-ydpi="952.5"
   inkscape:version="1.2.1 (9c6d41e410, 2022-07-14, custom)"
   sodipodi:docname="surface-mount.svg"
   xmlns:inkscape="http://www.inkscape.org/namespaces/inkscape"
   xmlns:sodipodi="http://sodipodi.sourceforge.net/DTD/sodipodi-0.dtd"
   xmlns="http://www.w3.org/2000/svg"
   xmlns:svg="http://www.w3.org/2000/svg">
  <sodipodi:namedview
     id="namedview3193"
     pagecolor="#ffffff"
     bordercolor="#666666"
     borderopacity="1.0"
     inkscape:showpageshadow="2"
     inkscape:pageopacity="0.0"
     inkscape:pagecheckerboard="0"
     inkscape:deskcolor="#d1d1d1"
     inkscape:document-units="mm"
     showgrid="false"
     inkscape:zoom="12.414927"
     inkscape:cx="12.2836"
     inkscape:cy="0.88603018"
     inkscape:window-width="1910"
     inkscape:window-height="1007"
     inkscape:window-x="0"
     inkscape:window-y="0"
     inkscape:window-maximized="1"
     inkscape:current-layer="layer1" />
  <defs
     id="defs3188" />
  <g
     inkscape:label="Layer 1"
     inkscape:groupmode="layer"
     id="layer1">
    <path
       id="path5975"
       style="stroke-width:0.264999;stroke-miterlimit:9.99921"
       d="m 0.99993896,0.25 -0.4997111,1.5 H 16.000057 l 0.499711,-1.5 z M 3.832841,0.46250407 c 0.00548,-1.7593e-4 0.011413,0 0.017053,0 0.039511,0 0.083161,0.003935 0.1142049,0.0124023 v 0.162264 c -0.035278,-0.007056 -0.05939,-0.0113688 -0.090434,-0.0113688 -0.073378,0 -0.1100708,0.0312072 -0.1100708,0.0961182 v 0.0666626 h 0.2005045 v 0.1607137 H 3.7635946 V 1.5234212 H 3.5703247 V 0.94929606 H 3.4065104 v -0.1607137 h 0.1638143 v -0.0707967 c 0,-0.15994021 0.09251,-0.24982858 0.2625163,-0.25528157 z m 9.334314,0.0180867 c 0.06067,0 0.110071,0.0493933 0.110071,0.1100708 0,0.0592664 -0.04939,0.1100708 -0.110071,0.1100708 -0.06068,0 -0.110071,-0.0508044 -0.110071,-0.1100708 0,-0.0606775 0.04939,-0.1100708 0.110071,-0.1100708 z m 0.942578,0 c 0.06067,0 0.110071,0.0493933 0.110071,0.1100708 0,0.0592664 -0.04939,0.1100708 -0.110071,0.1100708 -0.06068,0 -0.110071,-0.0508044 -0.110071,-0.1100708 0,-0.0606775 0.04939,-0.1100708 0.110071,-0.1100708 z m -1.190625,0.0227376 V 1.5234212 h -0.190686 v -0.060461 c -0.05927,0.046567 -0.131163,0.07028 -0.208773,0.07028 -0.208845,0 -0.374137,-0.1666053 -0.374137,-0.3782714 0,-0.21166624 0.166745,-0.37672123 0.379822,-0.37672123 0.07197,0 0.140718,0.0197776 0.199987,0.0578776 V 0.5358846 Z M 1.5084351,0.5214152 c 0.1439328,0 0.2981774,0.0524153 0.4082438,0.13849284 L 1.8066081,0.81235352 C 1.700775,0.73192047 1.6017265,0.69401449 1.4944824,0.69401449 c -0.1100656,0 -0.1803507,0.0433712 -0.1803507,0.11110433 0,0.0606776 0.039477,0.0919648 0.1410766,0.10748697 l 0.1860352,0.0310059 c 0.1975545,0.0324555 0.2966227,0.12561955 0.2966227,0.27801925 0,0.1933217 -0.1640631,0.3162597 -0.4180623,0.3162597 -0.1594553,0 -0.3186497,-0.062394 -0.4371826,-0.171049 L 1.19941,1.2200806 c 0.1157108,0.1001891 0.2163302,0.1441772 0.3348633,0.1441772 0.124178,0 0.2015381,-0.04834 0.2015381,-0.1245402 0,-0.067734 -0.045142,-0.1016836 -0.162264,-0.1214396 L 1.3771769,1.0846883 C 1.2078443,1.0564661 1.1203451,0.96455468 1.1203451,0.82062174 c 0,-0.18485504 0.1482017,-0.29920654 0.38809,-0.29920654 z M 6.674528,0.5358846 H 6.9370443 L 7.2083455,1.0676351 7.47913,0.5358846 H 7.7416463 V 1.5234212 H 7.5483765 V 0.79685059 L 7.205245,1.4531413 6.8636637,0.79375 V 1.5234212 H 6.674528 Z m 4.648295,0 h 0.759127 v 0.17776693 h -0.554488 v 0.22582601 h 0.365352 V 1.1115601 h -0.365352 v 0.2340942 h 0.560172 v 0.1777669 h -0.764811 z m -0.600997,0.0211873 v 0.23151042 h 0.210323 v 0.1607137 H 10.721826 V 1.2764079 c 0,0.069144 0.02701,0.094568 0.101803,0.094568 0.03669,0 0.06474,-0.00384 0.102836,-0.016536 v 0.1591634 c -0.04092,0.012697 -0.107532,0.021187 -0.149862,0.021187 -0.163687,0 -0.248047,-0.074658 -0.248047,-0.2185913 V 0.94929606 h -0.150895 v -0.1607137 h 0.150895 V 0.60048014 Z m 2.987415,0 v 0.23151042 h 0.210323 v 0.1607137 H 13.709241 V 1.2764079 c 0,0.069144 0.0265,0.094568 0.101286,0.094568 0.03669,0 0.06525,-0.00384 0.103352,-0.016536 v 0.1591634 c -0.04092,0.012697 -0.107531,0.021187 -0.149861,0.021187 -0.163687,0 -0.248047,-0.074658 -0.248047,-0.2185913 V 0.94929606 h -0.151412 v -0.1607137 h 0.151412 V 0.60048014 Z M 3.2633667,0.77152913 c 0.00253,-6.868e-5 0.00519,0 0.00775,0 0.039511,0.001411 0.06086,0.005764 0.080615,0.0170532 v 0.16898193 c -0.028222,-0.012699 -0.063424,-0.019637 -0.098702,-0.019637 -0.0762,0 -0.1415947,0.0393762 -0.1782837,0.10852055 V 1.5234212 H 2.8814779 V 0.78858236 h 0.1932698 v 0.0816488 c 0.045111,-0.0615155 0.1101941,-0.096573 0.188619,-0.098702 z m 1.0883057,0.002584 c 0.00335,-4.987e-5 0.00699,0 0.010335,0 0.1989663,0 0.3131592,0.0987686 0.3131592,0.27233484 V 1.5234212 H 4.4844808 V 1.471228 c -0.060678,0.045155 -0.1295127,0.065112 -0.2113566,0.065112 -0.1594548,2e-7 -0.2682007,-0.091771 -0.2682007,-0.225826 0,-0.1397 0.1115292,-0.2232422 0.2992065,-0.2232422 0.0635,0 0.1239067,0.010217 0.1803508,0.029972 V 1.063501 c 0,-0.0846665 -0.052018,-0.12815758 -0.1550293,-0.12815758 -0.062089,0 -0.1311428,0.0181282 -0.2242757,0.0604614 L 4.0343791,0.8531779 c 0.1120948,-0.0519464 0.213558,-0.0775246 0.3172933,-0.0790649 z m 0.81132,0 c 0.00338,-8.17e-5 0.00694,0 0.010335,0 0.1171219,0 0.2286911,0.0480028 0.304891,0.13125813 L 5.3593628,1.0309448 c -0.053622,-0.0592665 -0.1127571,-0.0888834 -0.181901,-0.0888834 -0.1114769,0 -0.197404,0.0931019 -0.197404,0.21445724 0,0.1213551 0.087238,0.2118733 0.2015381,0.2118733 0.066322,0 0.1229721,-0.025722 0.1751831,-0.082165 L 5.4725342,1.407666 c -0.0762,0.081843 -0.186318,0.1302246 -0.2992066,0.1302246 -0.2173103,0 -0.3855061,-0.1668839 -0.3855061,-0.381372 0,-0.21113707 0.1628036,-0.37726965 0.3751709,-0.38240564 z m 3.0918009,0 c 0.00342,-8.153e-5 0.0069,0 0.010335,0 0.2201327,0 0.3922241,0.16791719 0.3922241,0.38240564 0,0.2144881 -0.1720914,0.381372 -0.3922241,0.381372 -0.2201328,0 -0.3922241,-0.1668839 -0.3922241,-0.381372 0,-0.21113707 0.1667013,-0.37726965 0.3818888,-0.38240564 z m 1.7497637,0 c 0.0025,-4.953e-5 0.0047,0 0.0072,0 0.170744,0 0.290938,0.11995596 0.290938,0.29352214 V 1.5234212 H 10.10946 V 1.0960571 c 0,-0.094544 -0.05931,-0.15554603 -0.152445,-0.15554603 -0.064911,0 -0.1170282,0.0268139 -0.1508952,0.0733805 V 1.5234212 H 9.6128499 V 0.78858236 h 0.1932699 v 0.0589111 c 0.053313,-0.0464782 0.1211216,-0.0718455 0.1984372,-0.0733805 z m 4.702039,0 c 0.0034,-8.153e-5 0.0064,0 0.0098,0 0.220133,0 0.392741,0.16791719 0.392741,0.38240564 0,0.2144881 -0.172608,0.381372 -0.392741,0.381372 -0.220131,0 -0.392224,-0.1668839 -0.392224,-0.381372 0,-0.21113707 0.167218,-0.37726965 0.382406,-0.38240564 z m 0.912606,0 c 0.0025,-4.953e-5 0.0053,0 0.0078,0 0.170744,0 0.290422,0.11995596 0.290422,0.29352214 v 0.4557861 h -0.19327 V 1.0960571 c 0,-0.094544 -0.05932,-0.15554603 -0.152446,-0.15554603 -0.0649,0 -0.117025,0.0268139 -0.150895,0.0733805 v 0.5095296 h -0.19327 V 0.78858236 h 0.19327 v 0.0589111 c 0.05331,-0.0464782 0.121128,-0.0718455 0.198438,-0.0733805 z m -9.7332564,0.00155 c 0.00329,-8.153e-5 0.00651,0 0.00982,0 0.2088439,0 0.3643188,0.16954747 0.3643188,0.39532475 v 0.050643 H 5.7154134 c 0.0254,0.090311 0.1040725,0.153479 0.2056722,0.153479 0.064911,0 0.124164,-0.020811 0.162264,-0.058911 l 0.127124,0.1157552 c -0.090311,0.073379 -0.1806734,0.1059367 -0.2992065,0.1059367 -0.2215439,3e-7 -0.3937744,-0.1668839 -0.3937744,-0.381372 0,-0.20974801 0.1615124,-0.37571936 0.3684529,-0.38085535 z M 2.039152,0.78858236 H 2.2324219 V 1.2159465 c 0,0.094544 0.060723,0.1550292 0.1524455,0.1550292 0.066321,0 0.1171675,-0.026814 0.1524454,-0.073381 V 0.78858236 H 2.7305827 V 1.5234212 H 2.5373128 v -0.058911 c -0.055033,0.047978 -0.1253785,0.073381 -0.2072225,0.073381 -0.1707439,0 -0.2909383,-0.119956 -0.2909383,-0.2935221 z m 6.7308553,0 H 8.9637939 V 1.2159465 c 0,0.094544 0.060207,0.1550292 0.1519288,0.1550292 0.066321,0 0.1171675,-0.026814 0.1524454,-0.073381 V 0.78858236 H 9.461438 V 1.5234212 H 9.2681681 v -0.058911 c -0.055033,0.047978 -0.1253785,0.073381 -0.2072225,0.073381 -0.1707439,0 -0.2909383,-0.119956 -0.2909383,-0.2935221 z m 4.3010297,0 h 0.193786 V 1.5234212 h -0.193786 z m 0.943095,0 h 0.19327 V 1.5234212 h -0.19327 z M 5.8833618,0.93534342 c -0.084899,0.003479 -0.150544,0.060306 -0.171049,0.14779458 H 6.069397 C 6.0482304,0.99564943 5.977708,0.93534342 5.89163,0.93534342 c -0.00278,0 -0.00553,-1.1222e-4 -0.00827,0 z m 2.3817668,0.006718 c -0.1128883,0 -0.2030884,0.094513 -0.2030884,0.21445724 0,0.1199444 0.088789,0.2134236 0.2030884,0.2134236 0.1142996,0 0.2046387,-0.09348 0.2046387,-0.2134236 0,-0.1199443 -0.090339,-0.21445724 -0.2046387,-0.21445724 z m 4.2855264,0 c -0.121357,2.8e-7 -0.214457,0.0915516 -0.214457,0.21290694 0,0.1199444 0.0931,0.2134236 0.214457,0.2134236 0.07056,0 0.130926,-0.02423 0.174666,-0.070797 V 1.0113078 c -0.04233,-0.0437443 -0.105526,-0.0692464 -0.174666,-0.0692464 z m 2.165759,0 c -0.112887,0 -0.203088,0.094513 -0.203088,0.21445724 0,0.1199444 0.08879,0.2134236 0.203088,0.2134236 0.114299,0 0.204639,-0.09348 0.204639,-0.2134236 0,-0.1199443 -0.09034,-0.21445724 -0.204639,-0.21445724 z M 4.3211833,1.2143962 c -0.083885,0.00212 -0.1328085,0.037304 -0.1328085,0.091984 0,0.056444 0.051998,0.091467 0.133842,0.091467 0.0635,0 0.11852,-0.015603 0.162264,-0.048059 V 1.2428182 c -0.047978,-0.019752 -0.098585,-0.028422 -0.1550293,-0.028422 -0.00278,0 -0.00556,-6.85e-5 -0.00827,0 z"
       sodipodi:nodetypes="cccccssccssccccccccccssssssssssssccccssscccsccssccssccssccsscccccccccccccccccccccccccccccccssccsscccccccccccssccssccccccscccsccccccsssscccssscssccsssccsssccssssssssssssccssccccccssssssssssccssccccccssssccsccsssccssccccccsscccssccccccssccccccccccccccscssssssssccsssssscssccsc" />
  </g>
</svg>
