G04 #@! TF.GenerationSoftware,KiCad,Pcbnew,(6.0.5)*
G04 #@! TF.CreationDate,2022-08-03T23:35:42+05:30*
G04 #@! TF.ProjectId,picofusion,7069636f-6675-4736-996f-6e2e6b696361,rev?*
G04 #@! TF.SameCoordinates,Original*
G04 #@! TF.FileFunction,Copper,L2,Inr*
G04 #@! TF.FilePolarity,Positive*
%FSLAX46Y46*%
G04 Gerber Fmt 4.6, Leading zero omitted, Abs format (unit mm)*
G04 Created by KiCad (PCBNEW (6.0.5)) date 2022-08-03 23:35:42*
%MOMM*%
%LPD*%
G01*
G04 APERTURE LIST*
G04 #@! TA.AperFunction,ComponentPad*
%ADD10C,1.350000*%
G04 #@! TD*
G04 #@! TA.AperFunction,ComponentPad*
%ADD11O,1.350000X1.350000*%
G04 #@! TD*
G04 #@! TA.AperFunction,ComponentPad*
%ADD12C,0.600000*%
G04 #@! TD*
G04 #@! TA.AperFunction,ViaPad*
%ADD13C,0.600000*%
G04 #@! TD*
G04 APERTURE END LIST*
D10*
G04 #@! TO.N,+5V*
G04 #@! TO.C,J4*
X151110000Y-52750000D03*
X151110000Y-51250000D03*
D11*
G04 #@! TO.N,/IMU_HEATER*
X153650000Y-52750000D03*
X153650000Y-51250000D03*
G04 #@! TO.N,/BUZZER*
X156190000Y-51226000D03*
X156190000Y-52726000D03*
G04 #@! TO.N,/UART0_TX_TELEM*
X158730000Y-51250000D03*
X158730000Y-52750000D03*
G04 #@! TO.N,/UART0_RX_TELEM*
X161270000Y-51250000D03*
X161270000Y-52750000D03*
G04 #@! TO.N,/UART0_CTS_TELEM*
X163810000Y-51250000D03*
X163810000Y-52750000D03*
G04 #@! TO.N,/UART0_RTS_TELEM*
X166350000Y-52750000D03*
X166350000Y-51250000D03*
G04 #@! TO.N,GND*
X168890000Y-52750000D03*
X168890000Y-51250000D03*
G04 #@! TD*
D10*
G04 #@! TO.N,/SPI1_POCI_SD*
G04 #@! TO.C,J2*
X171250000Y-31110000D03*
X172750000Y-31110000D03*
D11*
G04 #@! TO.N,/SPI1_nCS_SD*
X172750000Y-33650000D03*
X171250000Y-33650000D03*
G04 #@! TO.N,/SPI1_SCK_SD*
X172774000Y-36190000D03*
X171274000Y-36190000D03*
G04 #@! TO.N,/SPI1_PICO_SD*
X172750000Y-38730000D03*
X171250000Y-38730000D03*
G04 #@! TO.N,/SD_nCD*
X172750000Y-41270000D03*
X171250000Y-41270000D03*
G04 #@! TO.N,/UART1_RX_GNSS*
X172750000Y-43810000D03*
X171250000Y-43810000D03*
G04 #@! TO.N,/UART1_TX_GNSS*
X172750000Y-46350000D03*
X171250000Y-46350000D03*
G04 #@! TO.N,GND*
X172750000Y-48890000D03*
X171250000Y-48890000D03*
G04 #@! TD*
D10*
G04 #@! TO.N,unconnected-(J3-Pad1)*
G04 #@! TO.C,J3*
X147250000Y-31110000D03*
X148750000Y-31110000D03*
D11*
G04 #@! TO.N,unconnected-(J3-Pad2)*
X147250000Y-33650000D03*
X148750000Y-33650000D03*
G04 #@! TO.N,unconnected-(J3-Pad3)*
X148774000Y-36190000D03*
X147274000Y-36190000D03*
G04 #@! TO.N,GND*
X147250000Y-38730000D03*
X148750000Y-38730000D03*
G04 #@! TO.N,+3V3*
X148750000Y-41270000D03*
X147250000Y-41270000D03*
G04 #@! TO.N,/CAN_P*
X148750000Y-43810000D03*
X147250000Y-43810000D03*
G04 #@! TO.N,/CAN_N*
X147250000Y-46350000D03*
X148750000Y-46350000D03*
G04 #@! TO.N,GND*
X147250000Y-48890000D03*
X148750000Y-48890000D03*
G04 #@! TD*
D10*
G04 #@! TO.N,/SWCLK*
G04 #@! TO.C,J1*
X151110000Y-27250000D03*
X151110000Y-28750000D03*
D11*
G04 #@! TO.N,/SWDIO*
X153650000Y-28750000D03*
X153650000Y-27250000D03*
G04 #@! TO.N,/RUN*
X156190000Y-27226000D03*
X156190000Y-28726000D03*
G04 #@! TO.N,GND*
X158730000Y-27250000D03*
X158730000Y-28750000D03*
G04 #@! TO.N,/USB_DP*
X161270000Y-27250000D03*
X161270000Y-28750000D03*
G04 #@! TO.N,/USB_DN*
X163810000Y-28750000D03*
X163810000Y-27250000D03*
G04 #@! TO.N,+5V*
X166350000Y-28750000D03*
X166350000Y-27250000D03*
G04 #@! TO.N,GND*
X168890000Y-27250000D03*
X168890000Y-28750000D03*
G04 #@! TD*
D12*
G04 #@! TO.N,GND*
G04 #@! TO.C,U2*
X162625000Y-44437500D03*
X165175000Y-44437500D03*
X162625000Y-41887500D03*
X162625000Y-43162500D03*
X163900000Y-43162500D03*
X165175000Y-41887500D03*
X163900000Y-41887500D03*
X163900000Y-44437500D03*
X165175000Y-43162500D03*
G04 #@! TD*
D13*
G04 #@! TO.N,+1V1*
X164500000Y-40589000D03*
X163370400Y-45380400D03*
G04 #@! TO.N,/SPI0_POCI*
X157500000Y-37066500D03*
X153898705Y-36107122D03*
G04 #@! TO.N,/UART0_TX_TELEM*
X165900000Y-47600000D03*
G04 #@! TO.N,/UART0_RX_TELEM*
X166700000Y-47600000D03*
G04 #@! TO.N,/UART1_TX_GNSS*
X166400000Y-45126503D03*
G04 #@! TO.N,/UART1_RX_GNSS*
X166400000Y-44400000D03*
G04 #@! TO.N,/USB_DP*
X165163750Y-33801333D03*
G04 #@! TO.N,/USB_DN*
X166013750Y-33801333D03*
G04 #@! TO.N,/IMU_HEATER*
X159550954Y-45556081D03*
G04 #@! TO.N,/SPI0_SCK*
X154300000Y-37750000D03*
X154300000Y-40900000D03*
G04 #@! TO.N,/I2C0_SDA*
X153400000Y-33600000D03*
X161500000Y-42400000D03*
X158400000Y-34076503D03*
G04 #@! TO.N,/I2C0_SCL*
X152350000Y-32650000D03*
X158400000Y-33350000D03*
X161500000Y-43126503D03*
G04 #@! TO.N,/BUZZER*
X161700000Y-45825699D03*
G04 #@! TO.N,/PIO0_CAN_TX*
X161500000Y-45129509D03*
X154398000Y-47102000D03*
G04 #@! TO.N,/PIO0_CAN_RX*
X155100000Y-46600000D03*
X161500000Y-44403006D03*
G04 #@! TO.N,/SPI0_PICO*
X153573513Y-37754758D03*
X157145385Y-41454615D03*
G04 #@! TO.N,/CAN_N*
X153835000Y-44300000D03*
G04 #@! TO.N,/CAN_P*
X152565000Y-44300000D03*
G04 #@! TO.N,/SPI1_POCI_SD*
X166500000Y-42962500D03*
G04 #@! TD*
M02*
