G04 #@! TF.GenerationSoftware,KiCad,Pcbnew,(6.0.5)*
G04 #@! TF.CreationDate,2022-08-03T23:35:42+05:30*
G04 #@! TF.ProjectId,picofusion,7069636f-6675-4736-996f-6e2e6b696361,rev?*
G04 #@! TF.SameCoordinates,Original*
G04 #@! TF.FileFunction,Soldermask,Bot*
G04 #@! TF.FilePolarity,Negative*
%FSLAX46Y46*%
G04 Gerber Fmt 4.6, Leading zero omitted, Abs format (unit mm)*
G04 Created by KiCad (PCBNEW (6.0.5)) date 2022-08-03 23:35:42*
%MOMM*%
%LPD*%
G01*
G04 APERTURE LIST*
%ADD10C,1.350000*%
%ADD11R,1.600000X3.000000*%
%ADD12O,1.350000X1.350000*%
%ADD13R,3.000000X1.600000*%
%ADD14R,1.000000X1.000000*%
G04 APERTURE END LIST*
D10*
G04 #@! TO.C,J4*
X151110000Y-52750000D03*
D11*
X151110000Y-52000000D03*
D10*
X151110000Y-51250000D03*
D11*
X153650000Y-52000000D03*
D12*
X153650000Y-52750000D03*
X153650000Y-51250000D03*
X156190000Y-51226000D03*
X156190000Y-52726000D03*
D11*
X156190000Y-51976000D03*
D12*
X158730000Y-51250000D03*
X158730000Y-52750000D03*
D11*
X158730000Y-52000000D03*
D12*
X161270000Y-51250000D03*
D11*
X161270000Y-52000000D03*
D12*
X161270000Y-52750000D03*
D11*
X163810000Y-52000000D03*
D12*
X163810000Y-51250000D03*
X163810000Y-52750000D03*
X166350000Y-52750000D03*
D11*
X166350000Y-52000000D03*
D12*
X166350000Y-51250000D03*
X168890000Y-52750000D03*
X168890000Y-51250000D03*
D11*
X168890000Y-52000000D03*
G04 #@! TD*
D10*
G04 #@! TO.C,J2*
X171250000Y-31110000D03*
X172750000Y-31110000D03*
D13*
X172000000Y-31110000D03*
X172000000Y-33650000D03*
D12*
X172750000Y-33650000D03*
X171250000Y-33650000D03*
X172774000Y-36190000D03*
X171274000Y-36190000D03*
D13*
X172024000Y-36190000D03*
D12*
X172750000Y-38730000D03*
X171250000Y-38730000D03*
D13*
X172000000Y-38730000D03*
D12*
X172750000Y-41270000D03*
X171250000Y-41270000D03*
D13*
X172000000Y-41270000D03*
D12*
X172750000Y-43810000D03*
D13*
X172000000Y-43810000D03*
D12*
X171250000Y-43810000D03*
D13*
X172000000Y-46350000D03*
D12*
X172750000Y-46350000D03*
X171250000Y-46350000D03*
D13*
X172000000Y-48890000D03*
D12*
X172750000Y-48890000D03*
X171250000Y-48890000D03*
G04 #@! TD*
D13*
G04 #@! TO.C,J3*
X148000000Y-31110000D03*
D10*
X147250000Y-31110000D03*
X148750000Y-31110000D03*
D12*
X147250000Y-33650000D03*
D13*
X148000000Y-33650000D03*
D12*
X148750000Y-33650000D03*
X148774000Y-36190000D03*
X147274000Y-36190000D03*
D13*
X148024000Y-36190000D03*
D12*
X147250000Y-38730000D03*
X148750000Y-38730000D03*
D13*
X148000000Y-38730000D03*
X148000000Y-41270000D03*
D12*
X148750000Y-41270000D03*
X147250000Y-41270000D03*
D13*
X148000000Y-43810000D03*
D12*
X148750000Y-43810000D03*
X147250000Y-43810000D03*
X147250000Y-46350000D03*
X148750000Y-46350000D03*
D13*
X148000000Y-46350000D03*
X148000000Y-48890000D03*
D12*
X147250000Y-48890000D03*
X148750000Y-48890000D03*
G04 #@! TD*
D10*
G04 #@! TO.C,J1*
X151110000Y-27250000D03*
X151110000Y-28750000D03*
D11*
X151110000Y-28000000D03*
D12*
X153650000Y-28750000D03*
D11*
X153650000Y-28000000D03*
D12*
X153650000Y-27250000D03*
X156190000Y-27226000D03*
D11*
X156190000Y-27976000D03*
D12*
X156190000Y-28726000D03*
X158730000Y-27250000D03*
X158730000Y-28750000D03*
D11*
X158730000Y-28000000D03*
X161270000Y-28000000D03*
D12*
X161270000Y-27250000D03*
X161270000Y-28750000D03*
X163810000Y-28750000D03*
X163810000Y-27250000D03*
D11*
X163810000Y-28000000D03*
X166350000Y-28000000D03*
D12*
X166350000Y-28750000D03*
X166350000Y-27250000D03*
X168890000Y-27250000D03*
D11*
X168890000Y-28000000D03*
D12*
X168890000Y-28750000D03*
G04 #@! TD*
D14*
G04 #@! TO.C,TP1*
X163400000Y-35700000D03*
G04 #@! TD*
G04 #@! TO.C,3V3*
X167100000Y-32400000D03*
G04 #@! TD*
M02*
