G04 #@! TF.GenerationSoftware,KiCad,Pcbnew,(6.0.5)*
G04 #@! TF.CreationDate,2022-08-03T23:35:42+05:30*
G04 #@! TF.ProjectId,picofusion,7069636f-6675-4736-996f-6e2e6b696361,rev?*
G04 #@! TF.SameCoordinates,Original*
G04 #@! TF.FileFunction,Copper,L1,Top*
G04 #@! TF.FilePolarity,Positive*
%FSLAX46Y46*%
G04 Gerber Fmt 4.6, Leading zero omitted, Abs format (unit mm)*
G04 Created by KiCad (PCBNEW (6.0.5)) date 2022-08-03 23:35:42*
%MOMM*%
%LPD*%
G01*
G04 APERTURE LIST*
G04 Aperture macros list*
%AMRoundRect*
0 Rectangle with rounded corners*
0 $1 Rounding radius*
0 $2 $3 $4 $5 $6 $7 $8 $9 X,Y pos of 4 corners*
0 Add a 4 corners polygon primitive as box body*
4,1,4,$2,$3,$4,$5,$6,$7,$8,$9,$2,$3,0*
0 Add four circle primitives for the rounded corners*
1,1,$1+$1,$2,$3*
1,1,$1+$1,$4,$5*
1,1,$1+$1,$6,$7*
1,1,$1+$1,$8,$9*
0 Add four rect primitives between the rounded corners*
20,1,$1+$1,$2,$3,$4,$5,0*
20,1,$1+$1,$4,$5,$6,$7,0*
20,1,$1+$1,$6,$7,$8,$9,0*
20,1,$1+$1,$8,$9,$2,$3,0*%
%AMRotRect*
0 Rectangle, with rotation*
0 The origin of the aperture is its center*
0 $1 length*
0 $2 width*
0 $3 Rotation angle, in degrees counterclockwise*
0 Add horizontal line*
21,1,$1,$2,0,0,$3*%
%AMFreePoly0*
4,1,48,0.036020,0.199191,0.037970,0.199714,0.040958,0.198321,0.057086,0.195477,0.069630,0.184951,0.084467,0.178033,0.290533,-0.028033,0.293203,-0.031847,0.294953,-0.032857,0.296081,-0.035957,0.305473,-0.049370,0.306900,-0.065680,0.312500,-0.081066,0.312500,-0.125000,0.310782,-0.134742,0.311361,-0.138024,0.309695,-0.140910,0.307977,-0.150652,0.295451,-0.165579,0.285709,-0.182453,
0.279350,-0.184767,0.275000,-0.189952,0.255809,-0.193336,0.237500,-0.200000,-0.237500,-0.200000,-0.247242,-0.198282,-0.250524,-0.198861,-0.253410,-0.197195,-0.263152,-0.195477,-0.278079,-0.182951,-0.294953,-0.173209,-0.297267,-0.166850,-0.302452,-0.162500,-0.305836,-0.143309,-0.312500,-0.125000,-0.312500,0.125000,-0.310782,0.134742,-0.311361,0.138024,-0.309695,0.140910,-0.307977,0.150652,
-0.295451,0.165579,-0.285709,0.182453,-0.279350,0.184767,-0.275000,0.189952,-0.255809,0.193336,-0.237500,0.200000,0.031434,0.200000,0.036020,0.199191,0.036020,0.199191,$1*%
%AMFreePoly1*
4,1,48,0.247242,0.198282,0.250524,0.198861,0.253410,0.197195,0.263152,0.195477,0.278079,0.182951,0.294953,0.173209,0.297267,0.166850,0.302452,0.162500,0.305836,0.143309,0.312500,0.125000,0.312500,0.081066,0.311691,0.076480,0.312214,0.074529,0.310820,0.071540,0.307977,0.055414,0.297452,0.042871,0.290533,0.028033,0.084467,-0.178033,0.080653,-0.180703,0.079643,-0.182453,
0.076543,-0.183581,0.063130,-0.192973,0.046819,-0.194400,0.031434,-0.200000,-0.237500,-0.200000,-0.247242,-0.198282,-0.250524,-0.198861,-0.253410,-0.197195,-0.263152,-0.195477,-0.278079,-0.182951,-0.294953,-0.173209,-0.297267,-0.166850,-0.302452,-0.162500,-0.305836,-0.143309,-0.312500,-0.125000,-0.312500,0.125000,-0.310782,0.134742,-0.311361,0.138024,-0.309695,0.140910,-0.307977,0.150652,
-0.295451,0.165579,-0.285709,0.182453,-0.279350,0.184767,-0.275000,0.189952,-0.255809,0.193336,-0.237500,0.200000,0.237500,0.200000,0.247242,0.198282,0.247242,0.198282,$1*%
%AMFreePoly2*
4,1,48,0.134742,0.310782,0.138024,0.311361,0.140910,0.309695,0.150652,0.307977,0.165579,0.295451,0.182453,0.285709,0.184767,0.279350,0.189952,0.275000,0.193336,0.255809,0.200000,0.237500,0.200000,-0.237500,0.198282,-0.247242,0.198861,-0.250524,0.197195,-0.253410,0.195477,-0.263152,0.182951,-0.278079,0.173209,-0.294953,0.166850,-0.297267,0.162500,-0.302452,0.143309,-0.305836,
0.125000,-0.312500,-0.125000,-0.312500,-0.134742,-0.310782,-0.138024,-0.311361,-0.140910,-0.309695,-0.150652,-0.307977,-0.165579,-0.295451,-0.182453,-0.285709,-0.184767,-0.279350,-0.189952,-0.275000,-0.193336,-0.255809,-0.200000,-0.237500,-0.200000,0.031434,-0.199191,0.036020,-0.199714,0.037970,-0.198321,0.040958,-0.195477,0.057086,-0.184951,0.069630,-0.178033,0.084467,0.028033,0.290533,
0.031847,0.293203,0.032857,0.294953,0.035957,0.296081,0.049370,0.305473,0.065680,0.306900,0.081066,0.312500,0.125000,0.312500,0.134742,0.310782,0.134742,0.310782,$1*%
%AMFreePoly3*
4,1,48,-0.076480,0.311691,-0.074530,0.312214,-0.071542,0.310821,-0.055414,0.307977,-0.042870,0.297451,-0.028033,0.290533,0.178033,0.084467,0.180703,0.080653,0.182453,0.079643,0.183581,0.076543,0.192973,0.063130,0.194400,0.046820,0.200000,0.031434,0.200000,-0.237500,0.198282,-0.247242,0.198861,-0.250524,0.197195,-0.253410,0.195477,-0.263152,0.182951,-0.278079,0.173209,-0.294953,
0.166850,-0.297267,0.162500,-0.302452,0.143309,-0.305836,0.125000,-0.312500,-0.125000,-0.312500,-0.134742,-0.310782,-0.138024,-0.311361,-0.140910,-0.309695,-0.150652,-0.307977,-0.165579,-0.295451,-0.182453,-0.285709,-0.184767,-0.279350,-0.189952,-0.275000,-0.193336,-0.255809,-0.200000,-0.237500,-0.200000,0.237500,-0.198282,0.247242,-0.198861,0.250524,-0.197195,0.253410,-0.195477,0.263152,
-0.182951,0.278079,-0.173209,0.294953,-0.166850,0.297267,-0.162500,0.302452,-0.143309,0.305836,-0.125000,0.312500,-0.081066,0.312500,-0.076480,0.311691,-0.076480,0.311691,$1*%
%AMFreePoly4*
4,1,48,0.247242,0.198282,0.250524,0.198861,0.253410,0.197195,0.263152,0.195477,0.278079,0.182951,0.294953,0.173209,0.297267,0.166850,0.302452,0.162500,0.305836,0.143309,0.312500,0.125000,0.312500,-0.125000,0.310782,-0.134742,0.311361,-0.138024,0.309695,-0.140910,0.307977,-0.150652,0.295451,-0.165579,0.285709,-0.182453,0.279350,-0.184767,0.275000,-0.189952,0.255809,-0.193336,
0.237500,-0.200000,-0.031434,-0.200000,-0.036020,-0.199191,-0.037971,-0.199714,-0.040960,-0.198320,-0.057086,-0.195477,-0.069629,-0.184952,-0.084467,-0.178033,-0.290533,0.028033,-0.293203,0.031847,-0.294953,0.032857,-0.296081,0.035957,-0.305473,0.049370,-0.306900,0.065681,-0.312500,0.081066,-0.312500,0.125000,-0.310782,0.134742,-0.311361,0.138024,-0.309695,0.140910,-0.307977,0.150652,
-0.295451,0.165579,-0.285709,0.182453,-0.279350,0.184767,-0.275000,0.189952,-0.255809,0.193336,-0.237500,0.200000,0.237500,0.200000,0.247242,0.198282,0.247242,0.198282,$1*%
%AMFreePoly5*
4,1,48,0.247242,0.198282,0.250524,0.198861,0.253410,0.197195,0.263152,0.195477,0.278079,0.182951,0.294953,0.173209,0.297267,0.166850,0.302452,0.162500,0.305836,0.143309,0.312500,0.125000,0.312500,-0.125000,0.310782,-0.134742,0.311361,-0.138024,0.309695,-0.140910,0.307977,-0.150652,0.295451,-0.165579,0.285709,-0.182453,0.279350,-0.184767,0.275000,-0.189952,0.255809,-0.193336,
0.237500,-0.200000,-0.237500,-0.200000,-0.247242,-0.198282,-0.250524,-0.198861,-0.253410,-0.197195,-0.263152,-0.195477,-0.278079,-0.182951,-0.294953,-0.173209,-0.297267,-0.166850,-0.302452,-0.162500,-0.305836,-0.143309,-0.312500,-0.125000,-0.312500,-0.081066,-0.311691,-0.076480,-0.312214,-0.074530,-0.310821,-0.071542,-0.307977,-0.055414,-0.297451,-0.042870,-0.290533,-0.028033,-0.084467,0.178033,
-0.080653,0.180703,-0.079643,0.182453,-0.076543,0.183581,-0.063130,0.192973,-0.046820,0.194400,-0.031434,0.200000,0.237500,0.200000,0.247242,0.198282,0.247242,0.198282,$1*%
%AMFreePoly6*
4,1,48,0.134742,0.310782,0.138024,0.311361,0.140910,0.309695,0.150652,0.307977,0.165579,0.295451,0.182453,0.285709,0.184767,0.279350,0.189952,0.275000,0.193336,0.255809,0.200000,0.237500,0.200000,-0.031434,0.199191,-0.036020,0.199714,-0.037971,0.198320,-0.040960,0.195477,-0.057086,0.184952,-0.069629,0.178033,-0.084467,-0.028033,-0.290533,-0.031847,-0.293203,-0.032857,-0.294953,
-0.035957,-0.296081,-0.049370,-0.305473,-0.065681,-0.306900,-0.081066,-0.312500,-0.125000,-0.312500,-0.134742,-0.310782,-0.138024,-0.311361,-0.140910,-0.309695,-0.150652,-0.307977,-0.165579,-0.295451,-0.182453,-0.285709,-0.184767,-0.279350,-0.189952,-0.275000,-0.193336,-0.255809,-0.200000,-0.237500,-0.200000,0.237500,-0.198282,0.247242,-0.198861,0.250524,-0.197195,0.253410,-0.195477,0.263152,
-0.182951,0.278079,-0.173209,0.294953,-0.166850,0.297267,-0.162500,0.302452,-0.143309,0.305836,-0.125000,0.312500,0.125000,0.312500,0.134742,0.310782,0.134742,0.310782,$1*%
%AMFreePoly7*
4,1,48,0.134742,0.310782,0.138024,0.311361,0.140910,0.309695,0.150652,0.307977,0.165579,0.295451,0.182453,0.285709,0.184767,0.279350,0.189952,0.275000,0.193336,0.255809,0.200000,0.237500,0.200000,-0.237500,0.198282,-0.247242,0.198861,-0.250524,0.197195,-0.253410,0.195477,-0.263152,0.182951,-0.278079,0.173209,-0.294953,0.166850,-0.297267,0.162500,-0.302452,0.143309,-0.305836,
0.125000,-0.312500,0.081066,-0.312500,0.076480,-0.311691,0.074529,-0.312214,0.071540,-0.310820,0.055414,-0.307977,0.042871,-0.297452,0.028033,-0.290533,-0.178033,-0.084467,-0.180703,-0.080653,-0.182453,-0.079643,-0.183581,-0.076543,-0.192973,-0.063130,-0.194400,-0.046819,-0.200000,-0.031434,-0.200000,0.237500,-0.198282,0.247242,-0.198861,0.250524,-0.197195,0.253410,-0.195477,0.263152,
-0.182951,0.278079,-0.173209,0.294953,-0.166850,0.297267,-0.162500,0.302452,-0.143309,0.305836,-0.125000,0.312500,0.125000,0.312500,0.134742,0.310782,0.134742,0.310782,$1*%
%AMFreePoly8*
4,1,6,0.230000,0.054289,0.020711,-0.155000,-0.230000,-0.155000,-0.230000,0.155000,0.230000,0.155000,0.230000,0.054289,0.230000,0.054289,$1*%
%AMFreePoly9*
4,1,6,0.230000,-0.054289,0.230000,-0.155000,-0.230000,-0.155000,-0.230000,0.155000,0.020711,0.155000,0.230000,-0.054289,0.230000,-0.054289,$1*%
%AMFreePoly10*
4,1,6,0.230000,-0.155000,-0.230000,-0.155000,-0.230000,-0.054289,-0.020711,0.155000,0.230000,0.155000,0.230000,-0.155000,0.230000,-0.155000,$1*%
%AMFreePoly11*
4,1,6,0.230000,-0.155000,-0.020711,-0.155000,-0.230000,0.054289,-0.230000,0.155000,0.230000,0.155000,0.230000,-0.155000,0.230000,-0.155000,$1*%
G04 Aperture macros list end*
G04 #@! TA.AperFunction,SMDPad,CuDef*
%ADD10RoundRect,0.140000X-0.140000X-0.170000X0.140000X-0.170000X0.140000X0.170000X-0.140000X0.170000X0*%
G04 #@! TD*
G04 #@! TA.AperFunction,SMDPad,CuDef*
%ADD11RoundRect,0.135000X-0.135000X-0.185000X0.135000X-0.185000X0.135000X0.185000X-0.135000X0.185000X0*%
G04 #@! TD*
G04 #@! TA.AperFunction,SMDPad,CuDef*
%ADD12RoundRect,0.140000X0.170000X-0.140000X0.170000X0.140000X-0.170000X0.140000X-0.170000X-0.140000X0*%
G04 #@! TD*
G04 #@! TA.AperFunction,SMDPad,CuDef*
%ADD13RoundRect,0.147500X0.147500X0.172500X-0.147500X0.172500X-0.147500X-0.172500X0.147500X-0.172500X0*%
G04 #@! TD*
G04 #@! TA.AperFunction,SMDPad,CuDef*
%ADD14R,0.600000X0.700000*%
G04 #@! TD*
G04 #@! TA.AperFunction,SMDPad,CuDef*
%ADD15R,1.600000X0.200000*%
G04 #@! TD*
G04 #@! TA.AperFunction,SMDPad,CuDef*
%ADD16R,0.250000X0.300000*%
G04 #@! TD*
G04 #@! TA.AperFunction,ComponentPad*
%ADD17C,1.350000*%
G04 #@! TD*
G04 #@! TA.AperFunction,SMDPad,CuDef*
%ADD18R,1.600000X3.000000*%
G04 #@! TD*
G04 #@! TA.AperFunction,ComponentPad*
%ADD19O,1.350000X1.350000*%
G04 #@! TD*
G04 #@! TA.AperFunction,SMDPad,CuDef*
%ADD20RoundRect,0.140000X-0.170000X0.140000X-0.170000X-0.140000X0.170000X-0.140000X0.170000X0.140000X0*%
G04 #@! TD*
G04 #@! TA.AperFunction,SMDPad,CuDef*
%ADD21R,0.450000X0.300000*%
G04 #@! TD*
G04 #@! TA.AperFunction,SMDPad,CuDef*
%ADD22R,0.300000X0.450000*%
G04 #@! TD*
G04 #@! TA.AperFunction,SMDPad,CuDef*
%ADD23FreePoly0,0.000000*%
G04 #@! TD*
G04 #@! TA.AperFunction,SMDPad,CuDef*
%ADD24RoundRect,0.100000X-0.212500X-0.100000X0.212500X-0.100000X0.212500X0.100000X-0.212500X0.100000X0*%
G04 #@! TD*
G04 #@! TA.AperFunction,SMDPad,CuDef*
%ADD25FreePoly1,0.000000*%
G04 #@! TD*
G04 #@! TA.AperFunction,SMDPad,CuDef*
%ADD26FreePoly2,0.000000*%
G04 #@! TD*
G04 #@! TA.AperFunction,SMDPad,CuDef*
%ADD27RoundRect,0.100000X-0.100000X-0.212500X0.100000X-0.212500X0.100000X0.212500X-0.100000X0.212500X0*%
G04 #@! TD*
G04 #@! TA.AperFunction,SMDPad,CuDef*
%ADD28FreePoly3,0.000000*%
G04 #@! TD*
G04 #@! TA.AperFunction,SMDPad,CuDef*
%ADD29FreePoly4,0.000000*%
G04 #@! TD*
G04 #@! TA.AperFunction,SMDPad,CuDef*
%ADD30FreePoly5,0.000000*%
G04 #@! TD*
G04 #@! TA.AperFunction,SMDPad,CuDef*
%ADD31FreePoly6,0.000000*%
G04 #@! TD*
G04 #@! TA.AperFunction,SMDPad,CuDef*
%ADD32FreePoly7,0.000000*%
G04 #@! TD*
G04 #@! TA.AperFunction,SMDPad,CuDef*
%ADD33R,3.000000X1.600000*%
G04 #@! TD*
G04 #@! TA.AperFunction,SMDPad,CuDef*
%ADD34RoundRect,0.135000X0.185000X-0.135000X0.185000X0.135000X-0.185000X0.135000X-0.185000X-0.135000X0*%
G04 #@! TD*
G04 #@! TA.AperFunction,SMDPad,CuDef*
%ADD35FreePoly8,0.000000*%
G04 #@! TD*
G04 #@! TA.AperFunction,SMDPad,CuDef*
%ADD36FreePoly9,0.000000*%
G04 #@! TD*
G04 #@! TA.AperFunction,SMDPad,CuDef*
%ADD37FreePoly10,0.000000*%
G04 #@! TD*
G04 #@! TA.AperFunction,SMDPad,CuDef*
%ADD38FreePoly11,0.000000*%
G04 #@! TD*
G04 #@! TA.AperFunction,SMDPad,CuDef*
%ADD39RotRect,0.580000X0.580000X45.000000*%
G04 #@! TD*
G04 #@! TA.AperFunction,SMDPad,CuDef*
%ADD40RoundRect,0.014000X-0.181000X-0.161000X0.181000X-0.161000X0.181000X0.161000X-0.181000X0.161000X0*%
G04 #@! TD*
G04 #@! TA.AperFunction,SMDPad,CuDef*
%ADD41RoundRect,0.017500X-0.157500X-0.177500X0.157500X-0.177500X0.157500X0.177500X-0.157500X0.177500X0*%
G04 #@! TD*
G04 #@! TA.AperFunction,SMDPad,CuDef*
%ADD42RoundRect,0.135000X-0.185000X0.135000X-0.185000X-0.135000X0.185000X-0.135000X0.185000X0.135000X0*%
G04 #@! TD*
G04 #@! TA.AperFunction,SMDPad,CuDef*
%ADD43RoundRect,0.135000X0.135000X0.185000X-0.135000X0.185000X-0.135000X-0.185000X0.135000X-0.185000X0*%
G04 #@! TD*
G04 #@! TA.AperFunction,SMDPad,CuDef*
%ADD44R,1.000000X1.150000*%
G04 #@! TD*
G04 #@! TA.AperFunction,SMDPad,CuDef*
%ADD45RoundRect,0.140000X0.140000X0.170000X-0.140000X0.170000X-0.140000X-0.170000X0.140000X-0.170000X0*%
G04 #@! TD*
G04 #@! TA.AperFunction,SMDPad,CuDef*
%ADD46RoundRect,0.150000X0.150000X-0.675000X0.150000X0.675000X-0.150000X0.675000X-0.150000X-0.675000X0*%
G04 #@! TD*
G04 #@! TA.AperFunction,SMDPad,CuDef*
%ADD47RoundRect,0.050000X-0.387500X-0.050000X0.387500X-0.050000X0.387500X0.050000X-0.387500X0.050000X0*%
G04 #@! TD*
G04 #@! TA.AperFunction,SMDPad,CuDef*
%ADD48RoundRect,0.050000X-0.050000X-0.387500X0.050000X-0.387500X0.050000X0.387500X-0.050000X0.387500X0*%
G04 #@! TD*
G04 #@! TA.AperFunction,ComponentPad*
%ADD49C,0.600000*%
G04 #@! TD*
G04 #@! TA.AperFunction,SMDPad,CuDef*
%ADD50RoundRect,0.144000X-1.456000X-1.456000X1.456000X-1.456000X1.456000X1.456000X-1.456000X1.456000X0*%
G04 #@! TD*
G04 #@! TA.AperFunction,SMDPad,CuDef*
%ADD51R,0.700000X0.600000*%
G04 #@! TD*
G04 #@! TA.AperFunction,ViaPad*
%ADD52C,0.600000*%
G04 #@! TD*
G04 #@! TA.AperFunction,Conductor*
%ADD53C,0.250000*%
G04 #@! TD*
G04 #@! TA.AperFunction,Conductor*
%ADD54C,0.150000*%
G04 #@! TD*
G04 #@! TA.AperFunction,Conductor*
%ADD55C,0.200000*%
G04 #@! TD*
G04 APERTURE END LIST*
D10*
G04 #@! TO.P,C11,1*
G04 #@! TO.N,/RUN*
X156820000Y-30700000D03*
G04 #@! TO.P,C11,2*
G04 #@! TO.N,GND*
X157780000Y-30700000D03*
G04 #@! TD*
D11*
G04 #@! TO.P,R9,1*
G04 #@! TO.N,+3V3*
X152545000Y-31687500D03*
G04 #@! TO.P,R9,2*
G04 #@! TO.N,/I2C0_SDA*
X153565000Y-31687500D03*
G04 #@! TD*
D12*
G04 #@! TO.P,C17,1*
G04 #@! TO.N,GND*
X156400000Y-40107500D03*
G04 #@! TO.P,C17,2*
G04 #@! TO.N,+3V3*
X156400000Y-39147500D03*
G04 #@! TD*
G04 #@! TO.P,C1,1*
G04 #@! TO.N,+1V1*
X162300000Y-37100000D03*
G04 #@! TO.P,C1,2*
G04 #@! TO.N,GND*
X162300000Y-36140000D03*
G04 #@! TD*
D13*
G04 #@! TO.P,D2,1,K*
G04 #@! TO.N,Net-(D2-Pad1)*
X168285000Y-34700000D03*
G04 #@! TO.P,D2,2,A*
G04 #@! TO.N,+3V3*
X167315000Y-34700000D03*
G04 #@! TD*
D12*
G04 #@! TO.P,C10,1*
G04 #@! TO.N,+3V3*
X163300000Y-37680000D03*
G04 #@! TO.P,C10,2*
G04 #@! TO.N,GND*
X163300000Y-36720000D03*
G04 #@! TD*
D14*
G04 #@! TO.P,D1,1,K*
G04 #@! TO.N,GND*
X163850000Y-34850000D03*
G04 #@! TO.P,D1,2,A*
G04 #@! TO.N,+5V*
X162450000Y-34850000D03*
G04 #@! TD*
D15*
G04 #@! TO.P,U1,*
G04 #@! TO.N,*
X159900000Y-36600000D03*
D16*
G04 #@! TO.P,U1,1,~{CS}*
G04 #@! TO.N,/QSPI_SS*
X159150000Y-37800000D03*
G04 #@! TO.P,U1,2,DO(IO1)*
G04 #@! TO.N,/QSPI_SD1*
X159650000Y-37800000D03*
G04 #@! TO.P,U1,3,IO2*
G04 #@! TO.N,/QSPI_SD2*
X160150000Y-37800000D03*
G04 #@! TO.P,U1,4,GND*
G04 #@! TO.N,GND*
X160650000Y-37800000D03*
G04 #@! TO.P,U1,5,DI(IO0)*
G04 #@! TO.N,/QSPI_SD0*
X160650000Y-35400000D03*
G04 #@! TO.P,U1,6,CLK*
G04 #@! TO.N,/QSPI_SCLK*
X160150000Y-35400000D03*
G04 #@! TO.P,U1,7,IO3*
G04 #@! TO.N,/QSPI_SD3*
X159650000Y-35400000D03*
G04 #@! TO.P,U1,8,VCC*
G04 #@! TO.N,+3V3*
X159150000Y-35400000D03*
G04 #@! TD*
D17*
G04 #@! TO.P,J4,1,Pin_1*
G04 #@! TO.N,+5V*
X151110000Y-52750000D03*
X151110000Y-51250000D03*
D18*
X151110000Y-52000000D03*
D19*
G04 #@! TO.P,J4,2,Pin_2*
G04 #@! TO.N,/IMU_HEATER*
X153650000Y-52750000D03*
D18*
X153650000Y-52000000D03*
D19*
X153650000Y-51250000D03*
D18*
G04 #@! TO.P,J4,3,Pin_3*
G04 #@! TO.N,/BUZZER*
X156190000Y-51976000D03*
D19*
X156190000Y-51226000D03*
X156190000Y-52726000D03*
G04 #@! TO.P,J4,4,Pin_4*
G04 #@! TO.N,/UART0_TX_TELEM*
X158730000Y-51250000D03*
X158730000Y-52750000D03*
D18*
X158730000Y-52000000D03*
D19*
G04 #@! TO.P,J4,5,Pin_5*
G04 #@! TO.N,/UART0_RX_TELEM*
X161270000Y-51250000D03*
X161270000Y-52750000D03*
D18*
X161270000Y-52000000D03*
D19*
G04 #@! TO.P,J4,6,Pin_6*
G04 #@! TO.N,/UART0_CTS_TELEM*
X163810000Y-51250000D03*
X163810000Y-52750000D03*
D18*
X163810000Y-52000000D03*
G04 #@! TO.P,J4,7,Pin_7*
G04 #@! TO.N,/UART0_RTS_TELEM*
X166350000Y-52000000D03*
D19*
X166350000Y-52750000D03*
X166350000Y-51250000D03*
G04 #@! TO.P,J4,8,Pin_8*
G04 #@! TO.N,GND*
X168890000Y-52750000D03*
D18*
X168890000Y-52000000D03*
D19*
X168890000Y-51250000D03*
G04 #@! TD*
D20*
G04 #@! TO.P,C4,1*
G04 #@! TO.N,+3V3*
X157900000Y-35400000D03*
G04 #@! TO.P,C4,2*
G04 #@! TO.N,GND*
X157900000Y-36360000D03*
G04 #@! TD*
D12*
G04 #@! TO.P,C5,1*
G04 #@! TO.N,/XIN*
X157985600Y-44996800D03*
G04 #@! TO.P,C5,2*
G04 #@! TO.N,GND*
X157985600Y-44036800D03*
G04 #@! TD*
G04 #@! TO.P,C27,1*
G04 #@! TO.N,+5V*
X156817200Y-44996800D03*
G04 #@! TO.P,C27,2*
G04 #@! TO.N,GND*
X156817200Y-44036800D03*
G04 #@! TD*
G04 #@! TO.P,C25,1*
G04 #@! TO.N,+3V3*
X168000000Y-38300000D03*
G04 #@! TO.P,C25,2*
G04 #@! TO.N,GND*
X168000000Y-37340000D03*
G04 #@! TD*
D21*
G04 #@! TO.P,U5,1,SCL*
G04 #@! TO.N,/I2C0_SCL*
X152600000Y-33437500D03*
G04 #@! TO.P,U5,2,VDD*
G04 #@! TO.N,+3V3*
X152600000Y-33937500D03*
G04 #@! TO.P,U5,3*
G04 #@! TO.N,N/C*
X152600000Y-34437500D03*
G04 #@! TO.P,U5,4,~{CS}*
G04 #@! TO.N,+3V3*
X152600000Y-34937500D03*
D22*
G04 #@! TO.P,U5,5,SDO*
G04 #@! TO.N,unconnected-(U5-Pad5)*
X153125000Y-35462500D03*
G04 #@! TO.P,U5,6*
G04 #@! TO.N,N/C*
X153625000Y-35462500D03*
G04 #@! TO.P,U5,7*
X154125000Y-35462500D03*
G04 #@! TO.P,U5,8*
X154625000Y-35462500D03*
D21*
G04 #@! TO.P,U5,9,GND*
G04 #@! TO.N,GND*
X155150000Y-34937500D03*
G04 #@! TO.P,U5,10,CAP*
G04 #@! TO.N,Net-(C20-Pad1)*
X155150000Y-34437500D03*
G04 #@! TO.P,U5,11,GND*
G04 #@! TO.N,GND*
X155150000Y-33937500D03*
G04 #@! TO.P,U5,12*
G04 #@! TO.N,N/C*
X155150000Y-33437500D03*
D22*
G04 #@! TO.P,U5,13,VDDIO*
G04 #@! TO.N,+3V3*
X154625000Y-32912500D03*
G04 #@! TO.P,U5,14*
G04 #@! TO.N,N/C*
X154125000Y-32912500D03*
G04 #@! TO.P,U5,15,INT*
G04 #@! TO.N,unconnected-(U5-Pad15)*
X153625000Y-32912500D03*
G04 #@! TO.P,U5,16,SDA*
G04 #@! TO.N,/I2C0_SDA*
X153125000Y-32912500D03*
G04 #@! TD*
D23*
G04 #@! TO.P,U4,1,AD0/SDO*
G04 #@! TO.N,/SPI0_POCI*
X152737500Y-37050000D03*
D24*
G04 #@! TO.P,U4,2,RESV*
G04 #@! TO.N,unconnected-(U4-Pad2)*
X152737500Y-37550000D03*
G04 #@! TO.P,U4,3,RESV*
G04 #@! TO.N,unconnected-(U4-Pad3)*
X152737500Y-38050000D03*
D25*
G04 #@! TO.P,U4,4,INT*
G04 #@! TO.N,/DRDY_ICM42605*
X152737500Y-38550000D03*
D26*
G04 #@! TO.P,U4,5,VDDIO*
G04 #@! TO.N,+3V3*
X153400000Y-38712500D03*
D27*
G04 #@! TO.P,U4,6,GND*
G04 #@! TO.N,GND*
X153900000Y-38712500D03*
D28*
G04 #@! TO.P,U4,7,RESV*
G04 #@! TO.N,unconnected-(U4-Pad7)*
X154400000Y-38712500D03*
D29*
G04 #@! TO.P,U4,8,VDD*
G04 #@! TO.N,+3V3*
X155062500Y-38550000D03*
D24*
G04 #@! TO.P,U4,9,FSYNC*
G04 #@! TO.N,GND*
X155062500Y-38050000D03*
G04 #@! TO.P,U4,10,RESV*
G04 #@! TO.N,unconnected-(U4-Pad10)*
X155062500Y-37550000D03*
D30*
G04 #@! TO.P,U4,11,RESV*
G04 #@! TO.N,unconnected-(U4-Pad11)*
X155062500Y-37050000D03*
D31*
G04 #@! TO.P,U4,12,nCS*
G04 #@! TO.N,/SPI0_nCS*
X154400000Y-36887500D03*
D27*
G04 #@! TO.P,U4,13,SCL/SCLK*
G04 #@! TO.N,/SPI0_SCK*
X153900000Y-36887500D03*
D32*
G04 #@! TO.P,U4,14,SDA/SDI*
G04 #@! TO.N,/SPI0_PICO*
X153400000Y-36887500D03*
G04 #@! TD*
D17*
G04 #@! TO.P,J2,1,Pin_1*
G04 #@! TO.N,/SPI1_POCI_SD*
X171250000Y-31110000D03*
X172750000Y-31110000D03*
D33*
X172000000Y-31110000D03*
G04 #@! TO.P,J2,2,Pin_2*
G04 #@! TO.N,/SPI1_nCS_SD*
X172000000Y-33650000D03*
D19*
X172750000Y-33650000D03*
X171250000Y-33650000D03*
G04 #@! TO.P,J2,3,Pin_3*
G04 #@! TO.N,/SPI1_SCK_SD*
X172774000Y-36190000D03*
D33*
X172024000Y-36190000D03*
D19*
X171274000Y-36190000D03*
G04 #@! TO.P,J2,4,Pin_4*
G04 #@! TO.N,/SPI1_PICO_SD*
X172750000Y-38730000D03*
X171250000Y-38730000D03*
D33*
X172000000Y-38730000D03*
D19*
G04 #@! TO.P,J2,5,Pin_5*
G04 #@! TO.N,/SD_nCD*
X172750000Y-41270000D03*
X171250000Y-41270000D03*
D33*
X172000000Y-41270000D03*
D19*
G04 #@! TO.P,J2,6,Pin_6*
G04 #@! TO.N,/UART1_RX_GNSS*
X172750000Y-43810000D03*
D33*
X172000000Y-43810000D03*
D19*
X171250000Y-43810000D03*
D33*
G04 #@! TO.P,J2,7,Pin_7*
G04 #@! TO.N,/UART1_TX_GNSS*
X172000000Y-46350000D03*
D19*
X172750000Y-46350000D03*
X171250000Y-46350000D03*
D33*
G04 #@! TO.P,J2,8,Pin_8*
G04 #@! TO.N,GND*
X172000000Y-48890000D03*
D19*
X172750000Y-48890000D03*
X171250000Y-48890000D03*
G04 #@! TD*
D20*
G04 #@! TO.P,C9,1*
G04 #@! TO.N,+3V3*
X163800000Y-48120000D03*
G04 #@! TO.P,C9,2*
G04 #@! TO.N,GND*
X163800000Y-49080000D03*
G04 #@! TD*
G04 #@! TO.P,C18,1*
G04 #@! TO.N,GND*
X156400000Y-37067500D03*
G04 #@! TO.P,C18,2*
G04 #@! TO.N,+3V3*
X156400000Y-38027500D03*
G04 #@! TD*
D34*
G04 #@! TO.P,R2,1*
G04 #@! TO.N,/USB_MCU_DP*
X165057500Y-35700000D03*
G04 #@! TO.P,R2,2*
G04 #@! TO.N,/USB_DP*
X165057500Y-34680000D03*
G04 #@! TD*
D12*
G04 #@! TO.P,C26,1*
G04 #@! TO.N,+3V3*
X164300000Y-37680000D03*
G04 #@! TO.P,C26,2*
G04 #@! TO.N,GND*
X164300000Y-36720000D03*
G04 #@! TD*
D20*
G04 #@! TO.P,C8,1*
G04 #@! TO.N,/XOUT*
X160200000Y-48120000D03*
G04 #@! TO.P,C8,2*
G04 #@! TO.N,GND*
X160200000Y-49080000D03*
G04 #@! TD*
D35*
G04 #@! TO.P,U3,1,IN*
G04 #@! TO.N,+5V*
X167140000Y-31900000D03*
D36*
G04 #@! TO.P,U3,2,GND*
G04 #@! TO.N,GND*
X167140000Y-32550000D03*
D37*
G04 #@! TO.P,U3,3,EN*
G04 #@! TO.N,+5V*
X168000000Y-32550000D03*
D38*
G04 #@! TO.P,U3,4,NC*
G04 #@! TO.N,unconnected-(U3-Pad4)*
X168000000Y-31900000D03*
D39*
G04 #@! TO.P,U3,5,OUT*
G04 #@! TO.N,+3V3*
X167570000Y-32225000D03*
G04 #@! TD*
D12*
G04 #@! TO.P,C20,1*
G04 #@! TO.N,Net-(C20-Pad1)*
X156400000Y-33827500D03*
G04 #@! TO.P,C20,2*
G04 #@! TO.N,GND*
X156400000Y-32867500D03*
G04 #@! TD*
D20*
G04 #@! TO.P,C6,1*
G04 #@! TO.N,+3V3*
X159000000Y-44036800D03*
G04 #@! TO.P,C6,2*
G04 #@! TO.N,GND*
X159000000Y-44996800D03*
G04 #@! TD*
D40*
G04 #@! TO.P,U6,1,CSB*
G04 #@! TO.N,+3V3*
X159130000Y-32850000D03*
G04 #@! TO.P,U6,2,SCL/SCLK*
G04 #@! TO.N,/I2C0_SCL*
X159130000Y-33350000D03*
D41*
G04 #@! TO.P,U6,3,VSS*
G04 #@! TO.N,GND*
X159410000Y-33880000D03*
G04 #@! TO.P,U6,4,SDA/SDI*
G04 #@! TO.N,/I2C0_SDA*
X159910000Y-33880000D03*
G04 #@! TO.P,U6,5,VDD*
G04 #@! TO.N,+3V3*
X160410000Y-33880000D03*
D40*
G04 #@! TO.P,U6,6,AD0/SDO*
G04 #@! TO.N,GND*
X160690000Y-33350000D03*
G04 #@! TO.P,U6,7,INT*
G04 #@! TO.N,unconnected-(U6-Pad7)*
X160690000Y-32850000D03*
D41*
G04 #@! TO.P,U6,8,RESV*
G04 #@! TO.N,GND*
X160410000Y-32320000D03*
G04 #@! TO.P,U6,9,RESV*
X159910000Y-32320000D03*
G04 #@! TO.P,U6,10,VDDIO*
G04 #@! TO.N,+3V3*
X159410000Y-32320000D03*
G04 #@! TD*
D12*
G04 #@! TO.P,C14,1*
G04 #@! TO.N,+5V*
X169270000Y-32705000D03*
G04 #@! TO.P,C14,2*
G04 #@! TO.N,GND*
X169270000Y-31745000D03*
G04 #@! TD*
D42*
G04 #@! TO.P,R8,1*
G04 #@! TO.N,+3V3*
X151400000Y-31637500D03*
G04 #@! TO.P,R8,2*
G04 #@! TO.N,/I2C0_SCL*
X151400000Y-32657500D03*
G04 #@! TD*
D34*
G04 #@! TO.P,R7,1*
G04 #@! TO.N,/SPI0_nCS*
X156400000Y-35957500D03*
G04 #@! TO.P,R7,2*
G04 #@! TO.N,GND*
X156400000Y-34937500D03*
G04 #@! TD*
D10*
G04 #@! TO.P,C16,1*
G04 #@! TO.N,+3V3*
X167090000Y-30725000D03*
G04 #@! TO.P,C16,2*
G04 #@! TO.N,GND*
X168050000Y-30725000D03*
G04 #@! TD*
D17*
G04 #@! TO.P,J3,1,Pin_1*
G04 #@! TO.N,unconnected-(J3-Pad1)*
X147250000Y-31110000D03*
D33*
X148000000Y-31110000D03*
D17*
X148750000Y-31110000D03*
D33*
G04 #@! TO.P,J3,2,Pin_2*
G04 #@! TO.N,unconnected-(J3-Pad2)*
X148000000Y-33650000D03*
D19*
X147250000Y-33650000D03*
X148750000Y-33650000D03*
G04 #@! TO.P,J3,3,Pin_3*
G04 #@! TO.N,unconnected-(J3-Pad3)*
X148774000Y-36190000D03*
X147274000Y-36190000D03*
D33*
X148024000Y-36190000D03*
G04 #@! TO.P,J3,4,Pin_4*
G04 #@! TO.N,GND*
X148000000Y-38730000D03*
D19*
X147250000Y-38730000D03*
X148750000Y-38730000D03*
D33*
G04 #@! TO.P,J3,5,Pin_5*
G04 #@! TO.N,+3V3*
X148000000Y-41270000D03*
D19*
X148750000Y-41270000D03*
X147250000Y-41270000D03*
G04 #@! TO.P,J3,6,Pin_6*
G04 #@! TO.N,/CAN_P*
X148750000Y-43810000D03*
D33*
X148000000Y-43810000D03*
D19*
X147250000Y-43810000D03*
G04 #@! TO.P,J3,7,Pin_7*
G04 #@! TO.N,/CAN_N*
X147250000Y-46350000D03*
X148750000Y-46350000D03*
D33*
X148000000Y-46350000D03*
D19*
G04 #@! TO.P,J3,8,Pin_8*
G04 #@! TO.N,GND*
X147250000Y-48890000D03*
X148750000Y-48890000D03*
D33*
X148000000Y-48890000D03*
G04 #@! TD*
D10*
G04 #@! TO.P,C21,1*
G04 #@! TO.N,+3V3*
X154757500Y-31687500D03*
G04 #@! TO.P,C21,2*
G04 #@! TO.N,GND*
X155717500Y-31687500D03*
G04 #@! TD*
D20*
G04 #@! TO.P,C15,1*
G04 #@! TO.N,+3V3*
X168680000Y-44020000D03*
G04 #@! TO.P,C15,2*
G04 #@! TO.N,GND*
X168680000Y-44980000D03*
G04 #@! TD*
D42*
G04 #@! TO.P,R5,1*
G04 #@! TO.N,/SD_nCD*
X168680000Y-45990000D03*
G04 #@! TO.P,R5,2*
G04 #@! TO.N,+3V3*
X168680000Y-47010000D03*
G04 #@! TD*
D12*
G04 #@! TO.P,C7,1*
G04 #@! TO.N,+3V3*
X159000000Y-40432500D03*
G04 #@! TO.P,C7,2*
G04 #@! TO.N,GND*
X159000000Y-39472500D03*
G04 #@! TD*
G04 #@! TO.P,C12,1*
G04 #@! TO.N,GND*
X151400000Y-34767500D03*
G04 #@! TO.P,C12,2*
G04 #@! TO.N,+3V3*
X151400000Y-33807500D03*
G04 #@! TD*
D17*
G04 #@! TO.P,J1,1,Pin_1*
G04 #@! TO.N,/SWCLK*
X151110000Y-27250000D03*
X151110000Y-28750000D03*
D18*
X151110000Y-28000000D03*
D19*
G04 #@! TO.P,J1,2,Pin_2*
G04 #@! TO.N,/SWDIO*
X153650000Y-28750000D03*
D18*
X153650000Y-28000000D03*
D19*
X153650000Y-27250000D03*
G04 #@! TO.P,J1,3,Pin_3*
G04 #@! TO.N,/RUN*
X156190000Y-27226000D03*
D18*
X156190000Y-27976000D03*
D19*
X156190000Y-28726000D03*
D18*
G04 #@! TO.P,J1,4,Pin_4*
G04 #@! TO.N,GND*
X158730000Y-28000000D03*
D19*
X158730000Y-27250000D03*
X158730000Y-28750000D03*
D18*
G04 #@! TO.P,J1,5,Pin_5*
G04 #@! TO.N,/USB_DP*
X161270000Y-28000000D03*
D19*
X161270000Y-27250000D03*
X161270000Y-28750000D03*
G04 #@! TO.P,J1,6,Pin_6*
G04 #@! TO.N,/USB_DN*
X163810000Y-28750000D03*
D18*
X163810000Y-28000000D03*
D19*
X163810000Y-27250000D03*
G04 #@! TO.P,J1,7,Pin_7*
G04 #@! TO.N,+5V*
X166350000Y-28750000D03*
D18*
X166350000Y-28000000D03*
D19*
X166350000Y-27250000D03*
G04 #@! TO.P,J1,8,Pin_8*
G04 #@! TO.N,GND*
X168890000Y-27250000D03*
D18*
X168890000Y-28000000D03*
D19*
X168890000Y-28750000D03*
G04 #@! TD*
D12*
G04 #@! TO.P,C13,1*
G04 #@! TO.N,+3V3*
X167000000Y-38300000D03*
G04 #@! TO.P,C13,2*
G04 #@! TO.N,GND*
X167000000Y-37340000D03*
G04 #@! TD*
D34*
G04 #@! TO.P,R4,1*
G04 #@! TO.N,/SPI1_nCS_SD*
X168690000Y-42710000D03*
G04 #@! TO.P,R4,2*
G04 #@! TO.N,GND*
X168690000Y-41690000D03*
G04 #@! TD*
D43*
G04 #@! TO.P,R6,1*
G04 #@! TO.N,Net-(D2-Pad1)*
X168310000Y-35700000D03*
G04 #@! TO.P,R6,2*
G04 #@! TO.N,GND*
X167290000Y-35700000D03*
G04 #@! TD*
D10*
G04 #@! TO.P,C19,1*
G04 #@! TO.N,+3V3*
X154260000Y-40077500D03*
G04 #@! TO.P,C19,2*
G04 #@! TO.N,GND*
X155220000Y-40077500D03*
G04 #@! TD*
D12*
G04 #@! TO.P,C24,1*
G04 #@! TO.N,+3V3*
X168680000Y-40432500D03*
G04 #@! TO.P,C24,2*
G04 #@! TO.N,GND*
X168680000Y-39472500D03*
G04 #@! TD*
D20*
G04 #@! TO.P,C22,1*
G04 #@! TO.N,GND*
X161900000Y-32960000D03*
G04 #@! TO.P,C22,2*
G04 #@! TO.N,+3V3*
X161900000Y-33920000D03*
G04 #@! TD*
D44*
G04 #@! TO.P,Y1,1,1*
G04 #@! TO.N,/XIN*
X157260000Y-46425000D03*
G04 #@! TO.P,Y1,2,2*
G04 #@! TO.N,GND*
X157260000Y-48175000D03*
G04 #@! TO.P,Y1,3,3*
G04 #@! TO.N,/XOUT*
X158660000Y-48175000D03*
G04 #@! TO.P,Y1,4,4*
G04 #@! TO.N,GND*
X158660000Y-46425000D03*
G04 #@! TD*
D45*
G04 #@! TO.P,C23,1*
G04 #@! TO.N,+3V3*
X157780000Y-31700000D03*
G04 #@! TO.P,C23,2*
G04 #@! TO.N,GND*
X156820000Y-31700000D03*
G04 #@! TD*
D20*
G04 #@! TO.P,C2,1*
G04 #@! TO.N,+1V1*
X164800000Y-48120000D03*
G04 #@! TO.P,C2,2*
G04 #@! TO.N,GND*
X164800000Y-49080000D03*
G04 #@! TD*
D46*
G04 #@! TO.P,U7,1,TX*
G04 #@! TO.N,/PIO0_CAN_TX*
X151295000Y-48325000D03*
G04 #@! TO.P,U7,2,GND*
G04 #@! TO.N,GND*
X152565000Y-48325000D03*
G04 #@! TO.P,U7,3,VDD*
G04 #@! TO.N,+5V*
X153835000Y-48325000D03*
G04 #@! TO.P,U7,4,RX*
G04 #@! TO.N,/PIO0_CAN_RX*
X155105000Y-48325000D03*
G04 #@! TO.P,U7,5,NC*
G04 #@! TO.N,unconnected-(U7-Pad5)*
X155105000Y-43075000D03*
G04 #@! TO.P,U7,6,CANL*
G04 #@! TO.N,/CAN_N*
X153835000Y-43075000D03*
G04 #@! TO.P,U7,7,CANH*
G04 #@! TO.N,/CAN_P*
X152565000Y-43075000D03*
G04 #@! TO.P,U7,8,STBY*
G04 #@! TO.N,/CAN_STBY*
X151295000Y-43075000D03*
G04 #@! TD*
D11*
G04 #@! TO.P,R1,1*
G04 #@! TO.N,+3V3*
X154727500Y-30700000D03*
G04 #@! TO.P,R1,2*
G04 #@! TO.N,/RUN*
X155747500Y-30700000D03*
G04 #@! TD*
D12*
G04 #@! TO.P,C3,1*
G04 #@! TO.N,+1V1*
X166000000Y-38300000D03*
G04 #@! TO.P,C3,2*
G04 #@! TO.N,GND*
X166000000Y-37340000D03*
G04 #@! TD*
D47*
G04 #@! TO.P,U2,1,IOVDD*
G04 #@! TO.N,+3V3*
X160462500Y-40562500D03*
G04 #@! TO.P,U2,2,GPIO0*
G04 #@! TO.N,/SPI0_POCI*
X160462500Y-40962500D03*
G04 #@! TO.P,U2,3,GPIO1*
G04 #@! TO.N,/SPI0_nCS*
X160462500Y-41362500D03*
G04 #@! TO.P,U2,4,GPIO2*
G04 #@! TO.N,/SPI0_SCK*
X160462500Y-41762500D03*
G04 #@! TO.P,U2,5,GPIO3*
G04 #@! TO.N,/SPI0_PICO*
X160462500Y-42162500D03*
G04 #@! TO.P,U2,6,GPIO4*
G04 #@! TO.N,/I2C0_SDA*
X160462500Y-42562500D03*
G04 #@! TO.P,U2,7,GPIO5*
G04 #@! TO.N,/I2C0_SCL*
X160462500Y-42962500D03*
G04 #@! TO.P,U2,8,GPIO6*
G04 #@! TO.N,/DRDY_ICM42605*
X160462500Y-43362500D03*
G04 #@! TO.P,U2,9,GPIO7*
G04 #@! TO.N,/CAN_STBY*
X160462500Y-43762500D03*
G04 #@! TO.P,U2,10,IOVDD*
G04 #@! TO.N,+3V3*
X160462500Y-44162500D03*
G04 #@! TO.P,U2,11,GPIO8*
G04 #@! TO.N,/PIO0_CAN_RX*
X160462500Y-44562500D03*
G04 #@! TO.P,U2,12,GPIO9*
G04 #@! TO.N,/PIO0_CAN_TX*
X160462500Y-44962500D03*
G04 #@! TO.P,U2,13,GPIO10*
G04 #@! TO.N,/IMU_HEATER*
X160462500Y-45362500D03*
G04 #@! TO.P,U2,14,GPIO11*
G04 #@! TO.N,unconnected-(U2-Pad14)*
X160462500Y-45762500D03*
D48*
G04 #@! TO.P,U2,15,GPIO12*
G04 #@! TO.N,unconnected-(U2-Pad15)*
X161300000Y-46600000D03*
G04 #@! TO.P,U2,16,GPIO13*
G04 #@! TO.N,/BUZZER*
X161700000Y-46600000D03*
G04 #@! TO.P,U2,17,GPIO14*
G04 #@! TO.N,/NEOPIXEL*
X162100000Y-46600000D03*
G04 #@! TO.P,U2,18,GPIO15*
G04 #@! TO.N,unconnected-(U2-Pad18)*
X162500000Y-46600000D03*
G04 #@! TO.P,U2,19,TESTEN*
G04 #@! TO.N,GND*
X162900000Y-46600000D03*
G04 #@! TO.P,U2,20,XIN*
G04 #@! TO.N,/XIN*
X163300000Y-46600000D03*
G04 #@! TO.P,U2,21,XOUT*
G04 #@! TO.N,/XOUT*
X163700000Y-46600000D03*
G04 #@! TO.P,U2,22,IOVDD*
G04 #@! TO.N,+3V3*
X164100000Y-46600000D03*
G04 #@! TO.P,U2,23,DVDD*
G04 #@! TO.N,+1V1*
X164500000Y-46600000D03*
G04 #@! TO.P,U2,24,SWCLK*
G04 #@! TO.N,/SWCLK*
X164900000Y-46600000D03*
G04 #@! TO.P,U2,25,SWD*
G04 #@! TO.N,/SWDIO*
X165300000Y-46600000D03*
G04 #@! TO.P,U2,26,RUN*
G04 #@! TO.N,/RUN*
X165700000Y-46600000D03*
G04 #@! TO.P,U2,27,GPIO16*
G04 #@! TO.N,/UART0_TX_TELEM*
X166100000Y-46600000D03*
G04 #@! TO.P,U2,28,GPIO17*
G04 #@! TO.N,/UART0_RX_TELEM*
X166500000Y-46600000D03*
D47*
G04 #@! TO.P,U2,29,GPIO18*
G04 #@! TO.N,/UART0_CTS_TELEM*
X167337500Y-45762500D03*
G04 #@! TO.P,U2,30,GPIO19*
G04 #@! TO.N,/UART0_RTS_TELEM*
X167337500Y-45362500D03*
G04 #@! TO.P,U2,31,GPIO20*
G04 #@! TO.N,/UART1_TX_GNSS*
X167337500Y-44962500D03*
G04 #@! TO.P,U2,32,GPIO21*
G04 #@! TO.N,/UART1_RX_GNSS*
X167337500Y-44562500D03*
G04 #@! TO.P,U2,33,IOVDD*
G04 #@! TO.N,+3V3*
X167337500Y-44162500D03*
G04 #@! TO.P,U2,34,GPIO22*
G04 #@! TO.N,unconnected-(U2-Pad34)*
X167337500Y-43762500D03*
G04 #@! TO.P,U2,35,GPIO23*
G04 #@! TO.N,/SD_nCD*
X167337500Y-43362500D03*
G04 #@! TO.P,U2,36,GPIO24*
G04 #@! TO.N,/SPI1_POCI_SD*
X167337500Y-42962500D03*
G04 #@! TO.P,U2,37,GPIO25*
G04 #@! TO.N,/SPI1_nCS_SD*
X167337500Y-42562500D03*
G04 #@! TO.P,U2,38,GPIO26_ADC0*
G04 #@! TO.N,/SPI1_SCK_SD*
X167337500Y-42162500D03*
G04 #@! TO.P,U2,39,GPIO27_ADC1*
G04 #@! TO.N,/SPI1_PICO_SD*
X167337500Y-41762500D03*
G04 #@! TO.P,U2,40,GPIO28_ADC2*
G04 #@! TO.N,unconnected-(U2-Pad40)*
X167337500Y-41362500D03*
G04 #@! TO.P,U2,41,GPIO29_ADC3*
G04 #@! TO.N,unconnected-(U2-Pad41)*
X167337500Y-40962500D03*
G04 #@! TO.P,U2,42,IOVDD*
G04 #@! TO.N,+3V3*
X167337500Y-40562500D03*
D48*
G04 #@! TO.P,U2,43,ADC_AVDD*
X166500000Y-39725000D03*
G04 #@! TO.P,U2,44,VREG_IN*
X166100000Y-39725000D03*
G04 #@! TO.P,U2,45,VREG_VOUT*
G04 #@! TO.N,+1V1*
X165700000Y-39725000D03*
G04 #@! TO.P,U2,46,USB_DM*
G04 #@! TO.N,/USB_MCU_DN*
X165300000Y-39725000D03*
G04 #@! TO.P,U2,47,USB_DP*
G04 #@! TO.N,/USB_MCU_DP*
X164900000Y-39725000D03*
G04 #@! TO.P,U2,48,USB_VDD*
G04 #@! TO.N,+3V3*
X164500000Y-39725000D03*
G04 #@! TO.P,U2,49,IOVDD*
X164100000Y-39725000D03*
G04 #@! TO.P,U2,50,DVDD*
G04 #@! TO.N,+1V1*
X163700000Y-39725000D03*
G04 #@! TO.P,U2,51,QSPI_SD3*
G04 #@! TO.N,/QSPI_SD3*
X163300000Y-39725000D03*
G04 #@! TO.P,U2,52,QSPI_SCLK*
G04 #@! TO.N,/QSPI_SCLK*
X162900000Y-39725000D03*
G04 #@! TO.P,U2,53,QSPI_SD0*
G04 #@! TO.N,/QSPI_SD0*
X162500000Y-39725000D03*
G04 #@! TO.P,U2,54,QSPI_SD2*
G04 #@! TO.N,/QSPI_SD2*
X162100000Y-39725000D03*
G04 #@! TO.P,U2,55,QSPI_SD1*
G04 #@! TO.N,/QSPI_SD1*
X161700000Y-39725000D03*
G04 #@! TO.P,U2,56,QSPI_SS*
G04 #@! TO.N,/QSPI_SS*
X161300000Y-39725000D03*
D49*
G04 #@! TO.P,U2,57,GND*
G04 #@! TO.N,GND*
X162625000Y-44437500D03*
X165175000Y-44437500D03*
X162625000Y-41887500D03*
D50*
X163900000Y-43162500D03*
D49*
X162625000Y-43162500D03*
X163900000Y-43162500D03*
X165175000Y-41887500D03*
X163900000Y-41887500D03*
X163900000Y-44437500D03*
X165175000Y-43162500D03*
G04 #@! TD*
D34*
G04 #@! TO.P,R3,1*
G04 #@! TO.N,/USB_MCU_DN*
X166120000Y-35700000D03*
G04 #@! TO.P,R3,2*
G04 #@! TO.N,/USB_DN*
X166120000Y-34680000D03*
G04 #@! TD*
D51*
G04 #@! TO.P,D3,1,K*
G04 #@! TO.N,GND*
X165800000Y-30900000D03*
G04 #@! TO.P,D3,2,A*
G04 #@! TO.N,+5V*
X165800000Y-32300000D03*
G04 #@! TD*
D52*
G04 #@! TO.N,+1V1*
X164500000Y-40589000D03*
X163370400Y-45380400D03*
G04 #@! TO.N,/SPI0_POCI*
X157500000Y-37066500D03*
X153898705Y-36107122D03*
G04 #@! TO.N,/UART0_TX_TELEM*
X165900000Y-47600000D03*
G04 #@! TO.N,/UART0_RX_TELEM*
X166700000Y-47600000D03*
G04 #@! TO.N,/UART1_TX_GNSS*
X166400000Y-45126503D03*
G04 #@! TO.N,/UART1_RX_GNSS*
X166400000Y-44400000D03*
G04 #@! TO.N,/USB_DP*
X165163750Y-33801333D03*
G04 #@! TO.N,/USB_DN*
X166013750Y-33801333D03*
G04 #@! TO.N,/IMU_HEATER*
X159550954Y-45556081D03*
G04 #@! TO.N,/SPI0_SCK*
X154300000Y-37750000D03*
X154300000Y-40900000D03*
G04 #@! TO.N,/I2C0_SDA*
X153400000Y-33600000D03*
X161500000Y-42400000D03*
X158400000Y-34076503D03*
G04 #@! TO.N,/I2C0_SCL*
X152350000Y-32650000D03*
X158400000Y-33350000D03*
X161500000Y-43126503D03*
G04 #@! TO.N,/BUZZER*
X161700000Y-45825699D03*
G04 #@! TO.N,/PIO0_CAN_TX*
X161500000Y-45129509D03*
X154398000Y-47102000D03*
G04 #@! TO.N,/PIO0_CAN_RX*
X155100000Y-46600000D03*
X161500000Y-44403006D03*
G04 #@! TO.N,/SPI0_PICO*
X153573513Y-37754758D03*
X157145385Y-41454615D03*
G04 #@! TO.N,/CAN_N*
X153835000Y-44300000D03*
G04 #@! TO.N,/CAN_P*
X152565000Y-44300000D03*
G04 #@! TO.N,/SPI1_POCI_SD*
X166500000Y-42962500D03*
G04 #@! TD*
D53*
G04 #@! TO.N,+1V1*
X163889000Y-40589000D02*
X163700000Y-40400000D01*
X165461000Y-40589000D02*
X164500000Y-40589000D01*
X163850000Y-40550000D02*
X163700000Y-40400000D01*
X163700000Y-39725000D02*
X163700000Y-39106872D01*
X163744992Y-45380400D02*
X163370400Y-45380400D01*
X162300000Y-37706872D02*
X162300000Y-37080000D01*
X164500000Y-46135408D02*
X163744992Y-45380400D01*
X163700000Y-39106872D02*
X162300000Y-37706872D01*
X165700000Y-39725000D02*
X165700000Y-40350000D01*
X164500000Y-46600000D02*
X164500000Y-46135408D01*
X163700000Y-40400000D02*
X163700000Y-39725000D01*
X164500000Y-47820000D02*
X164800000Y-48120000D01*
X164500000Y-46600000D02*
X164500000Y-47820000D01*
X165700000Y-38600000D02*
X166000000Y-38300000D01*
X165700000Y-40350000D02*
X165461000Y-40589000D01*
X164500000Y-40589000D02*
X163889000Y-40589000D01*
X165700000Y-39725000D02*
X165700000Y-38600000D01*
G04 #@! TO.N,+3V3*
X152007500Y-33807500D02*
X151400000Y-33807500D01*
X152600000Y-33937500D02*
X152137500Y-33937500D01*
X164100000Y-39725000D02*
X164100000Y-38900000D01*
X168180000Y-44020000D02*
X168680000Y-44020000D01*
X168167500Y-40432500D02*
X168680000Y-40432500D01*
X166100000Y-39200000D02*
X167000000Y-38300000D01*
X153400000Y-38712500D02*
X153400000Y-39217500D01*
X163300000Y-38100000D02*
X163300000Y-37680000D01*
X167337500Y-44162500D02*
X168037500Y-44162500D01*
X164100000Y-38900000D02*
X163300000Y-38100000D01*
X159150000Y-35400000D02*
X157900000Y-35400000D01*
X159532500Y-40432500D02*
X159000000Y-40432500D01*
X155062500Y-38550000D02*
X155802500Y-38550000D01*
X157780000Y-31700000D02*
X159100000Y-31700000D01*
X168000000Y-39300000D02*
X168000000Y-38300000D01*
X153400000Y-39217500D02*
X154260000Y-40077500D01*
X160462500Y-40562500D02*
X159662500Y-40562500D01*
X159100000Y-31700000D02*
X159410000Y-32010000D01*
X164300000Y-38400000D02*
X164300000Y-37680000D01*
X159662500Y-40562500D02*
X159532500Y-40432500D01*
X152137500Y-33937500D02*
X152007500Y-33807500D01*
X154757500Y-32242500D02*
X154757500Y-31687500D01*
X161200000Y-33880000D02*
X161240000Y-33920000D01*
X167575000Y-39725000D02*
X168000000Y-39300000D01*
X164500000Y-38600000D02*
X164300000Y-38400000D01*
X160410000Y-33880000D02*
X161200000Y-33880000D01*
X159410000Y-32477500D02*
X159130000Y-32757500D01*
X167337500Y-40562500D02*
X168037500Y-40562500D01*
X166500000Y-39725000D02*
X167575000Y-39725000D01*
X164100000Y-46600000D02*
X164100000Y-47820000D01*
X168037500Y-44162500D02*
X168180000Y-44020000D01*
X154625000Y-32912500D02*
X154625000Y-32375000D01*
X164500000Y-39725000D02*
X164500000Y-38600000D01*
X159410000Y-32010000D02*
X159410000Y-32320000D01*
X161240000Y-33920000D02*
X161900000Y-33920000D01*
X168037500Y-40562500D02*
X168167500Y-40432500D01*
X154625000Y-32375000D02*
X154757500Y-32242500D01*
X155802500Y-38550000D02*
X156400000Y-39147500D01*
X159410000Y-32227500D02*
X159410000Y-32477500D01*
X164100000Y-47820000D02*
X163800000Y-48120000D01*
X166100000Y-39725000D02*
X166100000Y-39200000D01*
D54*
G04 #@! TO.N,/XIN*
X163300000Y-47200000D02*
X163000000Y-47500000D01*
X163300000Y-46600000D02*
X163300000Y-47200000D01*
D53*
X157450000Y-45532400D02*
X157985600Y-44996800D01*
D54*
X158135000Y-47300000D02*
X157260000Y-46425000D01*
X163000000Y-47500000D02*
X159600000Y-47500000D01*
D53*
X157450000Y-46425000D02*
X157450000Y-45532400D01*
D54*
X159400000Y-47300000D02*
X158135000Y-47300000D01*
X159600000Y-47500000D02*
X159400000Y-47300000D01*
G04 #@! TO.N,/XOUT*
X159525000Y-48175000D02*
X159580000Y-48120000D01*
X162980000Y-48120000D02*
X163250000Y-47850000D01*
X163700000Y-47400000D02*
X163700000Y-46600000D01*
X158660000Y-48175000D02*
X159525000Y-48175000D01*
X160200000Y-48120000D02*
X162980000Y-48120000D01*
X160200000Y-48120000D02*
X159580000Y-48120000D01*
X163250000Y-47850000D02*
X163700000Y-47400000D01*
D53*
G04 #@! TO.N,+5V*
X169270000Y-32705000D02*
X168650000Y-32705000D01*
X168650000Y-32705000D02*
X168495000Y-32550000D01*
X168495000Y-32550000D02*
X168011506Y-32550000D01*
X168011506Y-32550000D02*
X168005753Y-32555753D01*
D54*
G04 #@! TO.N,/SPI0_nCS*
X158262500Y-41362500D02*
X156998000Y-40098000D01*
X156400000Y-35957500D02*
X154742500Y-35957500D01*
X154400000Y-36300000D02*
X154400000Y-36887500D01*
X156998000Y-36555500D02*
X156400000Y-35957500D01*
X160462500Y-41362500D02*
X158262500Y-41362500D01*
X156998000Y-40098000D02*
X156998000Y-36555500D01*
X154742500Y-35957500D02*
X154400000Y-36300000D01*
D53*
G04 #@! TO.N,Net-(D2-Pad1)*
X168310000Y-35210000D02*
X168310000Y-35700000D01*
X168285000Y-34700000D02*
X168285000Y-35185000D01*
X168285000Y-35185000D02*
X168310000Y-35210000D01*
D54*
G04 #@! TO.N,/SPI0_POCI*
X153292878Y-36107122D02*
X153898705Y-36107122D01*
X158362500Y-40962500D02*
X160462500Y-40962500D01*
X157500000Y-40100000D02*
X158362500Y-40962500D01*
X152737500Y-36662500D02*
X153292878Y-36107122D01*
X152737500Y-37050000D02*
X152737500Y-36662500D01*
X157500000Y-37066500D02*
X157500000Y-40100000D01*
G04 #@! TO.N,/SPI1_nCS_SD*
X167962500Y-42562500D02*
X168110000Y-42710000D01*
X168110000Y-42710000D02*
X168690000Y-42710000D01*
X167337500Y-42562500D02*
X167962500Y-42562500D01*
G04 #@! TO.N,/SD_nCD*
X169400000Y-43605000D02*
X169157500Y-43362500D01*
X169400000Y-45300000D02*
X169400000Y-43605000D01*
X168710000Y-45990000D02*
X169400000Y-45300000D01*
X168680000Y-45990000D02*
X168710000Y-45990000D01*
X169157500Y-43362500D02*
X171250000Y-41270000D01*
X167337500Y-43362500D02*
X169157500Y-43362500D01*
G04 #@! TO.N,/UART0_TX_TELEM*
X166100000Y-47400000D02*
X165900000Y-47600000D01*
X166100000Y-46600000D02*
X166100000Y-47400000D01*
G04 #@! TO.N,/UART0_RX_TELEM*
X166500000Y-47400000D02*
X166700000Y-47600000D01*
X166500000Y-46600000D02*
X166500000Y-47400000D01*
G04 #@! TO.N,/UART0_CTS_TELEM*
X167337500Y-45762500D02*
X167337500Y-47722500D01*
X167337500Y-47722500D02*
X163810000Y-51250000D01*
G04 #@! TO.N,/UART0_RTS_TELEM*
X167862500Y-45362500D02*
X168100000Y-45600000D01*
X168100000Y-45600000D02*
X168100000Y-47600000D01*
X166350000Y-49350000D02*
X166350000Y-51250000D01*
X168100000Y-47600000D02*
X166350000Y-49350000D01*
X167337500Y-45362500D02*
X167862500Y-45362500D01*
G04 #@! TO.N,/UART1_TX_GNSS*
X166564003Y-44962500D02*
X166400000Y-45126503D01*
X167337500Y-44962500D02*
X166564003Y-44962500D01*
G04 #@! TO.N,/UART1_RX_GNSS*
X166562500Y-44562500D02*
X166400000Y-44400000D01*
X167337500Y-44562500D02*
X166562500Y-44562500D01*
D55*
G04 #@! TO.N,/USB_MCU_DP*
X164900000Y-39725000D02*
X164874999Y-39699999D01*
X165363749Y-36368051D02*
X165363749Y-36006249D01*
X164874999Y-36856801D02*
X165363749Y-36368051D01*
X165363749Y-36006249D02*
X165057500Y-35700000D01*
X164874999Y-39699999D02*
X164874999Y-36856801D01*
D54*
G04 #@! TO.N,/USB_DP*
X165057500Y-34680000D02*
X165388750Y-34348750D01*
X165388750Y-34026333D02*
X165163750Y-33801333D01*
X165388750Y-34348750D02*
X165388750Y-34026333D01*
D55*
G04 #@! TO.N,/USB_MCU_DN*
X165813751Y-36006249D02*
X166120000Y-35700000D01*
X165325001Y-37043199D02*
X165813751Y-36554449D01*
X165300000Y-39725000D02*
X165325001Y-39699999D01*
X165813751Y-36554449D02*
X165813751Y-36006249D01*
X165325001Y-39699999D02*
X165325001Y-37043199D01*
D54*
G04 #@! TO.N,/USB_DN*
X165788750Y-34026333D02*
X166013750Y-33801333D01*
X165788750Y-34348750D02*
X165788750Y-34026333D01*
X166120000Y-34680000D02*
X165788750Y-34348750D01*
G04 #@! TO.N,/IMU_HEATER*
X160462500Y-45362500D02*
X159744535Y-45362500D01*
X159744535Y-45362500D02*
X159550954Y-45556081D01*
G04 #@! TO.N,/QSPI_SCLK*
X161100000Y-34900000D02*
X160400000Y-34900000D01*
X160400000Y-34900000D02*
X160150000Y-35150000D01*
X161400000Y-37700000D02*
X161400000Y-35200000D01*
X162900000Y-39200000D02*
X161400000Y-37700000D01*
X162900000Y-39725000D02*
X162900000Y-39200000D01*
X161400000Y-35200000D02*
X161100000Y-34900000D01*
X160150000Y-35150000D02*
X160150000Y-35400000D01*
G04 #@! TO.N,/QSPI_SS*
X161300000Y-39725000D02*
X161300000Y-39300000D01*
X160854119Y-38854119D02*
X159554119Y-38854119D01*
X159150000Y-38450000D02*
X159150000Y-37800000D01*
X159554119Y-38854119D02*
X159150000Y-38450000D01*
X161300000Y-39300000D02*
X160854119Y-38854119D01*
G04 #@! TO.N,/QSPI_SD1*
X161022881Y-38577119D02*
X159877119Y-38577119D01*
X159650000Y-38350000D02*
X159650000Y-37800000D01*
X161700000Y-39254238D02*
X161022881Y-38577119D01*
X159877119Y-38577119D02*
X159650000Y-38350000D01*
X161700000Y-39725000D02*
X161700000Y-39254238D01*
G04 #@! TO.N,/QSPI_SD2*
X160150000Y-38100000D02*
X160150000Y-37800000D01*
X161137500Y-38300000D02*
X160350000Y-38300000D01*
X160350000Y-38300000D02*
X160150000Y-38100000D01*
X162100000Y-39262500D02*
X161137500Y-38300000D01*
X162100000Y-39725000D02*
X162100000Y-39262500D01*
G04 #@! TO.N,/QSPI_SD0*
X162500000Y-39200000D02*
X161100000Y-37800000D01*
X161100000Y-37800000D02*
X161100000Y-36500000D01*
X161100000Y-36500000D02*
X160650000Y-36050000D01*
X162500000Y-39725000D02*
X162500000Y-39200000D01*
X160650000Y-36050000D02*
X160650000Y-35400000D01*
G04 #@! TO.N,/QSPI_SD3*
X161214737Y-34623000D02*
X160077000Y-34623000D01*
X159650000Y-35050000D02*
X159650000Y-35400000D01*
X160077000Y-34623000D02*
X159650000Y-35050000D01*
X161677000Y-35085262D02*
X161214737Y-34623000D01*
X163300000Y-39200000D02*
X161677000Y-37577000D01*
X161677000Y-37577000D02*
X161677000Y-35085262D01*
X163300000Y-39725000D02*
X163300000Y-39200000D01*
G04 #@! TO.N,/DRDY_ICM42605*
X156382834Y-41402000D02*
X154092064Y-41402000D01*
X159100000Y-42600000D02*
X157580834Y-42600000D01*
X157580834Y-42600000D02*
X156382834Y-41402000D01*
X154092064Y-41402000D02*
X152737500Y-40047436D01*
X159862500Y-43362500D02*
X159100000Y-42600000D01*
X160462500Y-43362500D02*
X159862500Y-43362500D01*
X152737500Y-40047436D02*
X152737500Y-38550000D01*
G04 #@! TO.N,/SPI0_SCK*
X154300000Y-40900000D02*
X157300000Y-40900000D01*
X153900000Y-37350000D02*
X153900000Y-36887500D01*
X158162500Y-41762500D02*
X160462500Y-41762500D01*
X154300000Y-37750000D02*
X153900000Y-37350000D01*
X157300000Y-40900000D02*
X158162500Y-41762500D01*
G04 #@! TO.N,/I2C0_SDA*
X153125000Y-32912500D02*
X153125000Y-33325000D01*
X159910000Y-34190000D02*
X159910000Y-33880000D01*
X161424429Y-42400000D02*
X161400000Y-42375571D01*
X153125000Y-32127500D02*
X153565000Y-31687500D01*
X161500000Y-42400000D02*
X161424429Y-42400000D01*
X161337500Y-42562500D02*
X160462500Y-42562500D01*
X158400000Y-34076503D02*
X158723497Y-34400000D01*
X159700000Y-34400000D02*
X159910000Y-34190000D01*
X153125000Y-32912500D02*
X153125000Y-32127500D01*
X158723497Y-34400000D02*
X159700000Y-34400000D01*
X161500000Y-42400000D02*
X161337500Y-42562500D01*
X153125000Y-33325000D02*
X153400000Y-33600000D01*
G04 #@! TO.N,/I2C0_SCL*
X152600000Y-33437500D02*
X152600000Y-32900000D01*
X161500000Y-43126503D02*
X161335997Y-42962500D01*
X151400000Y-32657500D02*
X152342500Y-32657500D01*
X152600000Y-32900000D02*
X152350000Y-32650000D01*
X152342500Y-32657500D02*
X152350000Y-32650000D01*
X161335997Y-42962500D02*
X160462500Y-42962500D01*
X159130000Y-33350000D02*
X158400000Y-33350000D01*
G04 #@! TO.N,/BUZZER*
X161700000Y-46600000D02*
X161700000Y-45833365D01*
X161700000Y-45833365D02*
X161707666Y-45825699D01*
G04 #@! TO.N,/PIO0_CAN_TX*
X160462500Y-44962500D02*
X160962500Y-44962500D01*
X161479509Y-45150000D02*
X161500000Y-45129509D01*
X154398000Y-47102000D02*
X151498000Y-47102000D01*
X160962500Y-44962500D02*
X161150000Y-45150000D01*
X151498000Y-47102000D02*
X151295000Y-47305000D01*
X161150000Y-45150000D02*
X161479509Y-45150000D01*
X151295000Y-47305000D02*
X151295000Y-48325000D01*
G04 #@! TO.N,/PIO0_CAN_RX*
X160462500Y-44562500D02*
X160937500Y-44562500D01*
X155100000Y-46600000D02*
X155105000Y-46605000D01*
X155105000Y-46605000D02*
X155105000Y-48325000D01*
X160937500Y-44562500D02*
X161100000Y-44400000D01*
X161496994Y-44400000D02*
X161500000Y-44403006D01*
X161100000Y-44400000D02*
X161496994Y-44400000D01*
G04 #@! TO.N,/CAN_STBY*
X160462500Y-43762500D02*
X159812500Y-43762500D01*
X154898000Y-44802000D02*
X151992000Y-44802000D01*
X151295000Y-44105000D02*
X151295000Y-43075000D01*
X159550000Y-43500000D02*
X156200000Y-43500000D01*
X151495000Y-44305000D02*
X151295000Y-44105000D01*
X151534000Y-42611000D02*
X151545000Y-42600000D01*
X159812500Y-43762500D02*
X159550000Y-43500000D01*
X156200000Y-43500000D02*
X154898000Y-44802000D01*
X151992000Y-44802000D02*
X151495000Y-44305000D01*
D53*
G04 #@! TO.N,Net-(C20-Pad1)*
X155790000Y-34437500D02*
X156400000Y-33827500D01*
X155150000Y-34437500D02*
X155790000Y-34437500D01*
D54*
G04 #@! TO.N,/SPI0_PICO*
X157145385Y-41454615D02*
X157494270Y-41803500D01*
X157503500Y-41803500D02*
X157862500Y-42162500D01*
X153573513Y-37754758D02*
X153573513Y-37423513D01*
X157494270Y-41803500D02*
X157503500Y-41803500D01*
X157862500Y-42162500D02*
X160462500Y-42162500D01*
X153573513Y-37423513D02*
X153400000Y-37250000D01*
X153400000Y-37250000D02*
X153400000Y-36887500D01*
G04 #@! TO.N,/CAN_N*
X153835000Y-44285000D02*
X153850000Y-44300000D01*
X153835000Y-43075000D02*
X153835000Y-44285000D01*
G04 #@! TO.N,/CAN_P*
X152547500Y-44265000D02*
X152582500Y-44300000D01*
X152565000Y-44215000D02*
X152565000Y-43075000D01*
X152565000Y-43075000D02*
X152565000Y-44265000D01*
X152600000Y-44250000D02*
X152565000Y-44215000D01*
G04 #@! TO.N,/SPI1_POCI_SD*
X167337500Y-42962500D02*
X166562500Y-42962500D01*
X166562500Y-42962500D02*
X166500000Y-42900000D01*
G04 #@! TD*
M02*
