G04 #@! TF.GenerationSoftware,KiCad,Pcbnew,(6.0.5)*
G04 #@! TF.CreationDate,2022-08-03T23:35:42+05:30*
G04 #@! TF.ProjectId,picofusion,7069636f-6675-4736-996f-6e2e6b696361,rev?*
G04 #@! TF.SameCoordinates,Original*
G04 #@! TF.FileFunction,Paste,Top*
G04 #@! TF.FilePolarity,Positive*
%FSLAX46Y46*%
G04 Gerber Fmt 4.6, Leading zero omitted, Abs format (unit mm)*
G04 Created by KiCad (PCBNEW (6.0.5)) date 2022-08-03 23:35:42*
%MOMM*%
%LPD*%
G01*
G04 APERTURE LIST*
G04 Aperture macros list*
%AMRoundRect*
0 Rectangle with rounded corners*
0 $1 Rounding radius*
0 $2 $3 $4 $5 $6 $7 $8 $9 X,Y pos of 4 corners*
0 Add a 4 corners polygon primitive as box body*
4,1,4,$2,$3,$4,$5,$6,$7,$8,$9,$2,$3,0*
0 Add four circle primitives for the rounded corners*
1,1,$1+$1,$2,$3*
1,1,$1+$1,$4,$5*
1,1,$1+$1,$6,$7*
1,1,$1+$1,$8,$9*
0 Add four rect primitives between the rounded corners*
20,1,$1+$1,$2,$3,$4,$5,0*
20,1,$1+$1,$4,$5,$6,$7,0*
20,1,$1+$1,$6,$7,$8,$9,0*
20,1,$1+$1,$8,$9,$2,$3,0*%
%AMRotRect*
0 Rectangle, with rotation*
0 The origin of the aperture is its center*
0 $1 length*
0 $2 width*
0 $3 Rotation angle, in degrees counterclockwise*
0 Add horizontal line*
21,1,$1,$2,0,0,$3*%
%AMFreePoly0*
4,1,48,0.036020,0.199191,0.037970,0.199714,0.040958,0.198321,0.057086,0.195477,0.069630,0.184951,0.084467,0.178033,0.290533,-0.028033,0.293203,-0.031847,0.294953,-0.032857,0.296081,-0.035957,0.305473,-0.049370,0.306900,-0.065680,0.312500,-0.081066,0.312500,-0.125000,0.310782,-0.134742,0.311361,-0.138024,0.309695,-0.140910,0.307977,-0.150652,0.295451,-0.165579,0.285709,-0.182453,
0.279350,-0.184767,0.275000,-0.189952,0.255809,-0.193336,0.237500,-0.200000,-0.237500,-0.200000,-0.247242,-0.198282,-0.250524,-0.198861,-0.253410,-0.197195,-0.263152,-0.195477,-0.278079,-0.182951,-0.294953,-0.173209,-0.297267,-0.166850,-0.302452,-0.162500,-0.305836,-0.143309,-0.312500,-0.125000,-0.312500,0.125000,-0.310782,0.134742,-0.311361,0.138024,-0.309695,0.140910,-0.307977,0.150652,
-0.295451,0.165579,-0.285709,0.182453,-0.279350,0.184767,-0.275000,0.189952,-0.255809,0.193336,-0.237500,0.200000,0.031434,0.200000,0.036020,0.199191,0.036020,0.199191,$1*%
%AMFreePoly1*
4,1,48,0.247242,0.198282,0.250524,0.198861,0.253410,0.197195,0.263152,0.195477,0.278079,0.182951,0.294953,0.173209,0.297267,0.166850,0.302452,0.162500,0.305836,0.143309,0.312500,0.125000,0.312500,0.081066,0.311691,0.076480,0.312214,0.074529,0.310820,0.071540,0.307977,0.055414,0.297452,0.042871,0.290533,0.028033,0.084467,-0.178033,0.080653,-0.180703,0.079643,-0.182453,
0.076543,-0.183581,0.063130,-0.192973,0.046819,-0.194400,0.031434,-0.200000,-0.237500,-0.200000,-0.247242,-0.198282,-0.250524,-0.198861,-0.253410,-0.197195,-0.263152,-0.195477,-0.278079,-0.182951,-0.294953,-0.173209,-0.297267,-0.166850,-0.302452,-0.162500,-0.305836,-0.143309,-0.312500,-0.125000,-0.312500,0.125000,-0.310782,0.134742,-0.311361,0.138024,-0.309695,0.140910,-0.307977,0.150652,
-0.295451,0.165579,-0.285709,0.182453,-0.279350,0.184767,-0.275000,0.189952,-0.255809,0.193336,-0.237500,0.200000,0.237500,0.200000,0.247242,0.198282,0.247242,0.198282,$1*%
%AMFreePoly2*
4,1,48,0.134742,0.310782,0.138024,0.311361,0.140910,0.309695,0.150652,0.307977,0.165579,0.295451,0.182453,0.285709,0.184767,0.279350,0.189952,0.275000,0.193336,0.255809,0.200000,0.237500,0.200000,-0.237500,0.198282,-0.247242,0.198861,-0.250524,0.197195,-0.253410,0.195477,-0.263152,0.182951,-0.278079,0.173209,-0.294953,0.166850,-0.297267,0.162500,-0.302452,0.143309,-0.305836,
0.125000,-0.312500,-0.125000,-0.312500,-0.134742,-0.310782,-0.138024,-0.311361,-0.140910,-0.309695,-0.150652,-0.307977,-0.165579,-0.295451,-0.182453,-0.285709,-0.184767,-0.279350,-0.189952,-0.275000,-0.193336,-0.255809,-0.200000,-0.237500,-0.200000,0.031434,-0.199191,0.036020,-0.199714,0.037970,-0.198321,0.040958,-0.195477,0.057086,-0.184951,0.069630,-0.178033,0.084467,0.028033,0.290533,
0.031847,0.293203,0.032857,0.294953,0.035957,0.296081,0.049370,0.305473,0.065680,0.306900,0.081066,0.312500,0.125000,0.312500,0.134742,0.310782,0.134742,0.310782,$1*%
%AMFreePoly3*
4,1,48,-0.076480,0.311691,-0.074530,0.312214,-0.071542,0.310821,-0.055414,0.307977,-0.042870,0.297451,-0.028033,0.290533,0.178033,0.084467,0.180703,0.080653,0.182453,0.079643,0.183581,0.076543,0.192973,0.063130,0.194400,0.046820,0.200000,0.031434,0.200000,-0.237500,0.198282,-0.247242,0.198861,-0.250524,0.197195,-0.253410,0.195477,-0.263152,0.182951,-0.278079,0.173209,-0.294953,
0.166850,-0.297267,0.162500,-0.302452,0.143309,-0.305836,0.125000,-0.312500,-0.125000,-0.312500,-0.134742,-0.310782,-0.138024,-0.311361,-0.140910,-0.309695,-0.150652,-0.307977,-0.165579,-0.295451,-0.182453,-0.285709,-0.184767,-0.279350,-0.189952,-0.275000,-0.193336,-0.255809,-0.200000,-0.237500,-0.200000,0.237500,-0.198282,0.247242,-0.198861,0.250524,-0.197195,0.253410,-0.195477,0.263152,
-0.182951,0.278079,-0.173209,0.294953,-0.166850,0.297267,-0.162500,0.302452,-0.143309,0.305836,-0.125000,0.312500,-0.081066,0.312500,-0.076480,0.311691,-0.076480,0.311691,$1*%
%AMFreePoly4*
4,1,48,0.247242,0.198282,0.250524,0.198861,0.253410,0.197195,0.263152,0.195477,0.278079,0.182951,0.294953,0.173209,0.297267,0.166850,0.302452,0.162500,0.305836,0.143309,0.312500,0.125000,0.312500,-0.125000,0.310782,-0.134742,0.311361,-0.138024,0.309695,-0.140910,0.307977,-0.150652,0.295451,-0.165579,0.285709,-0.182453,0.279350,-0.184767,0.275000,-0.189952,0.255809,-0.193336,
0.237500,-0.200000,-0.031434,-0.200000,-0.036020,-0.199191,-0.037971,-0.199714,-0.040960,-0.198320,-0.057086,-0.195477,-0.069629,-0.184952,-0.084467,-0.178033,-0.290533,0.028033,-0.293203,0.031847,-0.294953,0.032857,-0.296081,0.035957,-0.305473,0.049370,-0.306900,0.065681,-0.312500,0.081066,-0.312500,0.125000,-0.310782,0.134742,-0.311361,0.138024,-0.309695,0.140910,-0.307977,0.150652,
-0.295451,0.165579,-0.285709,0.182453,-0.279350,0.184767,-0.275000,0.189952,-0.255809,0.193336,-0.237500,0.200000,0.237500,0.200000,0.247242,0.198282,0.247242,0.198282,$1*%
%AMFreePoly5*
4,1,48,0.247242,0.198282,0.250524,0.198861,0.253410,0.197195,0.263152,0.195477,0.278079,0.182951,0.294953,0.173209,0.297267,0.166850,0.302452,0.162500,0.305836,0.143309,0.312500,0.125000,0.312500,-0.125000,0.310782,-0.134742,0.311361,-0.138024,0.309695,-0.140910,0.307977,-0.150652,0.295451,-0.165579,0.285709,-0.182453,0.279350,-0.184767,0.275000,-0.189952,0.255809,-0.193336,
0.237500,-0.200000,-0.237500,-0.200000,-0.247242,-0.198282,-0.250524,-0.198861,-0.253410,-0.197195,-0.263152,-0.195477,-0.278079,-0.182951,-0.294953,-0.173209,-0.297267,-0.166850,-0.302452,-0.162500,-0.305836,-0.143309,-0.312500,-0.125000,-0.312500,-0.081066,-0.311691,-0.076480,-0.312214,-0.074530,-0.310821,-0.071542,-0.307977,-0.055414,-0.297451,-0.042870,-0.290533,-0.028033,-0.084467,0.178033,
-0.080653,0.180703,-0.079643,0.182453,-0.076543,0.183581,-0.063130,0.192973,-0.046820,0.194400,-0.031434,0.200000,0.237500,0.200000,0.247242,0.198282,0.247242,0.198282,$1*%
%AMFreePoly6*
4,1,48,0.134742,0.310782,0.138024,0.311361,0.140910,0.309695,0.150652,0.307977,0.165579,0.295451,0.182453,0.285709,0.184767,0.279350,0.189952,0.275000,0.193336,0.255809,0.200000,0.237500,0.200000,-0.031434,0.199191,-0.036020,0.199714,-0.037971,0.198320,-0.040960,0.195477,-0.057086,0.184952,-0.069629,0.178033,-0.084467,-0.028033,-0.290533,-0.031847,-0.293203,-0.032857,-0.294953,
-0.035957,-0.296081,-0.049370,-0.305473,-0.065681,-0.306900,-0.081066,-0.312500,-0.125000,-0.312500,-0.134742,-0.310782,-0.138024,-0.311361,-0.140910,-0.309695,-0.150652,-0.307977,-0.165579,-0.295451,-0.182453,-0.285709,-0.184767,-0.279350,-0.189952,-0.275000,-0.193336,-0.255809,-0.200000,-0.237500,-0.200000,0.237500,-0.198282,0.247242,-0.198861,0.250524,-0.197195,0.253410,-0.195477,0.263152,
-0.182951,0.278079,-0.173209,0.294953,-0.166850,0.297267,-0.162500,0.302452,-0.143309,0.305836,-0.125000,0.312500,0.125000,0.312500,0.134742,0.310782,0.134742,0.310782,$1*%
%AMFreePoly7*
4,1,48,0.134742,0.310782,0.138024,0.311361,0.140910,0.309695,0.150652,0.307977,0.165579,0.295451,0.182453,0.285709,0.184767,0.279350,0.189952,0.275000,0.193336,0.255809,0.200000,0.237500,0.200000,-0.237500,0.198282,-0.247242,0.198861,-0.250524,0.197195,-0.253410,0.195477,-0.263152,0.182951,-0.278079,0.173209,-0.294953,0.166850,-0.297267,0.162500,-0.302452,0.143309,-0.305836,
0.125000,-0.312500,0.081066,-0.312500,0.076480,-0.311691,0.074529,-0.312214,0.071540,-0.310820,0.055414,-0.307977,0.042871,-0.297452,0.028033,-0.290533,-0.178033,-0.084467,-0.180703,-0.080653,-0.182453,-0.079643,-0.183581,-0.076543,-0.192973,-0.063130,-0.194400,-0.046819,-0.200000,-0.031434,-0.200000,0.237500,-0.198282,0.247242,-0.198861,0.250524,-0.197195,0.253410,-0.195477,0.263152,
-0.182951,0.278079,-0.173209,0.294953,-0.166850,0.297267,-0.162500,0.302452,-0.143309,0.305836,-0.125000,0.312500,0.125000,0.312500,0.134742,0.310782,0.134742,0.310782,$1*%
%AMFreePoly8*
4,1,6,0.180000,-0.075000,0.180000,-0.105000,-0.220000,-0.105000,-0.220000,0.105000,0.000000,0.105000,0.180000,-0.075000,0.180000,-0.075000,$1*%
%AMFreePoly9*
4,1,6,0.220000,-0.105000,0.000000,-0.105000,-0.180000,0.075000,-0.180000,0.105000,0.220000,0.105000,0.220000,-0.105000,0.220000,-0.105000,$1*%
%AMFreePoly10*
4,1,6,0.220000,-0.105000,-0.180000,-0.105000,-0.180000,-0.075000,0.000000,0.105000,0.220000,0.105000,0.220000,-0.105000,0.220000,-0.105000,$1*%
%AMFreePoly11*
4,1,6,0.180000,0.075000,0.000000,-0.105000,-0.220000,-0.105000,-0.220000,0.105000,0.180000,0.105000,0.180000,0.075000,0.180000,0.075000,$1*%
G04 Aperture macros list end*
%ADD10RoundRect,0.140000X-0.140000X-0.170000X0.140000X-0.170000X0.140000X0.170000X-0.140000X0.170000X0*%
%ADD11RoundRect,0.135000X-0.135000X-0.185000X0.135000X-0.185000X0.135000X0.185000X-0.135000X0.185000X0*%
%ADD12RoundRect,0.140000X0.170000X-0.140000X0.170000X0.140000X-0.170000X0.140000X-0.170000X-0.140000X0*%
%ADD13RoundRect,0.147500X0.147500X0.172500X-0.147500X0.172500X-0.147500X-0.172500X0.147500X-0.172500X0*%
%ADD14R,0.600000X0.700000*%
%ADD15R,1.600000X0.200000*%
%ADD16R,0.250000X0.300000*%
%ADD17RoundRect,0.140000X-0.170000X0.140000X-0.170000X-0.140000X0.170000X-0.140000X0.170000X0.140000X0*%
%ADD18R,0.450000X0.300000*%
%ADD19R,0.300000X0.450000*%
%ADD20FreePoly0,0.000000*%
%ADD21RoundRect,0.100000X-0.212500X-0.100000X0.212500X-0.100000X0.212500X0.100000X-0.212500X0.100000X0*%
%ADD22FreePoly1,0.000000*%
%ADD23FreePoly2,0.000000*%
%ADD24RoundRect,0.100000X-0.100000X-0.212500X0.100000X-0.212500X0.100000X0.212500X-0.100000X0.212500X0*%
%ADD25FreePoly3,0.000000*%
%ADD26FreePoly4,0.000000*%
%ADD27FreePoly5,0.000000*%
%ADD28FreePoly6,0.000000*%
%ADD29FreePoly7,0.000000*%
%ADD30RoundRect,0.135000X0.185000X-0.135000X0.185000X0.135000X-0.185000X0.135000X-0.185000X-0.135000X0*%
%ADD31FreePoly8,0.000000*%
%ADD32FreePoly9,0.000000*%
%ADD33FreePoly10,0.000000*%
%ADD34FreePoly11,0.000000*%
%ADD35RotRect,0.450000X0.450000X45.000000*%
%ADD36RoundRect,0.014000X-0.181000X-0.161000X0.181000X-0.161000X0.181000X0.161000X-0.181000X0.161000X0*%
%ADD37RoundRect,0.017500X-0.157500X-0.177500X0.157500X-0.177500X0.157500X0.177500X-0.157500X0.177500X0*%
%ADD38RoundRect,0.135000X-0.185000X0.135000X-0.185000X-0.135000X0.185000X-0.135000X0.185000X0.135000X0*%
%ADD39RoundRect,0.135000X0.135000X0.185000X-0.135000X0.185000X-0.135000X-0.185000X0.135000X-0.185000X0*%
%ADD40R,1.000000X1.150000*%
%ADD41RoundRect,0.140000X0.140000X0.170000X-0.140000X0.170000X-0.140000X-0.170000X0.140000X-0.170000X0*%
%ADD42RoundRect,0.150000X0.150000X-0.675000X0.150000X0.675000X-0.150000X0.675000X-0.150000X-0.675000X0*%
%ADD43RoundRect,0.250000X-0.292217X-0.292217X0.292217X-0.292217X0.292217X0.292217X-0.292217X0.292217X0*%
%ADD44RoundRect,0.050000X-0.387500X-0.050000X0.387500X-0.050000X0.387500X0.050000X-0.387500X0.050000X0*%
%ADD45RoundRect,0.050000X-0.050000X-0.387500X0.050000X-0.387500X0.050000X0.387500X-0.050000X0.387500X0*%
%ADD46R,0.700000X0.600000*%
G04 APERTURE END LIST*
D10*
G04 #@! TO.C,C11*
X156820000Y-30700000D03*
X157780000Y-30700000D03*
G04 #@! TD*
D11*
G04 #@! TO.C,R9*
X152545000Y-31687500D03*
X153565000Y-31687500D03*
G04 #@! TD*
D12*
G04 #@! TO.C,C17*
X156400000Y-40107500D03*
X156400000Y-39147500D03*
G04 #@! TD*
G04 #@! TO.C,C1*
X162300000Y-37100000D03*
X162300000Y-36140000D03*
G04 #@! TD*
D13*
G04 #@! TO.C,D2*
X168285000Y-34700000D03*
X167315000Y-34700000D03*
G04 #@! TD*
D12*
G04 #@! TO.C,C10*
X163300000Y-37680000D03*
X163300000Y-36720000D03*
G04 #@! TD*
D14*
G04 #@! TO.C,D1*
X163850000Y-34850000D03*
X162450000Y-34850000D03*
G04 #@! TD*
D15*
G04 #@! TO.C,U1*
X159900000Y-36600000D03*
D16*
X159150000Y-37800000D03*
X159650000Y-37800000D03*
X160150000Y-37800000D03*
X160650000Y-37800000D03*
X160650000Y-35400000D03*
X160150000Y-35400000D03*
X159650000Y-35400000D03*
X159150000Y-35400000D03*
G04 #@! TD*
D17*
G04 #@! TO.C,C4*
X157900000Y-35400000D03*
X157900000Y-36360000D03*
G04 #@! TD*
D12*
G04 #@! TO.C,C5*
X157985600Y-44996800D03*
X157985600Y-44036800D03*
G04 #@! TD*
G04 #@! TO.C,C27*
X156817200Y-44996800D03*
X156817200Y-44036800D03*
G04 #@! TD*
G04 #@! TO.C,C25*
X168000000Y-38300000D03*
X168000000Y-37340000D03*
G04 #@! TD*
D18*
G04 #@! TO.C,U5*
X152600000Y-33437500D03*
X152600000Y-33937500D03*
X152600000Y-34437500D03*
X152600000Y-34937500D03*
D19*
X153125000Y-35462500D03*
X153625000Y-35462500D03*
X154125000Y-35462500D03*
X154625000Y-35462500D03*
D18*
X155150000Y-34937500D03*
X155150000Y-34437500D03*
X155150000Y-33937500D03*
X155150000Y-33437500D03*
D19*
X154625000Y-32912500D03*
X154125000Y-32912500D03*
X153625000Y-32912500D03*
X153125000Y-32912500D03*
G04 #@! TD*
D20*
G04 #@! TO.C,U4*
X152737500Y-37050000D03*
D21*
X152737500Y-37550000D03*
X152737500Y-38050000D03*
D22*
X152737500Y-38550000D03*
D23*
X153400000Y-38712500D03*
D24*
X153900000Y-38712500D03*
D25*
X154400000Y-38712500D03*
D26*
X155062500Y-38550000D03*
D21*
X155062500Y-38050000D03*
X155062500Y-37550000D03*
D27*
X155062500Y-37050000D03*
D28*
X154400000Y-36887500D03*
D24*
X153900000Y-36887500D03*
D29*
X153400000Y-36887500D03*
G04 #@! TD*
D17*
G04 #@! TO.C,C9*
X163800000Y-48120000D03*
X163800000Y-49080000D03*
G04 #@! TD*
G04 #@! TO.C,C18*
X156400000Y-37067500D03*
X156400000Y-38027500D03*
G04 #@! TD*
D30*
G04 #@! TO.C,R2*
X165057500Y-35700000D03*
X165057500Y-34680000D03*
G04 #@! TD*
D12*
G04 #@! TO.C,C26*
X164300000Y-37680000D03*
X164300000Y-36720000D03*
G04 #@! TD*
D17*
G04 #@! TO.C,C8*
X160200000Y-48120000D03*
X160200000Y-49080000D03*
G04 #@! TD*
D31*
G04 #@! TO.C,U3*
X167140000Y-32550000D03*
D32*
X168000000Y-31900000D03*
D33*
X168000000Y-32550000D03*
D34*
X167140000Y-31900000D03*
D35*
X167570000Y-32225000D03*
G04 #@! TD*
D12*
G04 #@! TO.C,C20*
X156400000Y-33827500D03*
X156400000Y-32867500D03*
G04 #@! TD*
D17*
G04 #@! TO.C,C6*
X159000000Y-44036800D03*
X159000000Y-44996800D03*
G04 #@! TD*
D36*
G04 #@! TO.C,U6*
X159130000Y-32850000D03*
X159130000Y-33350000D03*
D37*
X159410000Y-33880000D03*
X159910000Y-33880000D03*
X160410000Y-33880000D03*
D36*
X160690000Y-33350000D03*
X160690000Y-32850000D03*
D37*
X160410000Y-32320000D03*
X159910000Y-32320000D03*
X159410000Y-32320000D03*
G04 #@! TD*
D12*
G04 #@! TO.C,C14*
X169270000Y-32705000D03*
X169270000Y-31745000D03*
G04 #@! TD*
D38*
G04 #@! TO.C,R8*
X151400000Y-31637500D03*
X151400000Y-32657500D03*
G04 #@! TD*
D30*
G04 #@! TO.C,R7*
X156400000Y-35957500D03*
X156400000Y-34937500D03*
G04 #@! TD*
D10*
G04 #@! TO.C,C16*
X167090000Y-30725000D03*
X168050000Y-30725000D03*
G04 #@! TD*
G04 #@! TO.C,C21*
X154757500Y-31687500D03*
X155717500Y-31687500D03*
G04 #@! TD*
D17*
G04 #@! TO.C,C15*
X168680000Y-44020000D03*
X168680000Y-44980000D03*
G04 #@! TD*
D38*
G04 #@! TO.C,R5*
X168680000Y-45990000D03*
X168680000Y-47010000D03*
G04 #@! TD*
D12*
G04 #@! TO.C,C7*
X159000000Y-40432500D03*
X159000000Y-39472500D03*
G04 #@! TD*
G04 #@! TO.C,C12*
X151400000Y-34767500D03*
X151400000Y-33807500D03*
G04 #@! TD*
G04 #@! TO.C,C13*
X167000000Y-38300000D03*
X167000000Y-37340000D03*
G04 #@! TD*
D30*
G04 #@! TO.C,R4*
X168690000Y-42710000D03*
X168690000Y-41690000D03*
G04 #@! TD*
D39*
G04 #@! TO.C,R6*
X168310000Y-35700000D03*
X167290000Y-35700000D03*
G04 #@! TD*
D10*
G04 #@! TO.C,C19*
X154260000Y-40077500D03*
X155220000Y-40077500D03*
G04 #@! TD*
D12*
G04 #@! TO.C,C24*
X168680000Y-40432500D03*
X168680000Y-39472500D03*
G04 #@! TD*
D17*
G04 #@! TO.C,C22*
X161900000Y-32960000D03*
X161900000Y-33920000D03*
G04 #@! TD*
D40*
G04 #@! TO.C,Y1*
X157260000Y-46425000D03*
X157260000Y-48175000D03*
X158660000Y-48175000D03*
X158660000Y-46425000D03*
G04 #@! TD*
D41*
G04 #@! TO.C,C23*
X157780000Y-31700000D03*
X156820000Y-31700000D03*
G04 #@! TD*
D17*
G04 #@! TO.C,C2*
X164800000Y-48120000D03*
X164800000Y-49080000D03*
G04 #@! TD*
D42*
G04 #@! TO.C,U7*
X151295000Y-48325000D03*
X152565000Y-48325000D03*
X153835000Y-48325000D03*
X155105000Y-48325000D03*
X155105000Y-43075000D03*
X153835000Y-43075000D03*
X152565000Y-43075000D03*
X151295000Y-43075000D03*
G04 #@! TD*
D11*
G04 #@! TO.C,R1*
X154727500Y-30700000D03*
X155747500Y-30700000D03*
G04 #@! TD*
D12*
G04 #@! TO.C,C3*
X166000000Y-38300000D03*
X166000000Y-37340000D03*
G04 #@! TD*
D43*
G04 #@! TO.C,U2*
X164537500Y-43800000D03*
X163262500Y-42525000D03*
X163262500Y-43800000D03*
X164537500Y-42525000D03*
D44*
X160462500Y-40562500D03*
X160462500Y-40962500D03*
X160462500Y-41362500D03*
X160462500Y-41762500D03*
X160462500Y-42162500D03*
X160462500Y-42562500D03*
X160462500Y-42962500D03*
X160462500Y-43362500D03*
X160462500Y-43762500D03*
X160462500Y-44162500D03*
X160462500Y-44562500D03*
X160462500Y-44962500D03*
X160462500Y-45362500D03*
X160462500Y-45762500D03*
D45*
X161300000Y-46600000D03*
X161700000Y-46600000D03*
X162100000Y-46600000D03*
X162500000Y-46600000D03*
X162900000Y-46600000D03*
X163300000Y-46600000D03*
X163700000Y-46600000D03*
X164100000Y-46600000D03*
X164500000Y-46600000D03*
X164900000Y-46600000D03*
X165300000Y-46600000D03*
X165700000Y-46600000D03*
X166100000Y-46600000D03*
X166500000Y-46600000D03*
D44*
X167337500Y-45762500D03*
X167337500Y-45362500D03*
X167337500Y-44962500D03*
X167337500Y-44562500D03*
X167337500Y-44162500D03*
X167337500Y-43762500D03*
X167337500Y-43362500D03*
X167337500Y-42962500D03*
X167337500Y-42562500D03*
X167337500Y-42162500D03*
X167337500Y-41762500D03*
X167337500Y-41362500D03*
X167337500Y-40962500D03*
X167337500Y-40562500D03*
D45*
X166500000Y-39725000D03*
X166100000Y-39725000D03*
X165700000Y-39725000D03*
X165300000Y-39725000D03*
X164900000Y-39725000D03*
X164500000Y-39725000D03*
X164100000Y-39725000D03*
X163700000Y-39725000D03*
X163300000Y-39725000D03*
X162900000Y-39725000D03*
X162500000Y-39725000D03*
X162100000Y-39725000D03*
X161700000Y-39725000D03*
X161300000Y-39725000D03*
G04 #@! TD*
D30*
G04 #@! TO.C,R3*
X166120000Y-35700000D03*
X166120000Y-34680000D03*
G04 #@! TD*
D46*
G04 #@! TO.C,D3*
X165800000Y-30900000D03*
X165800000Y-32300000D03*
G04 #@! TD*
M02*
