M48
; DRILL file {KiCad (6.0.5)} date Wed 03 Aug 2022 11:35:42 PM IST
; FORMAT={-:-/ absolute / metric / decimal}
; #@! TF.CreationDate,2022-08-03T23:35:42+05:30
; #@! TF.GenerationSoftware,Kicad,Pcbnew,(6.0.5)
; #@! TF.FileFunction,MixedPlating,1,4
FMAT,2
METRIC
; #@! TA.AperFunction,Plated,PTH,ViaDrill
T1C0.300
; #@! TA.AperFunction,Plated,PTH,ComponentDrill
T2C0.350
; #@! TA.AperFunction,Plated,PTH,ComponentDrill
T3C1.000
%
G90
G05
T1
X152.35Y-32.65
X152.565Y-44.3
X153.4Y-33.6
X153.574Y-37.755
X153.835Y-44.3
X153.899Y-36.107
X154.3Y-37.75
X154.3Y-40.9
X154.398Y-47.102
X155.1Y-46.6
X157.145Y-41.455
X157.5Y-37.066
X158.4Y-33.35
X158.4Y-34.077
X159.551Y-45.556
X161.5Y-42.4
X161.5Y-43.127
X161.5Y-44.403
X161.5Y-45.13
X161.7Y-45.826
X163.37Y-45.38
X164.5Y-40.589
X165.164Y-33.801
X165.9Y-47.6
X166.014Y-33.801
X166.4Y-44.4
X166.4Y-45.127
X166.5Y-42.962
X166.7Y-47.6
T2
X162.625Y-41.887
X162.625Y-43.163
X162.625Y-44.438
X163.9Y-41.887
X163.9Y-43.163
X163.9Y-44.438
X165.175Y-41.887
X165.175Y-43.163
X165.175Y-44.438
T3
X147.25Y-31.11
X147.25Y-33.65
X147.25Y-38.73
X147.25Y-41.27
X147.25Y-43.81
X147.25Y-46.35
X147.25Y-48.89
X147.274Y-36.19
X148.75Y-31.11
X148.75Y-33.65
X148.75Y-38.73
X148.75Y-41.27
X148.75Y-43.81
X148.75Y-46.35
X148.75Y-48.89
X148.774Y-36.19
X151.11Y-27.25
X151.11Y-28.75
X151.11Y-51.25
X151.11Y-52.75
X153.65Y-27.25
X153.65Y-28.75
X153.65Y-51.25
X153.65Y-52.75
X156.19Y-27.226
X156.19Y-28.726
X156.19Y-51.226
X156.19Y-52.726
X158.73Y-27.25
X158.73Y-28.75
X158.73Y-51.25
X158.73Y-52.75
X161.27Y-27.25
X161.27Y-28.75
X161.27Y-51.25
X161.27Y-52.75
X163.81Y-27.25
X163.81Y-28.75
X163.81Y-51.25
X163.81Y-52.75
X166.35Y-27.25
X166.35Y-28.75
X166.35Y-51.25
X166.35Y-52.75
X168.89Y-27.25
X168.89Y-28.75
X168.89Y-51.25
X168.89Y-52.75
X171.25Y-31.11
X171.25Y-33.65
X171.25Y-38.73
X171.25Y-41.27
X171.25Y-43.81
X171.25Y-46.35
X171.25Y-48.89
X171.274Y-36.19
X172.75Y-31.11
X172.75Y-33.65
X172.75Y-38.73
X172.75Y-41.27
X172.75Y-43.81
X172.75Y-46.35
X172.75Y-48.89
X172.774Y-36.19
T0
M30
