G04 #@! TF.GenerationSoftware,KiCad,Pcbnew,(6.0.5)*
G04 #@! TF.CreationDate,2022-08-03T23:35:42+05:30*
G04 #@! TF.ProjectId,picofusion,7069636f-6675-4736-996f-6e2e6b696361,rev?*
G04 #@! TF.SameCoordinates,Original*
G04 #@! TF.FileFunction,Copper,L4,Bot*
G04 #@! TF.FilePolarity,Positive*
%FSLAX46Y46*%
G04 Gerber Fmt 4.6, Leading zero omitted, Abs format (unit mm)*
G04 Created by KiCad (PCBNEW (6.0.5)) date 2022-08-03 23:35:42*
%MOMM*%
%LPD*%
G01*
G04 APERTURE LIST*
G04 #@! TA.AperFunction,ComponentPad*
%ADD10C,1.350000*%
G04 #@! TD*
G04 #@! TA.AperFunction,SMDPad,CuDef*
%ADD11R,1.600000X3.000000*%
G04 #@! TD*
G04 #@! TA.AperFunction,ComponentPad*
%ADD12O,1.350000X1.350000*%
G04 #@! TD*
G04 #@! TA.AperFunction,SMDPad,CuDef*
%ADD13R,3.000000X1.600000*%
G04 #@! TD*
G04 #@! TA.AperFunction,ComponentPad*
%ADD14C,0.600000*%
G04 #@! TD*
G04 #@! TA.AperFunction,SMDPad,CuDef*
%ADD15R,1.000000X1.000000*%
G04 #@! TD*
G04 #@! TA.AperFunction,ViaPad*
%ADD16C,0.600000*%
G04 #@! TD*
G04 #@! TA.AperFunction,Conductor*
%ADD17C,0.150000*%
G04 #@! TD*
G04 APERTURE END LIST*
D10*
G04 #@! TO.P,J4,1,Pin_1*
G04 #@! TO.N,+5V*
X151110000Y-52750000D03*
D11*
X151110000Y-52000000D03*
D10*
X151110000Y-51250000D03*
D11*
G04 #@! TO.P,J4,2,Pin_2*
G04 #@! TO.N,/IMU_HEATER*
X153650000Y-52000000D03*
D12*
X153650000Y-52750000D03*
X153650000Y-51250000D03*
G04 #@! TO.P,J4,3,Pin_3*
G04 #@! TO.N,/BUZZER*
X156190000Y-51226000D03*
X156190000Y-52726000D03*
D11*
X156190000Y-51976000D03*
D12*
G04 #@! TO.P,J4,4,Pin_4*
G04 #@! TO.N,/UART0_TX_TELEM*
X158730000Y-51250000D03*
X158730000Y-52750000D03*
D11*
X158730000Y-52000000D03*
D12*
G04 #@! TO.P,J4,5,Pin_5*
G04 #@! TO.N,/UART0_RX_TELEM*
X161270000Y-51250000D03*
D11*
X161270000Y-52000000D03*
D12*
X161270000Y-52750000D03*
D11*
G04 #@! TO.P,J4,6,Pin_6*
G04 #@! TO.N,/UART0_CTS_TELEM*
X163810000Y-52000000D03*
D12*
X163810000Y-51250000D03*
X163810000Y-52750000D03*
G04 #@! TO.P,J4,7,Pin_7*
G04 #@! TO.N,/UART0_RTS_TELEM*
X166350000Y-52750000D03*
D11*
X166350000Y-52000000D03*
D12*
X166350000Y-51250000D03*
G04 #@! TO.P,J4,8,Pin_8*
G04 #@! TO.N,GND*
X168890000Y-52750000D03*
X168890000Y-51250000D03*
D11*
X168890000Y-52000000D03*
G04 #@! TD*
D10*
G04 #@! TO.P,J2,1,Pin_1*
G04 #@! TO.N,/SPI1_POCI_SD*
X171250000Y-31110000D03*
X172750000Y-31110000D03*
D13*
X172000000Y-31110000D03*
G04 #@! TO.P,J2,2,Pin_2*
G04 #@! TO.N,/SPI1_nCS_SD*
X172000000Y-33650000D03*
D12*
X172750000Y-33650000D03*
X171250000Y-33650000D03*
G04 #@! TO.P,J2,3,Pin_3*
G04 #@! TO.N,/SPI1_SCK_SD*
X172774000Y-36190000D03*
X171274000Y-36190000D03*
D13*
X172024000Y-36190000D03*
D12*
G04 #@! TO.P,J2,4,Pin_4*
G04 #@! TO.N,/SPI1_PICO_SD*
X172750000Y-38730000D03*
X171250000Y-38730000D03*
D13*
X172000000Y-38730000D03*
D12*
G04 #@! TO.P,J2,5,Pin_5*
G04 #@! TO.N,/SD_nCD*
X172750000Y-41270000D03*
X171250000Y-41270000D03*
D13*
X172000000Y-41270000D03*
D12*
G04 #@! TO.P,J2,6,Pin_6*
G04 #@! TO.N,/UART1_RX_GNSS*
X172750000Y-43810000D03*
D13*
X172000000Y-43810000D03*
D12*
X171250000Y-43810000D03*
D13*
G04 #@! TO.P,J2,7,Pin_7*
G04 #@! TO.N,/UART1_TX_GNSS*
X172000000Y-46350000D03*
D12*
X172750000Y-46350000D03*
X171250000Y-46350000D03*
D13*
G04 #@! TO.P,J2,8,Pin_8*
G04 #@! TO.N,GND*
X172000000Y-48890000D03*
D12*
X172750000Y-48890000D03*
X171250000Y-48890000D03*
G04 #@! TD*
D13*
G04 #@! TO.P,J3,1,Pin_1*
G04 #@! TO.N,unconnected-(J3-Pad1)*
X148000000Y-31110000D03*
D10*
X147250000Y-31110000D03*
X148750000Y-31110000D03*
D12*
G04 #@! TO.P,J3,2,Pin_2*
G04 #@! TO.N,unconnected-(J3-Pad2)*
X147250000Y-33650000D03*
D13*
X148000000Y-33650000D03*
D12*
X148750000Y-33650000D03*
G04 #@! TO.P,J3,3,Pin_3*
G04 #@! TO.N,unconnected-(J3-Pad3)*
X148774000Y-36190000D03*
X147274000Y-36190000D03*
D13*
X148024000Y-36190000D03*
D12*
G04 #@! TO.P,J3,4,Pin_4*
G04 #@! TO.N,GND*
X147250000Y-38730000D03*
X148750000Y-38730000D03*
D13*
X148000000Y-38730000D03*
G04 #@! TO.P,J3,5,Pin_5*
G04 #@! TO.N,+3V3*
X148000000Y-41270000D03*
D12*
X148750000Y-41270000D03*
X147250000Y-41270000D03*
D13*
G04 #@! TO.P,J3,6,Pin_6*
G04 #@! TO.N,/CAN_P*
X148000000Y-43810000D03*
D12*
X148750000Y-43810000D03*
X147250000Y-43810000D03*
G04 #@! TO.P,J3,7,Pin_7*
G04 #@! TO.N,/CAN_N*
X147250000Y-46350000D03*
X148750000Y-46350000D03*
D13*
X148000000Y-46350000D03*
G04 #@! TO.P,J3,8,Pin_8*
G04 #@! TO.N,GND*
X148000000Y-48890000D03*
D12*
X147250000Y-48890000D03*
X148750000Y-48890000D03*
G04 #@! TD*
D10*
G04 #@! TO.P,J1,1,Pin_1*
G04 #@! TO.N,/SWCLK*
X151110000Y-27250000D03*
X151110000Y-28750000D03*
D11*
X151110000Y-28000000D03*
D12*
G04 #@! TO.P,J1,2,Pin_2*
G04 #@! TO.N,/SWDIO*
X153650000Y-28750000D03*
D11*
X153650000Y-28000000D03*
D12*
X153650000Y-27250000D03*
G04 #@! TO.P,J1,3,Pin_3*
G04 #@! TO.N,/RUN*
X156190000Y-27226000D03*
D11*
X156190000Y-27976000D03*
D12*
X156190000Y-28726000D03*
G04 #@! TO.P,J1,4,Pin_4*
G04 #@! TO.N,GND*
X158730000Y-27250000D03*
X158730000Y-28750000D03*
D11*
X158730000Y-28000000D03*
G04 #@! TO.P,J1,5,Pin_5*
G04 #@! TO.N,/USB_DP*
X161270000Y-28000000D03*
D12*
X161270000Y-27250000D03*
X161270000Y-28750000D03*
G04 #@! TO.P,J1,6,Pin_6*
G04 #@! TO.N,/USB_DN*
X163810000Y-28750000D03*
X163810000Y-27250000D03*
D11*
X163810000Y-28000000D03*
G04 #@! TO.P,J1,7,Pin_7*
G04 #@! TO.N,+5V*
X166350000Y-28000000D03*
D12*
X166350000Y-28750000D03*
X166350000Y-27250000D03*
G04 #@! TO.P,J1,8,Pin_8*
G04 #@! TO.N,GND*
X168890000Y-27250000D03*
D11*
X168890000Y-28000000D03*
D12*
X168890000Y-28750000D03*
G04 #@! TD*
D14*
G04 #@! TO.P,U2,57,GND*
G04 #@! TO.N,GND*
X162625000Y-44437500D03*
X165175000Y-44437500D03*
X162625000Y-41887500D03*
X162625000Y-43162500D03*
X163900000Y-43162500D03*
X165175000Y-41887500D03*
X163900000Y-41887500D03*
X163900000Y-44437500D03*
X165175000Y-43162500D03*
G04 #@! TD*
D15*
G04 #@! TO.P,TP1,1,1*
G04 #@! TO.N,/QSPI_SCLK*
X163400000Y-35700000D03*
G04 #@! TD*
G04 #@! TO.P,3V3,1,1*
G04 #@! TO.N,+3V3*
X167100000Y-32400000D03*
G04 #@! TD*
D16*
G04 #@! TO.N,+1V1*
X164500000Y-40589000D03*
X163370400Y-45380400D03*
G04 #@! TO.N,/SPI0_POCI*
X157500000Y-37066500D03*
X153898705Y-36107122D03*
G04 #@! TO.N,/UART0_TX_TELEM*
X165900000Y-47600000D03*
G04 #@! TO.N,/UART0_RX_TELEM*
X166700000Y-47600000D03*
G04 #@! TO.N,/UART1_TX_GNSS*
X166400000Y-45126503D03*
G04 #@! TO.N,/UART1_RX_GNSS*
X166400000Y-44400000D03*
G04 #@! TO.N,/USB_DP*
X165163750Y-33801333D03*
G04 #@! TO.N,/USB_DN*
X166013750Y-33801333D03*
G04 #@! TO.N,/IMU_HEATER*
X159550954Y-45556081D03*
G04 #@! TO.N,/SPI0_SCK*
X154300000Y-37750000D03*
X154300000Y-40900000D03*
G04 #@! TO.N,/I2C0_SDA*
X153400000Y-33600000D03*
X161500000Y-42400000D03*
X158400000Y-34076503D03*
G04 #@! TO.N,/I2C0_SCL*
X152350000Y-32650000D03*
X158400000Y-33350000D03*
X161500000Y-43126503D03*
G04 #@! TO.N,/BUZZER*
X161700000Y-45825699D03*
G04 #@! TO.N,/PIO0_CAN_TX*
X161500000Y-45129509D03*
X154398000Y-47102000D03*
G04 #@! TO.N,/PIO0_CAN_RX*
X155100000Y-46600000D03*
X161500000Y-44403006D03*
G04 #@! TO.N,/SPI0_PICO*
X153573513Y-37754758D03*
X157145385Y-41454615D03*
G04 #@! TO.N,/CAN_N*
X153835000Y-44300000D03*
G04 #@! TO.N,/CAN_P*
X152565000Y-44300000D03*
G04 #@! TO.N,/SPI1_POCI_SD*
X166500000Y-42962500D03*
G04 #@! TD*
D17*
G04 #@! TO.N,/SPI0_POCI*
X157466500Y-37066500D02*
X156507122Y-36107122D01*
X156507122Y-36107122D02*
X153898705Y-36107122D01*
X157500000Y-37066500D02*
X157466500Y-37066500D01*
G04 #@! TO.N,/UART0_TX_TELEM*
X164000000Y-49500000D02*
X160480000Y-49500000D01*
X165900000Y-47600000D02*
X164000000Y-49500000D01*
X160480000Y-49500000D02*
X158730000Y-51250000D01*
G04 #@! TO.N,/UART0_RX_TELEM*
X164300000Y-50000000D02*
X162520000Y-50000000D01*
X162520000Y-50000000D02*
X161270000Y-51250000D01*
X166700000Y-47600000D02*
X164300000Y-50000000D01*
G04 #@! TO.N,/UART1_TX_GNSS*
X166400000Y-45126503D02*
X170026503Y-45126503D01*
X170026503Y-45126503D02*
X171250000Y-46350000D01*
G04 #@! TO.N,/UART1_RX_GNSS*
X171250000Y-43810000D02*
X170340000Y-43810000D01*
X170340000Y-43810000D02*
X169750000Y-44400000D01*
X169750000Y-44400000D02*
X166400000Y-44400000D01*
G04 #@! TO.N,/USB_DP*
X165163750Y-33801333D02*
X165388750Y-33576333D01*
X165388750Y-33576333D02*
X165388750Y-32868750D01*
X165388750Y-32868750D02*
X161270000Y-28750000D01*
G04 #@! TO.N,/USB_DN*
X165788750Y-32703064D02*
X165788750Y-33576333D01*
X165062590Y-31410203D02*
X164991370Y-31481420D01*
X163810000Y-30724314D02*
X164142843Y-31057157D01*
X165788750Y-33576333D02*
X166013750Y-33801333D01*
X163810000Y-28750000D02*
X163810000Y-30724314D01*
X164991370Y-31905684D02*
X164991371Y-31905685D01*
X164567108Y-31057156D02*
X164567107Y-31057157D01*
X164991371Y-31905685D02*
X165788750Y-32703064D01*
X164567107Y-31057157D02*
X164638326Y-30985939D01*
X165062589Y-31410204D02*
X165062590Y-31410203D01*
X164567133Y-31057181D02*
G75*
G02*
X164142843Y-31057157I-212133J212181D01*
G01*
X164991322Y-31905732D02*
G75*
G02*
X164991370Y-31481420I212178J212132D01*
G01*
X165062589Y-30985940D02*
G75*
G03*
X164638327Y-30985940I-212131J-212131D01*
G01*
X165062617Y-31410232D02*
G75*
G03*
X165062589Y-30985940I-212117J212132D01*
G01*
G04 #@! TO.N,/IMU_HEATER*
X159107035Y-46000000D02*
X154500000Y-46000000D01*
X154500000Y-46000000D02*
X153650000Y-46850000D01*
X159550954Y-45556081D02*
X159107035Y-46000000D01*
X153650000Y-46850000D02*
X153650000Y-51250000D01*
G04 #@! TO.N,/SPI0_SCK*
X154300000Y-40900000D02*
X154300000Y-37750000D01*
G04 #@! TO.N,/I2C0_SDA*
X161500000Y-37176503D02*
X158400000Y-34076503D01*
X161500000Y-42400000D02*
X161500000Y-37176503D01*
X157923497Y-33600000D02*
X153400000Y-33600000D01*
X158400000Y-34076503D02*
X157923497Y-33600000D01*
G04 #@! TO.N,/I2C0_SCL*
X157700000Y-32650000D02*
X158400000Y-33350000D01*
X162000000Y-42190064D02*
X162000000Y-36950000D01*
X152350000Y-32650000D02*
X157700000Y-32650000D01*
X162000000Y-36950000D02*
X158400000Y-33350000D01*
X162002000Y-42624503D02*
X162002000Y-42192064D01*
X161500000Y-43126503D02*
X162002000Y-42624503D01*
X162002000Y-42192064D02*
X162000000Y-42190064D01*
G04 #@! TO.N,/BUZZER*
X157416000Y-50000000D02*
X156190000Y-51226000D01*
X161700000Y-47500000D02*
X159200000Y-50000000D01*
X161700000Y-45825699D02*
X161700000Y-47500000D01*
X159200000Y-50000000D02*
X157416000Y-50000000D01*
G04 #@! TO.N,/PIO0_CAN_TX*
X161500000Y-45139755D02*
X161500000Y-45129509D01*
X159537755Y-47102000D02*
X161500000Y-45139755D01*
X154398000Y-47102000D02*
X159537755Y-47102000D01*
G04 #@! TO.N,/PIO0_CAN_RX*
X159303006Y-46600000D02*
X161500000Y-44403006D01*
X155100000Y-46600000D02*
X159303006Y-46600000D01*
G04 #@! TO.N,/SPI0_PICO*
X154144679Y-41454615D02*
X153573513Y-40883449D01*
X153573513Y-37754758D02*
X153575000Y-37756245D01*
X153573513Y-40883449D02*
X153573513Y-37754758D01*
X157145385Y-41454615D02*
X154144679Y-41454615D01*
G04 #@! TO.N,/CAN_N*
X151785000Y-46350000D02*
X148750000Y-46350000D01*
X153835000Y-44300000D02*
X151785000Y-46350000D01*
G04 #@! TO.N,/CAN_P*
X150890000Y-45950000D02*
X148750000Y-43810000D01*
X152565000Y-44300000D02*
X152565000Y-45004314D01*
X152565000Y-45004314D02*
X151619314Y-45950000D01*
X151619314Y-45950000D02*
X150890000Y-45950000D01*
G04 #@! TD*
M02*
