G04 #@! TF.GenerationSoftware,KiCad,Pcbnew,(6.0.7)*
G04 #@! TF.CreationDate,2022-09-17T21:46:44-05:00*
G04 #@! TF.ProjectId,picofusion,7069636f-6675-4736-996f-6e2e6b696361,rev?*
G04 #@! TF.SameCoordinates,Original*
G04 #@! TF.FileFunction,Copper,L2,Inr*
G04 #@! TF.FilePolarity,Positive*
%FSLAX46Y46*%
G04 Gerber Fmt 4.6, Leading zero omitted, Abs format (unit mm)*
G04 Created by KiCad (PCBNEW (6.0.7)) date 2022-09-17 21:46:44*
%MOMM*%
%LPD*%
G01*
G04 APERTURE LIST*
G04 #@! TA.AperFunction,ComponentPad*
%ADD10C,1.350000*%
G04 #@! TD*
G04 #@! TA.AperFunction,ComponentPad*
%ADD11O,1.350000X1.350000*%
G04 #@! TD*
G04 #@! TA.AperFunction,ComponentPad*
%ADD12C,0.600000*%
G04 #@! TD*
G04 #@! TA.AperFunction,ViaPad*
%ADD13C,0.600000*%
G04 #@! TD*
G04 APERTURE END LIST*
D10*
G04 #@! TO.N,+5V*
G04 #@! TO.C,J4*
X151110000Y-52750000D03*
X151110000Y-51250000D03*
D11*
G04 #@! TO.N,/IMU_HEATER*
X153650000Y-52750000D03*
X153650000Y-51250000D03*
G04 #@! TO.N,/BUZZER*
X156190000Y-51226000D03*
X156190000Y-52726000D03*
G04 #@! TO.N,/UART0_TX_TELEM*
X158730000Y-51250000D03*
X158730000Y-52750000D03*
G04 #@! TO.N,/UART0_RX_TELEM*
X161270000Y-51250000D03*
X161270000Y-52750000D03*
G04 #@! TO.N,/UART0_CTS_TELEM*
X163810000Y-51250000D03*
X163810000Y-52750000D03*
G04 #@! TO.N,/UART0_RTS_TELEM*
X166350000Y-52750000D03*
X166350000Y-51250000D03*
G04 #@! TO.N,GND*
X168890000Y-52750000D03*
X168890000Y-51250000D03*
G04 #@! TD*
D10*
G04 #@! TO.N,/SPI1_SCK_SD*
G04 #@! TO.C,J2*
X171250000Y-31110000D03*
X172750000Y-31110000D03*
D11*
G04 #@! TO.N,/SPI1_POCI_SD*
X172750000Y-33650000D03*
X171250000Y-33650000D03*
G04 #@! TO.N,/SPI1_PICO_SD*
X172774000Y-36190000D03*
X171274000Y-36190000D03*
G04 #@! TO.N,/SPI1_nCS_SD*
X172750000Y-38730000D03*
X171250000Y-38730000D03*
G04 #@! TO.N,/SD_nCD*
X172750000Y-41270000D03*
X171250000Y-41270000D03*
G04 #@! TO.N,/UART1_RX_GNSS*
X172750000Y-43810000D03*
X171250000Y-43810000D03*
G04 #@! TO.N,/UART1_TX_GNSS*
X172750000Y-46350000D03*
X171250000Y-46350000D03*
G04 #@! TO.N,GND*
X172750000Y-48890000D03*
X171250000Y-48890000D03*
G04 #@! TD*
D10*
G04 #@! TO.N,/SDA{slash}SDI*
G04 #@! TO.C,J3*
X147250000Y-31110000D03*
X148750000Y-31110000D03*
D11*
G04 #@! TO.N,/SCL{slash}SCK*
X147250000Y-33650000D03*
X148750000Y-33650000D03*
G04 #@! TO.N,/SPI0_POCI*
X148774000Y-36190000D03*
X147274000Y-36190000D03*
G04 #@! TO.N,/NEOPIXEL*
X147250000Y-38730000D03*
X148750000Y-38730000D03*
G04 #@! TO.N,+3V3*
X148750000Y-41270000D03*
X147250000Y-41270000D03*
G04 #@! TO.N,/CAN_N*
X148750000Y-43810000D03*
X147250000Y-43810000D03*
G04 #@! TO.N,/CAN_P*
X147250000Y-46350000D03*
X148750000Y-46350000D03*
G04 #@! TO.N,GND*
X147250000Y-48890000D03*
X148750000Y-48890000D03*
G04 #@! TD*
D10*
G04 #@! TO.N,/SWCLK*
G04 #@! TO.C,J1*
X151110000Y-27250000D03*
X151110000Y-28750000D03*
D11*
G04 #@! TO.N,/SWDIO*
X153650000Y-28750000D03*
X153650000Y-27250000D03*
G04 #@! TO.N,/RUN*
X156190000Y-27226000D03*
X156190000Y-28726000D03*
G04 #@! TO.N,/BOOTSEL*
X158730000Y-27250000D03*
X158730000Y-28750000D03*
G04 #@! TO.N,/USB_DP*
X161270000Y-27250000D03*
X161270000Y-28750000D03*
G04 #@! TO.N,/USB_DN*
X163810000Y-28750000D03*
X163810000Y-27250000D03*
G04 #@! TO.N,+5V*
X166350000Y-28750000D03*
X166350000Y-27250000D03*
G04 #@! TO.N,GND*
X168890000Y-27250000D03*
X168890000Y-28750000D03*
G04 #@! TD*
D12*
G04 #@! TO.N,GND*
G04 #@! TO.C,U2*
X162625000Y-44437500D03*
X165175000Y-44437500D03*
X162625000Y-41887500D03*
X162625000Y-43162500D03*
X163900000Y-43162500D03*
X165175000Y-41887500D03*
X163900000Y-41887500D03*
X163900000Y-44437500D03*
X165175000Y-43162500D03*
G04 #@! TD*
D13*
G04 #@! TO.N,+1V1*
X164500000Y-40589000D03*
X164500000Y-45700000D03*
G04 #@! TO.N,GND*
X159300000Y-46950000D03*
X162915600Y-45847000D03*
X161100000Y-32000000D03*
X169048500Y-36800000D03*
X152900000Y-45110400D03*
X165251860Y-48751063D03*
X156000000Y-39850000D03*
X152900000Y-45875000D03*
X168900000Y-32450000D03*
X158374714Y-36039199D03*
X156025000Y-36700000D03*
X153575000Y-34625000D03*
X162405385Y-30594615D03*
X155637548Y-31296778D03*
X169200000Y-46500000D03*
X168300000Y-33150000D03*
X159450000Y-39450000D03*
X167895385Y-39945385D03*
X150800000Y-35850000D03*
X166300000Y-36900000D03*
X158855351Y-34043149D03*
X157250000Y-49450000D03*
X156800000Y-34575000D03*
X168000000Y-36850000D03*
X156950000Y-43250000D03*
X163750000Y-34625000D03*
X163300000Y-36250000D03*
X156400000Y-32150000D03*
X155111365Y-39588635D03*
X162300000Y-35650000D03*
X152900000Y-44350000D03*
X161615365Y-48293865D03*
X164300000Y-36250000D03*
X167000000Y-36850000D03*
X162750000Y-48798500D03*
X160400000Y-30650000D03*
X150880000Y-49330000D03*
X157950000Y-43243700D03*
X166966500Y-35250000D03*
X151888948Y-43009928D03*
X155800000Y-49500000D03*
X166750000Y-49398500D03*
X162450000Y-32550000D03*
G04 #@! TO.N,+3V3*
X166966500Y-34250000D03*
X154159999Y-31143001D03*
X163800000Y-37700000D03*
X156702677Y-37726728D03*
X166500000Y-44150000D03*
X153645366Y-40254634D03*
X157446584Y-33537355D03*
X167750000Y-39150000D03*
X166400000Y-40900000D03*
X150751500Y-42700000D03*
X167300000Y-38600000D03*
X166450000Y-33150000D03*
X169150000Y-43800000D03*
X150800000Y-34900000D03*
X152550000Y-31150000D03*
X157276800Y-35382200D03*
X159400000Y-30650000D03*
X158500000Y-40450000D03*
X157573500Y-38686655D03*
X163750000Y-48798500D03*
X162450000Y-33500000D03*
X150750000Y-33850000D03*
X151946000Y-49340000D03*
X158950000Y-43243700D03*
X169200000Y-45500000D03*
X154250500Y-33564002D03*
X155950000Y-39050000D03*
G04 #@! TO.N,/RUN*
X165947009Y-43554486D03*
G04 #@! TO.N,+5V*
X163000000Y-40600000D03*
X163750000Y-33200000D03*
X155100000Y-44800000D03*
X155550000Y-43762500D03*
G04 #@! TO.N,/SPI0_nCS*
X156657645Y-40949688D03*
X169150000Y-48500000D03*
G04 #@! TO.N,/NEOPIXEL*
X153650000Y-43450000D03*
X161250000Y-43762500D03*
G04 #@! TO.N,/SPI0_POCI*
X152700000Y-36400000D03*
X157384128Y-40955044D03*
G04 #@! TO.N,/SPI1_nCS_SD*
X168750000Y-38700000D03*
X166337016Y-42200000D03*
G04 #@! TO.N,/SD_nCD*
X169150000Y-47500000D03*
X169750000Y-42800000D03*
G04 #@! TO.N,/USB_DP*
X165163750Y-33801333D03*
G04 #@! TO.N,/USB_DN*
X166013750Y-33801333D03*
G04 #@! TO.N,/SPI0_SCK*
X151866182Y-41446084D03*
X154200000Y-37800000D03*
X155931143Y-40950008D03*
G04 #@! TO.N,/I2C0_SDA*
X155550000Y-32800000D03*
X161414099Y-40589471D03*
X157800000Y-34600000D03*
G04 #@! TO.N,/I2C0_SCL*
X155600000Y-30550000D03*
X158062537Y-33922593D03*
X162140601Y-40589000D03*
G04 #@! TO.N,/BUZZER*
X161318827Y-45497671D03*
G04 #@! TO.N,/SWCLK*
X165268090Y-47522666D03*
G04 #@! TO.N,/SWDIO*
X165200500Y-45350000D03*
G04 #@! TO.N,/SPI0_PICO*
X153458329Y-37815365D03*
X151300000Y-40650000D03*
X155135961Y-40944584D03*
G04 #@! TO.N,/SPI1_POCI_SD*
X166350000Y-42950000D03*
G04 #@! TO.N,/SDA{slash}SDI*
X151300000Y-38606500D03*
X150749500Y-31800000D03*
G04 #@! TO.N,/SCL{slash}SCK*
X150750000Y-37900000D03*
G04 #@! TO.N,/SPI1_PICO_SD*
X168600000Y-41400000D03*
G04 #@! TO.N,/QSPI_nCS*
X157400000Y-30350000D03*
X158750000Y-37800000D03*
G04 #@! TD*
G04 #@! TA.AperFunction,Conductor*
G04 #@! TO.N,GND*
G36*
X150028584Y-27778502D02*
G01*
X150074889Y-27831748D01*
X150080668Y-27844285D01*
X150138019Y-27925434D01*
X150160999Y-27992607D01*
X150144015Y-28061542D01*
X150134071Y-28076159D01*
X150128074Y-28083767D01*
X150113181Y-28102658D01*
X150011905Y-28295154D01*
X150002931Y-28324055D01*
X149950059Y-28494329D01*
X149947403Y-28502882D01*
X149921837Y-28718887D01*
X149936063Y-28935933D01*
X149937484Y-28941529D01*
X149937485Y-28941534D01*
X149961386Y-29035641D01*
X149989605Y-29146753D01*
X150080668Y-29344285D01*
X150084001Y-29349001D01*
X150185907Y-29493194D01*
X150206204Y-29521914D01*
X150210346Y-29525949D01*
X150266289Y-29580446D01*
X150362009Y-29673692D01*
X150542863Y-29794536D01*
X150548171Y-29796817D01*
X150548172Y-29796817D01*
X150737409Y-29878119D01*
X150737412Y-29878120D01*
X150742712Y-29880397D01*
X150748342Y-29881671D01*
X150940577Y-29925170D01*
X150954860Y-29928402D01*
X150960631Y-29928629D01*
X150960633Y-29928629D01*
X151033620Y-29931496D01*
X151172205Y-29936941D01*
X151387466Y-29905730D01*
X151392930Y-29903875D01*
X151392935Y-29903874D01*
X151587963Y-29837671D01*
X151587968Y-29837669D01*
X151593435Y-29835813D01*
X151599296Y-29832531D01*
X151709647Y-29770731D01*
X151783213Y-29729532D01*
X151950446Y-29590446D01*
X152089532Y-29423213D01*
X152195813Y-29233435D01*
X152197669Y-29227968D01*
X152197671Y-29227963D01*
X152262614Y-29036646D01*
X152303451Y-28978569D01*
X152369204Y-28951791D01*
X152438996Y-28964812D01*
X152490669Y-29013499D01*
X152504050Y-29046131D01*
X152529605Y-29146753D01*
X152620668Y-29344285D01*
X152624001Y-29349001D01*
X152725907Y-29493194D01*
X152746204Y-29521914D01*
X152750346Y-29525949D01*
X152806289Y-29580446D01*
X152902009Y-29673692D01*
X153082863Y-29794536D01*
X153088171Y-29796817D01*
X153088172Y-29796817D01*
X153277409Y-29878119D01*
X153277412Y-29878120D01*
X153282712Y-29880397D01*
X153288342Y-29881671D01*
X153480577Y-29925170D01*
X153494860Y-29928402D01*
X153500631Y-29928629D01*
X153500633Y-29928629D01*
X153573620Y-29931496D01*
X153712205Y-29936941D01*
X153927466Y-29905730D01*
X153932930Y-29903875D01*
X153932935Y-29903874D01*
X154127963Y-29837671D01*
X154127968Y-29837669D01*
X154133435Y-29835813D01*
X154139296Y-29832531D01*
X154249647Y-29770731D01*
X154323213Y-29729532D01*
X154490446Y-29590446D01*
X154629532Y-29423213D01*
X154735813Y-29233435D01*
X154737669Y-29227968D01*
X154737671Y-29227963D01*
X154805730Y-29027466D01*
X154808004Y-29028238D01*
X154838208Y-28975657D01*
X154901241Y-28942986D01*
X154971931Y-28949579D01*
X155027834Y-28993344D01*
X155047481Y-29035641D01*
X155068183Y-29117156D01*
X155068185Y-29117161D01*
X155069605Y-29122753D01*
X155160668Y-29320285D01*
X155164001Y-29325001D01*
X155236553Y-29427659D01*
X155286204Y-29497914D01*
X155350409Y-29560459D01*
X155370926Y-29580446D01*
X155405764Y-29642307D01*
X155401627Y-29713183D01*
X155359828Y-29770571D01*
X155323611Y-29789977D01*
X155253579Y-29813818D01*
X155247575Y-29817512D01*
X155105095Y-29905166D01*
X155105092Y-29905168D01*
X155099088Y-29908862D01*
X155094053Y-29913793D01*
X155094050Y-29913795D01*
X154990535Y-30015165D01*
X154969493Y-30035771D01*
X154871235Y-30188238D01*
X154868826Y-30194858D01*
X154868824Y-30194861D01*
X154812127Y-30350634D01*
X154809197Y-30358685D01*
X154806165Y-30382683D01*
X154777786Y-30447756D01*
X154718727Y-30487158D01*
X154647740Y-30488376D01*
X154613646Y-30473274D01*
X154608085Y-30469745D01*
X154516665Y-30411728D01*
X154435086Y-30382679D01*
X154352424Y-30353244D01*
X154352419Y-30353243D01*
X154345789Y-30350882D01*
X154338801Y-30350049D01*
X154338798Y-30350048D01*
X154215697Y-30335369D01*
X154165679Y-30329405D01*
X154158676Y-30330141D01*
X154158675Y-30330141D01*
X153992287Y-30347629D01*
X153992285Y-30347630D01*
X153985287Y-30348365D01*
X153813578Y-30406819D01*
X153751108Y-30445251D01*
X153665094Y-30498167D01*
X153665091Y-30498169D01*
X153659087Y-30501863D01*
X153654052Y-30506794D01*
X153654049Y-30506796D01*
X153534524Y-30623844D01*
X153529492Y-30628772D01*
X153458443Y-30739018D01*
X153404731Y-30785441D01*
X153334444Y-30795456D01*
X153269901Y-30765881D01*
X153245680Y-30737531D01*
X153187626Y-30644624D01*
X153177759Y-30634688D01*
X153064778Y-30520915D01*
X153064774Y-30520912D01*
X153059815Y-30515918D01*
X153048787Y-30508919D01*
X152980644Y-30465675D01*
X152906666Y-30418727D01*
X152866847Y-30404548D01*
X152742425Y-30360243D01*
X152742420Y-30360242D01*
X152735790Y-30357881D01*
X152728802Y-30357048D01*
X152728799Y-30357047D01*
X152594399Y-30341021D01*
X152555680Y-30336404D01*
X152548677Y-30337140D01*
X152548676Y-30337140D01*
X152382288Y-30354628D01*
X152382286Y-30354629D01*
X152375288Y-30355364D01*
X152203579Y-30413818D01*
X152197575Y-30417512D01*
X152055095Y-30505166D01*
X152055092Y-30505168D01*
X152049088Y-30508862D01*
X152044053Y-30513793D01*
X152044050Y-30513795D01*
X151957025Y-30599017D01*
X151919493Y-30635771D01*
X151821235Y-30788238D01*
X151818826Y-30794858D01*
X151818824Y-30794861D01*
X151774983Y-30915314D01*
X151759197Y-30958685D01*
X151736463Y-31138640D01*
X151754163Y-31319160D01*
X151811418Y-31491273D01*
X151815065Y-31497295D01*
X151815066Y-31497297D01*
X151897494Y-31633402D01*
X151905380Y-31646424D01*
X152031382Y-31776902D01*
X152069242Y-31801677D01*
X152166568Y-31865365D01*
X152183159Y-31876222D01*
X152189763Y-31878678D01*
X152189765Y-31878679D01*
X152346558Y-31936990D01*
X152346560Y-31936990D01*
X152353168Y-31939448D01*
X152436995Y-31950633D01*
X152525980Y-31962507D01*
X152525984Y-31962507D01*
X152532961Y-31963438D01*
X152539972Y-31962800D01*
X152539976Y-31962800D01*
X152682459Y-31949832D01*
X152713600Y-31946998D01*
X152720302Y-31944820D01*
X152720304Y-31944820D01*
X152879409Y-31893124D01*
X152879412Y-31893123D01*
X152886108Y-31890947D01*
X152982513Y-31833478D01*
X153035860Y-31801677D01*
X153035862Y-31801676D01*
X153041912Y-31798069D01*
X153173266Y-31672982D01*
X153252998Y-31552975D01*
X153307355Y-31507305D01*
X153377775Y-31498272D01*
X153441899Y-31528745D01*
X153465722Y-31557431D01*
X153499431Y-31613091D01*
X153515379Y-31639425D01*
X153641381Y-31769903D01*
X153677631Y-31793624D01*
X153769501Y-31853742D01*
X153793158Y-31869223D01*
X153799762Y-31871679D01*
X153799764Y-31871680D01*
X153956557Y-31929991D01*
X153956559Y-31929991D01*
X153963167Y-31932449D01*
X154046994Y-31943634D01*
X154135979Y-31955508D01*
X154135983Y-31955508D01*
X154142960Y-31956439D01*
X154149971Y-31955801D01*
X154149975Y-31955801D01*
X154292458Y-31942833D01*
X154323599Y-31939999D01*
X154330301Y-31937821D01*
X154330303Y-31937821D01*
X154489408Y-31886125D01*
X154489411Y-31886124D01*
X154496107Y-31883948D01*
X154636931Y-31800000D01*
X154645859Y-31794678D01*
X154645861Y-31794677D01*
X154651911Y-31791070D01*
X154783265Y-31665983D01*
X154883642Y-31514903D01*
X154941421Y-31362800D01*
X154945554Y-31351921D01*
X154945555Y-31351919D01*
X154948054Y-31345339D01*
X154949228Y-31336990D01*
X154953330Y-31307799D01*
X154982619Y-31243126D01*
X155042223Y-31204553D01*
X155113219Y-31204328D01*
X155147094Y-31219902D01*
X155233159Y-31276222D01*
X155239763Y-31278678D01*
X155239765Y-31278679D01*
X155396558Y-31336990D01*
X155396560Y-31336990D01*
X155403168Y-31339448D01*
X155486995Y-31350633D01*
X155575980Y-31362507D01*
X155575984Y-31362507D01*
X155582961Y-31363438D01*
X155589972Y-31362800D01*
X155589976Y-31362800D01*
X155732459Y-31349832D01*
X155763600Y-31346998D01*
X155770302Y-31344820D01*
X155770304Y-31344820D01*
X155929409Y-31293124D01*
X155929412Y-31293123D01*
X155936108Y-31290947D01*
X156081035Y-31204553D01*
X156085860Y-31201677D01*
X156085862Y-31201676D01*
X156091912Y-31198069D01*
X156223266Y-31072982D01*
X156323643Y-30921902D01*
X156376669Y-30782312D01*
X156385555Y-30758920D01*
X156385556Y-30758918D01*
X156388055Y-30752338D01*
X156391507Y-30727773D01*
X156400514Y-30663691D01*
X156429803Y-30599017D01*
X156489407Y-30560444D01*
X156560403Y-30560219D01*
X156620251Y-30598413D01*
X156644844Y-30641451D01*
X156661418Y-30691273D01*
X156665065Y-30697295D01*
X156665066Y-30697297D01*
X156734624Y-30812151D01*
X156755380Y-30846424D01*
X156760269Y-30851487D01*
X156760270Y-30851488D01*
X156806304Y-30899157D01*
X156881382Y-30976902D01*
X156940082Y-31015314D01*
X157019849Y-31067512D01*
X157033159Y-31076222D01*
X157039763Y-31078678D01*
X157039765Y-31078679D01*
X157196558Y-31136990D01*
X157196560Y-31136990D01*
X157203168Y-31139448D01*
X157286995Y-31150633D01*
X157375980Y-31162507D01*
X157375984Y-31162507D01*
X157382961Y-31163438D01*
X157389972Y-31162800D01*
X157389976Y-31162800D01*
X157532459Y-31149832D01*
X157563600Y-31146998D01*
X157570302Y-31144820D01*
X157570304Y-31144820D01*
X157729409Y-31093124D01*
X157729412Y-31093123D01*
X157736108Y-31090947D01*
X157851932Y-31021902D01*
X157885860Y-31001677D01*
X157885862Y-31001676D01*
X157891912Y-30998069D01*
X158023266Y-30872982D01*
X158123643Y-30721902D01*
X158184976Y-30560444D01*
X158185555Y-30558920D01*
X158185556Y-30558918D01*
X158188055Y-30552338D01*
X158192718Y-30519160D01*
X158212748Y-30376639D01*
X158212748Y-30376636D01*
X158213299Y-30372717D01*
X158213506Y-30357881D01*
X158213561Y-30353962D01*
X158213561Y-30353957D01*
X158213616Y-30350000D01*
X158193397Y-30169745D01*
X158189813Y-30159453D01*
X158139181Y-30014057D01*
X158135667Y-29943147D01*
X158171049Y-29881595D01*
X158234091Y-29848943D01*
X158307909Y-29856852D01*
X158357409Y-29878119D01*
X158357412Y-29878120D01*
X158362712Y-29880397D01*
X158368342Y-29881671D01*
X158560577Y-29925170D01*
X158574860Y-29928402D01*
X158580629Y-29928629D01*
X158580632Y-29928629D01*
X158676061Y-29932378D01*
X158743344Y-29955039D01*
X158787694Y-30010479D01*
X158795031Y-30081095D01*
X158769960Y-30135314D01*
X158769493Y-30135771D01*
X158765678Y-30141691D01*
X158765677Y-30141692D01*
X158724812Y-30205103D01*
X158671235Y-30288238D01*
X158668826Y-30294858D01*
X158668824Y-30294861D01*
X158622365Y-30422506D01*
X158609197Y-30458685D01*
X158586463Y-30638640D01*
X158604163Y-30819160D01*
X158661418Y-30991273D01*
X158665065Y-30997295D01*
X158665066Y-30997297D01*
X158751720Y-31140380D01*
X158755380Y-31146424D01*
X158760269Y-31151487D01*
X158760270Y-31151488D01*
X158811298Y-31204328D01*
X158881382Y-31276902D01*
X158945959Y-31319160D01*
X158989477Y-31347637D01*
X159033159Y-31376222D01*
X159039763Y-31378678D01*
X159039765Y-31378679D01*
X159196558Y-31436990D01*
X159196560Y-31436990D01*
X159203168Y-31439448D01*
X159286995Y-31450633D01*
X159375980Y-31462507D01*
X159375984Y-31462507D01*
X159382961Y-31463438D01*
X159389972Y-31462800D01*
X159389976Y-31462800D01*
X159532459Y-31449832D01*
X159563600Y-31446998D01*
X159570302Y-31444820D01*
X159570304Y-31444820D01*
X159729409Y-31393124D01*
X159729412Y-31393123D01*
X159736108Y-31390947D01*
X159856532Y-31319160D01*
X159885860Y-31301677D01*
X159885862Y-31301676D01*
X159891912Y-31298069D01*
X160023266Y-31172982D01*
X160123643Y-31021902D01*
X160172457Y-30893400D01*
X160185555Y-30858920D01*
X160185556Y-30858918D01*
X160188055Y-30852338D01*
X160189733Y-30840401D01*
X160212748Y-30676639D01*
X160212748Y-30676636D01*
X160213299Y-30672717D01*
X160213616Y-30650000D01*
X160193397Y-30469745D01*
X160190929Y-30462658D01*
X160136064Y-30305106D01*
X160136062Y-30305103D01*
X160133745Y-30298448D01*
X160069017Y-30194861D01*
X160041359Y-30150598D01*
X160037626Y-30144624D01*
X159974539Y-30081095D01*
X159914778Y-30020915D01*
X159914774Y-30020912D01*
X159909815Y-30015918D01*
X159901245Y-30010479D01*
X159827893Y-29963929D01*
X159756666Y-29918727D01*
X159705849Y-29900632D01*
X159592425Y-29860243D01*
X159592420Y-29860242D01*
X159585790Y-29857881D01*
X159578801Y-29857048D01*
X159571934Y-29855437D01*
X159572428Y-29853332D01*
X159516733Y-29829510D01*
X159476914Y-29770731D01*
X159475195Y-29699755D01*
X159516345Y-29635441D01*
X159570446Y-29590446D01*
X159709532Y-29423213D01*
X159815813Y-29233435D01*
X159817669Y-29227968D01*
X159817671Y-29227963D01*
X159882614Y-29036646D01*
X159923451Y-28978569D01*
X159989204Y-28951791D01*
X160058996Y-28964812D01*
X160110669Y-29013499D01*
X160124050Y-29046131D01*
X160149605Y-29146753D01*
X160240668Y-29344285D01*
X160244001Y-29349001D01*
X160345907Y-29493194D01*
X160366204Y-29521914D01*
X160370346Y-29525949D01*
X160426289Y-29580446D01*
X160522009Y-29673692D01*
X160702863Y-29794536D01*
X160708171Y-29796817D01*
X160708172Y-29796817D01*
X160897409Y-29878119D01*
X160897412Y-29878120D01*
X160902712Y-29880397D01*
X160908342Y-29881671D01*
X161100577Y-29925170D01*
X161114860Y-29928402D01*
X161120631Y-29928629D01*
X161120633Y-29928629D01*
X161193620Y-29931496D01*
X161332205Y-29936941D01*
X161547466Y-29905730D01*
X161552930Y-29903875D01*
X161552935Y-29903874D01*
X161747963Y-29837671D01*
X161747968Y-29837669D01*
X161753435Y-29835813D01*
X161759296Y-29832531D01*
X161869647Y-29770731D01*
X161943213Y-29729532D01*
X162110446Y-29590446D01*
X162249532Y-29423213D01*
X162355813Y-29233435D01*
X162357669Y-29227968D01*
X162357671Y-29227963D01*
X162422614Y-29036646D01*
X162463451Y-28978569D01*
X162529204Y-28951791D01*
X162598996Y-28964812D01*
X162650669Y-29013499D01*
X162664050Y-29046131D01*
X162689605Y-29146753D01*
X162780668Y-29344285D01*
X162784001Y-29349001D01*
X162885907Y-29493194D01*
X162906204Y-29521914D01*
X162910346Y-29525949D01*
X162966289Y-29580446D01*
X163062009Y-29673692D01*
X163242863Y-29794536D01*
X163248171Y-29796817D01*
X163248172Y-29796817D01*
X163437409Y-29878119D01*
X163437412Y-29878120D01*
X163442712Y-29880397D01*
X163448342Y-29881671D01*
X163640577Y-29925170D01*
X163654860Y-29928402D01*
X163660631Y-29928629D01*
X163660633Y-29928629D01*
X163733620Y-29931496D01*
X163872205Y-29936941D01*
X164087466Y-29905730D01*
X164092930Y-29903875D01*
X164092935Y-29903874D01*
X164287963Y-29837671D01*
X164287968Y-29837669D01*
X164293435Y-29835813D01*
X164299296Y-29832531D01*
X164409647Y-29770731D01*
X164483213Y-29729532D01*
X164650446Y-29590446D01*
X164789532Y-29423213D01*
X164895813Y-29233435D01*
X164897669Y-29227968D01*
X164897671Y-29227963D01*
X164962614Y-29036646D01*
X165003451Y-28978569D01*
X165069204Y-28951791D01*
X165138996Y-28964812D01*
X165190669Y-29013499D01*
X165204050Y-29046131D01*
X165229605Y-29146753D01*
X165320668Y-29344285D01*
X165324001Y-29349001D01*
X165425907Y-29493194D01*
X165446204Y-29521914D01*
X165450346Y-29525949D01*
X165506289Y-29580446D01*
X165602009Y-29673692D01*
X165782863Y-29794536D01*
X165788171Y-29796817D01*
X165788172Y-29796817D01*
X165977409Y-29878119D01*
X165977412Y-29878120D01*
X165982712Y-29880397D01*
X165988342Y-29881671D01*
X166180577Y-29925170D01*
X166194860Y-29928402D01*
X166200631Y-29928629D01*
X166200633Y-29928629D01*
X166273620Y-29931496D01*
X166412205Y-29936941D01*
X166627466Y-29905730D01*
X166632930Y-29903875D01*
X166632935Y-29903874D01*
X166827963Y-29837671D01*
X166827968Y-29837669D01*
X166833435Y-29835813D01*
X166839296Y-29832531D01*
X166949647Y-29770731D01*
X167023213Y-29729532D01*
X167190446Y-29590446D01*
X167329532Y-29423213D01*
X167435813Y-29233435D01*
X167437669Y-29227968D01*
X167437671Y-29227963D01*
X167502909Y-29035777D01*
X167543746Y-28977700D01*
X167609499Y-28950922D01*
X167679291Y-28963943D01*
X167730964Y-29012630D01*
X167744345Y-29045262D01*
X167768657Y-29140990D01*
X167772495Y-29151828D01*
X167858685Y-29338789D01*
X167864436Y-29348750D01*
X167983254Y-29516873D01*
X167990720Y-29525615D01*
X168138191Y-29669275D01*
X168147124Y-29676509D01*
X168318299Y-29790884D01*
X168328409Y-29796374D01*
X168517566Y-29877642D01*
X168528499Y-29881194D01*
X168618332Y-29901521D01*
X168632405Y-29900632D01*
X168636000Y-29891233D01*
X168636000Y-29890512D01*
X169144000Y-29890512D01*
X169147966Y-29904018D01*
X169161883Y-29906011D01*
X169172817Y-29903386D01*
X169367763Y-29837210D01*
X169378272Y-29832531D01*
X169557882Y-29731944D01*
X169567375Y-29725420D01*
X169725653Y-29593782D01*
X169733782Y-29585653D01*
X169865420Y-29427375D01*
X169871944Y-29417882D01*
X169972531Y-29238272D01*
X169977210Y-29227763D01*
X170043386Y-29032817D01*
X170046017Y-29021857D01*
X170044040Y-29007992D01*
X170030474Y-29004000D01*
X169162115Y-29004000D01*
X169146876Y-29008475D01*
X169145671Y-29009865D01*
X169144000Y-29017548D01*
X169144000Y-29890512D01*
X168636000Y-29890512D01*
X168636000Y-27884500D01*
X168656002Y-27816379D01*
X168709658Y-27769886D01*
X168762000Y-27758500D01*
X169018000Y-27758500D01*
X169086121Y-27778502D01*
X169132614Y-27832158D01*
X169144000Y-27884500D01*
X169144000Y-28477885D01*
X169148475Y-28493124D01*
X169149865Y-28494329D01*
X169157548Y-28496000D01*
X170029485Y-28496000D01*
X170043016Y-28492027D01*
X170044185Y-28483892D01*
X170000725Y-28329794D01*
X169996603Y-28319055D01*
X169905550Y-28134420D01*
X169899539Y-28124610D01*
X169865207Y-28078633D01*
X169840476Y-28012082D01*
X169855651Y-27942727D01*
X169862325Y-27931880D01*
X169871941Y-27917888D01*
X169925118Y-27822934D01*
X169975855Y-27773272D01*
X170035052Y-27758500D01*
X172115500Y-27758500D01*
X172183621Y-27778502D01*
X172230114Y-27832158D01*
X172241500Y-27884500D01*
X172241500Y-29963664D01*
X172221498Y-30031785D01*
X172179925Y-30071948D01*
X172062492Y-30141814D01*
X171993724Y-30159453D01*
X171930836Y-30140090D01*
X171930103Y-30139627D01*
X171789599Y-30050976D01*
X171587572Y-29970376D01*
X171374239Y-29927941D01*
X171368464Y-29927865D01*
X171368460Y-29927865D01*
X171259419Y-29926438D01*
X171156746Y-29925094D01*
X171151049Y-29926073D01*
X171151048Y-29926073D01*
X170948065Y-29960952D01*
X170948062Y-29960953D01*
X170942375Y-29961930D01*
X170738307Y-30037214D01*
X170709997Y-30054057D01*
X170569042Y-30137917D01*
X170551376Y-30148427D01*
X170387842Y-30291842D01*
X170384270Y-30296373D01*
X170287814Y-30418727D01*
X170253181Y-30462658D01*
X170151905Y-30655154D01*
X170145234Y-30676639D01*
X170094384Y-30840401D01*
X170087403Y-30862882D01*
X170061837Y-31078887D01*
X170076063Y-31295933D01*
X170077484Y-31301529D01*
X170077485Y-31301534D01*
X170127203Y-31497297D01*
X170129605Y-31506753D01*
X170132022Y-31511996D01*
X170152968Y-31557431D01*
X170220668Y-31704285D01*
X170224001Y-31709001D01*
X170339455Y-31872364D01*
X170346204Y-31881914D01*
X170350346Y-31885949D01*
X170405830Y-31939999D01*
X170502009Y-32033692D01*
X170506813Y-32036902D01*
X170575159Y-32082570D01*
X170682863Y-32154536D01*
X170688171Y-32156817D01*
X170688172Y-32156817D01*
X170877409Y-32238119D01*
X170877412Y-32238120D01*
X170882712Y-32240397D01*
X170931995Y-32251549D01*
X170947825Y-32255131D01*
X171009851Y-32289675D01*
X171043356Y-32352268D01*
X171037700Y-32423039D01*
X170994681Y-32479518D01*
X170952626Y-32499731D01*
X170948073Y-32500951D01*
X170942375Y-32501930D01*
X170738307Y-32577214D01*
X170551376Y-32688427D01*
X170387842Y-32831842D01*
X170384270Y-32836373D01*
X170258930Y-32995366D01*
X170253181Y-33002658D01*
X170250493Y-33007767D01*
X170249886Y-33008920D01*
X170151905Y-33195154D01*
X170150192Y-33200671D01*
X170090213Y-33393834D01*
X170087403Y-33402882D01*
X170061837Y-33618887D01*
X170076063Y-33835933D01*
X170077484Y-33841529D01*
X170077485Y-33841534D01*
X170120982Y-34012800D01*
X170129605Y-34046753D01*
X170132022Y-34051996D01*
X170210349Y-34221902D01*
X170220668Y-34244285D01*
X170235955Y-34265916D01*
X170341795Y-34415675D01*
X170346204Y-34421914D01*
X170502009Y-34573692D01*
X170506813Y-34576902D01*
X170574160Y-34621902D01*
X170682863Y-34694536D01*
X170688171Y-34696817D01*
X170688172Y-34696817D01*
X170877409Y-34778119D01*
X170877412Y-34778120D01*
X170882712Y-34780397D01*
X170888342Y-34781671D01*
X170960836Y-34798075D01*
X171022863Y-34832618D01*
X171056367Y-34895212D01*
X171050713Y-34965983D01*
X171007694Y-35022462D01*
X170967643Y-35041712D01*
X170966375Y-35041930D01*
X170762307Y-35117214D01*
X170575376Y-35228427D01*
X170411842Y-35371842D01*
X170408270Y-35376373D01*
X170286561Y-35530760D01*
X170277181Y-35542658D01*
X170175905Y-35735154D01*
X170174192Y-35740671D01*
X170121601Y-35910041D01*
X170111403Y-35942882D01*
X170085837Y-36158887D01*
X170100063Y-36375933D01*
X170101484Y-36381529D01*
X170101485Y-36381534D01*
X170147357Y-36562151D01*
X170153605Y-36586753D01*
X170244668Y-36784285D01*
X170248001Y-36789001D01*
X170342690Y-36922982D01*
X170370204Y-36961914D01*
X170374346Y-36965949D01*
X170377198Y-36968727D01*
X170526009Y-37113692D01*
X170530813Y-37116902D01*
X170598520Y-37162143D01*
X170706863Y-37234536D01*
X170712171Y-37236817D01*
X170712172Y-37236817D01*
X170901409Y-37318119D01*
X170901412Y-37318120D01*
X170906712Y-37320397D01*
X170959368Y-37332312D01*
X170961220Y-37332731D01*
X171023246Y-37367274D01*
X171056750Y-37429868D01*
X171051096Y-37500639D01*
X171008077Y-37557118D01*
X170954747Y-37579804D01*
X170942375Y-37581930D01*
X170738307Y-37657214D01*
X170651793Y-37708685D01*
X170563117Y-37761442D01*
X170551376Y-37768427D01*
X170387842Y-37911842D01*
X170384270Y-37916373D01*
X170264736Y-38068001D01*
X170253181Y-38082658D01*
X170250493Y-38087767D01*
X170246885Y-38094624D01*
X170151905Y-38275154D01*
X170150192Y-38280671D01*
X170097093Y-38451677D01*
X170087403Y-38482882D01*
X170061837Y-38698887D01*
X170076063Y-38915933D01*
X170077484Y-38921529D01*
X170077485Y-38921534D01*
X170120373Y-39090401D01*
X170129605Y-39126753D01*
X170220668Y-39324285D01*
X170224001Y-39329001D01*
X170342730Y-39496998D01*
X170346204Y-39501914D01*
X170350346Y-39505949D01*
X170456952Y-39609800D01*
X170502009Y-39653692D01*
X170506813Y-39656902D01*
X170573823Y-39701677D01*
X170682863Y-39774536D01*
X170688171Y-39776817D01*
X170688172Y-39776817D01*
X170877409Y-39858119D01*
X170877412Y-39858120D01*
X170882712Y-39860397D01*
X170927400Y-39870509D01*
X170947825Y-39875131D01*
X171009851Y-39909675D01*
X171043356Y-39972268D01*
X171037700Y-40043039D01*
X170994681Y-40099518D01*
X170952626Y-40119731D01*
X170948073Y-40120951D01*
X170942375Y-40121930D01*
X170738307Y-40197214D01*
X170551376Y-40308427D01*
X170387842Y-40451842D01*
X170384270Y-40456373D01*
X170265026Y-40607633D01*
X170253181Y-40622658D01*
X170151905Y-40815154D01*
X170150192Y-40820671D01*
X170099690Y-40983313D01*
X170087403Y-41022882D01*
X170061837Y-41238887D01*
X170076063Y-41455933D01*
X170077484Y-41461529D01*
X170077485Y-41461534D01*
X170113442Y-41603113D01*
X170129605Y-41666753D01*
X170132022Y-41671996D01*
X170167043Y-41747963D01*
X170220668Y-41864285D01*
X170224001Y-41869001D01*
X170226890Y-41874005D01*
X170225255Y-41874949D01*
X170245469Y-41934028D01*
X170228487Y-42002964D01*
X170176932Y-42051776D01*
X170107172Y-42064966D01*
X170077325Y-42058279D01*
X170031366Y-42041914D01*
X169942425Y-42010243D01*
X169942420Y-42010242D01*
X169935790Y-42007881D01*
X169928802Y-42007048D01*
X169928799Y-42007047D01*
X169805698Y-41992368D01*
X169755680Y-41986404D01*
X169748677Y-41987140D01*
X169748676Y-41987140D01*
X169582288Y-42004628D01*
X169582286Y-42004629D01*
X169575288Y-42005364D01*
X169403579Y-42063818D01*
X169402940Y-42061941D01*
X169342446Y-42071340D01*
X169277535Y-42042581D01*
X169238477Y-41983293D01*
X169237672Y-41912301D01*
X169254012Y-41876705D01*
X169323643Y-41771902D01*
X169373198Y-41641450D01*
X169385555Y-41608920D01*
X169385556Y-41608918D01*
X169388055Y-41602338D01*
X169389035Y-41595366D01*
X169412748Y-41426639D01*
X169412748Y-41426636D01*
X169413299Y-41422717D01*
X169413616Y-41400000D01*
X169393397Y-41219745D01*
X169390458Y-41211305D01*
X169336064Y-41055106D01*
X169336062Y-41055103D01*
X169333745Y-41048448D01*
X169302071Y-40997758D01*
X169241359Y-40900598D01*
X169237626Y-40894624D01*
X169227228Y-40884153D01*
X169114778Y-40770915D01*
X169114774Y-40770912D01*
X169109815Y-40765918D01*
X169098697Y-40758862D01*
X169029283Y-40714811D01*
X168956666Y-40668727D01*
X168910640Y-40652338D01*
X168792425Y-40610243D01*
X168792420Y-40610242D01*
X168785790Y-40607881D01*
X168778802Y-40607048D01*
X168778799Y-40607047D01*
X168655698Y-40592368D01*
X168605680Y-40586404D01*
X168598677Y-40587140D01*
X168598676Y-40587140D01*
X168432288Y-40604628D01*
X168432286Y-40604629D01*
X168425288Y-40605364D01*
X168253579Y-40663818D01*
X168191408Y-40702066D01*
X168105095Y-40755166D01*
X168105092Y-40755168D01*
X168099088Y-40758862D01*
X168094053Y-40763793D01*
X168094050Y-40763795D01*
X168012092Y-40844055D01*
X167969493Y-40885771D01*
X167871235Y-41038238D01*
X167868826Y-41044858D01*
X167868824Y-41044861D01*
X167834050Y-41140401D01*
X167809197Y-41208685D01*
X167786463Y-41388640D01*
X167804163Y-41569160D01*
X167861418Y-41741273D01*
X167865065Y-41747295D01*
X167865066Y-41747297D01*
X167949817Y-41887238D01*
X167955380Y-41896424D01*
X167960269Y-41901487D01*
X167960270Y-41901488D01*
X167991694Y-41934028D01*
X168081382Y-42026902D01*
X168137796Y-42063818D01*
X168209051Y-42110446D01*
X168233159Y-42126222D01*
X168239763Y-42128678D01*
X168239765Y-42128679D01*
X168396558Y-42186990D01*
X168396560Y-42186990D01*
X168403168Y-42189448D01*
X168482250Y-42200000D01*
X168575980Y-42212507D01*
X168575984Y-42212507D01*
X168582961Y-42213438D01*
X168589972Y-42212800D01*
X168589976Y-42212800D01*
X168732459Y-42199832D01*
X168763600Y-42196998D01*
X168770302Y-42194820D01*
X168770304Y-42194820D01*
X168859255Y-42165918D01*
X168936108Y-42140947D01*
X168939337Y-42139022D01*
X169008348Y-42129277D01*
X169072854Y-42158933D01*
X169111087Y-42218755D01*
X169110908Y-42289752D01*
X169096015Y-42322202D01*
X169021235Y-42438238D01*
X169018826Y-42444858D01*
X169018824Y-42444861D01*
X168983733Y-42541273D01*
X168959197Y-42608685D01*
X168936463Y-42788640D01*
X168939138Y-42815918D01*
X168948535Y-42911764D01*
X168935275Y-42981511D01*
X168886412Y-43033018D01*
X168863742Y-43043337D01*
X168803579Y-43063818D01*
X168787996Y-43073405D01*
X168655095Y-43155166D01*
X168655092Y-43155168D01*
X168649088Y-43158862D01*
X168644053Y-43163793D01*
X168644050Y-43163795D01*
X168528711Y-43276744D01*
X168519493Y-43285771D01*
X168421235Y-43438238D01*
X168418826Y-43444858D01*
X168418824Y-43444861D01*
X168366785Y-43587836D01*
X168359197Y-43608685D01*
X168336463Y-43788640D01*
X168354163Y-43969160D01*
X168411418Y-44141273D01*
X168415065Y-44147295D01*
X168415066Y-44147297D01*
X168495198Y-44279611D01*
X168505380Y-44296424D01*
X168631382Y-44426902D01*
X168707271Y-44476562D01*
X168724229Y-44487659D01*
X168783159Y-44526222D01*
X168789763Y-44528678D01*
X168789765Y-44528679D01*
X168825614Y-44542011D01*
X168882490Y-44584503D01*
X168907364Y-44651000D01*
X168892339Y-44720388D01*
X168847716Y-44767425D01*
X168705095Y-44855166D01*
X168705092Y-44855168D01*
X168699088Y-44858862D01*
X168694053Y-44863793D01*
X168694050Y-44863795D01*
X168574525Y-44980843D01*
X168569493Y-44985771D01*
X168471235Y-45138238D01*
X168468826Y-45144858D01*
X168468824Y-45144861D01*
X168411606Y-45302066D01*
X168409197Y-45308685D01*
X168386463Y-45488640D01*
X168404163Y-45669160D01*
X168461418Y-45841273D01*
X168465065Y-45847295D01*
X168465066Y-45847297D01*
X168514922Y-45929619D01*
X168555380Y-45996424D01*
X168681382Y-46126902D01*
X168713729Y-46148069D01*
X168819247Y-46217118D01*
X168833159Y-46226222D01*
X168839763Y-46228678D01*
X168839765Y-46228679D01*
X168996558Y-46286990D01*
X168996560Y-46286990D01*
X169003168Y-46289448D01*
X169086995Y-46300633D01*
X169175980Y-46312507D01*
X169175984Y-46312507D01*
X169182961Y-46313438D01*
X169189972Y-46312800D01*
X169189976Y-46312800D01*
X169332459Y-46299832D01*
X169363600Y-46296998D01*
X169370302Y-46294820D01*
X169370304Y-46294820D01*
X169529409Y-46243124D01*
X169529412Y-46243123D01*
X169536108Y-46240947D01*
X169655037Y-46170051D01*
X169685860Y-46151677D01*
X169685862Y-46151676D01*
X169691912Y-46148069D01*
X169823266Y-46022982D01*
X169880366Y-45937039D01*
X169934724Y-45891369D01*
X170005143Y-45882337D01*
X170069267Y-45912811D01*
X170106737Y-45973114D01*
X170105646Y-46044131D01*
X170087403Y-46102882D01*
X170061837Y-46318887D01*
X170076063Y-46535933D01*
X170077484Y-46541529D01*
X170077485Y-46541534D01*
X170124663Y-46727294D01*
X170129605Y-46746753D01*
X170132022Y-46751996D01*
X170186844Y-46870915D01*
X170220668Y-46944285D01*
X170346204Y-47121914D01*
X170502009Y-47273692D01*
X170506813Y-47276902D01*
X170575159Y-47322570D01*
X170682863Y-47394536D01*
X170688171Y-47396817D01*
X170688172Y-47396817D01*
X170877409Y-47478119D01*
X170877412Y-47478120D01*
X170882712Y-47480397D01*
X170948875Y-47495368D01*
X171010901Y-47529911D01*
X171044405Y-47592504D01*
X171038751Y-47663275D01*
X170995732Y-47719755D01*
X170953677Y-47739968D01*
X170937082Y-47744415D01*
X170743940Y-47815669D01*
X170733562Y-47820619D01*
X170556639Y-47925877D01*
X170547327Y-47932643D01*
X170392547Y-48068381D01*
X170384630Y-48076724D01*
X170257180Y-48238394D01*
X170250909Y-48248050D01*
X170181806Y-48379394D01*
X170132387Y-48430367D01*
X170063255Y-48446530D01*
X169996358Y-48422751D01*
X169952938Y-48366581D01*
X169945084Y-48334776D01*
X169944184Y-48326750D01*
X169944182Y-48326739D01*
X169943397Y-48319745D01*
X169939884Y-48309656D01*
X169886064Y-48155106D01*
X169886062Y-48155103D01*
X169883745Y-48148448D01*
X169832826Y-48066960D01*
X169813691Y-47998594D01*
X169834732Y-47930468D01*
X169873643Y-47871902D01*
X169915423Y-47761917D01*
X169935555Y-47708920D01*
X169935556Y-47708918D01*
X169938055Y-47702338D01*
X169939035Y-47695366D01*
X169962748Y-47526639D01*
X169962749Y-47526628D01*
X169963299Y-47522717D01*
X169963616Y-47500000D01*
X169943397Y-47319745D01*
X169941080Y-47313091D01*
X169886064Y-47155106D01*
X169886062Y-47155103D01*
X169883745Y-47148448D01*
X169787626Y-46994624D01*
X169773941Y-46980843D01*
X169664778Y-46870915D01*
X169664774Y-46870912D01*
X169659815Y-46865918D01*
X169648697Y-46858862D01*
X169600007Y-46827963D01*
X169506666Y-46768727D01*
X169444956Y-46746753D01*
X169342425Y-46710243D01*
X169342420Y-46710242D01*
X169335790Y-46707881D01*
X169328802Y-46707048D01*
X169328799Y-46707047D01*
X169205698Y-46692368D01*
X169155680Y-46686404D01*
X169148677Y-46687140D01*
X169148676Y-46687140D01*
X168982288Y-46704628D01*
X168982286Y-46704629D01*
X168975288Y-46705364D01*
X168803579Y-46763818D01*
X168797575Y-46767512D01*
X168655095Y-46855166D01*
X168655092Y-46855168D01*
X168649088Y-46858862D01*
X168644053Y-46863793D01*
X168644050Y-46863795D01*
X168613634Y-46893581D01*
X168519493Y-46985771D01*
X168421235Y-47138238D01*
X168418826Y-47144858D01*
X168418824Y-47144861D01*
X168400889Y-47194137D01*
X168359197Y-47308685D01*
X168336463Y-47488640D01*
X168354163Y-47669160D01*
X168411418Y-47841273D01*
X168415065Y-47847295D01*
X168415066Y-47847297D01*
X168425145Y-47863939D01*
X168466754Y-47932643D01*
X168468106Y-47934876D01*
X168486285Y-48003505D01*
X168466243Y-48068399D01*
X168421235Y-48138238D01*
X168418826Y-48144858D01*
X168418824Y-48144861D01*
X168364861Y-48293124D01*
X168359197Y-48308685D01*
X168336463Y-48488640D01*
X168354163Y-48669160D01*
X168411418Y-48841273D01*
X168415065Y-48847295D01*
X168415066Y-48847297D01*
X168500550Y-48988448D01*
X168505380Y-48996424D01*
X168631382Y-49126902D01*
X168783159Y-49226222D01*
X168789763Y-49228678D01*
X168789765Y-49228679D01*
X168946558Y-49286990D01*
X168946560Y-49286990D01*
X168953168Y-49289448D01*
X169032160Y-49299988D01*
X169125980Y-49312507D01*
X169125984Y-49312507D01*
X169132961Y-49313438D01*
X169139972Y-49312800D01*
X169139976Y-49312800D01*
X169282459Y-49299832D01*
X169313600Y-49296998D01*
X169320302Y-49294820D01*
X169320304Y-49294820D01*
X169479409Y-49243124D01*
X169479412Y-49243123D01*
X169486108Y-49240947D01*
X169582513Y-49183478D01*
X169626994Y-49156962D01*
X170097158Y-49156962D01*
X170128656Y-49280985D01*
X170132497Y-49291832D01*
X170218685Y-49478789D01*
X170224436Y-49488750D01*
X170343254Y-49656873D01*
X170350720Y-49665615D01*
X170498191Y-49809275D01*
X170507124Y-49816509D01*
X170678299Y-49930884D01*
X170688409Y-49936374D01*
X170877566Y-50017642D01*
X170888499Y-50021194D01*
X170978332Y-50041521D01*
X170992405Y-50040632D01*
X170996000Y-50031233D01*
X170996000Y-49162115D01*
X170991525Y-49146876D01*
X170990135Y-49145671D01*
X170982452Y-49144000D01*
X170111981Y-49144000D01*
X170098450Y-49147973D01*
X170097158Y-49156962D01*
X169626994Y-49156962D01*
X169635860Y-49151677D01*
X169635862Y-49151676D01*
X169641912Y-49148069D01*
X169773266Y-49022982D01*
X169873643Y-48871902D01*
X169935960Y-48707854D01*
X169978848Y-48651277D01*
X170045516Y-48626868D01*
X170091881Y-48635748D01*
X170095058Y-48636000D01*
X172115500Y-48636000D01*
X172183621Y-48656002D01*
X172230114Y-48709658D01*
X172241500Y-48762000D01*
X172241500Y-49018000D01*
X172221498Y-49086121D01*
X172167842Y-49132614D01*
X172115500Y-49144000D01*
X171522115Y-49144000D01*
X171506876Y-49148475D01*
X171505671Y-49149865D01*
X171504000Y-49157548D01*
X171504000Y-50030512D01*
X171507966Y-50044018D01*
X171521883Y-50046011D01*
X171532817Y-50043386D01*
X171727763Y-49977210D01*
X171738272Y-49972531D01*
X171917882Y-49871944D01*
X171932132Y-49862151D01*
X171933671Y-49864390D01*
X171988267Y-49840742D01*
X172058329Y-49852226D01*
X172073745Y-49861023D01*
X172183103Y-49934094D01*
X172181988Y-49935762D01*
X172225952Y-49979530D01*
X172241500Y-50040162D01*
X172241500Y-52115500D01*
X172221498Y-52183621D01*
X172167842Y-52230114D01*
X172115500Y-52241500D01*
X170036709Y-52241500D01*
X169968588Y-52221498D01*
X169923703Y-52171229D01*
X169905548Y-52134415D01*
X169899541Y-52124613D01*
X169865207Y-52078633D01*
X169840476Y-52012082D01*
X169855651Y-51942727D01*
X169862325Y-51931880D01*
X169871941Y-51917888D01*
X169972531Y-51738272D01*
X169977210Y-51727763D01*
X170043386Y-51532817D01*
X170046017Y-51521857D01*
X170044040Y-51507992D01*
X170030474Y-51504000D01*
X169162115Y-51504000D01*
X169146876Y-51508475D01*
X169145671Y-51509865D01*
X169144000Y-51517548D01*
X169144000Y-52115500D01*
X169123998Y-52183621D01*
X169070342Y-52230114D01*
X169018000Y-52241500D01*
X168762000Y-52241500D01*
X168693879Y-52221498D01*
X168647386Y-52167842D01*
X168636000Y-52115500D01*
X168636000Y-50977885D01*
X169144000Y-50977885D01*
X169148475Y-50993124D01*
X169149865Y-50994329D01*
X169157548Y-50996000D01*
X170029485Y-50996000D01*
X170043016Y-50992027D01*
X170044185Y-50983892D01*
X170000725Y-50829794D01*
X169996603Y-50819055D01*
X169905549Y-50634417D01*
X169899538Y-50624608D01*
X169776360Y-50459651D01*
X169768671Y-50451111D01*
X169617490Y-50311361D01*
X169608365Y-50304360D01*
X169434255Y-50194505D01*
X169424008Y-50189284D01*
X169232793Y-50112997D01*
X169221767Y-50109730D01*
X169161770Y-50097797D01*
X169148894Y-50098949D01*
X169144000Y-50114102D01*
X169144000Y-50977885D01*
X168636000Y-50977885D01*
X168636000Y-50111337D01*
X168632194Y-50098375D01*
X168617278Y-50096439D01*
X168588202Y-50101435D01*
X168577082Y-50104415D01*
X168383940Y-50175669D01*
X168373562Y-50180619D01*
X168196639Y-50285877D01*
X168187327Y-50292643D01*
X168032547Y-50428381D01*
X168024630Y-50436724D01*
X167897180Y-50598394D01*
X167890909Y-50608050D01*
X167795060Y-50790229D01*
X167790651Y-50800873D01*
X167739896Y-50964330D01*
X167700593Y-51023455D01*
X167635564Y-51051946D01*
X167565455Y-51040756D01*
X167512525Y-50993439D01*
X167498295Y-50961167D01*
X167498047Y-50960285D01*
X167459626Y-50824055D01*
X167363423Y-50628974D01*
X167345502Y-50604974D01*
X167236733Y-50459315D01*
X167236732Y-50459314D01*
X167233280Y-50454691D01*
X167229044Y-50450775D01*
X167077796Y-50310963D01*
X167077793Y-50310961D01*
X167073556Y-50307044D01*
X166889599Y-50190976D01*
X166687572Y-50110376D01*
X166474239Y-50067941D01*
X166468464Y-50067865D01*
X166468460Y-50067865D01*
X166359419Y-50066438D01*
X166256746Y-50065094D01*
X166251049Y-50066073D01*
X166251048Y-50066073D01*
X166048065Y-50100952D01*
X166048062Y-50100953D01*
X166042375Y-50101930D01*
X165838307Y-50177214D01*
X165651376Y-50288427D01*
X165487842Y-50431842D01*
X165484270Y-50436373D01*
X165368074Y-50583767D01*
X165353181Y-50602658D01*
X165251905Y-50795154D01*
X165244540Y-50818872D01*
X165199647Y-50963449D01*
X165160344Y-51022574D01*
X165095315Y-51051064D01*
X165025205Y-51039874D01*
X164972276Y-50992556D01*
X164958049Y-50960295D01*
X164919626Y-50824055D01*
X164823423Y-50628974D01*
X164805502Y-50604974D01*
X164696733Y-50459315D01*
X164696732Y-50459314D01*
X164693280Y-50454691D01*
X164689044Y-50450775D01*
X164537796Y-50310963D01*
X164537793Y-50310961D01*
X164533556Y-50307044D01*
X164349599Y-50190976D01*
X164147572Y-50110376D01*
X163934239Y-50067941D01*
X163928464Y-50067865D01*
X163928460Y-50067865D01*
X163819419Y-50066438D01*
X163716746Y-50065094D01*
X163711049Y-50066073D01*
X163711048Y-50066073D01*
X163508065Y-50100952D01*
X163508062Y-50100953D01*
X163502375Y-50101930D01*
X163298307Y-50177214D01*
X163111376Y-50288427D01*
X162947842Y-50431842D01*
X162944270Y-50436373D01*
X162828074Y-50583767D01*
X162813181Y-50602658D01*
X162711905Y-50795154D01*
X162704540Y-50818872D01*
X162659647Y-50963449D01*
X162620344Y-51022574D01*
X162555315Y-51051064D01*
X162485205Y-51039874D01*
X162432276Y-50992556D01*
X162418049Y-50960295D01*
X162379626Y-50824055D01*
X162283423Y-50628974D01*
X162265502Y-50604974D01*
X162156733Y-50459315D01*
X162156732Y-50459314D01*
X162153280Y-50454691D01*
X162149044Y-50450775D01*
X161997796Y-50310963D01*
X161997793Y-50310961D01*
X161993556Y-50307044D01*
X161809599Y-50190976D01*
X161607572Y-50110376D01*
X161394239Y-50067941D01*
X161388464Y-50067865D01*
X161388460Y-50067865D01*
X161279419Y-50066438D01*
X161176746Y-50065094D01*
X161171049Y-50066073D01*
X161171048Y-50066073D01*
X160968065Y-50100952D01*
X160968062Y-50100953D01*
X160962375Y-50101930D01*
X160758307Y-50177214D01*
X160571376Y-50288427D01*
X160407842Y-50431842D01*
X160404270Y-50436373D01*
X160288074Y-50583767D01*
X160273181Y-50602658D01*
X160171905Y-50795154D01*
X160164540Y-50818872D01*
X160119647Y-50963449D01*
X160080344Y-51022574D01*
X160015315Y-51051064D01*
X159945205Y-51039874D01*
X159892276Y-50992556D01*
X159878049Y-50960295D01*
X159839626Y-50824055D01*
X159743423Y-50628974D01*
X159725502Y-50604974D01*
X159616733Y-50459315D01*
X159616732Y-50459314D01*
X159613280Y-50454691D01*
X159609044Y-50450775D01*
X159457796Y-50310963D01*
X159457793Y-50310961D01*
X159453556Y-50307044D01*
X159269599Y-50190976D01*
X159067572Y-50110376D01*
X158854239Y-50067941D01*
X158848464Y-50067865D01*
X158848460Y-50067865D01*
X158739419Y-50066438D01*
X158636746Y-50065094D01*
X158631049Y-50066073D01*
X158631048Y-50066073D01*
X158428065Y-50100952D01*
X158428062Y-50100953D01*
X158422375Y-50101930D01*
X158218307Y-50177214D01*
X158031376Y-50288427D01*
X157867842Y-50431842D01*
X157864270Y-50436373D01*
X157748074Y-50583767D01*
X157733181Y-50602658D01*
X157631905Y-50795154D01*
X157583194Y-50952029D01*
X157543893Y-51011150D01*
X157478863Y-51039641D01*
X157408754Y-51028451D01*
X157355824Y-50981134D01*
X157341594Y-50948863D01*
X157307961Y-50829609D01*
X157299626Y-50800055D01*
X157203423Y-50604974D01*
X157198510Y-50598394D01*
X157076733Y-50435315D01*
X157076732Y-50435314D01*
X157073280Y-50430691D01*
X157004851Y-50367436D01*
X156917796Y-50286963D01*
X156917793Y-50286961D01*
X156913556Y-50283044D01*
X156729599Y-50166976D01*
X156527572Y-50086376D01*
X156339815Y-50049028D01*
X156319905Y-50045068D01*
X156319904Y-50045068D01*
X156314239Y-50043941D01*
X156308464Y-50043865D01*
X156308460Y-50043865D01*
X156199419Y-50042438D01*
X156096746Y-50041094D01*
X156091049Y-50042073D01*
X156091048Y-50042073D01*
X155888065Y-50076952D01*
X155888062Y-50076953D01*
X155882375Y-50077930D01*
X155678307Y-50153214D01*
X155491376Y-50264427D01*
X155327842Y-50407842D01*
X155193181Y-50578658D01*
X155091905Y-50771154D01*
X155090192Y-50776671D01*
X155036100Y-50950872D01*
X154996797Y-51009997D01*
X154931768Y-51038487D01*
X154861658Y-51027297D01*
X154808729Y-50979979D01*
X154794502Y-50947718D01*
X154759626Y-50824055D01*
X154663423Y-50628974D01*
X154645502Y-50604974D01*
X154536733Y-50459315D01*
X154536732Y-50459314D01*
X154533280Y-50454691D01*
X154529044Y-50450775D01*
X154377796Y-50310963D01*
X154377793Y-50310961D01*
X154373556Y-50307044D01*
X154189599Y-50190976D01*
X153987572Y-50110376D01*
X153774239Y-50067941D01*
X153768464Y-50067865D01*
X153768460Y-50067865D01*
X153659419Y-50066438D01*
X153556746Y-50065094D01*
X153551049Y-50066073D01*
X153551048Y-50066073D01*
X153348065Y-50100952D01*
X153348062Y-50100953D01*
X153342375Y-50101930D01*
X153138307Y-50177214D01*
X152951376Y-50288427D01*
X152787842Y-50431842D01*
X152784270Y-50436373D01*
X152668074Y-50583767D01*
X152653181Y-50602658D01*
X152551905Y-50795154D01*
X152544540Y-50818872D01*
X152499647Y-50963449D01*
X152460344Y-51022574D01*
X152395315Y-51051064D01*
X152325205Y-51039874D01*
X152272276Y-50992556D01*
X152258049Y-50960295D01*
X152219626Y-50824055D01*
X152123423Y-50628974D01*
X152105502Y-50604974D01*
X151996733Y-50459315D01*
X151996732Y-50459314D01*
X151993280Y-50454691D01*
X151898888Y-50367436D01*
X151862443Y-50306507D01*
X151864724Y-50235547D01*
X151905006Y-50177085D01*
X151972996Y-50149430D01*
X152109600Y-50136998D01*
X152116302Y-50134820D01*
X152116304Y-50134820D01*
X152275409Y-50083124D01*
X152275412Y-50083123D01*
X152282108Y-50080947D01*
X152437912Y-49988069D01*
X152569266Y-49862982D01*
X152669643Y-49711902D01*
X152724544Y-49567375D01*
X152731555Y-49548920D01*
X152731556Y-49548918D01*
X152734055Y-49542338D01*
X152735035Y-49535366D01*
X152758748Y-49366639D01*
X152758748Y-49366636D01*
X152759299Y-49362717D01*
X152759616Y-49340000D01*
X152739397Y-49159745D01*
X152737080Y-49153091D01*
X152682064Y-48995106D01*
X152682062Y-48995103D01*
X152679745Y-48988448D01*
X152583626Y-48834624D01*
X152574207Y-48825139D01*
X152536472Y-48787140D01*
X162936463Y-48787140D01*
X162954163Y-48967660D01*
X163011418Y-49139773D01*
X163015065Y-49145795D01*
X163015066Y-49145797D01*
X163072691Y-49240947D01*
X163105380Y-49294924D01*
X163231382Y-49425402D01*
X163237278Y-49429260D01*
X163359378Y-49509160D01*
X163383159Y-49524722D01*
X163389763Y-49527178D01*
X163389765Y-49527179D01*
X163546558Y-49585490D01*
X163546560Y-49585490D01*
X163553168Y-49587948D01*
X163636995Y-49599133D01*
X163725980Y-49611007D01*
X163725984Y-49611007D01*
X163732961Y-49611938D01*
X163739972Y-49611300D01*
X163739976Y-49611300D01*
X163882459Y-49598332D01*
X163913600Y-49595498D01*
X163920302Y-49593320D01*
X163920304Y-49593320D01*
X164079409Y-49541624D01*
X164079412Y-49541623D01*
X164086108Y-49539447D01*
X164241912Y-49446569D01*
X164373266Y-49321482D01*
X164473643Y-49170402D01*
X164515423Y-49060417D01*
X164535555Y-49007420D01*
X164535556Y-49007418D01*
X164538055Y-49000838D01*
X164539796Y-48988448D01*
X164562748Y-48825139D01*
X164562748Y-48825136D01*
X164563299Y-48821217D01*
X164563616Y-48798500D01*
X164543397Y-48618245D01*
X164541080Y-48611591D01*
X164486064Y-48453606D01*
X164486062Y-48453603D01*
X164483745Y-48446948D01*
X164404609Y-48320303D01*
X164391359Y-48299098D01*
X164387626Y-48293124D01*
X164360482Y-48265790D01*
X164264778Y-48169415D01*
X164264774Y-48169412D01*
X164259815Y-48164418D01*
X164248697Y-48157362D01*
X164144301Y-48091111D01*
X164106666Y-48067227D01*
X164046065Y-48045648D01*
X163942425Y-48008743D01*
X163942420Y-48008742D01*
X163935790Y-48006381D01*
X163928802Y-48005548D01*
X163928799Y-48005547D01*
X163805698Y-47990868D01*
X163755680Y-47984904D01*
X163748677Y-47985640D01*
X163748676Y-47985640D01*
X163582288Y-48003128D01*
X163582286Y-48003129D01*
X163575288Y-48003864D01*
X163403579Y-48062318D01*
X163397575Y-48066012D01*
X163255095Y-48153666D01*
X163255092Y-48153668D01*
X163249088Y-48157362D01*
X163244053Y-48162293D01*
X163244050Y-48162295D01*
X163124526Y-48279342D01*
X163119493Y-48284271D01*
X163021235Y-48436738D01*
X163018826Y-48443358D01*
X163018824Y-48443361D01*
X162980872Y-48547633D01*
X162959197Y-48607185D01*
X162936463Y-48787140D01*
X152536472Y-48787140D01*
X152460778Y-48710915D01*
X152460774Y-48710912D01*
X152455815Y-48705918D01*
X152444697Y-48698862D01*
X152363583Y-48647386D01*
X152302666Y-48608727D01*
X152273463Y-48598328D01*
X152138425Y-48550243D01*
X152138420Y-48550242D01*
X152131790Y-48547881D01*
X152124802Y-48547048D01*
X152124799Y-48547047D01*
X152001698Y-48532368D01*
X151951680Y-48526404D01*
X151944677Y-48527140D01*
X151944676Y-48527140D01*
X151778288Y-48544628D01*
X151778286Y-48544629D01*
X151771288Y-48545364D01*
X151599579Y-48603818D01*
X151564752Y-48625244D01*
X151451095Y-48695166D01*
X151451092Y-48695168D01*
X151445088Y-48698862D01*
X151440053Y-48703793D01*
X151440050Y-48703795D01*
X151343341Y-48798500D01*
X151315493Y-48825771D01*
X151217235Y-48978238D01*
X151214826Y-48984858D01*
X151214824Y-48984861D01*
X151164970Y-49121834D01*
X151155197Y-49148685D01*
X151132463Y-49328640D01*
X151150163Y-49509160D01*
X151207418Y-49681273D01*
X151211065Y-49687295D01*
X151211066Y-49687297D01*
X151221978Y-49705314D01*
X151301380Y-49836424D01*
X151306269Y-49841487D01*
X151306270Y-49841488D01*
X151318664Y-49854322D01*
X151351596Y-49917218D01*
X151345296Y-49987935D01*
X151301764Y-50044019D01*
X151234821Y-50067666D01*
X151226378Y-50067838D01*
X151177450Y-50067198D01*
X151016746Y-50065094D01*
X151011049Y-50066073D01*
X151011048Y-50066073D01*
X150808065Y-50100952D01*
X150808062Y-50100953D01*
X150802375Y-50101930D01*
X150598307Y-50177214D01*
X150411376Y-50288427D01*
X150247842Y-50431842D01*
X150244270Y-50436373D01*
X150128074Y-50583767D01*
X150113181Y-50602658D01*
X150011905Y-50795154D01*
X150002931Y-50824055D01*
X149950059Y-50994329D01*
X149947403Y-51002882D01*
X149921837Y-51218887D01*
X149936063Y-51435933D01*
X149937484Y-51441529D01*
X149937485Y-51441534D01*
X149961386Y-51535641D01*
X149989605Y-51646753D01*
X150080668Y-51844285D01*
X150138019Y-51925434D01*
X150160999Y-51992607D01*
X150144015Y-52061542D01*
X150134071Y-52076159D01*
X150128074Y-52083767D01*
X150113181Y-52102658D01*
X150110491Y-52107771D01*
X150075557Y-52174168D01*
X150026138Y-52225140D01*
X149964049Y-52241500D01*
X147884500Y-52241500D01*
X147816379Y-52221498D01*
X147769886Y-52167842D01*
X147758500Y-52115500D01*
X147758500Y-50035052D01*
X147778502Y-49966931D01*
X147822934Y-49925118D01*
X147917882Y-49871944D01*
X147932132Y-49862151D01*
X147933671Y-49864390D01*
X147988267Y-49840742D01*
X148058329Y-49852226D01*
X148073745Y-49861023D01*
X148178299Y-49930884D01*
X148188409Y-49936374D01*
X148377566Y-50017642D01*
X148388499Y-50021194D01*
X148478332Y-50041521D01*
X148492405Y-50040632D01*
X148496000Y-50031233D01*
X148496000Y-50030512D01*
X149004000Y-50030512D01*
X149007966Y-50044018D01*
X149021883Y-50046011D01*
X149032817Y-50043386D01*
X149227763Y-49977210D01*
X149238272Y-49972531D01*
X149417882Y-49871944D01*
X149427375Y-49865420D01*
X149585653Y-49733782D01*
X149593782Y-49725653D01*
X149725420Y-49567375D01*
X149731944Y-49557882D01*
X149832531Y-49378272D01*
X149837210Y-49367763D01*
X149903386Y-49172817D01*
X149906017Y-49161857D01*
X149904040Y-49147992D01*
X149890474Y-49144000D01*
X149022115Y-49144000D01*
X149006876Y-49148475D01*
X149005671Y-49149865D01*
X149004000Y-49157548D01*
X149004000Y-50030512D01*
X148496000Y-50030512D01*
X148496000Y-49162115D01*
X148491525Y-49146876D01*
X148490135Y-49145671D01*
X148482452Y-49144000D01*
X147884500Y-49144000D01*
X147816379Y-49123998D01*
X147769886Y-49070342D01*
X147758500Y-49018000D01*
X147758500Y-48762000D01*
X147778502Y-48693879D01*
X147832158Y-48647386D01*
X147884500Y-48636000D01*
X149889485Y-48636000D01*
X149903016Y-48632027D01*
X149904185Y-48623892D01*
X149860725Y-48469794D01*
X149856603Y-48459055D01*
X149765549Y-48274417D01*
X149759538Y-48264608D01*
X149636360Y-48099651D01*
X149628671Y-48091111D01*
X149477490Y-47951361D01*
X149468365Y-47944360D01*
X149294255Y-47834505D01*
X149284008Y-47829284D01*
X149092799Y-47752999D01*
X149081762Y-47749730D01*
X149055507Y-47744507D01*
X148992598Y-47711599D01*
X148957466Y-47649904D01*
X148961266Y-47579009D01*
X149002792Y-47521423D01*
X149021586Y-47511306D01*
X164454553Y-47511306D01*
X164472253Y-47691826D01*
X164529508Y-47863939D01*
X164533155Y-47869961D01*
X164533156Y-47869963D01*
X164617204Y-48008743D01*
X164623470Y-48019090D01*
X164749472Y-48149568D01*
X164901249Y-48248888D01*
X164907853Y-48251344D01*
X164907855Y-48251345D01*
X165064648Y-48309656D01*
X165064650Y-48309656D01*
X165071258Y-48312114D01*
X165155085Y-48323299D01*
X165244070Y-48335173D01*
X165244074Y-48335173D01*
X165251051Y-48336104D01*
X165258062Y-48335466D01*
X165258066Y-48335466D01*
X165400549Y-48322498D01*
X165431690Y-48319664D01*
X165438392Y-48317486D01*
X165438394Y-48317486D01*
X165597499Y-48265790D01*
X165597502Y-48265789D01*
X165604198Y-48263613D01*
X165760002Y-48170735D01*
X165891356Y-48045648D01*
X165991733Y-47894568D01*
X166045511Y-47752999D01*
X166053645Y-47731586D01*
X166053646Y-47731584D01*
X166056145Y-47725004D01*
X166058029Y-47711599D01*
X166080838Y-47549305D01*
X166080838Y-47549302D01*
X166081389Y-47545383D01*
X166081706Y-47522666D01*
X166061487Y-47342411D01*
X166057985Y-47332355D01*
X166004154Y-47177772D01*
X166004152Y-47177769D01*
X166001835Y-47171114D01*
X165987672Y-47148448D01*
X165909449Y-47023264D01*
X165905716Y-47017290D01*
X165880297Y-46991693D01*
X165782868Y-46893581D01*
X165782864Y-46893578D01*
X165777905Y-46888584D01*
X165766787Y-46881528D01*
X165682381Y-46827963D01*
X165624756Y-46791393D01*
X165571715Y-46772506D01*
X165460515Y-46732909D01*
X165460510Y-46732908D01*
X165453880Y-46730547D01*
X165446892Y-46729714D01*
X165446889Y-46729713D01*
X165323788Y-46715034D01*
X165273770Y-46709070D01*
X165266767Y-46709806D01*
X165266766Y-46709806D01*
X165100378Y-46727294D01*
X165100376Y-46727295D01*
X165093378Y-46728030D01*
X164921669Y-46786484D01*
X164915665Y-46790178D01*
X164773185Y-46877832D01*
X164773182Y-46877834D01*
X164767178Y-46881528D01*
X164762143Y-46886459D01*
X164762140Y-46886461D01*
X164656791Y-46989627D01*
X164637583Y-47008437D01*
X164539325Y-47160904D01*
X164536916Y-47167524D01*
X164536914Y-47167527D01*
X164481511Y-47319745D01*
X164477287Y-47331351D01*
X164454553Y-47511306D01*
X149021586Y-47511306D01*
X149039588Y-47501615D01*
X149042184Y-47500734D01*
X149102095Y-47480397D01*
X149227963Y-47437671D01*
X149227968Y-47437669D01*
X149233435Y-47435813D01*
X149423213Y-47329532D01*
X149590446Y-47190446D01*
X149729532Y-47023213D01*
X149808880Y-46881528D01*
X149832989Y-46838478D01*
X149832990Y-46838476D01*
X149835813Y-46833435D01*
X149837669Y-46827968D01*
X149837671Y-46827963D01*
X149903874Y-46632935D01*
X149903875Y-46632930D01*
X149905730Y-46627466D01*
X149936941Y-46412205D01*
X149938570Y-46350000D01*
X149918667Y-46133400D01*
X149916835Y-46126902D01*
X149885213Y-46014782D01*
X149859626Y-45924055D01*
X149763423Y-45728974D01*
X149633280Y-45554691D01*
X149629044Y-45550775D01*
X149477796Y-45410963D01*
X149477793Y-45410961D01*
X149473556Y-45407044D01*
X149289599Y-45290976D01*
X149087572Y-45210376D01*
X149056453Y-45204186D01*
X148993544Y-45171278D01*
X148958412Y-45109583D01*
X148962212Y-45038689D01*
X149003738Y-44981103D01*
X149040534Y-44961294D01*
X149227963Y-44897671D01*
X149227968Y-44897669D01*
X149233435Y-44895813D01*
X149277894Y-44870915D01*
X149340647Y-44835771D01*
X149423213Y-44789532D01*
X149424286Y-44788640D01*
X154286463Y-44788640D01*
X154304163Y-44969160D01*
X154361418Y-45141273D01*
X154365065Y-45147295D01*
X154365066Y-45147297D01*
X154450785Y-45288836D01*
X154455380Y-45296424D01*
X154460269Y-45301487D01*
X154460270Y-45301488D01*
X154503315Y-45346062D01*
X154581382Y-45426902D01*
X154587278Y-45430760D01*
X154724244Y-45520388D01*
X154733159Y-45526222D01*
X154739763Y-45528678D01*
X154739765Y-45528679D01*
X154896558Y-45586990D01*
X154896560Y-45586990D01*
X154903168Y-45589448D01*
X154986995Y-45600633D01*
X155075980Y-45612507D01*
X155075984Y-45612507D01*
X155082961Y-45613438D01*
X155089972Y-45612800D01*
X155089976Y-45612800D01*
X155232459Y-45599832D01*
X155263600Y-45596998D01*
X155270302Y-45594820D01*
X155270304Y-45594820D01*
X155429409Y-45543124D01*
X155429412Y-45543123D01*
X155436108Y-45540947D01*
X155591912Y-45448069D01*
X155723266Y-45322982D01*
X155823643Y-45171902D01*
X155869088Y-45052268D01*
X155885555Y-45008920D01*
X155885556Y-45008918D01*
X155888055Y-45002338D01*
X155889139Y-44994624D01*
X155912748Y-44826639D01*
X155912748Y-44826636D01*
X155913299Y-44822717D01*
X155913616Y-44800000D01*
X155896841Y-44650446D01*
X155894182Y-44626741D01*
X155894181Y-44626739D01*
X155893397Y-44619745D01*
X155891081Y-44613096D01*
X155889520Y-44606224D01*
X155891850Y-44605695D01*
X155888884Y-44545995D01*
X155924257Y-44484438D01*
X155946872Y-44467224D01*
X156041912Y-44410569D01*
X156173266Y-44285482D01*
X156273643Y-44134402D01*
X156330530Y-43984647D01*
X156335555Y-43971420D01*
X156335556Y-43971418D01*
X156338055Y-43964838D01*
X156340643Y-43946424D01*
X156362748Y-43789139D01*
X156362748Y-43789136D01*
X156363299Y-43785217D01*
X156363616Y-43762500D01*
X156343397Y-43582245D01*
X156341080Y-43575591D01*
X156286064Y-43417606D01*
X156286062Y-43417603D01*
X156283745Y-43410948D01*
X156241419Y-43343211D01*
X156191359Y-43263098D01*
X156187626Y-43257124D01*
X156182603Y-43252066D01*
X156163014Y-43232340D01*
X158136463Y-43232340D01*
X158154163Y-43412860D01*
X158211418Y-43584973D01*
X158215065Y-43590995D01*
X158215066Y-43590997D01*
X158295401Y-43723646D01*
X158305380Y-43740124D01*
X158310269Y-43745187D01*
X158310270Y-43745188D01*
X158354774Y-43791273D01*
X158431382Y-43870602D01*
X158437278Y-43874460D01*
X158575390Y-43964838D01*
X158583159Y-43969922D01*
X158589763Y-43972378D01*
X158589765Y-43972379D01*
X158746558Y-44030690D01*
X158746560Y-44030690D01*
X158753168Y-44033148D01*
X158836995Y-44044333D01*
X158925980Y-44056207D01*
X158925984Y-44056207D01*
X158932961Y-44057138D01*
X158939972Y-44056500D01*
X158939976Y-44056500D01*
X159082459Y-44043532D01*
X159113600Y-44040698D01*
X159120302Y-44038520D01*
X159120304Y-44038520D01*
X159279409Y-43986824D01*
X159279412Y-43986823D01*
X159286108Y-43984647D01*
X159441912Y-43891769D01*
X159573266Y-43766682D01*
X159583592Y-43751140D01*
X160436463Y-43751140D01*
X160454163Y-43931660D01*
X160511418Y-44103773D01*
X160515065Y-44109795D01*
X160515066Y-44109797D01*
X160576960Y-44211996D01*
X160605380Y-44258924D01*
X160610269Y-44263987D01*
X160610270Y-44263988D01*
X160671933Y-44327841D01*
X160731382Y-44389402D01*
X160763729Y-44410569D01*
X160872172Y-44481532D01*
X160883159Y-44488722D01*
X160889763Y-44491178D01*
X160889765Y-44491179D01*
X160977080Y-44523651D01*
X161033956Y-44566143D01*
X161058830Y-44632640D01*
X161043805Y-44702028D01*
X160993651Y-44752278D01*
X160985323Y-44755943D01*
X160985452Y-44756218D01*
X160979078Y-44759218D01*
X160972406Y-44761489D01*
X160920843Y-44793211D01*
X160823922Y-44852837D01*
X160823919Y-44852839D01*
X160817915Y-44856533D01*
X160812880Y-44861464D01*
X160812877Y-44861466D01*
X160709698Y-44962507D01*
X160688320Y-44983442D01*
X160590062Y-45135909D01*
X160587653Y-45142529D01*
X160587651Y-45142532D01*
X160538631Y-45277214D01*
X160528024Y-45306356D01*
X160505290Y-45486311D01*
X160522990Y-45666831D01*
X160580245Y-45838944D01*
X160583892Y-45844966D01*
X160583893Y-45844968D01*
X160661501Y-45973114D01*
X160674207Y-45994095D01*
X160679096Y-45999158D01*
X160679097Y-45999159D01*
X160722527Y-46044132D01*
X160800209Y-46124573D01*
X160806105Y-46128431D01*
X160941633Y-46217118D01*
X160951986Y-46223893D01*
X160958590Y-46226349D01*
X160958592Y-46226350D01*
X161115385Y-46284661D01*
X161115387Y-46284661D01*
X161121995Y-46287119D01*
X161200822Y-46297637D01*
X161294807Y-46310178D01*
X161294811Y-46310178D01*
X161301788Y-46311109D01*
X161308799Y-46310471D01*
X161308803Y-46310471D01*
X161456836Y-46296998D01*
X161482427Y-46294669D01*
X161489129Y-46292491D01*
X161489131Y-46292491D01*
X161648236Y-46240795D01*
X161648239Y-46240794D01*
X161654935Y-46238618D01*
X161769957Y-46170051D01*
X161804687Y-46149348D01*
X161804689Y-46149347D01*
X161810739Y-46145740D01*
X161942093Y-46020653D01*
X162042470Y-45869573D01*
X162095879Y-45728974D01*
X162104382Y-45706591D01*
X162104383Y-45706589D01*
X162106882Y-45700009D01*
X162110278Y-45675844D01*
X162131575Y-45524310D01*
X162131575Y-45524307D01*
X162132126Y-45520388D01*
X162132443Y-45497671D01*
X162114560Y-45338238D01*
X162113009Y-45324412D01*
X162113008Y-45324410D01*
X162112224Y-45317416D01*
X162111338Y-45314871D01*
X162115642Y-45245729D01*
X162157663Y-45188503D01*
X162223952Y-45163080D01*
X162278020Y-45170574D01*
X162421684Y-45224003D01*
X162435278Y-45227392D01*
X162600990Y-45249504D01*
X162614986Y-45249797D01*
X162781477Y-45234644D01*
X162795204Y-45231827D01*
X162954202Y-45180166D01*
X162966953Y-45174381D01*
X162973769Y-45170318D01*
X162983358Y-45159976D01*
X162979852Y-45151562D01*
X162354885Y-44526595D01*
X162320859Y-44464283D01*
X162325924Y-44393468D01*
X162354885Y-44348405D01*
X162535905Y-44167385D01*
X162598217Y-44133359D01*
X162669032Y-44138424D01*
X162714095Y-44167385D01*
X163249690Y-44702980D01*
X163263630Y-44710592D01*
X163265466Y-44710460D01*
X163272081Y-44706209D01*
X163810905Y-44167385D01*
X163873217Y-44133359D01*
X163944032Y-44138424D01*
X163989095Y-44167385D01*
X164170115Y-44348405D01*
X164204141Y-44410717D01*
X164199076Y-44481532D01*
X164170115Y-44526595D01*
X163546233Y-45150477D01*
X163539475Y-45162854D01*
X163542258Y-45166572D01*
X163681693Y-45218428D01*
X163738569Y-45260920D01*
X163763442Y-45327417D01*
X163756173Y-45379620D01*
X163717341Y-45486311D01*
X163709197Y-45508685D01*
X163686463Y-45688640D01*
X163704163Y-45869160D01*
X163761418Y-46041273D01*
X163765065Y-46047295D01*
X163765066Y-46047297D01*
X163833872Y-46160909D01*
X163855380Y-46196424D01*
X163860269Y-46201487D01*
X163860270Y-46201488D01*
X163898229Y-46240795D01*
X163981382Y-46326902D01*
X164019242Y-46351677D01*
X164111739Y-46412205D01*
X164133159Y-46426222D01*
X164139763Y-46428678D01*
X164139765Y-46428679D01*
X164296558Y-46486990D01*
X164296560Y-46486990D01*
X164303168Y-46489448D01*
X164386995Y-46500633D01*
X164475980Y-46512507D01*
X164475984Y-46512507D01*
X164482961Y-46513438D01*
X164489972Y-46512800D01*
X164489976Y-46512800D01*
X164632459Y-46499832D01*
X164663600Y-46496998D01*
X164670302Y-46494820D01*
X164670304Y-46494820D01*
X164829409Y-46443124D01*
X164829412Y-46443123D01*
X164836108Y-46440947D01*
X164932513Y-46383478D01*
X164985860Y-46351677D01*
X164985862Y-46351676D01*
X164991912Y-46348069D01*
X165123266Y-46222982D01*
X165128090Y-46215722D01*
X165128913Y-46215030D01*
X165131691Y-46211719D01*
X165132273Y-46212207D01*
X165182443Y-46170051D01*
X165221618Y-46159965D01*
X165364100Y-46146998D01*
X165370802Y-46144820D01*
X165370804Y-46144820D01*
X165529909Y-46093124D01*
X165529912Y-46093123D01*
X165536608Y-46090947D01*
X165692412Y-45998069D01*
X165823766Y-45872982D01*
X165924143Y-45721902D01*
X165971590Y-45596998D01*
X165986055Y-45558920D01*
X165986056Y-45558918D01*
X165988555Y-45552338D01*
X165992167Y-45526640D01*
X166013248Y-45376639D01*
X166013248Y-45376636D01*
X166013799Y-45372717D01*
X166014116Y-45350000D01*
X165993897Y-45169745D01*
X165942133Y-45021099D01*
X165938620Y-44950191D01*
X165974002Y-44888639D01*
X166037044Y-44855987D01*
X166107732Y-44862601D01*
X166120858Y-44869421D01*
X166120976Y-44869188D01*
X166127263Y-44872364D01*
X166133159Y-44876222D01*
X166139763Y-44878678D01*
X166139765Y-44878679D01*
X166296558Y-44936990D01*
X166296560Y-44936990D01*
X166303168Y-44939448D01*
X166386995Y-44950633D01*
X166475980Y-44962507D01*
X166475984Y-44962507D01*
X166482961Y-44963438D01*
X166489972Y-44962800D01*
X166489976Y-44962800D01*
X166632459Y-44949832D01*
X166663600Y-44946998D01*
X166670302Y-44944820D01*
X166670304Y-44944820D01*
X166829409Y-44893124D01*
X166829412Y-44893123D01*
X166836108Y-44890947D01*
X166932513Y-44833478D01*
X166985860Y-44801677D01*
X166985862Y-44801676D01*
X166991912Y-44798069D01*
X167123266Y-44672982D01*
X167223643Y-44521902D01*
X167288055Y-44352338D01*
X167293006Y-44317111D01*
X167312748Y-44176639D01*
X167312748Y-44176636D01*
X167313299Y-44172717D01*
X167313616Y-44150000D01*
X167293397Y-43969745D01*
X167291080Y-43963091D01*
X167236064Y-43805106D01*
X167236062Y-43805103D01*
X167233745Y-43798448D01*
X167199814Y-43744146D01*
X167141359Y-43650598D01*
X167137626Y-43644624D01*
X167043236Y-43549573D01*
X167009429Y-43487142D01*
X167014741Y-43416345D01*
X167027693Y-43391063D01*
X167051550Y-43355154D01*
X167073643Y-43321902D01*
X167117468Y-43206532D01*
X167135555Y-43158920D01*
X167135556Y-43158918D01*
X167138055Y-43152338D01*
X167140391Y-43135717D01*
X167162748Y-42976639D01*
X167162748Y-42976636D01*
X167163299Y-42972717D01*
X167163616Y-42950000D01*
X167143397Y-42769745D01*
X167139546Y-42758685D01*
X167083745Y-42598448D01*
X167086243Y-42597578D01*
X167076799Y-42539461D01*
X167084036Y-42510363D01*
X167122571Y-42408920D01*
X167122572Y-42408918D01*
X167125071Y-42402338D01*
X167126391Y-42392947D01*
X167149764Y-42226639D01*
X167149764Y-42226636D01*
X167150315Y-42222717D01*
X167150632Y-42200000D01*
X167130413Y-42019745D01*
X167127104Y-42010243D01*
X167073080Y-41855106D01*
X167073078Y-41855103D01*
X167070761Y-41848448D01*
X167039491Y-41798405D01*
X166978375Y-41700598D01*
X166974642Y-41694624D01*
X166950296Y-41670107D01*
X166916488Y-41607678D01*
X166921799Y-41536880D01*
X166952809Y-41490077D01*
X167023266Y-41422982D01*
X167123643Y-41271902D01*
X167165423Y-41161917D01*
X167185555Y-41108920D01*
X167185556Y-41108918D01*
X167188055Y-41102338D01*
X167189654Y-41090959D01*
X167212748Y-40926639D01*
X167212748Y-40926636D01*
X167213299Y-40922717D01*
X167213616Y-40900000D01*
X167193397Y-40719745D01*
X167190856Y-40712447D01*
X167136064Y-40555106D01*
X167136062Y-40555103D01*
X167133745Y-40548448D01*
X167087657Y-40474691D01*
X167041359Y-40400598D01*
X167037626Y-40394624D01*
X166970516Y-40327044D01*
X166914778Y-40270915D01*
X166914774Y-40270912D01*
X166909815Y-40265918D01*
X166898697Y-40258862D01*
X166827731Y-40213826D01*
X166756666Y-40168727D01*
X166710997Y-40152465D01*
X166592425Y-40110243D01*
X166592420Y-40110242D01*
X166585790Y-40107881D01*
X166578802Y-40107048D01*
X166578799Y-40107047D01*
X166446554Y-40091278D01*
X166405680Y-40086404D01*
X166398677Y-40087140D01*
X166398676Y-40087140D01*
X166232288Y-40104628D01*
X166232286Y-40104629D01*
X166225288Y-40105364D01*
X166053579Y-40163818D01*
X166047575Y-40167512D01*
X165905095Y-40255166D01*
X165905092Y-40255168D01*
X165899088Y-40258862D01*
X165894053Y-40263793D01*
X165894050Y-40263795D01*
X165832610Y-40323962D01*
X165769493Y-40385771D01*
X165671235Y-40538238D01*
X165668826Y-40544858D01*
X165668824Y-40544861D01*
X165622365Y-40672506D01*
X165609197Y-40708685D01*
X165586463Y-40888640D01*
X165593548Y-40960902D01*
X165596311Y-40989079D01*
X165583051Y-41058826D01*
X165534189Y-41110333D01*
X165465236Y-41127246D01*
X165428645Y-41120073D01*
X165367310Y-41098232D01*
X165353684Y-41095036D01*
X165340673Y-41093485D01*
X165275400Y-41065558D01*
X165235586Y-41006776D01*
X165233874Y-40935800D01*
X165237803Y-40923627D01*
X165285555Y-40797921D01*
X165285556Y-40797916D01*
X165288055Y-40791338D01*
X165289035Y-40784366D01*
X165312748Y-40615639D01*
X165312748Y-40615636D01*
X165313299Y-40611717D01*
X165313616Y-40589000D01*
X165293397Y-40408745D01*
X165287405Y-40391537D01*
X165236064Y-40244106D01*
X165236062Y-40244103D01*
X165233745Y-40237448D01*
X165228111Y-40228432D01*
X165141359Y-40089598D01*
X165137626Y-40083624D01*
X165132664Y-40078627D01*
X165014778Y-39959915D01*
X165014774Y-39959912D01*
X165009815Y-39954918D01*
X164998697Y-39947862D01*
X164912443Y-39893124D01*
X164856666Y-39857727D01*
X164807950Y-39840380D01*
X164692425Y-39799243D01*
X164692420Y-39799242D01*
X164685790Y-39796881D01*
X164678802Y-39796048D01*
X164678799Y-39796047D01*
X164550596Y-39780760D01*
X164505680Y-39775404D01*
X164498677Y-39776140D01*
X164498676Y-39776140D01*
X164332288Y-39793628D01*
X164332286Y-39793629D01*
X164325288Y-39794364D01*
X164153579Y-39852818D01*
X164107292Y-39881294D01*
X164005095Y-39944166D01*
X164005092Y-39944168D01*
X163999088Y-39947862D01*
X163994053Y-39952793D01*
X163994050Y-39952795D01*
X163887946Y-40056700D01*
X163869493Y-40074771D01*
X163853024Y-40100325D01*
X163799312Y-40146749D01*
X163729026Y-40156765D01*
X163664482Y-40127191D01*
X163646176Y-40105766D01*
X163645733Y-40106117D01*
X163641359Y-40100598D01*
X163637626Y-40094624D01*
X163632635Y-40089598D01*
X163514778Y-39970915D01*
X163514774Y-39970912D01*
X163509815Y-39965918D01*
X163489137Y-39952795D01*
X163410801Y-39903082D01*
X163356666Y-39868727D01*
X163306933Y-39851018D01*
X163192425Y-39810243D01*
X163192420Y-39810242D01*
X163185790Y-39807881D01*
X163178802Y-39807048D01*
X163178799Y-39807047D01*
X163043778Y-39790947D01*
X163005680Y-39786404D01*
X162998677Y-39787140D01*
X162998676Y-39787140D01*
X162832288Y-39804628D01*
X162832286Y-39804629D01*
X162825288Y-39805364D01*
X162779607Y-39820915D01*
X162660249Y-39861547D01*
X162660246Y-39861548D01*
X162653579Y-39863818D01*
X162647576Y-39867511D01*
X162647572Y-39867513D01*
X162646138Y-39868395D01*
X162645092Y-39868680D01*
X162641205Y-39870509D01*
X162640884Y-39869826D01*
X162577637Y-39887052D01*
X162512607Y-39867462D01*
X162497267Y-39857727D01*
X162448551Y-39840380D01*
X162333026Y-39799243D01*
X162333021Y-39799242D01*
X162326391Y-39796881D01*
X162319403Y-39796048D01*
X162319400Y-39796047D01*
X162191197Y-39780760D01*
X162146281Y-39775404D01*
X162139278Y-39776140D01*
X162139277Y-39776140D01*
X161972889Y-39793628D01*
X161972887Y-39793629D01*
X161965889Y-39794364D01*
X161816020Y-39845383D01*
X161745089Y-39848401D01*
X161733156Y-39844806D01*
X161651734Y-39815813D01*
X161606523Y-39799714D01*
X161606521Y-39799714D01*
X161599889Y-39797352D01*
X161592901Y-39796519D01*
X161592898Y-39796518D01*
X161460745Y-39780760D01*
X161419779Y-39775875D01*
X161412776Y-39776611D01*
X161412775Y-39776611D01*
X161246387Y-39794099D01*
X161246385Y-39794100D01*
X161239387Y-39794835D01*
X161067678Y-39853289D01*
X161023067Y-39880734D01*
X160919194Y-39944637D01*
X160919191Y-39944639D01*
X160913187Y-39948333D01*
X160908152Y-39953264D01*
X160908149Y-39953266D01*
X160802526Y-40056700D01*
X160783592Y-40075242D01*
X160685334Y-40227709D01*
X160682925Y-40234329D01*
X160682923Y-40234332D01*
X160649179Y-40327044D01*
X160623296Y-40398156D01*
X160600562Y-40578111D01*
X160618262Y-40758631D01*
X160675517Y-40930744D01*
X160679164Y-40936766D01*
X160679165Y-40936768D01*
X160758299Y-41067434D01*
X160769479Y-41085895D01*
X160774368Y-41090958D01*
X160774369Y-41090959D01*
X160832822Y-41151488D01*
X160895481Y-41216373D01*
X160943918Y-41248069D01*
X161028740Y-41303575D01*
X161047258Y-41315693D01*
X161053862Y-41318149D01*
X161053864Y-41318150D01*
X161210657Y-41376461D01*
X161210659Y-41376461D01*
X161217267Y-41378919D01*
X161290121Y-41388640D01*
X161390079Y-41401978D01*
X161390083Y-41401978D01*
X161397060Y-41402909D01*
X161404071Y-41402271D01*
X161404075Y-41402271D01*
X161546558Y-41389303D01*
X161577699Y-41386469D01*
X161584399Y-41384292D01*
X161584404Y-41384291D01*
X161742856Y-41332807D01*
X161813824Y-41330780D01*
X161825712Y-41334543D01*
X161835591Y-41338217D01*
X161892467Y-41380709D01*
X161917341Y-41447206D01*
X161903004Y-41513417D01*
X161903634Y-41513730D01*
X161902396Y-41516223D01*
X161902316Y-41516594D01*
X161901682Y-41517662D01*
X161894273Y-41532587D01*
X161837096Y-41689680D01*
X161833803Y-41703295D01*
X161812850Y-41869153D01*
X161812654Y-41883160D01*
X161828968Y-42049547D01*
X161831879Y-42063241D01*
X161884650Y-42221875D01*
X161890524Y-42234588D01*
X161891768Y-42236643D01*
X161902174Y-42246157D01*
X161910796Y-42242494D01*
X162535905Y-41617385D01*
X162598217Y-41583359D01*
X162669032Y-41588424D01*
X162714095Y-41617385D01*
X162895115Y-41798405D01*
X162929141Y-41860717D01*
X162924076Y-41931532D01*
X162895115Y-41976595D01*
X162359520Y-42512190D01*
X162351908Y-42526130D01*
X162352040Y-42527966D01*
X162356291Y-42534581D01*
X162895115Y-43073405D01*
X162929141Y-43135717D01*
X162924076Y-43206532D01*
X162895115Y-43251595D01*
X162714095Y-43432615D01*
X162651783Y-43466641D01*
X162580968Y-43461576D01*
X162535905Y-43432615D01*
X161912460Y-42809170D01*
X161900083Y-42802412D01*
X161894926Y-42806272D01*
X161894273Y-42807589D01*
X161837097Y-42964679D01*
X161833854Y-42978083D01*
X161798394Y-43039590D01*
X161735310Y-43072162D01*
X161664631Y-43065458D01*
X161643879Y-43054843D01*
X161606666Y-43031227D01*
X161573213Y-43019315D01*
X161442425Y-42972743D01*
X161442420Y-42972742D01*
X161435790Y-42970381D01*
X161428802Y-42969548D01*
X161428799Y-42969547D01*
X161298097Y-42953962D01*
X161255680Y-42948904D01*
X161248677Y-42949640D01*
X161248676Y-42949640D01*
X161082288Y-42967128D01*
X161082286Y-42967129D01*
X161075288Y-42967864D01*
X160903579Y-43026318D01*
X160854046Y-43056791D01*
X160755095Y-43117666D01*
X160755092Y-43117668D01*
X160749088Y-43121362D01*
X160744053Y-43126293D01*
X160744050Y-43126295D01*
X160628182Y-43239762D01*
X160619493Y-43248271D01*
X160521235Y-43400738D01*
X160518826Y-43407358D01*
X160518824Y-43407361D01*
X160472361Y-43535017D01*
X160459197Y-43571185D01*
X160436463Y-43751140D01*
X159583592Y-43751140D01*
X159673643Y-43615602D01*
X159727820Y-43472982D01*
X159735555Y-43452620D01*
X159735556Y-43452618D01*
X159738055Y-43446038D01*
X159739151Y-43438238D01*
X159762748Y-43270339D01*
X159762748Y-43270336D01*
X159763299Y-43266417D01*
X159763470Y-43254193D01*
X159763561Y-43247662D01*
X159763561Y-43247657D01*
X159763616Y-43243700D01*
X159743397Y-43063445D01*
X159741080Y-43056791D01*
X159686064Y-42898806D01*
X159686062Y-42898803D01*
X159683745Y-42892148D01*
X159653054Y-42843032D01*
X159591359Y-42744298D01*
X159587626Y-42738324D01*
X159582664Y-42733327D01*
X159464778Y-42614615D01*
X159464774Y-42614612D01*
X159459815Y-42609618D01*
X159448697Y-42602562D01*
X159352120Y-42541273D01*
X159306666Y-42512427D01*
X159268085Y-42498689D01*
X159142425Y-42453943D01*
X159142420Y-42453942D01*
X159135790Y-42451581D01*
X159128802Y-42450748D01*
X159128799Y-42450747D01*
X159005698Y-42436068D01*
X158955680Y-42430104D01*
X158948677Y-42430840D01*
X158948676Y-42430840D01*
X158782288Y-42448328D01*
X158782286Y-42448329D01*
X158775288Y-42449064D01*
X158603579Y-42507518D01*
X158559589Y-42534581D01*
X158455095Y-42598866D01*
X158455092Y-42598868D01*
X158449088Y-42602562D01*
X158444053Y-42607493D01*
X158444050Y-42607495D01*
X158326605Y-42722506D01*
X158319493Y-42729471D01*
X158272486Y-42802412D01*
X158230834Y-42867044D01*
X158221235Y-42881938D01*
X158218826Y-42888558D01*
X158218824Y-42888561D01*
X158169511Y-43024047D01*
X158159197Y-43052385D01*
X158136463Y-43232340D01*
X156163014Y-43232340D01*
X156064778Y-43133415D01*
X156064774Y-43133412D01*
X156059815Y-43128418D01*
X156048697Y-43121362D01*
X155971169Y-43072162D01*
X155906666Y-43031227D01*
X155873213Y-43019315D01*
X155742425Y-42972743D01*
X155742420Y-42972742D01*
X155735790Y-42970381D01*
X155728802Y-42969548D01*
X155728799Y-42969547D01*
X155598097Y-42953962D01*
X155555680Y-42948904D01*
X155548677Y-42949640D01*
X155548676Y-42949640D01*
X155382288Y-42967128D01*
X155382286Y-42967129D01*
X155375288Y-42967864D01*
X155203579Y-43026318D01*
X155154046Y-43056791D01*
X155055095Y-43117666D01*
X155055092Y-43117668D01*
X155049088Y-43121362D01*
X155044053Y-43126293D01*
X155044050Y-43126295D01*
X154928182Y-43239762D01*
X154919493Y-43248271D01*
X154821235Y-43400738D01*
X154818826Y-43407358D01*
X154818824Y-43407361D01*
X154772361Y-43535017D01*
X154759197Y-43571185D01*
X154736463Y-43751140D01*
X154754163Y-43931660D01*
X154759036Y-43946309D01*
X154761560Y-44017258D01*
X154725323Y-44078311D01*
X154705510Y-44093390D01*
X154599088Y-44158862D01*
X154594053Y-44163793D01*
X154594050Y-44163795D01*
X154491737Y-44263988D01*
X154469493Y-44285771D01*
X154371235Y-44438238D01*
X154368826Y-44444858D01*
X154368824Y-44444861D01*
X154317472Y-44585949D01*
X154309197Y-44608685D01*
X154286463Y-44788640D01*
X149424286Y-44788640D01*
X149590446Y-44650446D01*
X149729532Y-44483213D01*
X149835813Y-44293435D01*
X149837669Y-44287968D01*
X149837671Y-44287963D01*
X149903874Y-44092935D01*
X149903875Y-44092930D01*
X149905730Y-44087466D01*
X149936941Y-43872205D01*
X149938570Y-43810000D01*
X149918667Y-43593400D01*
X149916291Y-43584973D01*
X149883514Y-43468757D01*
X149859626Y-43384055D01*
X149763423Y-43188974D01*
X149738178Y-43155166D01*
X149636733Y-43019315D01*
X149636732Y-43019314D01*
X149633280Y-43014691D01*
X149629044Y-43010775D01*
X149477796Y-42870963D01*
X149477793Y-42870961D01*
X149473556Y-42867044D01*
X149289599Y-42750976D01*
X149133351Y-42688640D01*
X149937963Y-42688640D01*
X149955663Y-42869160D01*
X150012918Y-43041273D01*
X150016565Y-43047295D01*
X150016566Y-43047297D01*
X150086431Y-43162658D01*
X150106880Y-43196424D01*
X150232882Y-43326902D01*
X150238778Y-43330760D01*
X150364240Y-43412860D01*
X150384659Y-43426222D01*
X150391263Y-43428678D01*
X150391265Y-43428679D01*
X150548058Y-43486990D01*
X150548060Y-43486990D01*
X150554668Y-43489448D01*
X150638495Y-43500633D01*
X150727480Y-43512507D01*
X150727484Y-43512507D01*
X150734461Y-43513438D01*
X150741472Y-43512800D01*
X150741476Y-43512800D01*
X150883959Y-43499832D01*
X150915100Y-43496998D01*
X150921802Y-43494820D01*
X150921804Y-43494820D01*
X151080909Y-43443124D01*
X151080912Y-43443123D01*
X151087608Y-43440947D01*
X151091478Y-43438640D01*
X152836463Y-43438640D01*
X152854163Y-43619160D01*
X152911418Y-43791273D01*
X152915065Y-43797295D01*
X152915066Y-43797297D01*
X153000487Y-43938344D01*
X153005380Y-43946424D01*
X153010269Y-43951487D01*
X153010270Y-43951488D01*
X153059376Y-44002338D01*
X153131382Y-44076902D01*
X153150735Y-44089566D01*
X153269655Y-44167385D01*
X153283159Y-44176222D01*
X153289763Y-44178678D01*
X153289765Y-44178679D01*
X153446558Y-44236990D01*
X153446560Y-44236990D01*
X153453168Y-44239448D01*
X153536995Y-44250633D01*
X153625980Y-44262507D01*
X153625984Y-44262507D01*
X153632961Y-44263438D01*
X153639972Y-44262800D01*
X153639976Y-44262800D01*
X153782459Y-44249832D01*
X153813600Y-44246998D01*
X153820302Y-44244820D01*
X153820304Y-44244820D01*
X153979409Y-44193124D01*
X153979412Y-44193123D01*
X153986108Y-44190947D01*
X154122238Y-44109797D01*
X154135860Y-44101677D01*
X154135862Y-44101676D01*
X154141912Y-44098069D01*
X154273266Y-43972982D01*
X154373643Y-43821902D01*
X154438055Y-43652338D01*
X154439139Y-43644624D01*
X154462748Y-43476639D01*
X154462748Y-43476636D01*
X154463299Y-43472717D01*
X154463616Y-43450000D01*
X154443397Y-43269745D01*
X154440859Y-43262457D01*
X154386064Y-43105106D01*
X154386062Y-43105103D01*
X154383745Y-43098448D01*
X154344100Y-43035002D01*
X154291359Y-42950598D01*
X154287626Y-42944624D01*
X154273941Y-42930843D01*
X154164778Y-42820915D01*
X154164774Y-42820912D01*
X154159815Y-42815918D01*
X154148697Y-42808862D01*
X154084989Y-42768432D01*
X154006666Y-42718727D01*
X153965201Y-42703962D01*
X153842425Y-42660243D01*
X153842420Y-42660242D01*
X153835790Y-42657881D01*
X153828802Y-42657048D01*
X153828799Y-42657047D01*
X153705698Y-42642368D01*
X153655680Y-42636404D01*
X153648677Y-42637140D01*
X153648676Y-42637140D01*
X153482288Y-42654628D01*
X153482286Y-42654629D01*
X153475288Y-42655364D01*
X153303579Y-42713818D01*
X153254035Y-42744298D01*
X153155095Y-42805166D01*
X153155092Y-42805168D01*
X153149088Y-42808862D01*
X153144053Y-42813793D01*
X153144050Y-42813795D01*
X153024525Y-42930843D01*
X153019493Y-42935771D01*
X152921235Y-43088238D01*
X152918826Y-43094858D01*
X152918824Y-43094861D01*
X152861606Y-43252066D01*
X152859197Y-43258685D01*
X152836463Y-43438640D01*
X151091478Y-43438640D01*
X151191740Y-43378872D01*
X151237360Y-43351677D01*
X151237362Y-43351676D01*
X151243412Y-43348069D01*
X151374766Y-43222982D01*
X151475143Y-43071902D01*
X151521549Y-42949738D01*
X151537055Y-42908920D01*
X151537056Y-42908918D01*
X151539555Y-42902338D01*
X151541491Y-42888561D01*
X151564248Y-42726639D01*
X151564248Y-42726636D01*
X151564799Y-42722717D01*
X151565116Y-42700000D01*
X151544897Y-42519745D01*
X151541926Y-42511212D01*
X151510418Y-42420734D01*
X151500741Y-42392946D01*
X151497227Y-42322038D01*
X151532608Y-42260485D01*
X151595651Y-42227833D01*
X151655572Y-42232749D01*
X151655915Y-42231372D01*
X151662739Y-42233073D01*
X151669350Y-42235532D01*
X151748979Y-42246157D01*
X151842162Y-42258591D01*
X151842166Y-42258591D01*
X151849143Y-42259522D01*
X151856154Y-42258884D01*
X151856158Y-42258884D01*
X151999544Y-42245834D01*
X152029782Y-42243082D01*
X152036484Y-42240904D01*
X152036486Y-42240904D01*
X152195591Y-42189208D01*
X152195594Y-42189207D01*
X152202290Y-42187031D01*
X152324571Y-42114137D01*
X152352042Y-42097761D01*
X152352044Y-42097760D01*
X152358094Y-42094153D01*
X152489448Y-41969066D01*
X152589825Y-41817986D01*
X152631605Y-41708001D01*
X152651737Y-41655004D01*
X152651738Y-41655002D01*
X152654237Y-41648422D01*
X152655217Y-41641450D01*
X152678930Y-41472723D01*
X152678930Y-41472720D01*
X152679481Y-41468801D01*
X152679798Y-41446084D01*
X152659579Y-41265829D01*
X152653244Y-41247637D01*
X152602246Y-41101190D01*
X152602244Y-41101187D01*
X152599927Y-41094532D01*
X152583393Y-41068072D01*
X152507541Y-40946682D01*
X152503808Y-40940708D01*
X152496376Y-40933224D01*
X152380960Y-40816999D01*
X152380956Y-40816996D01*
X152375997Y-40812002D01*
X152332450Y-40784366D01*
X152300035Y-40763795D01*
X152222848Y-40714811D01*
X152190815Y-40703404D01*
X152133352Y-40661712D01*
X152107867Y-40598751D01*
X152106799Y-40589224D01*
X152093397Y-40469745D01*
X152091080Y-40463091D01*
X152036064Y-40305106D01*
X152036062Y-40305103D01*
X152033745Y-40298448D01*
X151999268Y-40243274D01*
X152831829Y-40243274D01*
X152849529Y-40423794D01*
X152906784Y-40595907D01*
X152910431Y-40601929D01*
X152910432Y-40601931D01*
X152981083Y-40718590D01*
X153000746Y-40751058D01*
X153005635Y-40756121D01*
X153005636Y-40756122D01*
X153013046Y-40763795D01*
X153126748Y-40881536D01*
X153183628Y-40918757D01*
X153226302Y-40946682D01*
X153278525Y-40980856D01*
X153285129Y-40983312D01*
X153285131Y-40983313D01*
X153441924Y-41041624D01*
X153441926Y-41041624D01*
X153448534Y-41044082D01*
X153518368Y-41053400D01*
X153621346Y-41067141D01*
X153621350Y-41067141D01*
X153628327Y-41068072D01*
X153635338Y-41067434D01*
X153635342Y-41067434D01*
X153777825Y-41054466D01*
X153808966Y-41051632D01*
X153815668Y-41049454D01*
X153815670Y-41049454D01*
X153974775Y-40997758D01*
X153974778Y-40997757D01*
X153981474Y-40995581D01*
X154137278Y-40902703D01*
X154138661Y-40905022D01*
X154193516Y-40884153D01*
X154262987Y-40898792D01*
X154313516Y-40948665D01*
X154328724Y-40997476D01*
X154340124Y-41113744D01*
X154397379Y-41285857D01*
X154401026Y-41291879D01*
X154401027Y-41291881D01*
X154483367Y-41427841D01*
X154491341Y-41441008D01*
X154496230Y-41446071D01*
X154496231Y-41446072D01*
X154521968Y-41472723D01*
X154617343Y-41571486D01*
X154664490Y-41602338D01*
X154734914Y-41648422D01*
X154769120Y-41670806D01*
X154775724Y-41673262D01*
X154775726Y-41673263D01*
X154932519Y-41731574D01*
X154932521Y-41731574D01*
X154939129Y-41734032D01*
X155020040Y-41744828D01*
X155111941Y-41757091D01*
X155111945Y-41757091D01*
X155118922Y-41758022D01*
X155125933Y-41757384D01*
X155125937Y-41757384D01*
X155268420Y-41744416D01*
X155299561Y-41741582D01*
X155306263Y-41739404D01*
X155306265Y-41739404D01*
X155465370Y-41687708D01*
X155465373Y-41687707D01*
X155472069Y-41685531D01*
X155477042Y-41682567D01*
X155546851Y-41672712D01*
X155572518Y-41679285D01*
X155637077Y-41703295D01*
X155727701Y-41736998D01*
X155727703Y-41736998D01*
X155734311Y-41739456D01*
X155812314Y-41749864D01*
X155907123Y-41762515D01*
X155907127Y-41762515D01*
X155914104Y-41763446D01*
X155921115Y-41762808D01*
X155921119Y-41762808D01*
X156063602Y-41749840D01*
X156094743Y-41747006D01*
X156101445Y-41744828D01*
X156101447Y-41744828D01*
X156259683Y-41693414D01*
X156330651Y-41691387D01*
X156342539Y-41695150D01*
X156454203Y-41736678D01*
X156454205Y-41736679D01*
X156460813Y-41739136D01*
X156541214Y-41749864D01*
X156633625Y-41762195D01*
X156633629Y-41762195D01*
X156640606Y-41763126D01*
X156647617Y-41762488D01*
X156647621Y-41762488D01*
X156790104Y-41749520D01*
X156821245Y-41746686D01*
X156827947Y-41744508D01*
X156827949Y-41744508D01*
X156978029Y-41695744D01*
X157048997Y-41693717D01*
X157060885Y-41697480D01*
X157180686Y-41742034D01*
X157180688Y-41742034D01*
X157187296Y-41744492D01*
X157271123Y-41755677D01*
X157360108Y-41767551D01*
X157360112Y-41767551D01*
X157367089Y-41768482D01*
X157374100Y-41767844D01*
X157374104Y-41767844D01*
X157516587Y-41754876D01*
X157547728Y-41752042D01*
X157554430Y-41749864D01*
X157554432Y-41749864D01*
X157713537Y-41698168D01*
X157713540Y-41698167D01*
X157720236Y-41695991D01*
X157866299Y-41608920D01*
X157869988Y-41606721D01*
X157869990Y-41606720D01*
X157876040Y-41603113D01*
X158007394Y-41478026D01*
X158107771Y-41326946D01*
X158110272Y-41320361D01*
X158110275Y-41320356D01*
X158116649Y-41303575D01*
X158159537Y-41246997D01*
X158226205Y-41222587D01*
X158278357Y-41230221D01*
X158303168Y-41239448D01*
X158310149Y-41240379D01*
X158310151Y-41240380D01*
X158475980Y-41262507D01*
X158475984Y-41262507D01*
X158482961Y-41263438D01*
X158489972Y-41262800D01*
X158489976Y-41262800D01*
X158632459Y-41249832D01*
X158663600Y-41246998D01*
X158670302Y-41244820D01*
X158670304Y-41244820D01*
X158829409Y-41193124D01*
X158829412Y-41193123D01*
X158836108Y-41190947D01*
X158950120Y-41122982D01*
X158985860Y-41101677D01*
X158985862Y-41101676D01*
X158991912Y-41098069D01*
X159123266Y-40972982D01*
X159223643Y-40821902D01*
X159280394Y-40672506D01*
X159285555Y-40658920D01*
X159285556Y-40658918D01*
X159288055Y-40652338D01*
X159292226Y-40622658D01*
X159312748Y-40476639D01*
X159312748Y-40476636D01*
X159313299Y-40472717D01*
X159313616Y-40450000D01*
X159293397Y-40269745D01*
X159280068Y-40231469D01*
X159236064Y-40105106D01*
X159236062Y-40105103D01*
X159233745Y-40098448D01*
X159190714Y-40029583D01*
X159141359Y-39950598D01*
X159137626Y-39944624D01*
X159109561Y-39916362D01*
X159014778Y-39820915D01*
X159014774Y-39820912D01*
X159009815Y-39815918D01*
X158998697Y-39808862D01*
X158941185Y-39772364D01*
X158856666Y-39718727D01*
X158808697Y-39701646D01*
X158692425Y-39660243D01*
X158692420Y-39660242D01*
X158685790Y-39657881D01*
X158678802Y-39657048D01*
X158678799Y-39657047D01*
X158555698Y-39642368D01*
X158505680Y-39636404D01*
X158498677Y-39637140D01*
X158498676Y-39637140D01*
X158332288Y-39654628D01*
X158332286Y-39654629D01*
X158325288Y-39655364D01*
X158153579Y-39713818D01*
X158147575Y-39717512D01*
X158005095Y-39805166D01*
X158005092Y-39805168D01*
X157999088Y-39808862D01*
X157994053Y-39813793D01*
X157994050Y-39813795D01*
X157874525Y-39930843D01*
X157869493Y-39935771D01*
X157771235Y-40088238D01*
X157768826Y-40094858D01*
X157768823Y-40094863D01*
X157766868Y-40100236D01*
X157724776Y-40157409D01*
X157658455Y-40182748D01*
X157606199Y-40175844D01*
X157576553Y-40165287D01*
X157576548Y-40165286D01*
X157569918Y-40162925D01*
X157562930Y-40162092D01*
X157562927Y-40162091D01*
X157434263Y-40146749D01*
X157389808Y-40141448D01*
X157382805Y-40142184D01*
X157382804Y-40142184D01*
X157216416Y-40159672D01*
X157216414Y-40159673D01*
X157209416Y-40160408D01*
X157164073Y-40175844D01*
X157067924Y-40208575D01*
X156996991Y-40211593D01*
X156985053Y-40207996D01*
X156850073Y-40159932D01*
X156850067Y-40159931D01*
X156843435Y-40157569D01*
X156836447Y-40156736D01*
X156836444Y-40156735D01*
X156692970Y-40139627D01*
X156663325Y-40136092D01*
X156656322Y-40136828D01*
X156656321Y-40136828D01*
X156489933Y-40154316D01*
X156489931Y-40154317D01*
X156482933Y-40155052D01*
X156338223Y-40204315D01*
X156333282Y-40205997D01*
X156262350Y-40209015D01*
X156250410Y-40205418D01*
X156247313Y-40204315D01*
X156221757Y-40195215D01*
X156123568Y-40160251D01*
X156123563Y-40160250D01*
X156116933Y-40157889D01*
X156109945Y-40157056D01*
X156109942Y-40157055D01*
X155979056Y-40141448D01*
X155936823Y-40136412D01*
X155929820Y-40137148D01*
X155929819Y-40137148D01*
X155763431Y-40154636D01*
X155763429Y-40154637D01*
X155756431Y-40155372D01*
X155584722Y-40213826D01*
X155584159Y-40212172D01*
X155522843Y-40221701D01*
X155492856Y-40212668D01*
X155492627Y-40213311D01*
X155328386Y-40154827D01*
X155328381Y-40154826D01*
X155321751Y-40152465D01*
X155314763Y-40151632D01*
X155314760Y-40151631D01*
X155181752Y-40135771D01*
X155141641Y-40130988D01*
X155134638Y-40131724D01*
X155134637Y-40131724D01*
X154968249Y-40149212D01*
X154968247Y-40149213D01*
X154961249Y-40149948D01*
X154864899Y-40182748D01*
X154798306Y-40205418D01*
X154789540Y-40208402D01*
X154644573Y-40297587D01*
X154576075Y-40316245D01*
X154508361Y-40294907D01*
X154462932Y-40240347D01*
X154453338Y-40204315D01*
X154439548Y-40081377D01*
X154438763Y-40074379D01*
X154436446Y-40067725D01*
X154381430Y-39909740D01*
X154381428Y-39909737D01*
X154379111Y-39903082D01*
X154368268Y-39885730D01*
X154286725Y-39755232D01*
X154282992Y-39749258D01*
X154256426Y-39722506D01*
X154160144Y-39625549D01*
X154160140Y-39625546D01*
X154155181Y-39620552D01*
X154144063Y-39613496D01*
X154046353Y-39551488D01*
X154002032Y-39523361D01*
X153971550Y-39512507D01*
X153837791Y-39464877D01*
X153837786Y-39464876D01*
X153831156Y-39462515D01*
X153824168Y-39461682D01*
X153824165Y-39461681D01*
X153701064Y-39447002D01*
X153651046Y-39441038D01*
X153644043Y-39441774D01*
X153644042Y-39441774D01*
X153477654Y-39459262D01*
X153477652Y-39459263D01*
X153470654Y-39459998D01*
X153298945Y-39518452D01*
X153251041Y-39547923D01*
X153150461Y-39609800D01*
X153150458Y-39609802D01*
X153144454Y-39613496D01*
X153139419Y-39618427D01*
X153139416Y-39618429D01*
X153019891Y-39735477D01*
X153014859Y-39740405D01*
X152916601Y-39892872D01*
X152914192Y-39899492D01*
X152914190Y-39899495D01*
X152869997Y-40020915D01*
X152854563Y-40063319D01*
X152831829Y-40243274D01*
X151999268Y-40243274D01*
X151995628Y-40237448D01*
X151941359Y-40150598D01*
X151937626Y-40144624D01*
X151932664Y-40139627D01*
X151814778Y-40020915D01*
X151814774Y-40020912D01*
X151809815Y-40015918D01*
X151798697Y-40008862D01*
X151711091Y-39953266D01*
X151656666Y-39918727D01*
X151595939Y-39897103D01*
X151492425Y-39860243D01*
X151492420Y-39860242D01*
X151485790Y-39857881D01*
X151478802Y-39857048D01*
X151478799Y-39857047D01*
X151339023Y-39840380D01*
X151305680Y-39836404D01*
X151298677Y-39837140D01*
X151298676Y-39837140D01*
X151132288Y-39854628D01*
X151132286Y-39854629D01*
X151125288Y-39855364D01*
X150953579Y-39913818D01*
X150917895Y-39935771D01*
X150805095Y-40005166D01*
X150805092Y-40005168D01*
X150799088Y-40008862D01*
X150794053Y-40013793D01*
X150794050Y-40013795D01*
X150676153Y-40129249D01*
X150669493Y-40135771D01*
X150571235Y-40288238D01*
X150568826Y-40294858D01*
X150568824Y-40294861D01*
X150512358Y-40450000D01*
X150509197Y-40458685D01*
X150486463Y-40638640D01*
X150504163Y-40819160D01*
X150561418Y-40991273D01*
X150565065Y-40997295D01*
X150565066Y-40997297D01*
X150633523Y-41110333D01*
X150655380Y-41146424D01*
X150660269Y-41151487D01*
X150660270Y-41151488D01*
X150694892Y-41187340D01*
X150781382Y-41276902D01*
X150933159Y-41376222D01*
X150977420Y-41392683D01*
X151034295Y-41435174D01*
X151058897Y-41498483D01*
X151070345Y-41615244D01*
X151114495Y-41747963D01*
X151117108Y-41755817D01*
X151119631Y-41826769D01*
X151083394Y-41887821D01*
X151019902Y-41919590D01*
X150955283Y-41914288D01*
X150943925Y-41910243D01*
X150943920Y-41910242D01*
X150937290Y-41907881D01*
X150930302Y-41907048D01*
X150930299Y-41907047D01*
X150807198Y-41892368D01*
X150757180Y-41886404D01*
X150750177Y-41887140D01*
X150750176Y-41887140D01*
X150583788Y-41904628D01*
X150583786Y-41904629D01*
X150576788Y-41905364D01*
X150405079Y-41963818D01*
X150373423Y-41983293D01*
X150256595Y-42055166D01*
X150256592Y-42055168D01*
X150250588Y-42058862D01*
X150245553Y-42063793D01*
X150245550Y-42063795D01*
X150148399Y-42158933D01*
X150120993Y-42185771D01*
X150022735Y-42338238D01*
X150020326Y-42344858D01*
X150020324Y-42344861D01*
X149980001Y-42455648D01*
X149960697Y-42508685D01*
X149937963Y-42688640D01*
X149133351Y-42688640D01*
X149087572Y-42670376D01*
X149056453Y-42664186D01*
X148993544Y-42631278D01*
X148958412Y-42569583D01*
X148962212Y-42498689D01*
X149003738Y-42441103D01*
X149040534Y-42421294D01*
X149227963Y-42357671D01*
X149227968Y-42357669D01*
X149233435Y-42355813D01*
X149264818Y-42338238D01*
X149322934Y-42305691D01*
X149423213Y-42249532D01*
X149590446Y-42110446D01*
X149729532Y-41943213D01*
X149827908Y-41767551D01*
X149832989Y-41758478D01*
X149832990Y-41758476D01*
X149835813Y-41753435D01*
X149837669Y-41747968D01*
X149837671Y-41747963D01*
X149903874Y-41552935D01*
X149903875Y-41552930D01*
X149905730Y-41547466D01*
X149936941Y-41332205D01*
X149938570Y-41270000D01*
X149918667Y-41053400D01*
X149902975Y-40997758D01*
X149873061Y-40891693D01*
X149859626Y-40844055D01*
X149763423Y-40648974D01*
X149732738Y-40607881D01*
X149636733Y-40479315D01*
X149636732Y-40479314D01*
X149633280Y-40474691D01*
X149629044Y-40470775D01*
X149477796Y-40330963D01*
X149477793Y-40330961D01*
X149473556Y-40327044D01*
X149289599Y-40210976D01*
X149087572Y-40130376D01*
X149056453Y-40124186D01*
X148993544Y-40091278D01*
X148958412Y-40029583D01*
X148962212Y-39958689D01*
X149003738Y-39901103D01*
X149040534Y-39881294D01*
X149227963Y-39817671D01*
X149227968Y-39817669D01*
X149233435Y-39815813D01*
X149239989Y-39812143D01*
X149368085Y-39740405D01*
X149423213Y-39709532D01*
X149590446Y-39570446D01*
X149729532Y-39403213D01*
X149812777Y-39254569D01*
X149832989Y-39218478D01*
X149832990Y-39218476D01*
X149835813Y-39213435D01*
X149837669Y-39207968D01*
X149837671Y-39207963D01*
X149903874Y-39012935D01*
X149903875Y-39012930D01*
X149905730Y-39007466D01*
X149936941Y-38792205D01*
X149938570Y-38730000D01*
X149936178Y-38703962D01*
X149927774Y-38612507D01*
X149919938Y-38527235D01*
X149933622Y-38457571D01*
X149982799Y-38406364D01*
X150051853Y-38389872D01*
X150118862Y-38413332D01*
X150136045Y-38428179D01*
X150202504Y-38496998D01*
X150231382Y-38526902D01*
X150383159Y-38626222D01*
X150414159Y-38637751D01*
X150419741Y-38639827D01*
X150476616Y-38682321D01*
X150501218Y-38745627D01*
X150504163Y-38775660D01*
X150506387Y-38782345D01*
X150506387Y-38782346D01*
X150529580Y-38852066D01*
X150561418Y-38947773D01*
X150565065Y-38953795D01*
X150565066Y-38953797D01*
X150647796Y-39090401D01*
X150655380Y-39102924D01*
X150660269Y-39107987D01*
X150660270Y-39107988D01*
X150685719Y-39134341D01*
X150781382Y-39233402D01*
X150811039Y-39252809D01*
X150912251Y-39319040D01*
X150933159Y-39332722D01*
X150939763Y-39335178D01*
X150939765Y-39335179D01*
X151096558Y-39393490D01*
X151096560Y-39393490D01*
X151103168Y-39395948D01*
X151186995Y-39407133D01*
X151275980Y-39419007D01*
X151275984Y-39419007D01*
X151282961Y-39419938D01*
X151289972Y-39419300D01*
X151289976Y-39419300D01*
X151432459Y-39406332D01*
X151463600Y-39403498D01*
X151470302Y-39401320D01*
X151470304Y-39401320D01*
X151629409Y-39349624D01*
X151629412Y-39349623D01*
X151636108Y-39347447D01*
X151791912Y-39254569D01*
X151923266Y-39129482D01*
X151983621Y-39038640D01*
X155136463Y-39038640D01*
X155154163Y-39219160D01*
X155211418Y-39391273D01*
X155215065Y-39397295D01*
X155215066Y-39397297D01*
X155291413Y-39523361D01*
X155305380Y-39546424D01*
X155431382Y-39676902D01*
X155487796Y-39713818D01*
X155575682Y-39771329D01*
X155583159Y-39776222D01*
X155589763Y-39778678D01*
X155589765Y-39778679D01*
X155746558Y-39836990D01*
X155746560Y-39836990D01*
X155753168Y-39839448D01*
X155836349Y-39850547D01*
X155925980Y-39862507D01*
X155925984Y-39862507D01*
X155932961Y-39863438D01*
X155939972Y-39862800D01*
X155939976Y-39862800D01*
X156098184Y-39848401D01*
X156113600Y-39846998D01*
X156120302Y-39844820D01*
X156120304Y-39844820D01*
X156279409Y-39793124D01*
X156279412Y-39793123D01*
X156286108Y-39790947D01*
X156409296Y-39717512D01*
X156435860Y-39701677D01*
X156435862Y-39701676D01*
X156441912Y-39698069D01*
X156573266Y-39572982D01*
X156673643Y-39421902D01*
X156738055Y-39252338D01*
X156739295Y-39252809D01*
X156771796Y-39198217D01*
X156835331Y-39166533D01*
X156905909Y-39174227D01*
X156948152Y-39203036D01*
X157054882Y-39313557D01*
X157107622Y-39348069D01*
X157177033Y-39393490D01*
X157206659Y-39412877D01*
X157213263Y-39415333D01*
X157213265Y-39415334D01*
X157370058Y-39473645D01*
X157370060Y-39473645D01*
X157376668Y-39476103D01*
X157460495Y-39487288D01*
X157549480Y-39499162D01*
X157549484Y-39499162D01*
X157556461Y-39500093D01*
X157563472Y-39499455D01*
X157563476Y-39499455D01*
X157726782Y-39484592D01*
X157737100Y-39483653D01*
X157743802Y-39481475D01*
X157743804Y-39481475D01*
X157902909Y-39429779D01*
X157902912Y-39429778D01*
X157909608Y-39427602D01*
X158065412Y-39334724D01*
X158196766Y-39209637D01*
X158297143Y-39058557D01*
X158339407Y-38947297D01*
X158359055Y-38895575D01*
X158359056Y-38895573D01*
X158361555Y-38888993D01*
X158364832Y-38865675D01*
X158386248Y-38713294D01*
X158386248Y-38713291D01*
X158386799Y-38709372D01*
X158386854Y-38705413D01*
X158387158Y-38701464D01*
X158388413Y-38701561D01*
X158407799Y-38638827D01*
X158462105Y-38593096D01*
X158532515Y-38583985D01*
X158543309Y-38586180D01*
X158546561Y-38586991D01*
X158553168Y-38589448D01*
X158560153Y-38590380D01*
X158725980Y-38612507D01*
X158725984Y-38612507D01*
X158732961Y-38613438D01*
X158739972Y-38612800D01*
X158739976Y-38612800D01*
X158882459Y-38599832D01*
X158913600Y-38596998D01*
X158920302Y-38594820D01*
X158920304Y-38594820D01*
X158939324Y-38588640D01*
X166486463Y-38588640D01*
X166504163Y-38769160D01*
X166561418Y-38941273D01*
X166565065Y-38947295D01*
X166565066Y-38947297D01*
X166644085Y-39077773D01*
X166655380Y-39096424D01*
X166660269Y-39101487D01*
X166660270Y-39101488D01*
X166687304Y-39129482D01*
X166781382Y-39226902D01*
X166787278Y-39230760D01*
X166787279Y-39230761D01*
X166926295Y-39321731D01*
X166972344Y-39375768D01*
X166976860Y-39387390D01*
X167011418Y-39491273D01*
X167015065Y-39497295D01*
X167015066Y-39497297D01*
X167099817Y-39637238D01*
X167105380Y-39646424D01*
X167110269Y-39651487D01*
X167110270Y-39651488D01*
X167159600Y-39702570D01*
X167231382Y-39776902D01*
X167290844Y-39815813D01*
X167374429Y-39870509D01*
X167383159Y-39876222D01*
X167389763Y-39878678D01*
X167389765Y-39878679D01*
X167546558Y-39936990D01*
X167546560Y-39936990D01*
X167553168Y-39939448D01*
X167619757Y-39948333D01*
X167725980Y-39962507D01*
X167725984Y-39962507D01*
X167732961Y-39963438D01*
X167739972Y-39962800D01*
X167739976Y-39962800D01*
X167898931Y-39948333D01*
X167913600Y-39946998D01*
X167920302Y-39944820D01*
X167920304Y-39944820D01*
X168079409Y-39893124D01*
X168079412Y-39893123D01*
X168086108Y-39890947D01*
X168203588Y-39820915D01*
X168235860Y-39801677D01*
X168235862Y-39801676D01*
X168241912Y-39798069D01*
X168373266Y-39672982D01*
X168383950Y-39656902D01*
X168456355Y-39547923D01*
X168510713Y-39502252D01*
X168577968Y-39492757D01*
X168602140Y-39495982D01*
X168725980Y-39512507D01*
X168725984Y-39512507D01*
X168732961Y-39513438D01*
X168739972Y-39512800D01*
X168739976Y-39512800D01*
X168889822Y-39499162D01*
X168913600Y-39496998D01*
X168920302Y-39494820D01*
X168920304Y-39494820D01*
X169079409Y-39443124D01*
X169079412Y-39443123D01*
X169086108Y-39440947D01*
X169241912Y-39348069D01*
X169373266Y-39222982D01*
X169473643Y-39071902D01*
X169520796Y-38947773D01*
X169535555Y-38908920D01*
X169535556Y-38908918D01*
X169538055Y-38902338D01*
X169539931Y-38888993D01*
X169562748Y-38726639D01*
X169562748Y-38726636D01*
X169563299Y-38722717D01*
X169563616Y-38700000D01*
X169543397Y-38519745D01*
X169541080Y-38513091D01*
X169486064Y-38355106D01*
X169486062Y-38355103D01*
X169483745Y-38348448D01*
X169419017Y-38244861D01*
X169391359Y-38200598D01*
X169387626Y-38194624D01*
X169378835Y-38185771D01*
X169264778Y-38070915D01*
X169264774Y-38070912D01*
X169259815Y-38065918D01*
X169252561Y-38061314D01*
X169170000Y-38008920D01*
X169106666Y-37968727D01*
X169068582Y-37955166D01*
X168942425Y-37910243D01*
X168942420Y-37910242D01*
X168935790Y-37907881D01*
X168928802Y-37907048D01*
X168928799Y-37907047D01*
X168805698Y-37892368D01*
X168755680Y-37886404D01*
X168748677Y-37887140D01*
X168748676Y-37887140D01*
X168582288Y-37904628D01*
X168582286Y-37904629D01*
X168575288Y-37905364D01*
X168403579Y-37963818D01*
X168359056Y-37991209D01*
X168255095Y-38055166D01*
X168255092Y-38055168D01*
X168249088Y-38058862D01*
X168244053Y-38063793D01*
X168244050Y-38063795D01*
X168199831Y-38107098D01*
X168156068Y-38149955D01*
X168153967Y-38152012D01*
X168091302Y-38185383D01*
X168020543Y-38179577D01*
X167964156Y-38136438D01*
X167958955Y-38128758D01*
X167941359Y-38100598D01*
X167937626Y-38094624D01*
X167908520Y-38065314D01*
X167814778Y-37970915D01*
X167814774Y-37970912D01*
X167809815Y-37965918D01*
X167802928Y-37961547D01*
X167731744Y-37916373D01*
X167656666Y-37868727D01*
X167575104Y-37839684D01*
X167492425Y-37810243D01*
X167492420Y-37810242D01*
X167485790Y-37807881D01*
X167478802Y-37807048D01*
X167478799Y-37807047D01*
X167352886Y-37792033D01*
X167305680Y-37786404D01*
X167298677Y-37787140D01*
X167298676Y-37787140D01*
X167132288Y-37804628D01*
X167132286Y-37804629D01*
X167125288Y-37805364D01*
X166953579Y-37863818D01*
X166924600Y-37881646D01*
X166805095Y-37955166D01*
X166805092Y-37955168D01*
X166799088Y-37958862D01*
X166794053Y-37963793D01*
X166794050Y-37963795D01*
X166674525Y-38080843D01*
X166669493Y-38085771D01*
X166571235Y-38238238D01*
X166568826Y-38244858D01*
X166568824Y-38244861D01*
X166529946Y-38351677D01*
X166509197Y-38408685D01*
X166486463Y-38588640D01*
X158939324Y-38588640D01*
X159079409Y-38543124D01*
X159079412Y-38543123D01*
X159086108Y-38540947D01*
X159192774Y-38477361D01*
X159235860Y-38451677D01*
X159235862Y-38451676D01*
X159241912Y-38448069D01*
X159373266Y-38322982D01*
X159473643Y-38171902D01*
X159517987Y-38055166D01*
X159535555Y-38008920D01*
X159535556Y-38008918D01*
X159538055Y-38002338D01*
X159539619Y-37991209D01*
X159562748Y-37826639D01*
X159562748Y-37826636D01*
X159563299Y-37822717D01*
X159563506Y-37807881D01*
X159563561Y-37803962D01*
X159563561Y-37803957D01*
X159563616Y-37800000D01*
X159551125Y-37688640D01*
X162986463Y-37688640D01*
X163004163Y-37869160D01*
X163061418Y-38041273D01*
X163065065Y-38047295D01*
X163065066Y-38047297D01*
X163151264Y-38189627D01*
X163155380Y-38196424D01*
X163160269Y-38201487D01*
X163160270Y-38201488D01*
X163198690Y-38241273D01*
X163281382Y-38326902D01*
X163287278Y-38330760D01*
X163423026Y-38419591D01*
X163433159Y-38426222D01*
X163439763Y-38428678D01*
X163439765Y-38428679D01*
X163596558Y-38486990D01*
X163596560Y-38486990D01*
X163603168Y-38489448D01*
X163686995Y-38500633D01*
X163775980Y-38512507D01*
X163775984Y-38512507D01*
X163782961Y-38513438D01*
X163789972Y-38512800D01*
X163789976Y-38512800D01*
X163932459Y-38499832D01*
X163963600Y-38496998D01*
X163970302Y-38494820D01*
X163970304Y-38494820D01*
X164129409Y-38443124D01*
X164129412Y-38443123D01*
X164136108Y-38440947D01*
X164232513Y-38383478D01*
X164285860Y-38351677D01*
X164285862Y-38351676D01*
X164291912Y-38348069D01*
X164423266Y-38222982D01*
X164523643Y-38071902D01*
X164588055Y-37902338D01*
X164589133Y-37894667D01*
X164612748Y-37726639D01*
X164612748Y-37726636D01*
X164613299Y-37722717D01*
X164613616Y-37700000D01*
X164593397Y-37519745D01*
X164591080Y-37513091D01*
X164536064Y-37355106D01*
X164536062Y-37355103D01*
X164533745Y-37348448D01*
X164514794Y-37318119D01*
X164441359Y-37200598D01*
X164437626Y-37194624D01*
X164414082Y-37170915D01*
X164314778Y-37070915D01*
X164314774Y-37070912D01*
X164309815Y-37065918D01*
X164302928Y-37061547D01*
X164241260Y-37022412D01*
X164156666Y-36968727D01*
X164127463Y-36958328D01*
X163992425Y-36910243D01*
X163992420Y-36910242D01*
X163985790Y-36907881D01*
X163978802Y-36907048D01*
X163978799Y-36907047D01*
X163855698Y-36892368D01*
X163805680Y-36886404D01*
X163798677Y-36887140D01*
X163798676Y-36887140D01*
X163632288Y-36904628D01*
X163632286Y-36904629D01*
X163625288Y-36905364D01*
X163453579Y-36963818D01*
X163405998Y-36993090D01*
X163305095Y-37055166D01*
X163305092Y-37055168D01*
X163299088Y-37058862D01*
X163294053Y-37063793D01*
X163294050Y-37063795D01*
X163181281Y-37174227D01*
X163169493Y-37185771D01*
X163071235Y-37338238D01*
X163068826Y-37344858D01*
X163068824Y-37344861D01*
X163011606Y-37502066D01*
X163009197Y-37508685D01*
X162986463Y-37688640D01*
X159551125Y-37688640D01*
X159543397Y-37619745D01*
X159541080Y-37613091D01*
X159486064Y-37455106D01*
X159486062Y-37455103D01*
X159483745Y-37448448D01*
X159425419Y-37355106D01*
X159391359Y-37300598D01*
X159387626Y-37294624D01*
X159368354Y-37275217D01*
X159264778Y-37170915D01*
X159264774Y-37170912D01*
X159259815Y-37165918D01*
X159253084Y-37161646D01*
X159172085Y-37110243D01*
X159106666Y-37068727D01*
X159068582Y-37055166D01*
X158942425Y-37010243D01*
X158942420Y-37010242D01*
X158935790Y-37007881D01*
X158928802Y-37007048D01*
X158928799Y-37007047D01*
X158805698Y-36992368D01*
X158755680Y-36986404D01*
X158748677Y-36987140D01*
X158748676Y-36987140D01*
X158582288Y-37004628D01*
X158582286Y-37004629D01*
X158575288Y-37005364D01*
X158403579Y-37063818D01*
X158367767Y-37085850D01*
X158255095Y-37155166D01*
X158255092Y-37155168D01*
X158249088Y-37158862D01*
X158244053Y-37163793D01*
X158244050Y-37163795D01*
X158127764Y-37277671D01*
X158119493Y-37285771D01*
X158021235Y-37438238D01*
X158018826Y-37444858D01*
X158018824Y-37444861D01*
X157967018Y-37587196D01*
X157959197Y-37608685D01*
X157936463Y-37788640D01*
X157935078Y-37788465D01*
X157916397Y-37848932D01*
X157862094Y-37894667D01*
X157791685Y-37903783D01*
X157769106Y-37898031D01*
X157759290Y-37894536D01*
X157752302Y-37893703D01*
X157752299Y-37893702D01*
X157626858Y-37878744D01*
X157561585Y-37850816D01*
X157521772Y-37792033D01*
X157516793Y-37749456D01*
X157515976Y-37749445D01*
X157516238Y-37730690D01*
X157516238Y-37730685D01*
X157516293Y-37726728D01*
X157496074Y-37546473D01*
X157493206Y-37538238D01*
X157438741Y-37381834D01*
X157438739Y-37381831D01*
X157436422Y-37375176D01*
X157340303Y-37221352D01*
X157326618Y-37207571D01*
X157217455Y-37097643D01*
X157217451Y-37097640D01*
X157212492Y-37092646D01*
X157203971Y-37087238D01*
X157114480Y-37030446D01*
X157059343Y-36995455D01*
X156980870Y-36967512D01*
X156895102Y-36936971D01*
X156895097Y-36936970D01*
X156888467Y-36934609D01*
X156881479Y-36933776D01*
X156881476Y-36933775D01*
X156748963Y-36917974D01*
X156708357Y-36913132D01*
X156701354Y-36913868D01*
X156701353Y-36913868D01*
X156534965Y-36931356D01*
X156534963Y-36931357D01*
X156527965Y-36932092D01*
X156356256Y-36990546D01*
X156293786Y-37028978D01*
X156207772Y-37081894D01*
X156207769Y-37081896D01*
X156201765Y-37085590D01*
X156196730Y-37090521D01*
X156196727Y-37090523D01*
X156098219Y-37186990D01*
X156072170Y-37212499D01*
X155973912Y-37364966D01*
X155971503Y-37371586D01*
X155971501Y-37371589D01*
X155919058Y-37515675D01*
X155911874Y-37535413D01*
X155889140Y-37715368D01*
X155906840Y-37895888D01*
X155964095Y-38068001D01*
X155965204Y-38069832D01*
X155975334Y-38138141D01*
X155946127Y-38202851D01*
X155886571Y-38241499D01*
X155863712Y-38246070D01*
X155809054Y-38251815D01*
X155782289Y-38254628D01*
X155782288Y-38254628D01*
X155775288Y-38255364D01*
X155603579Y-38313818D01*
X155557008Y-38342469D01*
X155455095Y-38405166D01*
X155455092Y-38405168D01*
X155449088Y-38408862D01*
X155444053Y-38413793D01*
X155444050Y-38413795D01*
X155326495Y-38528914D01*
X155319493Y-38535771D01*
X155221235Y-38688238D01*
X155218826Y-38694858D01*
X155218824Y-38694861D01*
X155177340Y-38808838D01*
X155159197Y-38858685D01*
X155136463Y-39038640D01*
X151983621Y-39038640D01*
X152023643Y-38978402D01*
X152088055Y-38808838D01*
X152092718Y-38775660D01*
X152112748Y-38633139D01*
X152112748Y-38633136D01*
X152113299Y-38629217D01*
X152113616Y-38606500D01*
X152093397Y-38426245D01*
X152089716Y-38415675D01*
X152036064Y-38261606D01*
X152036062Y-38261603D01*
X152033745Y-38254948D01*
X152010102Y-38217111D01*
X151941359Y-38107098D01*
X151937626Y-38101124D01*
X151922380Y-38085771D01*
X151814778Y-37977415D01*
X151814774Y-37977412D01*
X151809815Y-37972418D01*
X151802085Y-37967512D01*
X151714362Y-37911842D01*
X151656666Y-37875227D01*
X151631022Y-37866096D01*
X151573559Y-37824403D01*
X151548074Y-37761442D01*
X151544182Y-37726744D01*
X151543397Y-37719745D01*
X151541080Y-37713091D01*
X151486064Y-37555106D01*
X151486062Y-37555103D01*
X151483745Y-37548448D01*
X151387626Y-37394624D01*
X151370066Y-37376941D01*
X151264778Y-37270915D01*
X151264774Y-37270912D01*
X151259815Y-37265918D01*
X151248697Y-37258862D01*
X151175640Y-37212499D01*
X151106666Y-37168727D01*
X151027314Y-37140471D01*
X150942425Y-37110243D01*
X150942420Y-37110242D01*
X150935790Y-37107881D01*
X150928802Y-37107048D01*
X150928799Y-37107047D01*
X150805698Y-37092368D01*
X150755680Y-37086404D01*
X150748677Y-37087140D01*
X150748676Y-37087140D01*
X150582288Y-37104628D01*
X150582286Y-37104629D01*
X150575288Y-37105364D01*
X150403579Y-37163818D01*
X150367895Y-37185771D01*
X150255095Y-37255166D01*
X150255092Y-37255168D01*
X150249088Y-37258862D01*
X150244053Y-37263793D01*
X150244050Y-37263795D01*
X150134491Y-37371084D01*
X150119493Y-37385771D01*
X150021235Y-37538238D01*
X150018826Y-37544858D01*
X150018824Y-37544861D01*
X149966493Y-37688640D01*
X149959197Y-37708685D01*
X149936463Y-37888640D01*
X149938581Y-37910243D01*
X149943376Y-37959148D01*
X149930116Y-38028896D01*
X149881253Y-38080402D01*
X149812301Y-38097315D01*
X149745150Y-38074264D01*
X149717019Y-38046832D01*
X149636733Y-37939315D01*
X149636732Y-37939314D01*
X149633280Y-37934691D01*
X149608562Y-37911842D01*
X149477796Y-37790963D01*
X149477793Y-37790961D01*
X149473556Y-37787044D01*
X149289599Y-37670976D01*
X149087572Y-37590376D01*
X149071585Y-37587196D01*
X149008676Y-37554288D01*
X148973545Y-37492592D01*
X148977346Y-37421697D01*
X149018872Y-37364112D01*
X149055667Y-37344304D01*
X149251963Y-37277671D01*
X149251968Y-37277669D01*
X149257435Y-37275813D01*
X149281845Y-37262143D01*
X149336872Y-37231326D01*
X149447213Y-37169532D01*
X149614446Y-37030446D01*
X149753532Y-36863213D01*
X149859813Y-36673435D01*
X149861669Y-36667968D01*
X149861671Y-36667963D01*
X149927874Y-36472935D01*
X149927875Y-36472930D01*
X149929730Y-36467466D01*
X149941159Y-36388640D01*
X151886463Y-36388640D01*
X151904163Y-36569160D01*
X151961418Y-36741273D01*
X151965065Y-36747295D01*
X151965066Y-36747297D01*
X152049817Y-36887238D01*
X152055380Y-36896424D01*
X152060269Y-36901487D01*
X152060270Y-36901488D01*
X152092255Y-36934609D01*
X152181382Y-37026902D01*
X152237796Y-37063818D01*
X152318917Y-37116902D01*
X152333159Y-37126222D01*
X152339763Y-37128678D01*
X152339765Y-37128679D01*
X152496558Y-37186990D01*
X152496560Y-37186990D01*
X152503168Y-37189448D01*
X152586732Y-37200598D01*
X152671596Y-37211922D01*
X152736473Y-37240758D01*
X152775461Y-37300092D01*
X152776181Y-37371084D01*
X152760845Y-37405064D01*
X152729564Y-37453603D01*
X152727155Y-37460223D01*
X152727153Y-37460226D01*
X152673118Y-37608685D01*
X152667526Y-37624050D01*
X152644792Y-37804005D01*
X152662492Y-37984525D01*
X152719747Y-38156638D01*
X152723394Y-38162660D01*
X152723395Y-38162662D01*
X152803019Y-38294137D01*
X152813709Y-38311789D01*
X152818598Y-38316852D01*
X152818599Y-38316853D01*
X152855540Y-38355106D01*
X152939711Y-38442267D01*
X152954091Y-38451677D01*
X153074943Y-38530760D01*
X153091488Y-38541587D01*
X153098092Y-38544043D01*
X153098094Y-38544044D01*
X153254887Y-38602355D01*
X153254889Y-38602355D01*
X153261497Y-38604813D01*
X153345324Y-38615998D01*
X153434309Y-38627872D01*
X153434313Y-38627872D01*
X153441290Y-38628803D01*
X153448301Y-38628165D01*
X153448305Y-38628165D01*
X153590788Y-38615197D01*
X153621929Y-38612363D01*
X153628631Y-38610185D01*
X153628633Y-38610185D01*
X153787738Y-38558489D01*
X153787741Y-38558488D01*
X153794437Y-38556312D01*
X153800147Y-38552908D01*
X153870292Y-38543004D01*
X153895958Y-38549577D01*
X154003168Y-38589448D01*
X154086995Y-38600633D01*
X154175980Y-38612507D01*
X154175984Y-38612507D01*
X154182961Y-38613438D01*
X154189972Y-38612800D01*
X154189976Y-38612800D01*
X154332459Y-38599832D01*
X154363600Y-38596998D01*
X154370302Y-38594820D01*
X154370304Y-38594820D01*
X154529409Y-38543124D01*
X154529412Y-38543123D01*
X154536108Y-38540947D01*
X154642774Y-38477361D01*
X154685860Y-38451677D01*
X154685862Y-38451676D01*
X154691912Y-38448069D01*
X154823266Y-38322982D01*
X154923643Y-38171902D01*
X154967987Y-38055166D01*
X154985555Y-38008920D01*
X154985556Y-38008918D01*
X154988055Y-38002338D01*
X154989619Y-37991209D01*
X155012748Y-37826639D01*
X155012748Y-37826636D01*
X155013299Y-37822717D01*
X155013506Y-37807881D01*
X155013561Y-37803962D01*
X155013561Y-37803957D01*
X155013616Y-37800000D01*
X154993397Y-37619745D01*
X154991080Y-37613091D01*
X154936064Y-37455106D01*
X154936062Y-37455103D01*
X154933745Y-37448448D01*
X154875419Y-37355106D01*
X154841359Y-37300598D01*
X154837626Y-37294624D01*
X154818354Y-37275217D01*
X154714778Y-37170915D01*
X154714774Y-37170912D01*
X154709815Y-37165918D01*
X154703084Y-37161646D01*
X154622085Y-37110243D01*
X154556666Y-37068727D01*
X154518582Y-37055166D01*
X154392425Y-37010243D01*
X154392420Y-37010242D01*
X154385790Y-37007881D01*
X154378802Y-37007048D01*
X154378799Y-37007047D01*
X154255698Y-36992368D01*
X154205680Y-36986404D01*
X154198677Y-36987140D01*
X154198676Y-36987140D01*
X154032288Y-37004628D01*
X154032286Y-37004629D01*
X154025288Y-37005364D01*
X153853579Y-37063818D01*
X153853158Y-37062581D01*
X153790311Y-37072346D01*
X153764558Y-37066132D01*
X153650754Y-37025608D01*
X153650749Y-37025607D01*
X153644119Y-37023246D01*
X153637131Y-37022413D01*
X153637128Y-37022412D01*
X153488463Y-37004685D01*
X153423190Y-36976757D01*
X153383377Y-36917974D01*
X153381665Y-36846998D01*
X153398432Y-36809848D01*
X153423643Y-36771902D01*
X153488055Y-36602338D01*
X153489035Y-36595366D01*
X153512748Y-36426639D01*
X153512748Y-36426636D01*
X153513299Y-36422717D01*
X153513616Y-36400000D01*
X153493397Y-36219745D01*
X153491080Y-36213091D01*
X153436064Y-36055106D01*
X153436062Y-36055103D01*
X153433745Y-36048448D01*
X153337626Y-35894624D01*
X153323941Y-35880843D01*
X153214778Y-35770915D01*
X153214774Y-35770912D01*
X153209815Y-35765918D01*
X153200448Y-35759973D01*
X153097782Y-35694820D01*
X153056666Y-35668727D01*
X153027463Y-35658328D01*
X152892425Y-35610243D01*
X152892420Y-35610242D01*
X152885790Y-35607881D01*
X152878802Y-35607048D01*
X152878799Y-35607047D01*
X152745229Y-35591120D01*
X152705680Y-35586404D01*
X152698677Y-35587140D01*
X152698676Y-35587140D01*
X152532288Y-35604628D01*
X152532286Y-35604629D01*
X152525288Y-35605364D01*
X152353579Y-35663818D01*
X152347575Y-35667512D01*
X152205095Y-35755166D01*
X152205092Y-35755168D01*
X152199088Y-35758862D01*
X152194053Y-35763793D01*
X152194050Y-35763795D01*
X152076791Y-35878624D01*
X152069493Y-35885771D01*
X151971235Y-36038238D01*
X151968826Y-36044858D01*
X151968824Y-36044861D01*
X151914178Y-36195000D01*
X151909197Y-36208685D01*
X151886463Y-36388640D01*
X149941159Y-36388640D01*
X149960941Y-36252205D01*
X149962570Y-36190000D01*
X149942667Y-35973400D01*
X149883626Y-35764055D01*
X149796381Y-35587140D01*
X149789978Y-35574155D01*
X149787423Y-35568974D01*
X149756007Y-35526902D01*
X149660733Y-35399315D01*
X149660732Y-35399314D01*
X149657280Y-35394691D01*
X149652639Y-35390401D01*
X149501796Y-35250963D01*
X149501793Y-35250961D01*
X149497556Y-35247044D01*
X149313599Y-35130976D01*
X149111572Y-35050376D01*
X149105907Y-35049249D01*
X149105903Y-35049248D01*
X149065321Y-35041176D01*
X149002411Y-35008269D01*
X148967279Y-34946574D01*
X148971079Y-34875679D01*
X149012604Y-34818093D01*
X149049401Y-34798284D01*
X149227963Y-34737671D01*
X149227968Y-34737669D01*
X149233435Y-34735813D01*
X149262127Y-34719745D01*
X149393775Y-34646018D01*
X149423213Y-34629532D01*
X149590446Y-34490446D01*
X149729532Y-34323213D01*
X149797678Y-34201530D01*
X149848414Y-34151870D01*
X149917946Y-34137523D01*
X149984196Y-34163044D01*
X150015387Y-34197827D01*
X150105380Y-34346424D01*
X150103750Y-34347411D01*
X150126024Y-34404717D01*
X150111885Y-34474292D01*
X150106392Y-34483683D01*
X150075053Y-34532312D01*
X150075050Y-34532319D01*
X150071235Y-34538238D01*
X150068826Y-34544858D01*
X150068825Y-34544859D01*
X150011606Y-34702066D01*
X150009197Y-34708685D01*
X149986463Y-34888640D01*
X150004163Y-35069160D01*
X150061418Y-35241273D01*
X150065065Y-35247295D01*
X150065066Y-35247297D01*
X150146766Y-35382200D01*
X150155380Y-35396424D01*
X150160269Y-35401487D01*
X150160270Y-35401488D01*
X150175357Y-35417111D01*
X150281382Y-35526902D01*
X150287278Y-35530760D01*
X150408741Y-35610243D01*
X150433159Y-35626222D01*
X150439763Y-35628678D01*
X150439765Y-35628679D01*
X150596558Y-35686990D01*
X150596560Y-35686990D01*
X150603168Y-35689448D01*
X150686995Y-35700633D01*
X150775980Y-35712507D01*
X150775984Y-35712507D01*
X150782961Y-35713438D01*
X150789972Y-35712800D01*
X150789976Y-35712800D01*
X150932459Y-35699832D01*
X150963600Y-35696998D01*
X150970302Y-35694820D01*
X150970304Y-35694820D01*
X151129409Y-35643124D01*
X151129412Y-35643123D01*
X151136108Y-35640947D01*
X151232513Y-35583478D01*
X151285860Y-35551677D01*
X151285862Y-35551676D01*
X151291912Y-35548069D01*
X151423266Y-35422982D01*
X151457909Y-35370840D01*
X156463263Y-35370840D01*
X156480963Y-35551360D01*
X156538218Y-35723473D01*
X156541865Y-35729495D01*
X156541866Y-35729497D01*
X156566950Y-35770915D01*
X156632180Y-35878624D01*
X156637069Y-35883687D01*
X156637070Y-35883688D01*
X156647631Y-35894624D01*
X156758182Y-36009102D01*
X156909959Y-36108422D01*
X156916563Y-36110878D01*
X156916565Y-36110879D01*
X157073358Y-36169190D01*
X157073360Y-36169190D01*
X157079968Y-36171648D01*
X157163795Y-36182833D01*
X157252780Y-36194707D01*
X157252784Y-36194707D01*
X157259761Y-36195638D01*
X157266772Y-36195000D01*
X157266776Y-36195000D01*
X157409259Y-36182032D01*
X157440400Y-36179198D01*
X157447102Y-36177020D01*
X157447104Y-36177020D01*
X157606209Y-36125324D01*
X157606212Y-36125323D01*
X157612908Y-36123147D01*
X157744234Y-36044861D01*
X157762660Y-36033877D01*
X157762662Y-36033876D01*
X157768712Y-36030269D01*
X157900066Y-35905182D01*
X158000443Y-35754102D01*
X158050486Y-35622364D01*
X158062355Y-35591120D01*
X158062356Y-35591118D01*
X158064855Y-35584538D01*
X158066314Y-35574155D01*
X158087303Y-35424813D01*
X158116591Y-35360139D01*
X158147560Y-35334120D01*
X158285860Y-35251677D01*
X158285862Y-35251676D01*
X158291912Y-35248069D01*
X158423266Y-35122982D01*
X158523643Y-34971902D01*
X158565423Y-34861917D01*
X158585555Y-34808920D01*
X158585556Y-34808918D01*
X158588055Y-34802338D01*
X158593006Y-34767111D01*
X158612748Y-34626639D01*
X158612748Y-34626636D01*
X158613299Y-34622717D01*
X158613616Y-34600000D01*
X158613174Y-34596055D01*
X158611905Y-34584740D01*
X158624191Y-34514815D01*
X158650225Y-34479456D01*
X158685803Y-34445575D01*
X158786180Y-34294495D01*
X158836114Y-34163044D01*
X158848092Y-34131513D01*
X158848093Y-34131511D01*
X158850592Y-34124931D01*
X158861774Y-34045366D01*
X158875285Y-33949232D01*
X158875285Y-33949229D01*
X158875836Y-33945310D01*
X158876153Y-33922593D01*
X158855934Y-33742338D01*
X158843459Y-33706515D01*
X158798601Y-33577699D01*
X158798599Y-33577696D01*
X158796282Y-33571041D01*
X158776109Y-33538757D01*
X158744793Y-33488640D01*
X161636463Y-33488640D01*
X161654163Y-33669160D01*
X161711418Y-33841273D01*
X161715065Y-33847295D01*
X161715066Y-33847297D01*
X161801720Y-33990380D01*
X161805380Y-33996424D01*
X161810269Y-34001487D01*
X161810270Y-34001488D01*
X161846344Y-34038843D01*
X161931382Y-34126902D01*
X161994364Y-34168116D01*
X162067048Y-34215679D01*
X162083159Y-34226222D01*
X162089763Y-34228678D01*
X162089765Y-34228679D01*
X162246558Y-34286990D01*
X162246560Y-34286990D01*
X162253168Y-34289448D01*
X162334993Y-34300366D01*
X162425980Y-34312507D01*
X162425984Y-34312507D01*
X162432961Y-34313438D01*
X162439972Y-34312800D01*
X162439976Y-34312800D01*
X162605260Y-34297757D01*
X162613600Y-34296998D01*
X162620302Y-34294820D01*
X162620304Y-34294820D01*
X162779409Y-34243124D01*
X162779412Y-34243123D01*
X162786108Y-34240947D01*
X162908283Y-34168116D01*
X162935860Y-34151677D01*
X162935862Y-34151676D01*
X162941912Y-34148069D01*
X163073266Y-34022982D01*
X163142736Y-33918421D01*
X163197092Y-33872752D01*
X163267512Y-33863719D01*
X163316677Y-33882717D01*
X163383159Y-33926222D01*
X163389763Y-33928678D01*
X163389765Y-33928679D01*
X163546558Y-33986990D01*
X163546560Y-33986990D01*
X163553168Y-33989448D01*
X163636995Y-34000633D01*
X163725980Y-34012507D01*
X163725984Y-34012507D01*
X163732961Y-34013438D01*
X163739972Y-34012800D01*
X163739976Y-34012800D01*
X163882459Y-33999832D01*
X163913600Y-33996998D01*
X163920302Y-33994820D01*
X163920304Y-33994820D01*
X164079409Y-33943124D01*
X164079412Y-33943123D01*
X164086108Y-33940947D01*
X164180188Y-33884864D01*
X164248942Y-33867164D01*
X164316352Y-33889446D01*
X164361014Y-33944635D01*
X164367381Y-33965062D01*
X164367913Y-33970493D01*
X164425168Y-34142606D01*
X164428815Y-34148628D01*
X164428816Y-34148630D01*
X164513165Y-34287907D01*
X164519130Y-34297757D01*
X164524019Y-34302820D01*
X164524020Y-34302821D01*
X164600871Y-34382401D01*
X164645132Y-34428235D01*
X164796909Y-34527555D01*
X164803513Y-34530011D01*
X164803515Y-34530012D01*
X164960308Y-34588323D01*
X164960310Y-34588323D01*
X164966918Y-34590781D01*
X165050745Y-34601966D01*
X165139730Y-34613840D01*
X165139734Y-34613840D01*
X165146711Y-34614771D01*
X165153722Y-34614133D01*
X165153726Y-34614133D01*
X165309011Y-34600000D01*
X165327350Y-34598331D01*
X165334052Y-34596153D01*
X165334054Y-34596153D01*
X165493159Y-34544457D01*
X165493162Y-34544456D01*
X165499858Y-34542280D01*
X165505909Y-34538673D01*
X165521982Y-34529092D01*
X165590737Y-34511393D01*
X165642449Y-34524636D01*
X165646909Y-34527555D01*
X165717442Y-34553786D01*
X165810308Y-34588323D01*
X165810310Y-34588323D01*
X165816918Y-34590781D01*
X165900745Y-34601966D01*
X165989730Y-34613840D01*
X165989734Y-34613840D01*
X165996711Y-34614771D01*
X166003722Y-34614133D01*
X166003726Y-34614133D01*
X166150917Y-34600737D01*
X166220570Y-34614482D01*
X166270113Y-34660946D01*
X166321880Y-34746424D01*
X166326769Y-34751487D01*
X166326770Y-34751488D01*
X166382232Y-34808920D01*
X166447882Y-34876902D01*
X166599659Y-34976222D01*
X166606263Y-34978678D01*
X166606265Y-34978679D01*
X166763058Y-35036990D01*
X166763060Y-35036990D01*
X166769668Y-35039448D01*
X166851568Y-35050376D01*
X166942480Y-35062507D01*
X166942484Y-35062507D01*
X166949461Y-35063438D01*
X166956472Y-35062800D01*
X166956476Y-35062800D01*
X167098959Y-35049832D01*
X167130100Y-35046998D01*
X167136802Y-35044820D01*
X167136804Y-35044820D01*
X167295909Y-34993124D01*
X167295912Y-34993123D01*
X167302608Y-34990947D01*
X167399013Y-34933478D01*
X167452360Y-34901677D01*
X167452362Y-34901676D01*
X167458412Y-34898069D01*
X167589766Y-34772982D01*
X167690143Y-34621902D01*
X167744255Y-34479453D01*
X167752055Y-34458920D01*
X167752056Y-34458918D01*
X167754555Y-34452338D01*
X167755535Y-34445366D01*
X167779248Y-34276639D01*
X167779248Y-34276636D01*
X167779799Y-34272717D01*
X167779952Y-34261738D01*
X167780061Y-34253962D01*
X167780061Y-34253957D01*
X167780116Y-34250000D01*
X167759897Y-34069745D01*
X167756652Y-34060426D01*
X167702564Y-33905106D01*
X167702562Y-33905103D01*
X167700245Y-33898448D01*
X167661182Y-33835933D01*
X167607859Y-33750598D01*
X167604126Y-33744624D01*
X167592744Y-33733162D01*
X167481278Y-33620915D01*
X167481274Y-33620912D01*
X167476315Y-33615918D01*
X167436074Y-33590380D01*
X167405600Y-33571041D01*
X167323166Y-33518727D01*
X167316522Y-33516361D01*
X167313683Y-33515350D01*
X167312112Y-33514210D01*
X167310197Y-33513276D01*
X167310361Y-33512940D01*
X167256220Y-33473654D01*
X167230422Y-33407510D01*
X167233912Y-33365315D01*
X167235553Y-33358926D01*
X167238055Y-33352338D01*
X167260146Y-33195154D01*
X167262748Y-33176639D01*
X167262748Y-33176636D01*
X167263299Y-33172717D01*
X167263616Y-33150000D01*
X167243397Y-32969745D01*
X167241080Y-32963091D01*
X167186064Y-32805106D01*
X167186062Y-32805103D01*
X167183745Y-32798448D01*
X167160687Y-32761547D01*
X167091359Y-32650598D01*
X167087626Y-32644624D01*
X167073941Y-32630843D01*
X166964778Y-32520915D01*
X166964774Y-32520912D01*
X166959815Y-32515918D01*
X166951083Y-32510376D01*
X166853499Y-32448448D01*
X166806666Y-32418727D01*
X166767071Y-32404628D01*
X166642425Y-32360243D01*
X166642420Y-32360242D01*
X166635790Y-32357881D01*
X166628802Y-32357048D01*
X166628799Y-32357047D01*
X166474842Y-32338689D01*
X166455680Y-32336404D01*
X166448677Y-32337140D01*
X166448676Y-32337140D01*
X166282288Y-32354628D01*
X166282286Y-32354629D01*
X166275288Y-32355364D01*
X166103579Y-32413818D01*
X166073518Y-32432312D01*
X165955095Y-32505166D01*
X165955092Y-32505168D01*
X165949088Y-32508862D01*
X165944053Y-32513793D01*
X165944050Y-32513795D01*
X165840015Y-32615674D01*
X165819493Y-32635771D01*
X165721235Y-32788238D01*
X165718826Y-32794858D01*
X165718824Y-32794861D01*
X165703715Y-32836373D01*
X165659197Y-32958685D01*
X165658314Y-32965677D01*
X165657031Y-32970978D01*
X165621570Y-33032485D01*
X165558486Y-33065056D01*
X165492297Y-33060047D01*
X165356175Y-33011576D01*
X165356170Y-33011575D01*
X165349540Y-33009214D01*
X165342552Y-33008381D01*
X165342549Y-33008380D01*
X165219448Y-32993701D01*
X165169430Y-32987737D01*
X165162427Y-32988473D01*
X165162426Y-32988473D01*
X164996038Y-33005961D01*
X164996036Y-33005962D01*
X164989038Y-33006697D01*
X164817329Y-33065151D01*
X164734948Y-33115833D01*
X164666449Y-33134490D01*
X164598735Y-33113151D01*
X164553307Y-33058591D01*
X164546604Y-33033423D01*
X164545744Y-33033618D01*
X164544182Y-33026743D01*
X164543397Y-33019745D01*
X164539730Y-33009214D01*
X164486064Y-32855106D01*
X164486062Y-32855103D01*
X164483745Y-32848448D01*
X164451011Y-32796062D01*
X164391359Y-32700598D01*
X164387626Y-32694624D01*
X164381472Y-32688427D01*
X164264778Y-32570915D01*
X164264774Y-32570912D01*
X164259815Y-32565918D01*
X164248697Y-32558862D01*
X164175079Y-32512143D01*
X164106666Y-32468727D01*
X164049716Y-32448448D01*
X163942425Y-32410243D01*
X163942420Y-32410242D01*
X163935790Y-32407881D01*
X163928802Y-32407048D01*
X163928799Y-32407047D01*
X163805698Y-32392368D01*
X163755680Y-32386404D01*
X163748677Y-32387140D01*
X163748676Y-32387140D01*
X163582288Y-32404628D01*
X163582286Y-32404629D01*
X163575288Y-32405364D01*
X163403579Y-32463818D01*
X163325028Y-32512143D01*
X163274670Y-32543124D01*
X163249088Y-32558862D01*
X163244053Y-32563793D01*
X163244050Y-32563795D01*
X163155410Y-32650598D01*
X163119493Y-32685771D01*
X163094537Y-32724495D01*
X163058526Y-32780373D01*
X163004812Y-32826798D01*
X162934525Y-32836813D01*
X162885104Y-32818505D01*
X162806666Y-32768727D01*
X162757557Y-32751240D01*
X162642425Y-32710243D01*
X162642420Y-32710242D01*
X162635790Y-32707881D01*
X162628802Y-32707048D01*
X162628799Y-32707047D01*
X162504597Y-32692237D01*
X162455680Y-32686404D01*
X162448677Y-32687140D01*
X162448676Y-32687140D01*
X162282288Y-32704628D01*
X162282286Y-32704629D01*
X162275288Y-32705364D01*
X162103579Y-32763818D01*
X162073518Y-32782312D01*
X161955095Y-32855166D01*
X161955092Y-32855168D01*
X161949088Y-32858862D01*
X161944053Y-32863793D01*
X161944050Y-32863795D01*
X161883731Y-32922864D01*
X161819493Y-32985771D01*
X161721235Y-33138238D01*
X161718826Y-33144858D01*
X161718824Y-33144861D01*
X161691886Y-33218872D01*
X161659197Y-33308685D01*
X161636463Y-33488640D01*
X158744793Y-33488640D01*
X158703896Y-33423191D01*
X158700163Y-33417217D01*
X158648622Y-33365315D01*
X158577315Y-33293508D01*
X158577311Y-33293505D01*
X158572352Y-33288511D01*
X158532546Y-33263249D01*
X158454618Y-33213795D01*
X158419203Y-33191320D01*
X158390000Y-33180921D01*
X158254962Y-33132836D01*
X158254957Y-33132835D01*
X158248327Y-33130474D01*
X158197441Y-33124406D01*
X158132168Y-33096478D01*
X158105508Y-33066064D01*
X158084210Y-33031979D01*
X158004849Y-32952062D01*
X157961362Y-32908270D01*
X157961358Y-32908267D01*
X157956399Y-32903273D01*
X157945281Y-32896217D01*
X157843841Y-32831842D01*
X157803250Y-32806082D01*
X157753138Y-32788238D01*
X157639009Y-32747598D01*
X157639004Y-32747597D01*
X157632374Y-32745236D01*
X157625386Y-32744403D01*
X157625383Y-32744402D01*
X157502282Y-32729723D01*
X157452264Y-32723759D01*
X157445261Y-32724495D01*
X157445260Y-32724495D01*
X157278872Y-32741983D01*
X157278870Y-32741984D01*
X157271872Y-32742719D01*
X157100163Y-32801173D01*
X157050845Y-32831514D01*
X156951679Y-32892521D01*
X156951676Y-32892523D01*
X156945672Y-32896217D01*
X156940637Y-32901148D01*
X156940634Y-32901150D01*
X156830283Y-33009214D01*
X156816077Y-33023126D01*
X156717819Y-33175593D01*
X156715410Y-33182213D01*
X156715408Y-33182216D01*
X156658190Y-33339421D01*
X156655781Y-33346040D01*
X156633047Y-33525995D01*
X156650747Y-33706515D01*
X156708002Y-33878628D01*
X156711649Y-33884650D01*
X156711650Y-33884652D01*
X156791870Y-34017111D01*
X156801964Y-34033779D01*
X156806853Y-34038842D01*
X156806854Y-34038843D01*
X156827697Y-34060426D01*
X156927966Y-34164257D01*
X156933857Y-34168112D01*
X156933862Y-34168116D01*
X156981858Y-34199523D01*
X157027907Y-34253560D01*
X157037430Y-34323915D01*
X157031266Y-34348049D01*
X157020569Y-34377440D01*
X157009197Y-34408685D01*
X157007016Y-34425949D01*
X156990866Y-34553786D01*
X156962484Y-34618863D01*
X156929377Y-34644389D01*
X156930379Y-34646018D01*
X156781895Y-34737366D01*
X156781892Y-34737368D01*
X156775888Y-34741062D01*
X156770853Y-34745993D01*
X156770850Y-34745995D01*
X156651325Y-34863043D01*
X156646293Y-34867971D01*
X156548035Y-35020438D01*
X156545626Y-35027058D01*
X156545624Y-35027061D01*
X156507802Y-35130976D01*
X156485997Y-35190885D01*
X156463263Y-35370840D01*
X151457909Y-35370840D01*
X151523643Y-35271902D01*
X151576298Y-35133289D01*
X151585555Y-35108920D01*
X151585556Y-35108918D01*
X151588055Y-35102338D01*
X151591191Y-35080022D01*
X151612748Y-34926639D01*
X151612748Y-34926636D01*
X151613299Y-34922717D01*
X151613616Y-34900000D01*
X151593397Y-34719745D01*
X151591080Y-34713091D01*
X151536064Y-34555106D01*
X151536062Y-34555103D01*
X151533745Y-34548448D01*
X151442493Y-34402413D01*
X151423357Y-34334044D01*
X151444398Y-34265920D01*
X151473643Y-34221902D01*
X151533059Y-34065490D01*
X151535555Y-34058920D01*
X151535556Y-34058918D01*
X151538055Y-34052338D01*
X151543653Y-34012507D01*
X151562748Y-33876639D01*
X151562748Y-33876636D01*
X151563299Y-33872717D01*
X151563616Y-33850000D01*
X151543397Y-33669745D01*
X151541080Y-33663091D01*
X151502618Y-33552642D01*
X153436963Y-33552642D01*
X153454663Y-33733162D01*
X153511918Y-33905275D01*
X153515565Y-33911297D01*
X153515566Y-33911299D01*
X153600982Y-34052338D01*
X153605880Y-34060426D01*
X153731882Y-34190904D01*
X153883659Y-34290224D01*
X153890263Y-34292680D01*
X153890265Y-34292681D01*
X154047058Y-34350992D01*
X154047060Y-34350992D01*
X154053668Y-34353450D01*
X154137495Y-34364635D01*
X154226480Y-34376509D01*
X154226484Y-34376509D01*
X154233461Y-34377440D01*
X154240472Y-34376802D01*
X154240476Y-34376802D01*
X154382959Y-34363834D01*
X154414100Y-34361000D01*
X154420802Y-34358822D01*
X154420804Y-34358822D01*
X154579909Y-34307126D01*
X154579912Y-34307125D01*
X154586608Y-34304949D01*
X154718674Y-34226222D01*
X154736360Y-34215679D01*
X154736362Y-34215678D01*
X154742412Y-34212071D01*
X154873766Y-34086984D01*
X154974143Y-33935904D01*
X155038555Y-33766340D01*
X155039535Y-33759368D01*
X155055998Y-33642229D01*
X155085286Y-33577555D01*
X155144891Y-33538982D01*
X155215887Y-33538757D01*
X155224692Y-33541668D01*
X155346558Y-33586990D01*
X155346560Y-33586990D01*
X155353168Y-33589448D01*
X155436995Y-33600633D01*
X155525980Y-33612507D01*
X155525984Y-33612507D01*
X155532961Y-33613438D01*
X155539972Y-33612800D01*
X155539976Y-33612800D01*
X155682459Y-33599832D01*
X155713600Y-33596998D01*
X155720302Y-33594820D01*
X155720304Y-33594820D01*
X155879409Y-33543124D01*
X155879412Y-33543123D01*
X155886108Y-33540947D01*
X156041912Y-33448069D01*
X156173266Y-33322982D01*
X156273643Y-33171902D01*
X156324835Y-33037140D01*
X156335555Y-33008920D01*
X156335556Y-33008918D01*
X156338055Y-33002338D01*
X156341652Y-32976744D01*
X156362748Y-32826639D01*
X156362748Y-32826636D01*
X156363299Y-32822717D01*
X156363616Y-32800000D01*
X156343397Y-32619745D01*
X156341080Y-32613091D01*
X156286064Y-32455106D01*
X156286062Y-32455103D01*
X156283745Y-32448448D01*
X156256823Y-32405364D01*
X156191359Y-32300598D01*
X156187626Y-32294624D01*
X156182664Y-32289627D01*
X156064778Y-32170915D01*
X156064774Y-32170912D01*
X156059815Y-32165918D01*
X156048697Y-32158862D01*
X156000538Y-32128300D01*
X155906666Y-32068727D01*
X155817291Y-32036902D01*
X155742425Y-32010243D01*
X155742420Y-32010242D01*
X155735790Y-32007881D01*
X155728802Y-32007048D01*
X155728799Y-32007047D01*
X155605698Y-31992368D01*
X155555680Y-31986404D01*
X155548677Y-31987140D01*
X155548676Y-31987140D01*
X155382288Y-32004628D01*
X155382286Y-32004629D01*
X155375288Y-32005364D01*
X155203579Y-32063818D01*
X155197575Y-32067512D01*
X155055095Y-32155166D01*
X155055092Y-32155168D01*
X155049088Y-32158862D01*
X155044053Y-32163793D01*
X155044050Y-32163795D01*
X154965827Y-32240397D01*
X154919493Y-32285771D01*
X154821235Y-32438238D01*
X154818826Y-32444858D01*
X154818824Y-32444861D01*
X154764521Y-32594057D01*
X154759197Y-32608685D01*
X154758314Y-32615673D01*
X154758314Y-32615674D01*
X154745208Y-32719415D01*
X154716826Y-32784491D01*
X154657766Y-32823892D01*
X154586780Y-32825108D01*
X154577951Y-32822326D01*
X154480533Y-32787637D01*
X154442924Y-32774245D01*
X154442922Y-32774245D01*
X154436290Y-32771883D01*
X154429302Y-32771050D01*
X154429299Y-32771049D01*
X154306198Y-32756370D01*
X154256180Y-32750406D01*
X154249177Y-32751142D01*
X154249176Y-32751142D01*
X154082788Y-32768630D01*
X154082786Y-32768631D01*
X154075788Y-32769366D01*
X153982355Y-32801173D01*
X153912046Y-32825108D01*
X153904079Y-32827820D01*
X153859629Y-32855166D01*
X153755595Y-32919168D01*
X153755592Y-32919170D01*
X153749588Y-32922864D01*
X153744553Y-32927795D01*
X153744550Y-32927797D01*
X153633645Y-33036404D01*
X153619993Y-33049773D01*
X153521735Y-33202240D01*
X153459697Y-33372687D01*
X153436963Y-33552642D01*
X151502618Y-33552642D01*
X151486064Y-33505106D01*
X151486062Y-33505103D01*
X151483745Y-33498448D01*
X151449229Y-33443211D01*
X151391359Y-33350598D01*
X151387626Y-33344624D01*
X151370960Y-33327841D01*
X151264778Y-33220915D01*
X151264774Y-33220912D01*
X151259815Y-33215918D01*
X151248697Y-33208862D01*
X151185501Y-33168757D01*
X151106666Y-33118727D01*
X151077463Y-33108328D01*
X150942425Y-33060243D01*
X150942420Y-33060242D01*
X150935790Y-33057881D01*
X150928802Y-33057048D01*
X150928799Y-33057047D01*
X150805698Y-33042368D01*
X150755680Y-33036404D01*
X150748677Y-33037140D01*
X150748676Y-33037140D01*
X150582288Y-33054628D01*
X150582286Y-33054629D01*
X150575288Y-33055364D01*
X150403579Y-33113818D01*
X150363885Y-33138238D01*
X150255095Y-33205166D01*
X150255092Y-33205168D01*
X150249088Y-33208862D01*
X150244053Y-33213793D01*
X150244050Y-33213795D01*
X150127591Y-33327841D01*
X150119493Y-33335771D01*
X150111993Y-33347409D01*
X150058281Y-33393834D01*
X149987995Y-33403851D01*
X149923450Y-33374278D01*
X149884812Y-33313358D01*
X149861194Y-33229616D01*
X149859626Y-33224055D01*
X149763423Y-33028974D01*
X149756532Y-33019745D01*
X149636733Y-32859315D01*
X149636732Y-32859314D01*
X149633280Y-32854691D01*
X149629044Y-32850775D01*
X149477796Y-32710963D01*
X149477793Y-32710961D01*
X149473556Y-32707044D01*
X149289599Y-32590976D01*
X149087572Y-32510376D01*
X149056453Y-32504186D01*
X148993544Y-32471278D01*
X148958412Y-32409583D01*
X148962212Y-32338689D01*
X149003738Y-32281103D01*
X149040534Y-32261294D01*
X149227963Y-32197671D01*
X149227968Y-32197669D01*
X149233435Y-32195813D01*
X149277894Y-32170915D01*
X149342756Y-32134590D01*
X149423213Y-32089532D01*
X149590446Y-31950446D01*
X149720874Y-31793624D01*
X149779810Y-31754040D01*
X149850792Y-31752603D01*
X149911283Y-31789771D01*
X149942076Y-31853742D01*
X149943146Y-31861897D01*
X149953663Y-31969160D01*
X150010918Y-32141273D01*
X150014565Y-32147295D01*
X150014566Y-32147297D01*
X150100793Y-32289675D01*
X150104880Y-32296424D01*
X150109769Y-32301487D01*
X150109770Y-32301488D01*
X150144199Y-32337140D01*
X150230882Y-32426902D01*
X150254671Y-32442469D01*
X150363669Y-32513795D01*
X150382659Y-32526222D01*
X150389263Y-32528678D01*
X150389265Y-32528679D01*
X150546058Y-32586990D01*
X150546060Y-32586990D01*
X150552668Y-32589448D01*
X150636495Y-32600633D01*
X150725480Y-32612507D01*
X150725484Y-32612507D01*
X150732461Y-32613438D01*
X150739472Y-32612800D01*
X150739476Y-32612800D01*
X150881959Y-32599832D01*
X150913100Y-32596998D01*
X150919802Y-32594820D01*
X150919804Y-32594820D01*
X151078909Y-32543124D01*
X151078912Y-32543123D01*
X151085608Y-32540947D01*
X151206758Y-32468727D01*
X151235360Y-32451677D01*
X151235362Y-32451676D01*
X151241412Y-32448069D01*
X151372766Y-32322982D01*
X151473143Y-32171902D01*
X151537555Y-32002338D01*
X151539691Y-31987140D01*
X151562248Y-31826639D01*
X151562248Y-31826636D01*
X151562799Y-31822717D01*
X151563116Y-31800000D01*
X151542897Y-31619745D01*
X151540580Y-31613091D01*
X151485564Y-31455106D01*
X151485562Y-31455103D01*
X151483245Y-31448448D01*
X151387126Y-31294624D01*
X151378335Y-31285771D01*
X151264278Y-31170915D01*
X151264274Y-31170912D01*
X151259315Y-31165918D01*
X151251185Y-31160758D01*
X151171202Y-31110000D01*
X151106166Y-31068727D01*
X151067886Y-31055096D01*
X150941925Y-31010243D01*
X150941920Y-31010242D01*
X150935290Y-31007881D01*
X150928302Y-31007048D01*
X150928299Y-31007047D01*
X150796012Y-30991273D01*
X150755180Y-30986404D01*
X150748177Y-30987140D01*
X150748176Y-30987140D01*
X150581788Y-31004628D01*
X150581786Y-31004629D01*
X150574788Y-31005364D01*
X150403079Y-31063818D01*
X150364845Y-31087340D01*
X150254595Y-31155166D01*
X150254592Y-31155168D01*
X150248588Y-31158862D01*
X150243553Y-31163793D01*
X150243550Y-31163795D01*
X150151356Y-31254079D01*
X150088691Y-31287450D01*
X150017932Y-31281644D01*
X149961545Y-31238505D01*
X149937432Y-31171728D01*
X149937241Y-31160758D01*
X149938473Y-31113705D01*
X149938570Y-31110000D01*
X149935169Y-31072982D01*
X149919196Y-30899157D01*
X149918667Y-30893400D01*
X149907087Y-30852338D01*
X149876917Y-30745365D01*
X149859626Y-30684055D01*
X149763423Y-30488974D01*
X149754291Y-30476744D01*
X149636733Y-30319315D01*
X149636732Y-30319314D01*
X149633280Y-30314691D01*
X149622911Y-30305106D01*
X149477796Y-30170963D01*
X149477793Y-30170961D01*
X149473556Y-30167044D01*
X149289599Y-30050976D01*
X149087572Y-29970376D01*
X148874239Y-29927941D01*
X148868464Y-29927865D01*
X148868460Y-29927865D01*
X148759419Y-29926438D01*
X148656746Y-29925094D01*
X148651049Y-29926073D01*
X148651048Y-29926073D01*
X148448065Y-29960952D01*
X148448062Y-29960953D01*
X148442375Y-29961930D01*
X148238307Y-30037214D01*
X148062492Y-30141814D01*
X147993724Y-30159453D01*
X147930836Y-30140090D01*
X147930103Y-30139627D01*
X147817265Y-30068432D01*
X147770326Y-30015165D01*
X147758500Y-29961870D01*
X147758500Y-27884500D01*
X147778502Y-27816379D01*
X147832158Y-27769886D01*
X147884500Y-27758500D01*
X149960463Y-27758500D01*
X150028584Y-27778502D01*
G37*
G04 #@! TD.AperFunction*
G04 #@! TD*
M02*
