G04 #@! TF.GenerationSoftware,KiCad,Pcbnew,(6.0.7)*
G04 #@! TF.CreationDate,2022-09-17T21:46:44-05:00*
G04 #@! TF.ProjectId,picofusion,7069636f-6675-4736-996f-6e2e6b696361,rev?*
G04 #@! TF.SameCoordinates,Original*
G04 #@! TF.FileFunction,Copper,L4,Bot*
G04 #@! TF.FilePolarity,Positive*
%FSLAX46Y46*%
G04 Gerber Fmt 4.6, Leading zero omitted, Abs format (unit mm)*
G04 Created by KiCad (PCBNEW (6.0.7)) date 2022-09-17 21:46:44*
%MOMM*%
%LPD*%
G01*
G04 APERTURE LIST*
G04 #@! TA.AperFunction,ComponentPad*
%ADD10C,1.350000*%
G04 #@! TD*
G04 #@! TA.AperFunction,SMDPad,CuDef*
%ADD11R,1.600000X3.000000*%
G04 #@! TD*
G04 #@! TA.AperFunction,ComponentPad*
%ADD12O,1.350000X1.350000*%
G04 #@! TD*
G04 #@! TA.AperFunction,SMDPad,CuDef*
%ADD13R,3.000000X1.600000*%
G04 #@! TD*
G04 #@! TA.AperFunction,ComponentPad*
%ADD14C,0.600000*%
G04 #@! TD*
G04 #@! TA.AperFunction,ViaPad*
%ADD15C,0.600000*%
G04 #@! TD*
G04 #@! TA.AperFunction,Conductor*
%ADD16C,0.150000*%
G04 #@! TD*
G04 #@! TA.AperFunction,Conductor*
%ADD17C,0.250000*%
G04 #@! TD*
G04 APERTURE END LIST*
D10*
G04 #@! TO.P,J4,1,Pin_1*
G04 #@! TO.N,+5V*
X151110000Y-52750000D03*
D11*
X151110000Y-52000000D03*
D10*
X151110000Y-51250000D03*
D11*
G04 #@! TO.P,J4,2,Pin_2*
G04 #@! TO.N,/IMU_HEATER*
X153650000Y-52000000D03*
D12*
X153650000Y-52750000D03*
X153650000Y-51250000D03*
G04 #@! TO.P,J4,3,Pin_3*
G04 #@! TO.N,/BUZZER*
X156190000Y-51226000D03*
X156190000Y-52726000D03*
D11*
X156190000Y-51976000D03*
D12*
G04 #@! TO.P,J4,4,Pin_4*
G04 #@! TO.N,/UART0_TX_TELEM*
X158730000Y-51250000D03*
X158730000Y-52750000D03*
D11*
X158730000Y-52000000D03*
D12*
G04 #@! TO.P,J4,5,Pin_5*
G04 #@! TO.N,/UART0_RX_TELEM*
X161270000Y-51250000D03*
D11*
X161270000Y-52000000D03*
D12*
X161270000Y-52750000D03*
D11*
G04 #@! TO.P,J4,6,Pin_6*
G04 #@! TO.N,/UART0_CTS_TELEM*
X163810000Y-52000000D03*
D12*
X163810000Y-51250000D03*
X163810000Y-52750000D03*
G04 #@! TO.P,J4,7,Pin_7*
G04 #@! TO.N,/UART0_RTS_TELEM*
X166350000Y-52750000D03*
D11*
X166350000Y-52000000D03*
D12*
X166350000Y-51250000D03*
G04 #@! TO.P,J4,8,Pin_8*
G04 #@! TO.N,GND*
X168890000Y-52750000D03*
X168890000Y-51250000D03*
D11*
X168890000Y-52000000D03*
G04 #@! TD*
D10*
G04 #@! TO.P,J2,1,Pin_1*
G04 #@! TO.N,/SPI1_SCK_SD*
X171250000Y-31110000D03*
X172750000Y-31110000D03*
D13*
X172000000Y-31110000D03*
G04 #@! TO.P,J2,2,Pin_2*
G04 #@! TO.N,/SPI1_POCI_SD*
X172000000Y-33650000D03*
D12*
X172750000Y-33650000D03*
X171250000Y-33650000D03*
G04 #@! TO.P,J2,3,Pin_3*
G04 #@! TO.N,/SPI1_PICO_SD*
X172774000Y-36190000D03*
X171274000Y-36190000D03*
D13*
X172024000Y-36190000D03*
D12*
G04 #@! TO.P,J2,4,Pin_4*
G04 #@! TO.N,/SPI1_nCS_SD*
X172750000Y-38730000D03*
X171250000Y-38730000D03*
D13*
X172000000Y-38730000D03*
D12*
G04 #@! TO.P,J2,5,Pin_5*
G04 #@! TO.N,/SD_nCD*
X172750000Y-41270000D03*
X171250000Y-41270000D03*
D13*
X172000000Y-41270000D03*
D12*
G04 #@! TO.P,J2,6,Pin_6*
G04 #@! TO.N,/UART1_RX_GNSS*
X172750000Y-43810000D03*
D13*
X172000000Y-43810000D03*
D12*
X171250000Y-43810000D03*
D13*
G04 #@! TO.P,J2,7,Pin_7*
G04 #@! TO.N,/UART1_TX_GNSS*
X172000000Y-46350000D03*
D12*
X172750000Y-46350000D03*
X171250000Y-46350000D03*
D13*
G04 #@! TO.P,J2,8,Pin_8*
G04 #@! TO.N,GND*
X172000000Y-48890000D03*
D12*
X172750000Y-48890000D03*
X171250000Y-48890000D03*
G04 #@! TD*
D13*
G04 #@! TO.P,J3,1,Pin_1*
G04 #@! TO.N,/SDA{slash}SDI*
X148000000Y-31110000D03*
D10*
X147250000Y-31110000D03*
X148750000Y-31110000D03*
D12*
G04 #@! TO.P,J3,2,Pin_2*
G04 #@! TO.N,/SCL{slash}SCK*
X147250000Y-33650000D03*
D13*
X148000000Y-33650000D03*
D12*
X148750000Y-33650000D03*
G04 #@! TO.P,J3,3,Pin_3*
G04 #@! TO.N,/SPI0_POCI*
X148774000Y-36190000D03*
X147274000Y-36190000D03*
D13*
X148024000Y-36190000D03*
D12*
G04 #@! TO.P,J3,4,Pin_4*
G04 #@! TO.N,/NEOPIXEL*
X147250000Y-38730000D03*
X148750000Y-38730000D03*
D13*
X148000000Y-38730000D03*
G04 #@! TO.P,J3,5,Pin_5*
G04 #@! TO.N,+3V3*
X148000000Y-41270000D03*
D12*
X148750000Y-41270000D03*
X147250000Y-41270000D03*
D13*
G04 #@! TO.P,J3,6,Pin_6*
G04 #@! TO.N,/CAN_N*
X148000000Y-43810000D03*
D12*
X148750000Y-43810000D03*
X147250000Y-43810000D03*
G04 #@! TO.P,J3,7,Pin_7*
G04 #@! TO.N,/CAN_P*
X147250000Y-46350000D03*
X148750000Y-46350000D03*
D13*
X148000000Y-46350000D03*
G04 #@! TO.P,J3,8,Pin_8*
G04 #@! TO.N,GND*
X148000000Y-48890000D03*
D12*
X147250000Y-48890000D03*
X148750000Y-48890000D03*
G04 #@! TD*
D10*
G04 #@! TO.P,J1,1,Pin_1*
G04 #@! TO.N,/SWCLK*
X151110000Y-27250000D03*
X151110000Y-28750000D03*
D11*
X151110000Y-28000000D03*
D12*
G04 #@! TO.P,J1,2,Pin_2*
G04 #@! TO.N,/SWDIO*
X153650000Y-28750000D03*
D11*
X153650000Y-28000000D03*
D12*
X153650000Y-27250000D03*
G04 #@! TO.P,J1,3,Pin_3*
G04 #@! TO.N,/RUN*
X156190000Y-27226000D03*
D11*
X156190000Y-27976000D03*
D12*
X156190000Y-28726000D03*
G04 #@! TO.P,J1,4,Pin_4*
G04 #@! TO.N,/BOOTSEL*
X158730000Y-27250000D03*
X158730000Y-28750000D03*
D11*
X158730000Y-28000000D03*
G04 #@! TO.P,J1,5,Pin_5*
G04 #@! TO.N,/USB_DP*
X161270000Y-28000000D03*
D12*
X161270000Y-27250000D03*
X161270000Y-28750000D03*
G04 #@! TO.P,J1,6,Pin_6*
G04 #@! TO.N,/USB_DN*
X163810000Y-28750000D03*
X163810000Y-27250000D03*
D11*
X163810000Y-28000000D03*
G04 #@! TO.P,J1,7,Pin_7*
G04 #@! TO.N,+5V*
X166350000Y-28000000D03*
D12*
X166350000Y-28750000D03*
X166350000Y-27250000D03*
G04 #@! TO.P,J1,8,Pin_8*
G04 #@! TO.N,GND*
X168890000Y-27250000D03*
D11*
X168890000Y-28000000D03*
D12*
X168890000Y-28750000D03*
G04 #@! TD*
D14*
G04 #@! TO.P,U2,57,GND*
G04 #@! TO.N,GND*
X162625000Y-44437500D03*
X165175000Y-44437500D03*
X162625000Y-41887500D03*
X162625000Y-43162500D03*
X163900000Y-43162500D03*
X165175000Y-41887500D03*
X163900000Y-41887500D03*
X163900000Y-44437500D03*
X165175000Y-43162500D03*
G04 #@! TD*
D15*
G04 #@! TO.N,+1V1*
X164500000Y-40589000D03*
X164500000Y-45700000D03*
G04 #@! TO.N,GND*
X159300000Y-46950000D03*
X162915600Y-45847000D03*
X161100000Y-32000000D03*
X169048500Y-36800000D03*
X152900000Y-45110400D03*
X165251860Y-48751063D03*
X156000000Y-39850000D03*
X152900000Y-45875000D03*
X168900000Y-32450000D03*
X158374714Y-36039199D03*
X156025000Y-36700000D03*
X153575000Y-34625000D03*
X162405385Y-30594615D03*
X155637548Y-31296778D03*
X169200000Y-46500000D03*
X168300000Y-33150000D03*
X159450000Y-39450000D03*
X167895385Y-39945385D03*
X150800000Y-35850000D03*
X166300000Y-36900000D03*
X158855351Y-34043149D03*
X157250000Y-49450000D03*
X156800000Y-34575000D03*
X168000000Y-36850000D03*
X156950000Y-43250000D03*
X163750000Y-34625000D03*
X163300000Y-36250000D03*
X156400000Y-32150000D03*
X155111365Y-39588635D03*
X162300000Y-35650000D03*
X152900000Y-44350000D03*
X161615365Y-48293865D03*
X164300000Y-36250000D03*
X167000000Y-36850000D03*
X162750000Y-48798500D03*
X160400000Y-30650000D03*
X150880000Y-49330000D03*
X157950000Y-43243700D03*
X166966500Y-35250000D03*
X151888948Y-43009928D03*
X155800000Y-49500000D03*
X166750000Y-49398500D03*
X162450000Y-32550000D03*
G04 #@! TO.N,+3V3*
X166966500Y-34250000D03*
X154159999Y-31143001D03*
X163800000Y-37700000D03*
X156702677Y-37726728D03*
X166500000Y-44150000D03*
X153645366Y-40254634D03*
X157446584Y-33537355D03*
X167750000Y-39150000D03*
X166400000Y-40900000D03*
X150751500Y-42700000D03*
X167300000Y-38600000D03*
X166450000Y-33150000D03*
X169150000Y-43800000D03*
X150800000Y-34900000D03*
X152550000Y-31150000D03*
X157276800Y-35382200D03*
X159400000Y-30650000D03*
X158500000Y-40450000D03*
X157573500Y-38686655D03*
X163750000Y-48798500D03*
X162450000Y-33500000D03*
X150750000Y-33850000D03*
X151946000Y-49340000D03*
X158950000Y-43243700D03*
X169200000Y-45500000D03*
X154250500Y-33564002D03*
X155950000Y-39050000D03*
G04 #@! TO.N,/RUN*
X165947009Y-43554486D03*
G04 #@! TO.N,+5V*
X163000000Y-40600000D03*
X163750000Y-33200000D03*
X155100000Y-44800000D03*
X155550000Y-43762500D03*
G04 #@! TO.N,/SPI0_nCS*
X156657645Y-40949688D03*
X169150000Y-48500000D03*
G04 #@! TO.N,/NEOPIXEL*
X153650000Y-43450000D03*
X161250000Y-43762500D03*
G04 #@! TO.N,/SPI0_POCI*
X152700000Y-36400000D03*
X157384128Y-40955044D03*
G04 #@! TO.N,/SPI1_nCS_SD*
X168750000Y-38700000D03*
X166337016Y-42200000D03*
G04 #@! TO.N,/SD_nCD*
X169150000Y-47500000D03*
X169750000Y-42800000D03*
G04 #@! TO.N,/USB_DP*
X165163750Y-33801333D03*
G04 #@! TO.N,/USB_DN*
X166013750Y-33801333D03*
G04 #@! TO.N,/SPI0_SCK*
X151866182Y-41446084D03*
X154200000Y-37800000D03*
X155931143Y-40950008D03*
G04 #@! TO.N,/I2C0_SDA*
X155550000Y-32800000D03*
X161414099Y-40589471D03*
X157800000Y-34600000D03*
G04 #@! TO.N,/I2C0_SCL*
X155600000Y-30550000D03*
X158062537Y-33922593D03*
X162140601Y-40589000D03*
G04 #@! TO.N,/BUZZER*
X161318827Y-45497671D03*
G04 #@! TO.N,/SWCLK*
X165268090Y-47522666D03*
G04 #@! TO.N,/SWDIO*
X165200500Y-45350000D03*
G04 #@! TO.N,/SPI0_PICO*
X153458329Y-37815365D03*
X151300000Y-40650000D03*
X155135961Y-40944584D03*
G04 #@! TO.N,/SPI1_POCI_SD*
X166350000Y-42950000D03*
G04 #@! TO.N,/SDA{slash}SDI*
X151300000Y-38606500D03*
X150749500Y-31800000D03*
G04 #@! TO.N,/SCL{slash}SCK*
X150750000Y-37900000D03*
G04 #@! TO.N,/SPI1_PICO_SD*
X168600000Y-41400000D03*
G04 #@! TO.N,/QSPI_nCS*
X157400000Y-30350000D03*
X158750000Y-37800000D03*
G04 #@! TD*
D16*
G04 #@! TO.N,/RUN*
X165375000Y-41200000D02*
X161314692Y-41200000D01*
X154752000Y-34052000D02*
X154752000Y-30164000D01*
X160100000Y-39350000D02*
X159442654Y-38692654D01*
X165947009Y-43256945D02*
X165835016Y-43144952D01*
X158107346Y-37407346D02*
X154752000Y-34052000D01*
X158932718Y-38692654D02*
X158107346Y-37867282D01*
X159442654Y-38692654D02*
X158932718Y-38692654D01*
X161314692Y-41200000D02*
X160100000Y-39985308D01*
X165947009Y-43554486D02*
X165947009Y-43256945D01*
X165835016Y-43144952D02*
X165835016Y-41660016D01*
X165835016Y-41660016D02*
X165375000Y-41200000D01*
X154752000Y-30164000D02*
X156190000Y-28726000D01*
X158107346Y-37867282D02*
X158107346Y-37407346D01*
X160100000Y-39985308D02*
X160100000Y-39350000D01*
D17*
G04 #@! TO.N,+5V*
X163000000Y-33950000D02*
X163000000Y-35769354D01*
X163000000Y-35769354D02*
X162748000Y-36021354D01*
X162748000Y-40348000D02*
X163000000Y-40600000D01*
X163750000Y-33200000D02*
X163000000Y-33950000D01*
X162748000Y-36021354D02*
X162748000Y-40348000D01*
D16*
G04 #@! TO.N,/SPI0_nCS*
X157229457Y-41521500D02*
X160371500Y-41521500D01*
X163417600Y-46467600D02*
X163970666Y-47020666D01*
X160371500Y-41521500D02*
X161900000Y-43050000D01*
X163250000Y-45050000D02*
X163417600Y-45217600D01*
X167670666Y-47020666D02*
X169150000Y-48500000D01*
X161900000Y-43050000D02*
X161900000Y-43300000D01*
X163100000Y-43750000D02*
X163250000Y-43900000D01*
X163417600Y-45217600D02*
X163417600Y-46467600D01*
X162350000Y-43750000D02*
X163100000Y-43750000D01*
X163970666Y-47020666D02*
X167670666Y-47020666D01*
X161900000Y-43300000D02*
X162350000Y-43750000D01*
X156657645Y-40949688D02*
X157229457Y-41521500D01*
X163250000Y-43900000D02*
X163250000Y-45050000D01*
G04 #@! TO.N,/NEOPIXEL*
X156010500Y-43260500D02*
X154410500Y-43260500D01*
X156512500Y-43762500D02*
X156010500Y-43260500D01*
X161250000Y-43762500D02*
X156512500Y-43762500D01*
X148000000Y-38730000D02*
X149780000Y-38730000D01*
X149780000Y-38730000D02*
X150250000Y-39200000D01*
X153650000Y-43450000D02*
X154221000Y-43450000D01*
X150250000Y-43000000D02*
X150950000Y-43700000D01*
X154221000Y-43450000D02*
X154410500Y-43260500D01*
X152645070Y-43700000D02*
X152895070Y-43450000D01*
X152895070Y-43450000D02*
X153650000Y-43450000D01*
X150250000Y-39200000D02*
X150250000Y-43000000D01*
X150950000Y-43700000D02*
X152645070Y-43700000D01*
G04 #@! TO.N,/SPI0_POCI*
X157384128Y-39284128D02*
X154500000Y-36400000D01*
X154500000Y-36400000D02*
X152700000Y-36400000D01*
X157384128Y-40955044D02*
X157384128Y-39284128D01*
G04 #@! TO.N,/SPI1_nCS_SD*
X166350000Y-42200000D02*
X168750000Y-39800000D01*
X168750000Y-39800000D02*
X168750000Y-38700000D01*
X166337016Y-42200000D02*
X166350000Y-42200000D01*
G04 #@! TO.N,/SD_nCD*
X169750000Y-46900000D02*
X169750000Y-42800000D01*
X169150000Y-47500000D02*
X169750000Y-46900000D01*
G04 #@! TO.N,/USB_DP*
X165163750Y-33801333D02*
X165388750Y-33576333D01*
X165388750Y-33576333D02*
X165388750Y-32868750D01*
X165388750Y-32868750D02*
X161270000Y-28750000D01*
G04 #@! TO.N,/USB_DN*
X165788750Y-32703064D02*
X165788750Y-33576333D01*
X165062590Y-31410203D02*
X164991370Y-31481420D01*
X163810000Y-30724314D02*
X164142843Y-31057157D01*
X165788750Y-33576333D02*
X166013750Y-33801333D01*
X163810000Y-28750000D02*
X163810000Y-30724314D01*
X164991370Y-31905684D02*
X164991371Y-31905685D01*
X164567108Y-31057156D02*
X164567107Y-31057157D01*
X164991371Y-31905685D02*
X165788750Y-32703064D01*
X164567107Y-31057157D02*
X164638326Y-30985939D01*
X165062589Y-31410204D02*
X165062590Y-31410203D01*
X164567133Y-31057181D02*
G75*
G02*
X164142843Y-31057157I-212133J212181D01*
G01*
X164991322Y-31905732D02*
G75*
G02*
X164991370Y-31481420I212178J212132D01*
G01*
X165062589Y-30985940D02*
G75*
G03*
X164638327Y-30985940I-212131J-212131D01*
G01*
X165062617Y-31410232D02*
G75*
G03*
X165062589Y-30985940I-212117J212132D01*
G01*
G04 #@! TO.N,/SPI0_SCK*
X155931143Y-40950008D02*
X155435067Y-41446084D01*
X155931143Y-40950008D02*
X155071770Y-40090635D01*
X155071770Y-40090635D02*
X154903429Y-40090635D01*
X155435067Y-41446084D02*
X151866182Y-41446084D01*
X154903429Y-40090635D02*
X154200000Y-39387206D01*
X154200000Y-39387206D02*
X154200000Y-37800000D01*
G04 #@! TO.N,/I2C0_SDA*
X161425000Y-40578570D02*
X161414099Y-40589471D01*
X157800000Y-34600000D02*
X161425000Y-38225000D01*
X161425000Y-38225000D02*
X161425000Y-40578570D01*
X157800000Y-34600000D02*
X156000000Y-32800000D01*
X156000000Y-32800000D02*
X155550000Y-32800000D01*
G04 #@! TO.N,/I2C0_SCL*
X158062537Y-33922593D02*
X158062537Y-33959565D01*
X158062537Y-33012537D02*
X155600000Y-30550000D01*
X158062537Y-33922593D02*
X158062537Y-33012537D01*
X162125000Y-40573399D02*
X162140601Y-40589000D01*
X158062537Y-33959565D02*
X162125000Y-38022028D01*
X162125000Y-38022028D02*
X162125000Y-40573399D01*
G04 #@! TO.N,/BUZZER*
X159200000Y-50000000D02*
X157479000Y-50000000D01*
X161318827Y-47881173D02*
X159200000Y-50000000D01*
X157479000Y-50000000D02*
X156253000Y-51226000D01*
X161318827Y-45497671D02*
X161318827Y-47881173D01*
G04 #@! TO.N,/SWCLK*
X151110000Y-28750000D02*
X151110000Y-29960000D01*
X152000000Y-38725000D02*
X150527000Y-40198000D01*
X151110000Y-29960000D02*
X152000000Y-30850000D01*
X151000000Y-42200000D02*
X151788956Y-42200000D01*
X150527000Y-41727000D02*
X151000000Y-42200000D01*
X161850000Y-46813400D02*
X162559266Y-47522666D01*
X162559266Y-47522666D02*
X165268090Y-47522666D01*
X152000000Y-30850000D02*
X152000000Y-38725000D01*
X150527000Y-40198000D02*
X150527000Y-41727000D01*
X161850000Y-43650000D02*
X161850000Y-46813400D01*
X151788956Y-42200000D02*
X152212556Y-42623600D01*
X160823600Y-42623600D02*
X161850000Y-43650000D01*
X152212556Y-42623600D02*
X160823600Y-42623600D01*
G04 #@! TO.N,/SWDIO*
X154025000Y-34275000D02*
X153650000Y-33900000D01*
X154450000Y-34275000D02*
X154025000Y-34275000D01*
X162000000Y-42500000D02*
X159452000Y-39952000D01*
X159242064Y-39952000D02*
X158075000Y-38784936D01*
X158075000Y-38226674D02*
X157150000Y-37301674D01*
X157150000Y-36975000D02*
X154450000Y-34275000D01*
X158075000Y-38784936D02*
X158075000Y-38226674D01*
X164550000Y-42850000D02*
X164200000Y-42500000D01*
X157150000Y-37301674D02*
X157150000Y-36975000D01*
X164200000Y-42500000D02*
X162000000Y-42500000D01*
X164550000Y-44699500D02*
X164550000Y-42850000D01*
X153650000Y-33900000D02*
X153650000Y-28750000D01*
X159452000Y-39952000D02*
X159242064Y-39952000D01*
X165200500Y-45350000D02*
X164550000Y-44699500D01*
G04 #@! TO.N,/SPI0_PICO*
X155135961Y-40944584D02*
X155065026Y-40873649D01*
X155065026Y-40873649D02*
X151948649Y-40873649D01*
X153458329Y-39266952D02*
X153458329Y-37815365D01*
X155135961Y-40944584D02*
X153458329Y-39266952D01*
X151725000Y-40650000D02*
X151300000Y-40650000D01*
X151948649Y-40873649D02*
X151725000Y-40650000D01*
G04 #@! TO.N,/SPI1_POCI_SD*
X169600000Y-35300000D02*
X171250000Y-33650000D01*
X168098000Y-41202000D02*
X168098000Y-41192064D01*
X166350000Y-42950000D02*
X168098000Y-41202000D01*
X168098000Y-41192064D02*
X169600000Y-39690064D01*
X169600000Y-39690064D02*
X169600000Y-35300000D01*
G04 #@! TO.N,/SDA{slash}SDI*
X151300000Y-38054000D02*
X151352000Y-38002000D01*
X150059500Y-31110000D02*
X150749500Y-31800000D01*
X148000000Y-31110000D02*
X150059500Y-31110000D01*
X151352000Y-38002000D02*
X151352000Y-32402500D01*
X151352000Y-32402500D02*
X150749500Y-31800000D01*
X151300000Y-38606500D02*
X151300000Y-38054000D01*
G04 #@! TO.N,/SCL{slash}SCK*
X150150000Y-37300000D02*
X150150000Y-34100000D01*
X150750000Y-37900000D02*
X150150000Y-37300000D01*
X149700000Y-33650000D02*
X148750000Y-33650000D01*
X150150000Y-34100000D02*
X149700000Y-33650000D01*
G04 #@! TO.N,/SPI1_PICO_SD*
X170050000Y-37414000D02*
X171274000Y-36190000D01*
X170050000Y-39950000D02*
X170050000Y-37414000D01*
X168600000Y-41400000D02*
X170050000Y-39950000D01*
G04 #@! TO.N,/QSPI_nCS*
X157098000Y-30048000D02*
X157400000Y-30350000D01*
X158750000Y-37800000D02*
X158750000Y-37565336D01*
X155048000Y-30352000D02*
X155352000Y-30048000D01*
X155352000Y-30048000D02*
X157098000Y-30048000D01*
X158750000Y-37565336D02*
X155048000Y-33863336D01*
X155048000Y-33863336D02*
X155048000Y-30352000D01*
G04 #@! TD*
G04 #@! TA.AperFunction,Conductor*
G04 #@! TO.N,GND*
G36*
X150217012Y-43792660D02*
G01*
X150223590Y-43798783D01*
X150384492Y-43959686D01*
X150504525Y-44079719D01*
X150515391Y-44092110D01*
X150528814Y-44109604D01*
X150528817Y-44109607D01*
X150533843Y-44116157D01*
X150540393Y-44121183D01*
X150540394Y-44121184D01*
X150564443Y-44139637D01*
X150564445Y-44139639D01*
X150655732Y-44209686D01*
X150693025Y-44225133D01*
X150797676Y-44268481D01*
X150911756Y-44283500D01*
X150941811Y-44287457D01*
X150941812Y-44287457D01*
X150950000Y-44288535D01*
X150958188Y-44287457D01*
X150959533Y-44287280D01*
X150980056Y-44284578D01*
X150996503Y-44283500D01*
X152598567Y-44283500D01*
X152615014Y-44284578D01*
X152645070Y-44288535D01*
X152653258Y-44287457D01*
X152654603Y-44287280D01*
X152683314Y-44283500D01*
X152797394Y-44268481D01*
X152939337Y-44209686D01*
X153050221Y-44124602D01*
X153116442Y-44099002D01*
X153185990Y-44113267D01*
X153195918Y-44119133D01*
X153256736Y-44158931D01*
X153283159Y-44176222D01*
X153289763Y-44178678D01*
X153289765Y-44178679D01*
X153446558Y-44236990D01*
X153446560Y-44236990D01*
X153453168Y-44239448D01*
X153536995Y-44250633D01*
X153625980Y-44262507D01*
X153625984Y-44262507D01*
X153632961Y-44263438D01*
X153639972Y-44262800D01*
X153639976Y-44262800D01*
X153782459Y-44249832D01*
X153813600Y-44246998D01*
X153820302Y-44244820D01*
X153820304Y-44244820D01*
X153979409Y-44193124D01*
X153979412Y-44193123D01*
X153986108Y-44190947D01*
X154141912Y-44098069D01*
X154147011Y-44093214D01*
X154147018Y-44093208D01*
X154172035Y-44069384D01*
X154235159Y-44036891D01*
X154242481Y-44035707D01*
X154259245Y-44033500D01*
X154296763Y-44028561D01*
X154373324Y-44018481D01*
X154411346Y-44002732D01*
X154481934Y-43995143D01*
X154545421Y-44026922D01*
X154581649Y-44087980D01*
X154579115Y-44158931D01*
X154547721Y-44209164D01*
X154474663Y-44280708D01*
X154469493Y-44285771D01*
X154371235Y-44438238D01*
X154368826Y-44444858D01*
X154368824Y-44444861D01*
X154316199Y-44589448D01*
X154309197Y-44608685D01*
X154286463Y-44788640D01*
X154304163Y-44969160D01*
X154361418Y-45141273D01*
X154365065Y-45147295D01*
X154365066Y-45147297D01*
X154427201Y-45249894D01*
X154455380Y-45296424D01*
X154460269Y-45301487D01*
X154460270Y-45301488D01*
X154501582Y-45344267D01*
X154581382Y-45426902D01*
X154600915Y-45439684D01*
X154686445Y-45495653D01*
X154733159Y-45526222D01*
X154739763Y-45528678D01*
X154739765Y-45528679D01*
X154896558Y-45586990D01*
X154896560Y-45586990D01*
X154903168Y-45589448D01*
X154986995Y-45600633D01*
X155075980Y-45612507D01*
X155075984Y-45612507D01*
X155082961Y-45613438D01*
X155089972Y-45612800D01*
X155089976Y-45612800D01*
X155232459Y-45599832D01*
X155263600Y-45596998D01*
X155270302Y-45594820D01*
X155270304Y-45594820D01*
X155429409Y-45543124D01*
X155429412Y-45543123D01*
X155436108Y-45540947D01*
X155591912Y-45448069D01*
X155723266Y-45322982D01*
X155823643Y-45171902D01*
X155881058Y-45020758D01*
X155885555Y-45008920D01*
X155885556Y-45008918D01*
X155888055Y-45002338D01*
X155889669Y-44990857D01*
X155912748Y-44826639D01*
X155912748Y-44826636D01*
X155913299Y-44822717D01*
X155913616Y-44800000D01*
X155896390Y-44646424D01*
X155894182Y-44626741D01*
X155894181Y-44626739D01*
X155893397Y-44619745D01*
X155891081Y-44613096D01*
X155889520Y-44606224D01*
X155891850Y-44605695D01*
X155888884Y-44545995D01*
X155924257Y-44484438D01*
X155946872Y-44467224D01*
X156041912Y-44410569D01*
X156137258Y-44319772D01*
X156200383Y-44287280D01*
X156272369Y-44294610D01*
X156352543Y-44327820D01*
X156352548Y-44327821D01*
X156360176Y-44330981D01*
X156474256Y-44346000D01*
X156474258Y-44346000D01*
X156512500Y-44351035D01*
X156520688Y-44349957D01*
X156542556Y-44347078D01*
X156559003Y-44346000D01*
X160635985Y-44346000D01*
X160704106Y-44366002D01*
X160721026Y-44379882D01*
X160721059Y-44379843D01*
X160726488Y-44384334D01*
X160731382Y-44389402D01*
X160737278Y-44393260D01*
X160850304Y-44467222D01*
X160883159Y-44488722D01*
X160889763Y-44491178D01*
X160889765Y-44491179D01*
X160977080Y-44523651D01*
X161033956Y-44566143D01*
X161058830Y-44632640D01*
X161043805Y-44702028D01*
X160993651Y-44752278D01*
X160985323Y-44755943D01*
X160985452Y-44756218D01*
X160979078Y-44759218D01*
X160972406Y-44761489D01*
X160928273Y-44788640D01*
X160823922Y-44852837D01*
X160823919Y-44852839D01*
X160817915Y-44856533D01*
X160812880Y-44861464D01*
X160812877Y-44861466D01*
X160709698Y-44962507D01*
X160688320Y-44983442D01*
X160590062Y-45135909D01*
X160587653Y-45142529D01*
X160587651Y-45142532D01*
X160531639Y-45296424D01*
X160528024Y-45306356D01*
X160505290Y-45486311D01*
X160522990Y-45666831D01*
X160580245Y-45838944D01*
X160583892Y-45844966D01*
X160583893Y-45844968D01*
X160670557Y-45988069D01*
X160670560Y-45988072D01*
X160674207Y-45994095D01*
X160699965Y-46020768D01*
X160732896Y-46083662D01*
X160735327Y-46108293D01*
X160735327Y-47587290D01*
X160715325Y-47655411D01*
X160698422Y-47676385D01*
X158995212Y-49379595D01*
X158932900Y-49413621D01*
X158906117Y-49416500D01*
X157525503Y-49416500D01*
X157509056Y-49415422D01*
X157487188Y-49412543D01*
X157479000Y-49411465D01*
X157326676Y-49431519D01*
X157184733Y-49490314D01*
X157093446Y-49560360D01*
X157093443Y-49560363D01*
X157062843Y-49583843D01*
X157044388Y-49607894D01*
X157033521Y-49620285D01*
X156723211Y-49930595D01*
X156660899Y-49964621D01*
X156634116Y-49967500D01*
X155341866Y-49967500D01*
X155279684Y-49974255D01*
X155143295Y-50025385D01*
X155026739Y-50112739D01*
X155021359Y-50119918D01*
X155011390Y-50133219D01*
X154954530Y-50175733D01*
X154883711Y-50180757D01*
X154821470Y-50146747D01*
X154818642Y-50143919D01*
X154813261Y-50136739D01*
X154696705Y-50049385D01*
X154560316Y-49998255D01*
X154498134Y-49991500D01*
X152801866Y-49991500D01*
X152798469Y-49991869D01*
X152747535Y-49997402D01*
X152747534Y-49997402D01*
X152739684Y-49998255D01*
X152738032Y-49998874D01*
X152669848Y-49995313D01*
X152612205Y-49953867D01*
X152586120Y-49887835D01*
X152599875Y-49818184D01*
X152606645Y-49806722D01*
X152669643Y-49711902D01*
X152734055Y-49542338D01*
X152735035Y-49535366D01*
X152758748Y-49366639D01*
X152758748Y-49366636D01*
X152759299Y-49362717D01*
X152759616Y-49340000D01*
X152739397Y-49159745D01*
X152737080Y-49153091D01*
X152682064Y-48995106D01*
X152682062Y-48995103D01*
X152679745Y-48988448D01*
X152583626Y-48834624D01*
X152574207Y-48825139D01*
X152460778Y-48710915D01*
X152460774Y-48710912D01*
X152455815Y-48705918D01*
X152444697Y-48698862D01*
X152363583Y-48647386D01*
X152302666Y-48608727D01*
X152273463Y-48598328D01*
X152138425Y-48550243D01*
X152138420Y-48550242D01*
X152131790Y-48547881D01*
X152124802Y-48547048D01*
X152124799Y-48547047D01*
X152001698Y-48532368D01*
X151951680Y-48526404D01*
X151944677Y-48527140D01*
X151944676Y-48527140D01*
X151778288Y-48544628D01*
X151778286Y-48544629D01*
X151771288Y-48545364D01*
X151599579Y-48603818D01*
X151569290Y-48622452D01*
X151451095Y-48695166D01*
X151451092Y-48695168D01*
X151445088Y-48698862D01*
X151440053Y-48703793D01*
X151440050Y-48703795D01*
X151343341Y-48798500D01*
X151315493Y-48825771D01*
X151217235Y-48978238D01*
X151214826Y-48984858D01*
X151214824Y-48984861D01*
X151170273Y-49107265D01*
X151155197Y-49148685D01*
X151132463Y-49328640D01*
X151150163Y-49509160D01*
X151207418Y-49681273D01*
X151211065Y-49687295D01*
X151211066Y-49687297D01*
X151225967Y-49711902D01*
X151274690Y-49792352D01*
X151279460Y-49800229D01*
X151297639Y-49868858D01*
X151275829Y-49936422D01*
X151220953Y-49981468D01*
X151171684Y-49991500D01*
X150261866Y-49991500D01*
X150199684Y-49998255D01*
X150192288Y-50001027D01*
X150192282Y-50001029D01*
X150141909Y-50019913D01*
X150071101Y-50025096D01*
X150008733Y-49991174D01*
X149974604Y-49928919D01*
X149979698Y-49857701D01*
X149998478Y-49807605D01*
X150002105Y-49792351D01*
X150007631Y-49741486D01*
X150008000Y-49734672D01*
X150008000Y-49162115D01*
X150003525Y-49146876D01*
X150002135Y-49145671D01*
X149994452Y-49144000D01*
X148272115Y-49144000D01*
X148256876Y-49148475D01*
X148255671Y-49149865D01*
X148254000Y-49157548D01*
X148254000Y-50179885D01*
X148258475Y-50195124D01*
X148259865Y-50196329D01*
X148267548Y-50198000D01*
X149544669Y-50197999D01*
X149551490Y-50197629D01*
X149602352Y-50192105D01*
X149617603Y-50188479D01*
X149667701Y-50169698D01*
X149738508Y-50164515D01*
X149800877Y-50198435D01*
X149835006Y-50260690D01*
X149829913Y-50331909D01*
X149811029Y-50382282D01*
X149811027Y-50382288D01*
X149808255Y-50389684D01*
X149801500Y-50451866D01*
X149801500Y-52115500D01*
X149781498Y-52183621D01*
X149727842Y-52230114D01*
X149675500Y-52241500D01*
X147884500Y-52241500D01*
X147816379Y-52221498D01*
X147769886Y-52167842D01*
X147758500Y-52115500D01*
X147758500Y-48762000D01*
X147778502Y-48693879D01*
X147832158Y-48647386D01*
X147884500Y-48636000D01*
X149989884Y-48636000D01*
X150005123Y-48631525D01*
X150006328Y-48630135D01*
X150007999Y-48622452D01*
X150007999Y-48045331D01*
X150007629Y-48038510D01*
X150002105Y-47987648D01*
X149998479Y-47972396D01*
X149953324Y-47851946D01*
X149944786Y-47836351D01*
X149868285Y-47734276D01*
X149855725Y-47721716D01*
X149854950Y-47721135D01*
X149854375Y-47720366D01*
X149849374Y-47715365D01*
X149850096Y-47714643D01*
X149812438Y-47664274D01*
X149807416Y-47593455D01*
X149841478Y-47531163D01*
X149854955Y-47519486D01*
X149856081Y-47518642D01*
X149863261Y-47513261D01*
X149950615Y-47396705D01*
X150001745Y-47260316D01*
X150008500Y-47198134D01*
X150008500Y-45501866D01*
X150001745Y-45439684D01*
X149950615Y-45303295D01*
X149863261Y-45186739D01*
X149855372Y-45180826D01*
X149854845Y-45180122D01*
X149849731Y-45175008D01*
X149850469Y-45174270D01*
X149812857Y-45123969D01*
X149807830Y-45053151D01*
X149841888Y-44990857D01*
X149855367Y-44979177D01*
X149863261Y-44973261D01*
X149950615Y-44856705D01*
X150001745Y-44720316D01*
X150008500Y-44658134D01*
X150008500Y-43887884D01*
X150028502Y-43819763D01*
X150082158Y-43773270D01*
X150152432Y-43763166D01*
X150217012Y-43792660D01*
G37*
G04 #@! TD.AperFunction*
G04 #@! TA.AperFunction,Conductor*
G36*
X167444904Y-47624168D02*
G01*
X167465878Y-47641071D01*
X168307063Y-48482256D01*
X168341089Y-48544568D01*
X168343367Y-48559055D01*
X168347756Y-48603818D01*
X168354163Y-48669160D01*
X168411418Y-48841273D01*
X168415065Y-48847295D01*
X168415066Y-48847297D01*
X168500550Y-48988448D01*
X168505380Y-48996424D01*
X168510269Y-49001487D01*
X168510270Y-49001488D01*
X168531483Y-49023454D01*
X168631382Y-49126902D01*
X168783159Y-49226222D01*
X168789763Y-49228678D01*
X168789765Y-49228679D01*
X168946558Y-49286990D01*
X168946560Y-49286990D01*
X168953168Y-49289448D01*
X169032160Y-49299988D01*
X169125980Y-49312507D01*
X169125984Y-49312507D01*
X169132961Y-49313438D01*
X169139972Y-49312800D01*
X169139976Y-49312800D01*
X169282459Y-49299832D01*
X169313600Y-49296998D01*
X169320302Y-49294820D01*
X169320304Y-49294820D01*
X169479409Y-49243124D01*
X169479412Y-49243123D01*
X169486108Y-49240947D01*
X169582513Y-49183478D01*
X169635860Y-49151677D01*
X169635862Y-49151676D01*
X169641912Y-49148069D01*
X169773266Y-49022982D01*
X169773716Y-49023454D01*
X169828593Y-48986946D01*
X169899580Y-48985822D01*
X169959907Y-49023255D01*
X169990419Y-49087360D01*
X169992001Y-49107265D01*
X169992001Y-49734669D01*
X169992371Y-49741490D01*
X169997895Y-49792352D01*
X170001521Y-49807603D01*
X170020535Y-49858323D01*
X170025718Y-49929130D01*
X169991797Y-49991499D01*
X169929542Y-50025629D01*
X169858323Y-50020535D01*
X169807606Y-50001522D01*
X169792351Y-49997895D01*
X169741486Y-49992369D01*
X169734672Y-49992000D01*
X169162115Y-49992000D01*
X169146876Y-49996475D01*
X169145671Y-49997865D01*
X169144000Y-50005548D01*
X169144000Y-51727885D01*
X169148475Y-51743124D01*
X169149865Y-51744329D01*
X169157548Y-51746000D01*
X170179885Y-51746000D01*
X170195124Y-51741525D01*
X170196329Y-51740135D01*
X170198000Y-51732452D01*
X170197999Y-50455331D01*
X170197629Y-50448510D01*
X170192105Y-50397648D01*
X170188479Y-50382397D01*
X170169465Y-50331677D01*
X170164282Y-50260870D01*
X170198203Y-50198501D01*
X170260458Y-50164371D01*
X170331677Y-50169465D01*
X170382394Y-50188478D01*
X170397649Y-50192105D01*
X170448514Y-50197631D01*
X170455328Y-50198000D01*
X171727885Y-50197999D01*
X171743124Y-50193524D01*
X171744329Y-50192134D01*
X171746000Y-50184451D01*
X171746000Y-49162115D01*
X171741525Y-49146876D01*
X171740135Y-49145671D01*
X171732452Y-49144000D01*
X170153000Y-49144000D01*
X170084879Y-49123998D01*
X170038386Y-49070342D01*
X170027000Y-49018000D01*
X170027000Y-48762000D01*
X170047002Y-48693879D01*
X170100658Y-48647386D01*
X170153000Y-48636000D01*
X172115500Y-48636000D01*
X172183621Y-48656002D01*
X172230114Y-48709658D01*
X172241500Y-48762000D01*
X172241500Y-52115500D01*
X172221498Y-52183621D01*
X172167842Y-52230114D01*
X172115500Y-52241500D01*
X168762000Y-52241500D01*
X168693879Y-52221498D01*
X168647386Y-52167842D01*
X168636000Y-52115500D01*
X168636000Y-50010116D01*
X168631525Y-49994877D01*
X168630135Y-49993672D01*
X168622452Y-49992001D01*
X168045331Y-49992001D01*
X168038510Y-49992371D01*
X167987648Y-49997895D01*
X167972396Y-50001521D01*
X167851946Y-50046676D01*
X167836351Y-50055214D01*
X167734276Y-50131715D01*
X167721716Y-50144275D01*
X167721135Y-50145050D01*
X167720366Y-50145625D01*
X167715365Y-50150626D01*
X167714643Y-50149904D01*
X167664274Y-50187562D01*
X167593455Y-50192584D01*
X167531163Y-50158522D01*
X167519486Y-50145045D01*
X167518642Y-50143919D01*
X167513261Y-50136739D01*
X167396705Y-50049385D01*
X167260316Y-49998255D01*
X167198134Y-49991500D01*
X165501866Y-49991500D01*
X165439684Y-49998255D01*
X165303295Y-50049385D01*
X165186739Y-50136739D01*
X165180826Y-50144628D01*
X165180122Y-50145155D01*
X165175008Y-50150269D01*
X165174270Y-50149531D01*
X165123969Y-50187143D01*
X165053151Y-50192170D01*
X164990857Y-50158112D01*
X164979177Y-50144633D01*
X164973261Y-50136739D01*
X164856705Y-50049385D01*
X164720316Y-49998255D01*
X164658134Y-49991500D01*
X162961866Y-49991500D01*
X162899684Y-49998255D01*
X162763295Y-50049385D01*
X162646739Y-50136739D01*
X162640826Y-50144628D01*
X162640122Y-50145155D01*
X162635008Y-50150269D01*
X162634270Y-50149531D01*
X162583969Y-50187143D01*
X162513151Y-50192170D01*
X162450857Y-50158112D01*
X162439177Y-50144633D01*
X162433261Y-50136739D01*
X162316705Y-50049385D01*
X162180316Y-49998255D01*
X162118134Y-49991500D01*
X160421866Y-49991500D01*
X160418469Y-49991869D01*
X160367534Y-49997402D01*
X160367532Y-49997402D01*
X160359684Y-49998255D01*
X160353889Y-50000428D01*
X160283745Y-49996766D01*
X160226101Y-49955321D01*
X160200015Y-49889290D01*
X160213769Y-49819639D01*
X160236403Y-49788790D01*
X161698534Y-48326659D01*
X161710925Y-48315791D01*
X161728438Y-48302353D01*
X161734984Y-48297330D01*
X161745005Y-48284271D01*
X161775115Y-48245030D01*
X161828513Y-48175440D01*
X161887308Y-48033497D01*
X161895560Y-47970819D01*
X161924283Y-47905892D01*
X161983548Y-47866801D01*
X162054540Y-47865956D01*
X162109577Y-47898171D01*
X162113787Y-47902381D01*
X162124654Y-47914772D01*
X162143109Y-47938823D01*
X162173709Y-47962303D01*
X162173712Y-47962306D01*
X162264999Y-48032352D01*
X162406942Y-48091147D01*
X162559266Y-48111201D01*
X162589324Y-48107244D01*
X162605769Y-48106166D01*
X163003174Y-48106166D01*
X163071295Y-48126168D01*
X163117788Y-48179824D01*
X163127892Y-48250098D01*
X163109087Y-48300418D01*
X163021235Y-48436738D01*
X163018826Y-48443358D01*
X163018824Y-48443361D01*
X162980872Y-48547633D01*
X162959197Y-48607185D01*
X162936463Y-48787140D01*
X162954163Y-48967660D01*
X163011418Y-49139773D01*
X163015065Y-49145795D01*
X163015066Y-49145797D01*
X163072691Y-49240947D01*
X163105380Y-49294924D01*
X163231382Y-49425402D01*
X163240730Y-49431519D01*
X163359378Y-49509160D01*
X163383159Y-49524722D01*
X163389763Y-49527178D01*
X163389765Y-49527179D01*
X163546558Y-49585490D01*
X163546560Y-49585490D01*
X163553168Y-49587948D01*
X163636995Y-49599133D01*
X163725980Y-49611007D01*
X163725984Y-49611007D01*
X163732961Y-49611938D01*
X163739972Y-49611300D01*
X163739976Y-49611300D01*
X163882459Y-49598332D01*
X163913600Y-49595498D01*
X163920302Y-49593320D01*
X163920304Y-49593320D01*
X164079409Y-49541624D01*
X164079412Y-49541623D01*
X164086108Y-49539447D01*
X164241912Y-49446569D01*
X164373266Y-49321482D01*
X164473643Y-49170402D01*
X164529464Y-49023454D01*
X164535555Y-49007420D01*
X164535556Y-49007418D01*
X164538055Y-49000838D01*
X164539796Y-48988448D01*
X164562748Y-48825139D01*
X164562748Y-48825136D01*
X164563299Y-48821217D01*
X164563616Y-48798500D01*
X164543397Y-48618245D01*
X164541080Y-48611591D01*
X164486064Y-48453606D01*
X164486062Y-48453603D01*
X164483745Y-48446948D01*
X164391257Y-48298935D01*
X164372121Y-48230566D01*
X164392987Y-48162705D01*
X164447228Y-48116897D01*
X164498111Y-48106166D01*
X164654075Y-48106166D01*
X164722196Y-48126168D01*
X164739116Y-48140048D01*
X164739149Y-48140009D01*
X164744578Y-48144500D01*
X164749472Y-48149568D01*
X164901249Y-48248888D01*
X164907853Y-48251344D01*
X164907855Y-48251345D01*
X165064648Y-48309656D01*
X165064650Y-48309656D01*
X165071258Y-48312114D01*
X165155085Y-48323299D01*
X165244070Y-48335173D01*
X165244074Y-48335173D01*
X165251051Y-48336104D01*
X165258062Y-48335466D01*
X165258066Y-48335466D01*
X165400549Y-48322498D01*
X165431690Y-48319664D01*
X165438392Y-48317486D01*
X165438394Y-48317486D01*
X165597499Y-48265790D01*
X165597502Y-48265789D01*
X165604198Y-48263613D01*
X165744755Y-48179824D01*
X165753950Y-48174343D01*
X165753952Y-48174342D01*
X165760002Y-48170735D01*
X165891356Y-48045648D01*
X165991733Y-47894568D01*
X166056145Y-47725004D01*
X166057884Y-47712631D01*
X166087172Y-47647957D01*
X166146776Y-47609383D01*
X166182658Y-47604166D01*
X167376783Y-47604166D01*
X167444904Y-47624168D01*
G37*
G04 #@! TD.AperFunction*
G04 #@! TA.AperFunction,Conductor*
G36*
X168152324Y-42077035D02*
G01*
X168177285Y-42089659D01*
X168202251Y-42105996D01*
X168233159Y-42126222D01*
X168239763Y-42128678D01*
X168239765Y-42128679D01*
X168396558Y-42186990D01*
X168396560Y-42186990D01*
X168403168Y-42189448D01*
X168486995Y-42200633D01*
X168575980Y-42212507D01*
X168575984Y-42212507D01*
X168582961Y-42213438D01*
X168589972Y-42212800D01*
X168589976Y-42212800D01*
X168732459Y-42199832D01*
X168763600Y-42196998D01*
X168770302Y-42194820D01*
X168770304Y-42194820D01*
X168849854Y-42168972D01*
X168936108Y-42140947D01*
X168939337Y-42139022D01*
X169008348Y-42129277D01*
X169072854Y-42158933D01*
X169111087Y-42218755D01*
X169110908Y-42289752D01*
X169096015Y-42322202D01*
X169021235Y-42438238D01*
X168959197Y-42608685D01*
X168936463Y-42788640D01*
X168937151Y-42795653D01*
X168948535Y-42911764D01*
X168935275Y-42981511D01*
X168886412Y-43033018D01*
X168863742Y-43043337D01*
X168803579Y-43063818D01*
X168741109Y-43102250D01*
X168655095Y-43155166D01*
X168655092Y-43155168D01*
X168649088Y-43158862D01*
X168644053Y-43163793D01*
X168644050Y-43163795D01*
X168641288Y-43166500D01*
X168519493Y-43285771D01*
X168421235Y-43438238D01*
X168418826Y-43444858D01*
X168418824Y-43444861D01*
X168380712Y-43549573D01*
X168359197Y-43608685D01*
X168336463Y-43788640D01*
X168354163Y-43969160D01*
X168411418Y-44141273D01*
X168415065Y-44147295D01*
X168415066Y-44147297D01*
X168485017Y-44262800D01*
X168505380Y-44296424D01*
X168510269Y-44301487D01*
X168510270Y-44301488D01*
X168559376Y-44352338D01*
X168631382Y-44426902D01*
X168783159Y-44526222D01*
X168789763Y-44528678D01*
X168789765Y-44528679D01*
X168825614Y-44542011D01*
X168882490Y-44584503D01*
X168907364Y-44651000D01*
X168892339Y-44720388D01*
X168847716Y-44767425D01*
X168705095Y-44855166D01*
X168705092Y-44855168D01*
X168699088Y-44858862D01*
X168694053Y-44863793D01*
X168694050Y-44863795D01*
X168574525Y-44980843D01*
X168569493Y-44985771D01*
X168471235Y-45138238D01*
X168468826Y-45144858D01*
X168468824Y-45144861D01*
X168411606Y-45302066D01*
X168409197Y-45308685D01*
X168386463Y-45488640D01*
X168404163Y-45669160D01*
X168461418Y-45841273D01*
X168555380Y-45996424D01*
X168681382Y-46126902D01*
X168731908Y-46159965D01*
X168816053Y-46215028D01*
X168833159Y-46226222D01*
X168839763Y-46228678D01*
X168839765Y-46228679D01*
X168996558Y-46286990D01*
X168996560Y-46286990D01*
X169003168Y-46289448D01*
X169057165Y-46296653D01*
X169122042Y-46325489D01*
X169161030Y-46384822D01*
X169166500Y-46421546D01*
X169166500Y-46571816D01*
X169146498Y-46639937D01*
X169092842Y-46686430D01*
X169053672Y-46697125D01*
X169003706Y-46702377D01*
X168982289Y-46704628D01*
X168982288Y-46704628D01*
X168975288Y-46705364D01*
X168803579Y-46763818D01*
X168797575Y-46767512D01*
X168655095Y-46855166D01*
X168655092Y-46855168D01*
X168649088Y-46858862D01*
X168644053Y-46863793D01*
X168644050Y-46863795D01*
X168623666Y-46883757D01*
X168579956Y-46926562D01*
X168579008Y-46927490D01*
X168516343Y-46960861D01*
X168445584Y-46955055D01*
X168401755Y-46926562D01*
X168116152Y-46640959D01*
X168105284Y-46628568D01*
X168091846Y-46611055D01*
X168086823Y-46604509D01*
X167964933Y-46510980D01*
X167822990Y-46452185D01*
X167670666Y-46432131D01*
X167662478Y-46433209D01*
X167640610Y-46436088D01*
X167624163Y-46437166D01*
X165212727Y-46437166D01*
X165144606Y-46417164D01*
X165098113Y-46363508D01*
X165088009Y-46293234D01*
X165116205Y-46230176D01*
X165118167Y-46227837D01*
X165123266Y-46222982D01*
X165128090Y-46215722D01*
X165128916Y-46215028D01*
X165131692Y-46211719D01*
X165132273Y-46212207D01*
X165182443Y-46170051D01*
X165221618Y-46159965D01*
X165364100Y-46146998D01*
X165370802Y-46144820D01*
X165370804Y-46144820D01*
X165529909Y-46093124D01*
X165529912Y-46093123D01*
X165536608Y-46090947D01*
X165692412Y-45998069D01*
X165823766Y-45872982D01*
X165924143Y-45721902D01*
X165971590Y-45596998D01*
X165986055Y-45558920D01*
X165986056Y-45558918D01*
X165988555Y-45552338D01*
X165991880Y-45528679D01*
X166013248Y-45376639D01*
X166013248Y-45376636D01*
X166013799Y-45372717D01*
X166014116Y-45350000D01*
X165993897Y-45169745D01*
X165942133Y-45021099D01*
X165938620Y-44950191D01*
X165974002Y-44888639D01*
X166037044Y-44855987D01*
X166107732Y-44862601D01*
X166120858Y-44869421D01*
X166120976Y-44869188D01*
X166127263Y-44872364D01*
X166133159Y-44876222D01*
X166139763Y-44878678D01*
X166139765Y-44878679D01*
X166296558Y-44936990D01*
X166296560Y-44936990D01*
X166303168Y-44939448D01*
X166386995Y-44950633D01*
X166475980Y-44962507D01*
X166475984Y-44962507D01*
X166482961Y-44963438D01*
X166489972Y-44962800D01*
X166489976Y-44962800D01*
X166632459Y-44949832D01*
X166663600Y-44946998D01*
X166670302Y-44944820D01*
X166670304Y-44944820D01*
X166829409Y-44893124D01*
X166829412Y-44893123D01*
X166836108Y-44890947D01*
X166932513Y-44833478D01*
X166985860Y-44801677D01*
X166985862Y-44801676D01*
X166991912Y-44798069D01*
X167123266Y-44672982D01*
X167223643Y-44521902D01*
X167277607Y-44379843D01*
X167285555Y-44358920D01*
X167285556Y-44358918D01*
X167288055Y-44352338D01*
X167289035Y-44345366D01*
X167312748Y-44176639D01*
X167312748Y-44176636D01*
X167313299Y-44172717D01*
X167313616Y-44150000D01*
X167293397Y-43969745D01*
X167291080Y-43963091D01*
X167236064Y-43805106D01*
X167236062Y-43805103D01*
X167233745Y-43798448D01*
X167137626Y-43644624D01*
X167099006Y-43605733D01*
X167043236Y-43549573D01*
X167009429Y-43487142D01*
X167014741Y-43416345D01*
X167027693Y-43391063D01*
X167065709Y-43333843D01*
X167073643Y-43321902D01*
X167126970Y-43181519D01*
X167135555Y-43158920D01*
X167135556Y-43158918D01*
X167138055Y-43152338D01*
X167149360Y-43071902D01*
X167159202Y-43001871D01*
X167188490Y-42937197D01*
X167194881Y-42930312D01*
X168019197Y-42105996D01*
X168081509Y-42071970D01*
X168152324Y-42077035D01*
G37*
G04 #@! TD.AperFunction*
G04 #@! TA.AperFunction,Conductor*
G36*
X162600990Y-45249503D02*
G01*
X162619657Y-45249894D01*
X162687344Y-45271316D01*
X162733430Y-45327649D01*
X162733510Y-45327841D01*
X162740314Y-45344267D01*
X162745341Y-45350818D01*
X162808063Y-45432560D01*
X162833663Y-45498781D01*
X162834100Y-45509264D01*
X162834100Y-46421097D01*
X162833022Y-46437544D01*
X162829065Y-46467600D01*
X162834100Y-46505844D01*
X162849119Y-46619924D01*
X162852281Y-46627557D01*
X162852281Y-46627558D01*
X162866502Y-46661892D01*
X162874091Y-46732481D01*
X162842311Y-46795968D01*
X162781253Y-46832195D01*
X162710302Y-46829661D01*
X162660998Y-46799204D01*
X162470405Y-46608611D01*
X162436379Y-46546299D01*
X162433500Y-46519516D01*
X162433500Y-45371084D01*
X162453502Y-45302963D01*
X162507158Y-45256470D01*
X162576165Y-45246191D01*
X162600990Y-45249503D01*
G37*
G04 #@! TD.AperFunction*
G04 #@! TA.AperFunction,Conductor*
G36*
X172183621Y-27778502D02*
G01*
X172230114Y-27832158D01*
X172241500Y-27884500D01*
X172241500Y-29675500D01*
X172221498Y-29743621D01*
X172167842Y-29790114D01*
X172115500Y-29801500D01*
X170451866Y-29801500D01*
X170389684Y-29808255D01*
X170382288Y-29811027D01*
X170382282Y-29811029D01*
X170331909Y-29829913D01*
X170261101Y-29835096D01*
X170198733Y-29801174D01*
X170164604Y-29738919D01*
X170169698Y-29667701D01*
X170188478Y-29617605D01*
X170192105Y-29602351D01*
X170197631Y-29551486D01*
X170198000Y-29544672D01*
X170197999Y-28272115D01*
X170193524Y-28256876D01*
X170192134Y-28255671D01*
X170184451Y-28254000D01*
X169162115Y-28254000D01*
X169146876Y-28258475D01*
X169145671Y-28259865D01*
X169144000Y-28267548D01*
X169144000Y-29989884D01*
X169148475Y-30005123D01*
X169149865Y-30006328D01*
X169157548Y-30007999D01*
X169734669Y-30007999D01*
X169741490Y-30007629D01*
X169792352Y-30002105D01*
X169807603Y-29998479D01*
X169857701Y-29979698D01*
X169928508Y-29974515D01*
X169990877Y-30008435D01*
X170025006Y-30070690D01*
X170019913Y-30141909D01*
X170001029Y-30192282D01*
X170001027Y-30192288D01*
X169998255Y-30199684D01*
X169991500Y-30261866D01*
X169991500Y-31958134D01*
X169998255Y-32020316D01*
X170049385Y-32156705D01*
X170136739Y-32273261D01*
X170144628Y-32279174D01*
X170145155Y-32279878D01*
X170150269Y-32284992D01*
X170149531Y-32285730D01*
X170187143Y-32336031D01*
X170192170Y-32406849D01*
X170158112Y-32469143D01*
X170144633Y-32480823D01*
X170136739Y-32486739D01*
X170049385Y-32603295D01*
X169998255Y-32739684D01*
X169991500Y-32801866D01*
X169991500Y-34031117D01*
X169971498Y-34099238D01*
X169954595Y-34120212D01*
X169220293Y-34854514D01*
X169207902Y-34865382D01*
X169190804Y-34878502D01*
X169183843Y-34883843D01*
X169178820Y-34890389D01*
X169159551Y-34915501D01*
X169105798Y-34985554D01*
X169090314Y-35005733D01*
X169031519Y-35147676D01*
X169011465Y-35300000D01*
X169012543Y-35308188D01*
X169015422Y-35330056D01*
X169016500Y-35346503D01*
X169016500Y-37775587D01*
X168996498Y-37843708D01*
X168942842Y-37890201D01*
X168875581Y-37900701D01*
X168787522Y-37890201D01*
X168755680Y-37886404D01*
X168748677Y-37887140D01*
X168748676Y-37887140D01*
X168582288Y-37904628D01*
X168582286Y-37904629D01*
X168575288Y-37905364D01*
X168403579Y-37963818D01*
X168362456Y-37989117D01*
X168255095Y-38055166D01*
X168255092Y-38055168D01*
X168249088Y-38058862D01*
X168244053Y-38063793D01*
X168244050Y-38063795D01*
X168153967Y-38152012D01*
X168091302Y-38185383D01*
X168020543Y-38179577D01*
X167964156Y-38136438D01*
X167958955Y-38128758D01*
X167941359Y-38100598D01*
X167937626Y-38094624D01*
X167908520Y-38065314D01*
X167814778Y-37970915D01*
X167814774Y-37970912D01*
X167809815Y-37965918D01*
X167802928Y-37961547D01*
X167713237Y-37904628D01*
X167656666Y-37868727D01*
X167627463Y-37858328D01*
X167492425Y-37810243D01*
X167492420Y-37810242D01*
X167485790Y-37807881D01*
X167478802Y-37807048D01*
X167478799Y-37807047D01*
X167355698Y-37792368D01*
X167305680Y-37786404D01*
X167298677Y-37787140D01*
X167298676Y-37787140D01*
X167132288Y-37804628D01*
X167132286Y-37804629D01*
X167125288Y-37805364D01*
X166953579Y-37863818D01*
X166947575Y-37867512D01*
X166805095Y-37955166D01*
X166805092Y-37955168D01*
X166799088Y-37958862D01*
X166794053Y-37963793D01*
X166794050Y-37963795D01*
X166677660Y-38077773D01*
X166669493Y-38085771D01*
X166571235Y-38238238D01*
X166568826Y-38244858D01*
X166568824Y-38244861D01*
X166511606Y-38402066D01*
X166509197Y-38408685D01*
X166486463Y-38588640D01*
X166504163Y-38769160D01*
X166561418Y-38941273D01*
X166565065Y-38947295D01*
X166565066Y-38947297D01*
X166648091Y-39084388D01*
X166655380Y-39096424D01*
X166660269Y-39101487D01*
X166660270Y-39101488D01*
X166737121Y-39181068D01*
X166781382Y-39226902D01*
X166787278Y-39230760D01*
X166787279Y-39230761D01*
X166926295Y-39321731D01*
X166972344Y-39375768D01*
X166976860Y-39387390D01*
X167011418Y-39491273D01*
X167015065Y-39497295D01*
X167015066Y-39497297D01*
X167056670Y-39565993D01*
X167105380Y-39646424D01*
X167110269Y-39651487D01*
X167110270Y-39651488D01*
X167164304Y-39707441D01*
X167231382Y-39776902D01*
X167237278Y-39780760D01*
X167360671Y-39861506D01*
X167383159Y-39876222D01*
X167538463Y-39933979D01*
X167595336Y-39976470D01*
X167620210Y-40042967D01*
X167605185Y-40112355D01*
X167583636Y-40141170D01*
X167262142Y-40462665D01*
X167199829Y-40496690D01*
X167129014Y-40491626D01*
X167072178Y-40449079D01*
X167066192Y-40440340D01*
X167037626Y-40394624D01*
X166933878Y-40290149D01*
X166914778Y-40270915D01*
X166914774Y-40270912D01*
X166909815Y-40265918D01*
X166898697Y-40258862D01*
X166835466Y-40218735D01*
X166756666Y-40168727D01*
X166710997Y-40152465D01*
X166592425Y-40110243D01*
X166592420Y-40110242D01*
X166585790Y-40107881D01*
X166578802Y-40107048D01*
X166578799Y-40107047D01*
X166455698Y-40092368D01*
X166405680Y-40086404D01*
X166398677Y-40087140D01*
X166398676Y-40087140D01*
X166232288Y-40104628D01*
X166232286Y-40104629D01*
X166225288Y-40105364D01*
X166053579Y-40163818D01*
X166047575Y-40167512D01*
X165905095Y-40255166D01*
X165905092Y-40255168D01*
X165899088Y-40258862D01*
X165894053Y-40263793D01*
X165894050Y-40263795D01*
X165796132Y-40359684D01*
X165769493Y-40385771D01*
X165671235Y-40538238D01*
X165668825Y-40544858D01*
X165668825Y-40544859D01*
X165666631Y-40550888D01*
X165624536Y-40608059D01*
X165558214Y-40633396D01*
X165527448Y-40630580D01*
X165527324Y-40631519D01*
X165489475Y-40626536D01*
X165413028Y-40616471D01*
X165348102Y-40587749D01*
X165309011Y-40528484D01*
X165304261Y-40505596D01*
X165294182Y-40415743D01*
X165293397Y-40408745D01*
X165287459Y-40391693D01*
X165236064Y-40244106D01*
X165236062Y-40244103D01*
X165233745Y-40237448D01*
X165185507Y-40160251D01*
X165141359Y-40089598D01*
X165137626Y-40083624D01*
X165123941Y-40069843D01*
X165014778Y-39959915D01*
X165014774Y-39959912D01*
X165009815Y-39954918D01*
X164998697Y-39947862D01*
X164942360Y-39912110D01*
X164856666Y-39857727D01*
X164805956Y-39839670D01*
X164692425Y-39799243D01*
X164692420Y-39799242D01*
X164685790Y-39796881D01*
X164678802Y-39796048D01*
X164678799Y-39796047D01*
X164518242Y-39776902D01*
X164505680Y-39775404D01*
X164498677Y-39776140D01*
X164498676Y-39776140D01*
X164332288Y-39793628D01*
X164332286Y-39793629D01*
X164325288Y-39794364D01*
X164153579Y-39852818D01*
X164126286Y-39869609D01*
X164005095Y-39944166D01*
X164005092Y-39944168D01*
X163999088Y-39947862D01*
X163994053Y-39952793D01*
X163994050Y-39952795D01*
X163901970Y-40042967D01*
X163869493Y-40074771D01*
X163853024Y-40100325D01*
X163799312Y-40146749D01*
X163729026Y-40156765D01*
X163664482Y-40127191D01*
X163646176Y-40105766D01*
X163645733Y-40106117D01*
X163641359Y-40100598D01*
X163637626Y-40094624D01*
X163632635Y-40089598D01*
X163514778Y-39970915D01*
X163514774Y-39970912D01*
X163509815Y-39965918D01*
X163489137Y-39952795D01*
X163439986Y-39921603D01*
X163393187Y-39868214D01*
X163381500Y-39815218D01*
X163381500Y-38588300D01*
X163401502Y-38520179D01*
X163455158Y-38473686D01*
X163525432Y-38463582D01*
X163551420Y-38470203D01*
X163596558Y-38486990D01*
X163596560Y-38486990D01*
X163603168Y-38489448D01*
X163686995Y-38500633D01*
X163775980Y-38512507D01*
X163775984Y-38512507D01*
X163782961Y-38513438D01*
X163789972Y-38512800D01*
X163789976Y-38512800D01*
X163932459Y-38499832D01*
X163963600Y-38496998D01*
X163970302Y-38494820D01*
X163970304Y-38494820D01*
X164129409Y-38443124D01*
X164129412Y-38443123D01*
X164136108Y-38440947D01*
X164291912Y-38348069D01*
X164423266Y-38222982D01*
X164523643Y-38071902D01*
X164575032Y-37936620D01*
X164585555Y-37908920D01*
X164585556Y-37908918D01*
X164588055Y-37902338D01*
X164590191Y-37887140D01*
X164612748Y-37726639D01*
X164612748Y-37726636D01*
X164613299Y-37722717D01*
X164613616Y-37700000D01*
X164593397Y-37519745D01*
X164579342Y-37479385D01*
X164536064Y-37355106D01*
X164536062Y-37355103D01*
X164533745Y-37348448D01*
X164513597Y-37316204D01*
X164441359Y-37200598D01*
X164437626Y-37194624D01*
X164409120Y-37165918D01*
X164314778Y-37070915D01*
X164314774Y-37070912D01*
X164309815Y-37065918D01*
X164289772Y-37053198D01*
X164238608Y-37020729D01*
X164156666Y-36968727D01*
X164127463Y-36958328D01*
X163992425Y-36910243D01*
X163992420Y-36910242D01*
X163985790Y-36907881D01*
X163978802Y-36907048D01*
X163978799Y-36907047D01*
X163855698Y-36892368D01*
X163805680Y-36886404D01*
X163798677Y-36887140D01*
X163798676Y-36887140D01*
X163632288Y-36904628D01*
X163632286Y-36904629D01*
X163625288Y-36905364D01*
X163549199Y-36931267D01*
X163548105Y-36931639D01*
X163477173Y-36934657D01*
X163415869Y-36898847D01*
X163383657Y-36835578D01*
X163381500Y-36812361D01*
X163381500Y-36338415D01*
X163401502Y-36270294D01*
X163415649Y-36252163D01*
X163453643Y-36211703D01*
X163456399Y-36208860D01*
X163476135Y-36189124D01*
X163478615Y-36185927D01*
X163486320Y-36176905D01*
X163511159Y-36150454D01*
X163516586Y-36144675D01*
X163520405Y-36137729D01*
X163520407Y-36137726D01*
X163526348Y-36126920D01*
X163537199Y-36110401D01*
X163544758Y-36100655D01*
X163549614Y-36094395D01*
X163552759Y-36087126D01*
X163552762Y-36087122D01*
X163567174Y-36053817D01*
X163572391Y-36043167D01*
X163593695Y-36004414D01*
X163596506Y-35993468D01*
X163598733Y-35984792D01*
X163605137Y-35966088D01*
X163610033Y-35954774D01*
X163610033Y-35954773D01*
X163613181Y-35947499D01*
X163614420Y-35939676D01*
X163614423Y-35939666D01*
X163620099Y-35903830D01*
X163622505Y-35892210D01*
X163631528Y-35857065D01*
X163631528Y-35857064D01*
X163633500Y-35849384D01*
X163633500Y-35829130D01*
X163635051Y-35809419D01*
X163636980Y-35797240D01*
X163638220Y-35789411D01*
X163634059Y-35745392D01*
X163633500Y-35733535D01*
X163633500Y-34264594D01*
X163653502Y-34196473D01*
X163670405Y-34175499D01*
X163810177Y-34035727D01*
X163872489Y-34001701D01*
X163887837Y-33999343D01*
X163913600Y-33996998D01*
X163920302Y-33994820D01*
X163920304Y-33994820D01*
X164079409Y-33943124D01*
X164079412Y-33943123D01*
X164086108Y-33940947D01*
X164180188Y-33884864D01*
X164248942Y-33867164D01*
X164316352Y-33889446D01*
X164361014Y-33944635D01*
X164367381Y-33965062D01*
X164367913Y-33970493D01*
X164425168Y-34142606D01*
X164428815Y-34148628D01*
X164428816Y-34148630D01*
X164506341Y-34276639D01*
X164519130Y-34297757D01*
X164645132Y-34428235D01*
X164796909Y-34527555D01*
X164803513Y-34530011D01*
X164803515Y-34530012D01*
X164960308Y-34588323D01*
X164960310Y-34588323D01*
X164966918Y-34590781D01*
X165050745Y-34601966D01*
X165139730Y-34613840D01*
X165139734Y-34613840D01*
X165146711Y-34614771D01*
X165153722Y-34614133D01*
X165153726Y-34614133D01*
X165300913Y-34600737D01*
X165327350Y-34598331D01*
X165334052Y-34596153D01*
X165334054Y-34596153D01*
X165493159Y-34544457D01*
X165493162Y-34544456D01*
X165499858Y-34542280D01*
X165505909Y-34538673D01*
X165521982Y-34529092D01*
X165590737Y-34511393D01*
X165642449Y-34524636D01*
X165646909Y-34527555D01*
X165692357Y-34544457D01*
X165810308Y-34588323D01*
X165810310Y-34588323D01*
X165816918Y-34590781D01*
X165900745Y-34601966D01*
X165989730Y-34613840D01*
X165989734Y-34613840D01*
X165996711Y-34614771D01*
X166003722Y-34614133D01*
X166003726Y-34614133D01*
X166150917Y-34600737D01*
X166220570Y-34614482D01*
X166270113Y-34660946D01*
X166321880Y-34746424D01*
X166326769Y-34751487D01*
X166326770Y-34751488D01*
X166328632Y-34753416D01*
X166447882Y-34876902D01*
X166599659Y-34976222D01*
X166606263Y-34978678D01*
X166606265Y-34978679D01*
X166763058Y-35036990D01*
X166763060Y-35036990D01*
X166769668Y-35039448D01*
X166853495Y-35050633D01*
X166942480Y-35062507D01*
X166942484Y-35062507D01*
X166949461Y-35063438D01*
X166956472Y-35062800D01*
X166956476Y-35062800D01*
X167098959Y-35049832D01*
X167130100Y-35046998D01*
X167136802Y-35044820D01*
X167136804Y-35044820D01*
X167295909Y-34993124D01*
X167295912Y-34993123D01*
X167302608Y-34990947D01*
X167458412Y-34898069D01*
X167589766Y-34772982D01*
X167690143Y-34621902D01*
X167754555Y-34452338D01*
X167757400Y-34432093D01*
X167779248Y-34276639D01*
X167779248Y-34276636D01*
X167779799Y-34272717D01*
X167780116Y-34250000D01*
X167759897Y-34069745D01*
X167756488Y-34059955D01*
X167702564Y-33905106D01*
X167702562Y-33905103D01*
X167700245Y-33898448D01*
X167664518Y-33841273D01*
X167607859Y-33750598D01*
X167604126Y-33744624D01*
X167566023Y-33706254D01*
X167481278Y-33620915D01*
X167481274Y-33620912D01*
X167476315Y-33615918D01*
X167432757Y-33588275D01*
X167405600Y-33571041D01*
X167323166Y-33518727D01*
X167316522Y-33516361D01*
X167313683Y-33515350D01*
X167312112Y-33514210D01*
X167310197Y-33513276D01*
X167310361Y-33512940D01*
X167256220Y-33473654D01*
X167230422Y-33407510D01*
X167233912Y-33365315D01*
X167235553Y-33358926D01*
X167238055Y-33352338D01*
X167257493Y-33214029D01*
X167262748Y-33176639D01*
X167262748Y-33176636D01*
X167263299Y-33172717D01*
X167263616Y-33150000D01*
X167243397Y-32969745D01*
X167217792Y-32896217D01*
X167186064Y-32805106D01*
X167186062Y-32805103D01*
X167183745Y-32798448D01*
X167160687Y-32761547D01*
X167091359Y-32650598D01*
X167087626Y-32644624D01*
X167082664Y-32639627D01*
X166964778Y-32520915D01*
X166964774Y-32520912D01*
X166959815Y-32515918D01*
X166806666Y-32418727D01*
X166752347Y-32399385D01*
X166642425Y-32360243D01*
X166642420Y-32360242D01*
X166635790Y-32357881D01*
X166628802Y-32357048D01*
X166628799Y-32357047D01*
X166505698Y-32342368D01*
X166455680Y-32336404D01*
X166448677Y-32337140D01*
X166448675Y-32337140D01*
X166328944Y-32349724D01*
X166259106Y-32336952D01*
X166215812Y-32301119D01*
X166209934Y-32293458D01*
X166209932Y-32293456D01*
X166204907Y-32286907D01*
X166180847Y-32268445D01*
X166168457Y-32257578D01*
X165659445Y-31748566D01*
X165625419Y-31686254D01*
X165630484Y-31615439D01*
X165637417Y-31600076D01*
X165646219Y-31583609D01*
X165670693Y-31537820D01*
X165721214Y-31371259D01*
X165738265Y-31198041D01*
X165736850Y-31183678D01*
X165721798Y-31030984D01*
X165721191Y-31024826D01*
X165670648Y-30858271D01*
X165588580Y-30704779D01*
X165494233Y-30589854D01*
X165491673Y-30586628D01*
X165483986Y-30576610D01*
X165478747Y-30569782D01*
X165478707Y-30569752D01*
X165478677Y-30569712D01*
X165471848Y-30564474D01*
X165471846Y-30564472D01*
X165461818Y-30556780D01*
X165458569Y-30554202D01*
X165447803Y-30545366D01*
X165343679Y-30459914D01*
X165338220Y-30456996D01*
X165195652Y-30380792D01*
X165195649Y-30380791D01*
X165190194Y-30377875D01*
X165023654Y-30327355D01*
X164850458Y-30310297D01*
X164677262Y-30327355D01*
X164556075Y-30364117D01*
X164485083Y-30364751D01*
X164425016Y-30326902D01*
X164394948Y-30262588D01*
X164393500Y-30243543D01*
X164393500Y-30134500D01*
X164413502Y-30066379D01*
X164467158Y-30019886D01*
X164519500Y-30008500D01*
X164658134Y-30008500D01*
X164720316Y-30001745D01*
X164856705Y-29950615D01*
X164973261Y-29863261D01*
X164979174Y-29855372D01*
X164979878Y-29854845D01*
X164984992Y-29849731D01*
X164985730Y-29850469D01*
X165036031Y-29812857D01*
X165106849Y-29807830D01*
X165169143Y-29841888D01*
X165180823Y-29855367D01*
X165186739Y-29863261D01*
X165303295Y-29950615D01*
X165439684Y-30001745D01*
X165501866Y-30008500D01*
X167198134Y-30008500D01*
X167260316Y-30001745D01*
X167396705Y-29950615D01*
X167513261Y-29863261D01*
X167519486Y-29854955D01*
X167520604Y-29854119D01*
X167524992Y-29849731D01*
X167525625Y-29850364D01*
X167576345Y-29812440D01*
X167647164Y-29807414D01*
X167709457Y-29841474D01*
X167721135Y-29854950D01*
X167721716Y-29855725D01*
X167734276Y-29868285D01*
X167836351Y-29944786D01*
X167851946Y-29953324D01*
X167972394Y-29998478D01*
X167987649Y-30002105D01*
X168038514Y-30007631D01*
X168045328Y-30008000D01*
X168617885Y-30008000D01*
X168633124Y-30003525D01*
X168634329Y-30002135D01*
X168636000Y-29994452D01*
X168636000Y-27884500D01*
X168656002Y-27816379D01*
X168709658Y-27769886D01*
X168762000Y-27758500D01*
X172115500Y-27758500D01*
X172183621Y-27778502D01*
G37*
G04 #@! TD.AperFunction*
G04 #@! TA.AperFunction,Conductor*
G36*
X156768531Y-39562969D02*
G01*
X156799045Y-39627074D01*
X156800628Y-39646983D01*
X156800628Y-40010953D01*
X156780626Y-40079074D01*
X156726970Y-40125567D01*
X156673748Y-40136950D01*
X156670319Y-40136926D01*
X156663325Y-40136092D01*
X156656322Y-40136828D01*
X156656320Y-40136828D01*
X156489933Y-40154316D01*
X156489931Y-40154317D01*
X156482933Y-40155052D01*
X156334983Y-40205418D01*
X156333282Y-40205997D01*
X156262350Y-40209015D01*
X156250410Y-40205418D01*
X156123568Y-40160251D01*
X156123563Y-40160250D01*
X156116933Y-40157889D01*
X156109945Y-40157056D01*
X156109942Y-40157055D01*
X155986864Y-40142379D01*
X155921591Y-40114451D01*
X155912688Y-40106360D01*
X155881918Y-40075590D01*
X155847892Y-40013278D01*
X155852957Y-39942463D01*
X155895504Y-39885627D01*
X155959592Y-39861014D01*
X156113600Y-39846998D01*
X156120302Y-39844820D01*
X156120304Y-39844820D01*
X156279409Y-39793124D01*
X156279412Y-39793123D01*
X156286108Y-39790947D01*
X156415493Y-39713818D01*
X156435860Y-39701677D01*
X156435862Y-39701676D01*
X156441912Y-39698069D01*
X156573266Y-39572982D01*
X156577162Y-39567118D01*
X156578106Y-39565993D01*
X156637215Y-39526666D01*
X156708203Y-39525539D01*
X156768531Y-39562969D01*
G37*
G04 #@! TD.AperFunction*
G04 #@! TA.AperFunction,Conductor*
G36*
X155202375Y-37927568D02*
G01*
X155481507Y-38206700D01*
X155515533Y-38269012D01*
X155510468Y-38339827D01*
X155467921Y-38396663D01*
X155458428Y-38403116D01*
X155455088Y-38405170D01*
X155455083Y-38405174D01*
X155449088Y-38408862D01*
X155444055Y-38413791D01*
X155342299Y-38513438D01*
X155319493Y-38535771D01*
X155221235Y-38688238D01*
X155218826Y-38694858D01*
X155218824Y-38694861D01*
X155189349Y-38775844D01*
X155159197Y-38858685D01*
X155136463Y-39038640D01*
X155152112Y-39198238D01*
X155138853Y-39267986D01*
X155089990Y-39319493D01*
X155021037Y-39336406D01*
X154953887Y-39313356D01*
X154937618Y-39299630D01*
X154820405Y-39182418D01*
X154786380Y-39120106D01*
X154783500Y-39093322D01*
X154783500Y-38414854D01*
X154803502Y-38346733D01*
X154814236Y-38333737D01*
X154813637Y-38333235D01*
X154818161Y-38327843D01*
X154823266Y-38322982D01*
X154923643Y-38171902D01*
X154967987Y-38055166D01*
X154985555Y-38008920D01*
X154985556Y-38008918D01*
X154988055Y-38002338D01*
X154989035Y-37995367D01*
X154990788Y-37988538D01*
X154993042Y-37989117D01*
X155017787Y-37934461D01*
X155077388Y-37895883D01*
X155148384Y-37895652D01*
X155202375Y-37927568D01*
G37*
G04 #@! TD.AperFunction*
G04 #@! TA.AperFunction,Conductor*
G36*
X153023255Y-31908755D02*
G01*
X153061486Y-31968579D01*
X153066500Y-32003769D01*
X153066500Y-33853497D01*
X153065422Y-33869944D01*
X153061465Y-33900000D01*
X153066856Y-33940947D01*
X153081519Y-34052324D01*
X153140314Y-34194267D01*
X153233843Y-34316157D01*
X153240389Y-34321180D01*
X153257902Y-34334618D01*
X153270293Y-34345486D01*
X153579514Y-34654707D01*
X153590381Y-34667097D01*
X153608843Y-34691157D01*
X153688558Y-34752324D01*
X153730733Y-34784686D01*
X153872676Y-34843481D01*
X154025000Y-34863535D01*
X154033188Y-34862457D01*
X154055056Y-34859578D01*
X154071503Y-34858500D01*
X154156117Y-34858500D01*
X154224238Y-34878502D01*
X154245212Y-34895405D01*
X156233595Y-36883789D01*
X156267621Y-36946101D01*
X156262556Y-37016917D01*
X156220009Y-37073752D01*
X156210528Y-37080198D01*
X156207771Y-37081894D01*
X156207764Y-37081899D01*
X156201765Y-37085590D01*
X156196731Y-37090520D01*
X156194356Y-37092845D01*
X156192467Y-37093851D01*
X156191179Y-37094857D01*
X156191002Y-37094631D01*
X156131689Y-37126213D01*
X156060931Y-37120405D01*
X156017106Y-37091913D01*
X154945486Y-36020293D01*
X154934618Y-36007902D01*
X154921180Y-35990389D01*
X154916157Y-35983843D01*
X154896957Y-35969110D01*
X154811881Y-35903830D01*
X154794267Y-35890314D01*
X154652324Y-35831519D01*
X154500000Y-35811465D01*
X154491812Y-35812543D01*
X154469944Y-35815422D01*
X154453497Y-35816500D01*
X153312494Y-35816500D01*
X153244373Y-35796498D01*
X153223088Y-35779284D01*
X153214777Y-35770915D01*
X153209815Y-35765918D01*
X153199652Y-35759468D01*
X153124078Y-35711508D01*
X153056666Y-35668727D01*
X152992934Y-35646033D01*
X152892425Y-35610243D01*
X152892420Y-35610242D01*
X152885790Y-35607881D01*
X152878802Y-35607048D01*
X152878799Y-35607047D01*
X152712675Y-35587238D01*
X152712674Y-35587238D01*
X152706129Y-35586457D01*
X152706127Y-35586457D01*
X152705680Y-35586404D01*
X152705689Y-35586326D01*
X152640646Y-35566736D01*
X152594526Y-35512759D01*
X152583500Y-35461213D01*
X152583500Y-32073891D01*
X152603502Y-32005770D01*
X152657158Y-31959277D01*
X152698078Y-31948411D01*
X152713600Y-31946998D01*
X152720302Y-31944820D01*
X152720304Y-31944820D01*
X152879405Y-31893125D01*
X152879406Y-31893125D01*
X152886108Y-31890947D01*
X152889613Y-31888858D01*
X152958749Y-31879098D01*
X153023255Y-31908755D01*
G37*
G04 #@! TD.AperFunction*
G04 #@! TA.AperFunction,Conductor*
G36*
X158160578Y-35785771D02*
G01*
X159234475Y-36859668D01*
X159268501Y-36921980D01*
X159263436Y-36992795D01*
X159220889Y-37049631D01*
X159154369Y-37074442D01*
X159103115Y-37067463D01*
X159089800Y-37062721D01*
X159042977Y-37033119D01*
X157978967Y-35969110D01*
X157944942Y-35906798D01*
X157950006Y-35835983D01*
X157963114Y-35810287D01*
X157966535Y-35805138D01*
X158020893Y-35759468D01*
X158091312Y-35750436D01*
X158160578Y-35785771D01*
G37*
G04 #@! TD.AperFunction*
G04 #@! TA.AperFunction,Conductor*
G36*
X160110490Y-29867610D02*
G01*
X160125284Y-29877160D01*
X160209444Y-29940234D01*
X160223295Y-29950615D01*
X160359684Y-30001745D01*
X160421866Y-30008500D01*
X161651117Y-30008500D01*
X161719238Y-30028502D01*
X161740212Y-30045405D01*
X163867991Y-32173184D01*
X163902017Y-32235496D01*
X163896952Y-32306311D01*
X163854405Y-32363147D01*
X163787885Y-32387958D01*
X163763982Y-32387393D01*
X163762681Y-32387238D01*
X163762674Y-32387238D01*
X163755680Y-32386404D01*
X163748677Y-32387140D01*
X163748676Y-32387140D01*
X163582288Y-32404628D01*
X163582286Y-32404629D01*
X163575288Y-32405364D01*
X163403579Y-32463818D01*
X163375930Y-32480828D01*
X163255095Y-32555166D01*
X163255092Y-32555168D01*
X163249088Y-32558862D01*
X163244053Y-32563793D01*
X163244050Y-32563795D01*
X163155410Y-32650598D01*
X163119493Y-32685771D01*
X163105787Y-32707039D01*
X163058526Y-32780373D01*
X163004812Y-32826798D01*
X162934525Y-32836813D01*
X162885104Y-32818505D01*
X162806666Y-32768727D01*
X162725104Y-32739684D01*
X162642425Y-32710243D01*
X162642420Y-32710242D01*
X162635790Y-32707881D01*
X162628802Y-32707048D01*
X162628799Y-32707047D01*
X162501158Y-32691827D01*
X162455680Y-32686404D01*
X162448677Y-32687140D01*
X162448676Y-32687140D01*
X162282288Y-32704628D01*
X162282286Y-32704629D01*
X162275288Y-32705364D01*
X162103579Y-32763818D01*
X162057008Y-32792469D01*
X161955095Y-32855166D01*
X161955092Y-32855168D01*
X161949088Y-32858862D01*
X161944053Y-32863793D01*
X161944050Y-32863795D01*
X161842653Y-32963091D01*
X161819493Y-32985771D01*
X161721235Y-33138238D01*
X161718826Y-33144858D01*
X161718824Y-33144861D01*
X161693649Y-33214029D01*
X161659197Y-33308685D01*
X161636463Y-33488640D01*
X161654163Y-33669160D01*
X161711418Y-33841273D01*
X161715065Y-33847295D01*
X161715066Y-33847297D01*
X161796886Y-33982398D01*
X161805380Y-33996424D01*
X161931382Y-34126902D01*
X161964586Y-34148630D01*
X162044338Y-34200818D01*
X162083159Y-34226222D01*
X162089763Y-34228678D01*
X162089765Y-34228679D01*
X162246558Y-34286990D01*
X162246560Y-34286990D01*
X162253168Y-34289448D01*
X162260155Y-34290380D01*
X162266988Y-34292084D01*
X162266479Y-34294123D01*
X162322034Y-34318810D01*
X162361027Y-34378141D01*
X162366500Y-34414874D01*
X162366500Y-35452293D01*
X162346498Y-35520414D01*
X162332351Y-35538545D01*
X162294357Y-35579005D01*
X162291601Y-35581848D01*
X162271865Y-35601584D01*
X162269385Y-35604781D01*
X162261682Y-35613801D01*
X162231414Y-35646033D01*
X162227595Y-35652979D01*
X162227593Y-35652982D01*
X162221652Y-35663788D01*
X162210801Y-35680307D01*
X162198386Y-35696313D01*
X162195241Y-35703582D01*
X162195238Y-35703586D01*
X162180826Y-35736891D01*
X162175609Y-35747541D01*
X162154305Y-35786294D01*
X162152334Y-35793969D01*
X162152334Y-35793970D01*
X162149267Y-35805916D01*
X162142863Y-35824620D01*
X162134819Y-35843209D01*
X162133580Y-35851032D01*
X162133577Y-35851042D01*
X162127901Y-35886878D01*
X162125495Y-35898498D01*
X162114500Y-35941324D01*
X162114500Y-35961578D01*
X162112949Y-35981288D01*
X162109780Y-36001297D01*
X162110526Y-36009189D01*
X162113941Y-36045315D01*
X162114500Y-36057173D01*
X162114500Y-36882145D01*
X162094498Y-36950266D01*
X162040842Y-36996759D01*
X161970568Y-37006863D01*
X161905988Y-36977369D01*
X161899405Y-36971240D01*
X158910563Y-33982398D01*
X158876537Y-33920086D01*
X158874443Y-33907348D01*
X158858876Y-33768566D01*
X158855934Y-33742338D01*
X158843368Y-33706254D01*
X158798601Y-33577699D01*
X158798599Y-33577696D01*
X158796282Y-33571041D01*
X158787842Y-33557534D01*
X158703896Y-33423191D01*
X158700163Y-33417217D01*
X158695202Y-33412221D01*
X158695197Y-33412215D01*
X158682631Y-33399561D01*
X158648824Y-33337131D01*
X158646037Y-33310778D01*
X158646037Y-33059038D01*
X158647115Y-33042590D01*
X158647930Y-33036404D01*
X158651072Y-33012537D01*
X158643638Y-32956074D01*
X158631018Y-32860213D01*
X158617177Y-32826798D01*
X158575775Y-32726845D01*
X158572223Y-32718270D01*
X158572223Y-32718269D01*
X158554080Y-32694624D01*
X158525606Y-32657517D01*
X158515383Y-32644194D01*
X158478694Y-32596380D01*
X158454634Y-32577918D01*
X158442244Y-32567051D01*
X157248834Y-31373641D01*
X157214808Y-31311329D01*
X157219873Y-31240514D01*
X157262420Y-31183678D01*
X157328940Y-31158867D01*
X157354593Y-31159653D01*
X157375979Y-31162507D01*
X157375984Y-31162507D01*
X157382961Y-31163438D01*
X157389972Y-31162800D01*
X157389976Y-31162800D01*
X157532459Y-31149832D01*
X157563600Y-31146998D01*
X157570302Y-31144820D01*
X157570304Y-31144820D01*
X157729409Y-31093124D01*
X157729412Y-31093123D01*
X157736108Y-31090947D01*
X157856953Y-31018909D01*
X157885860Y-31001677D01*
X157885862Y-31001676D01*
X157891912Y-30998069D01*
X158023266Y-30872982D01*
X158123643Y-30721902D01*
X158178835Y-30576610D01*
X158185555Y-30558920D01*
X158185556Y-30558918D01*
X158188055Y-30552338D01*
X158189035Y-30545366D01*
X158212748Y-30376639D01*
X158212748Y-30376636D01*
X158213299Y-30372717D01*
X158213616Y-30350000D01*
X158193397Y-30169745D01*
X158191080Y-30163092D01*
X158190927Y-30162418D01*
X158195338Y-30091558D01*
X158237359Y-30034333D01*
X158303647Y-30008909D01*
X158313795Y-30008500D01*
X158620414Y-30008500D01*
X158688535Y-30028502D01*
X158735028Y-30082158D01*
X158745132Y-30152432D01*
X158726325Y-30202755D01*
X158671235Y-30288238D01*
X158668826Y-30294858D01*
X158668824Y-30294861D01*
X158615566Y-30441186D01*
X158609197Y-30458685D01*
X158586463Y-30638640D01*
X158604163Y-30819160D01*
X158661418Y-30991273D01*
X158665065Y-30997295D01*
X158665066Y-30997297D01*
X158723101Y-31093124D01*
X158755380Y-31146424D01*
X158881382Y-31276902D01*
X158887278Y-31280760D01*
X159025575Y-31371259D01*
X159033159Y-31376222D01*
X159039763Y-31378678D01*
X159039765Y-31378679D01*
X159196558Y-31436990D01*
X159196560Y-31436990D01*
X159203168Y-31439448D01*
X159286995Y-31450633D01*
X159375980Y-31462507D01*
X159375984Y-31462507D01*
X159382961Y-31463438D01*
X159389972Y-31462800D01*
X159389976Y-31462800D01*
X159532459Y-31449832D01*
X159563600Y-31446998D01*
X159570302Y-31444820D01*
X159570304Y-31444820D01*
X159729409Y-31393124D01*
X159729412Y-31393123D01*
X159736108Y-31390947D01*
X159832513Y-31333478D01*
X159885860Y-31301677D01*
X159885862Y-31301676D01*
X159891912Y-31298069D01*
X160023266Y-31172982D01*
X160123643Y-31021902D01*
X160188055Y-30852338D01*
X160190872Y-30832295D01*
X160212748Y-30676639D01*
X160212748Y-30676636D01*
X160213299Y-30672717D01*
X160213616Y-30650000D01*
X160193397Y-30469745D01*
X160191080Y-30463091D01*
X160136064Y-30305106D01*
X160136062Y-30305103D01*
X160133745Y-30298448D01*
X160037626Y-30144624D01*
X159960313Y-30066769D01*
X159926506Y-30004340D01*
X159931818Y-29933542D01*
X159974562Y-29876855D01*
X160041169Y-29852276D01*
X160110490Y-29867610D01*
G37*
G04 #@! TD.AperFunction*
G04 #@! TA.AperFunction,Conductor*
G36*
X155963081Y-33588275D02*
G01*
X156873561Y-34498755D01*
X156907587Y-34561067D01*
X156902522Y-34631882D01*
X156859975Y-34688718D01*
X156850501Y-34695159D01*
X156845185Y-34698430D01*
X156776688Y-34717090D01*
X156708973Y-34695755D01*
X156690066Y-34680209D01*
X155778423Y-33768566D01*
X155744397Y-33706254D01*
X155749462Y-33635439D01*
X155792009Y-33578603D01*
X155828592Y-33559635D01*
X155835060Y-33557534D01*
X155906027Y-33555512D01*
X155963081Y-33588275D01*
G37*
G04 #@! TD.AperFunction*
G04 #@! TA.AperFunction,Conductor*
G36*
X155840012Y-31615659D02*
G01*
X155846595Y-31621788D01*
X156158460Y-31933653D01*
X156192486Y-31995965D01*
X156187421Y-32066780D01*
X156144874Y-32123616D01*
X156078354Y-32148427D01*
X156008980Y-32133336D01*
X156001851Y-32129133D01*
X155994379Y-32124391D01*
X155906666Y-32068727D01*
X155735790Y-32007881D01*
X155728801Y-32007048D01*
X155728726Y-32007030D01*
X155666973Y-31972000D01*
X155633962Y-31909145D01*
X155631500Y-31884360D01*
X155631500Y-31710883D01*
X155651502Y-31642762D01*
X155705158Y-31596269D01*
X155775432Y-31586165D01*
X155840012Y-31615659D01*
G37*
G04 #@! TD.AperFunction*
G04 #@! TD*
M02*
