G04 #@! TF.GenerationSoftware,KiCad,Pcbnew,(6.0.7)*
G04 #@! TF.CreationDate,2022-09-17T21:46:44-05:00*
G04 #@! TF.ProjectId,picofusion,7069636f-6675-4736-996f-6e2e6b696361,rev?*
G04 #@! TF.SameCoordinates,Original*
G04 #@! TF.FileFunction,Copper,L3,Inr*
G04 #@! TF.FilePolarity,Positive*
%FSLAX46Y46*%
G04 Gerber Fmt 4.6, Leading zero omitted, Abs format (unit mm)*
G04 Created by KiCad (PCBNEW (6.0.7)) date 2022-09-17 21:46:44*
%MOMM*%
%LPD*%
G01*
G04 APERTURE LIST*
G04 #@! TA.AperFunction,ComponentPad*
%ADD10C,1.350000*%
G04 #@! TD*
G04 #@! TA.AperFunction,ComponentPad*
%ADD11O,1.350000X1.350000*%
G04 #@! TD*
G04 #@! TA.AperFunction,ComponentPad*
%ADD12C,0.600000*%
G04 #@! TD*
G04 #@! TA.AperFunction,ViaPad*
%ADD13C,0.600000*%
G04 #@! TD*
G04 #@! TA.AperFunction,Conductor*
%ADD14C,0.250000*%
G04 #@! TD*
G04 APERTURE END LIST*
D10*
G04 #@! TO.N,+5V*
G04 #@! TO.C,J4*
X151110000Y-52750000D03*
X151110000Y-51250000D03*
D11*
G04 #@! TO.N,/IMU_HEATER*
X153650000Y-52750000D03*
X153650000Y-51250000D03*
G04 #@! TO.N,/BUZZER*
X156190000Y-51226000D03*
X156190000Y-52726000D03*
G04 #@! TO.N,/UART0_TX_TELEM*
X158730000Y-51250000D03*
X158730000Y-52750000D03*
G04 #@! TO.N,/UART0_RX_TELEM*
X161270000Y-51250000D03*
X161270000Y-52750000D03*
G04 #@! TO.N,/UART0_CTS_TELEM*
X163810000Y-51250000D03*
X163810000Y-52750000D03*
G04 #@! TO.N,/UART0_RTS_TELEM*
X166350000Y-52750000D03*
X166350000Y-51250000D03*
G04 #@! TO.N,GND*
X168890000Y-52750000D03*
X168890000Y-51250000D03*
G04 #@! TD*
D10*
G04 #@! TO.N,/SPI1_SCK_SD*
G04 #@! TO.C,J2*
X171250000Y-31110000D03*
X172750000Y-31110000D03*
D11*
G04 #@! TO.N,/SPI1_POCI_SD*
X172750000Y-33650000D03*
X171250000Y-33650000D03*
G04 #@! TO.N,/SPI1_PICO_SD*
X172774000Y-36190000D03*
X171274000Y-36190000D03*
G04 #@! TO.N,/SPI1_nCS_SD*
X172750000Y-38730000D03*
X171250000Y-38730000D03*
G04 #@! TO.N,/SD_nCD*
X172750000Y-41270000D03*
X171250000Y-41270000D03*
G04 #@! TO.N,/UART1_RX_GNSS*
X172750000Y-43810000D03*
X171250000Y-43810000D03*
G04 #@! TO.N,/UART1_TX_GNSS*
X172750000Y-46350000D03*
X171250000Y-46350000D03*
G04 #@! TO.N,GND*
X172750000Y-48890000D03*
X171250000Y-48890000D03*
G04 #@! TD*
D10*
G04 #@! TO.N,/SDA{slash}SDI*
G04 #@! TO.C,J3*
X147250000Y-31110000D03*
X148750000Y-31110000D03*
D11*
G04 #@! TO.N,/SCL{slash}SCK*
X147250000Y-33650000D03*
X148750000Y-33650000D03*
G04 #@! TO.N,/SPI0_POCI*
X148774000Y-36190000D03*
X147274000Y-36190000D03*
G04 #@! TO.N,/NEOPIXEL*
X147250000Y-38730000D03*
X148750000Y-38730000D03*
G04 #@! TO.N,+3V3*
X148750000Y-41270000D03*
X147250000Y-41270000D03*
G04 #@! TO.N,/CAN_N*
X148750000Y-43810000D03*
X147250000Y-43810000D03*
G04 #@! TO.N,/CAN_P*
X147250000Y-46350000D03*
X148750000Y-46350000D03*
G04 #@! TO.N,GND*
X147250000Y-48890000D03*
X148750000Y-48890000D03*
G04 #@! TD*
D10*
G04 #@! TO.N,/SWCLK*
G04 #@! TO.C,J1*
X151110000Y-27250000D03*
X151110000Y-28750000D03*
D11*
G04 #@! TO.N,/SWDIO*
X153650000Y-28750000D03*
X153650000Y-27250000D03*
G04 #@! TO.N,/RUN*
X156190000Y-27226000D03*
X156190000Y-28726000D03*
G04 #@! TO.N,/BOOTSEL*
X158730000Y-27250000D03*
X158730000Y-28750000D03*
G04 #@! TO.N,/USB_DP*
X161270000Y-27250000D03*
X161270000Y-28750000D03*
G04 #@! TO.N,/USB_DN*
X163810000Y-28750000D03*
X163810000Y-27250000D03*
G04 #@! TO.N,+5V*
X166350000Y-28750000D03*
X166350000Y-27250000D03*
G04 #@! TO.N,GND*
X168890000Y-27250000D03*
X168890000Y-28750000D03*
G04 #@! TD*
D12*
G04 #@! TO.N,GND*
G04 #@! TO.C,U2*
X162625000Y-44437500D03*
X165175000Y-44437500D03*
X162625000Y-41887500D03*
X162625000Y-43162500D03*
X163900000Y-43162500D03*
X165175000Y-41887500D03*
X163900000Y-41887500D03*
X163900000Y-44437500D03*
X165175000Y-43162500D03*
G04 #@! TD*
D13*
G04 #@! TO.N,+1V1*
X164500000Y-40589000D03*
X164500000Y-45700000D03*
G04 #@! TO.N,GND*
X159300000Y-46950000D03*
X162915600Y-45847000D03*
X161100000Y-32000000D03*
X169048500Y-36800000D03*
X152900000Y-45110400D03*
X165251860Y-48751063D03*
X156000000Y-39850000D03*
X152900000Y-45875000D03*
X168900000Y-32450000D03*
X158374714Y-36039199D03*
X156025000Y-36700000D03*
X153575000Y-34625000D03*
X162405385Y-30594615D03*
X155637548Y-31296778D03*
X169200000Y-46500000D03*
X168300000Y-33150000D03*
X159450000Y-39450000D03*
X167895385Y-39945385D03*
X150800000Y-35850000D03*
X166300000Y-36900000D03*
X158855351Y-34043149D03*
X157250000Y-49450000D03*
X156800000Y-34575000D03*
X168000000Y-36850000D03*
X156950000Y-43250000D03*
X163750000Y-34625000D03*
X163300000Y-36250000D03*
X156400000Y-32150000D03*
X155111365Y-39588635D03*
X162300000Y-35650000D03*
X152900000Y-44350000D03*
X161615365Y-48293865D03*
X164300000Y-36250000D03*
X167000000Y-36850000D03*
X162750000Y-48798500D03*
X160400000Y-30650000D03*
X150880000Y-49330000D03*
X157950000Y-43243700D03*
X166966500Y-35250000D03*
X151888948Y-43009928D03*
X155800000Y-49500000D03*
X166750000Y-49398500D03*
X162450000Y-32550000D03*
G04 #@! TO.N,+3V3*
X166966500Y-34250000D03*
X154159999Y-31143001D03*
X163800000Y-37700000D03*
X156702677Y-37726728D03*
X166500000Y-44150000D03*
X153645366Y-40254634D03*
X157446584Y-33537355D03*
X167750000Y-39150000D03*
X166400000Y-40900000D03*
X150751500Y-42700000D03*
X167300000Y-38600000D03*
X166450000Y-33150000D03*
X169150000Y-43800000D03*
X150800000Y-34900000D03*
X152550000Y-31150000D03*
X157276800Y-35382200D03*
X159400000Y-30650000D03*
X158500000Y-40450000D03*
X157573500Y-38686655D03*
X163750000Y-48798500D03*
X162450000Y-33500000D03*
X150750000Y-33850000D03*
X151946000Y-49340000D03*
X158950000Y-43243700D03*
X169200000Y-45500000D03*
X154250500Y-33564002D03*
X155950000Y-39050000D03*
G04 #@! TO.N,/RUN*
X165947009Y-43554486D03*
G04 #@! TO.N,+5V*
X163000000Y-40600000D03*
X163750000Y-33200000D03*
X155100000Y-44800000D03*
X155550000Y-43762500D03*
G04 #@! TO.N,/SPI0_nCS*
X156657645Y-40949688D03*
X169150000Y-48500000D03*
G04 #@! TO.N,/NEOPIXEL*
X153650000Y-43450000D03*
X161250000Y-43762500D03*
G04 #@! TO.N,/SPI0_POCI*
X152700000Y-36400000D03*
X157384128Y-40955044D03*
G04 #@! TO.N,/SPI1_nCS_SD*
X168750000Y-38700000D03*
X166337016Y-42200000D03*
G04 #@! TO.N,/SD_nCD*
X169150000Y-47500000D03*
X169750000Y-42800000D03*
G04 #@! TO.N,/USB_DP*
X165163750Y-33801333D03*
G04 #@! TO.N,/USB_DN*
X166013750Y-33801333D03*
G04 #@! TO.N,/SPI0_SCK*
X151866182Y-41446084D03*
X154200000Y-37800000D03*
X155931143Y-40950008D03*
G04 #@! TO.N,/I2C0_SDA*
X155550000Y-32800000D03*
X161414099Y-40589471D03*
X157800000Y-34600000D03*
G04 #@! TO.N,/I2C0_SCL*
X155600000Y-30550000D03*
X158062537Y-33922593D03*
X162140601Y-40589000D03*
G04 #@! TO.N,/BUZZER*
X161318827Y-45497671D03*
G04 #@! TO.N,/SWCLK*
X165268090Y-47522666D03*
G04 #@! TO.N,/SWDIO*
X165200500Y-45350000D03*
G04 #@! TO.N,/SPI0_PICO*
X153458329Y-37815365D03*
X151300000Y-40650000D03*
X155135961Y-40944584D03*
G04 #@! TO.N,/SPI1_POCI_SD*
X166350000Y-42950000D03*
G04 #@! TO.N,/SDA{slash}SDI*
X151300000Y-38606500D03*
X150749500Y-31800000D03*
G04 #@! TO.N,/SCL{slash}SCK*
X150750000Y-37900000D03*
G04 #@! TO.N,/SPI1_PICO_SD*
X168600000Y-41400000D03*
G04 #@! TO.N,/QSPI_nCS*
X157400000Y-30350000D03*
X158750000Y-37800000D03*
G04 #@! TD*
D14*
G04 #@! TO.N,+1V1*
X164500000Y-40589000D02*
X164500000Y-45700000D01*
G04 #@! TO.N,+5V*
X155100000Y-44800000D02*
X155100000Y-44212500D01*
X155100000Y-44212500D02*
X155550000Y-43762500D01*
X155100000Y-47380646D02*
X151230646Y-51250000D01*
X160975000Y-42625000D02*
X156687500Y-42625000D01*
X156687500Y-42625000D02*
X155550000Y-43762500D01*
X163000000Y-40600000D02*
X160975000Y-42625000D01*
X155100000Y-44800000D02*
X155100000Y-47380646D01*
G04 #@! TD*
G04 #@! TA.AperFunction,Conductor*
G04 #@! TO.N,+3V3*
G36*
X150158812Y-27570502D02*
G01*
X150202757Y-27618905D01*
X150283242Y-27775511D01*
X150283245Y-27775516D01*
X150286060Y-27780993D01*
X150289889Y-27785824D01*
X150398825Y-27923267D01*
X150425463Y-27989077D01*
X150412292Y-28058842D01*
X150396606Y-28082517D01*
X150301207Y-28196208D01*
X150209045Y-28363850D01*
X150207184Y-28369717D01*
X150207183Y-28369719D01*
X150154560Y-28535608D01*
X150151200Y-28546201D01*
X150129876Y-28736314D01*
X150130392Y-28742458D01*
X150143869Y-28902948D01*
X150145884Y-28926948D01*
X150155661Y-28961046D01*
X150190033Y-29080916D01*
X150198614Y-29110843D01*
X150201433Y-29116328D01*
X150283242Y-29275511D01*
X150283245Y-29275516D01*
X150286060Y-29280993D01*
X150404889Y-29430918D01*
X150409583Y-29434913D01*
X150443334Y-29463637D01*
X150550575Y-29554907D01*
X150717570Y-29648237D01*
X150899512Y-29707354D01*
X151089472Y-29730005D01*
X151095607Y-29729533D01*
X151095609Y-29729533D01*
X151274071Y-29715801D01*
X151274075Y-29715800D01*
X151280213Y-29715328D01*
X151464472Y-29663882D01*
X151635228Y-29577627D01*
X151664309Y-29554907D01*
X151781129Y-29463637D01*
X151785979Y-29459848D01*
X151807503Y-29434913D01*
X151906958Y-29319692D01*
X151906959Y-29319691D01*
X151910982Y-29315030D01*
X152005476Y-29148691D01*
X152065861Y-28967166D01*
X152073974Y-28902948D01*
X152089396Y-28780872D01*
X152089397Y-28780863D01*
X152089838Y-28777369D01*
X152090220Y-28750000D01*
X152071552Y-28559608D01*
X152016259Y-28376467D01*
X151926446Y-28207555D01*
X151821150Y-28078449D01*
X151793596Y-28013017D01*
X151805792Y-27943076D01*
X151823412Y-27916482D01*
X151906953Y-27819699D01*
X151906958Y-27819692D01*
X151910982Y-27815030D01*
X152005476Y-27648691D01*
X152009457Y-27636724D01*
X152049941Y-27578401D01*
X152115529Y-27551224D01*
X152129014Y-27550500D01*
X152630691Y-27550500D01*
X152698812Y-27570502D01*
X152742757Y-27618905D01*
X152823242Y-27775511D01*
X152823245Y-27775516D01*
X152826060Y-27780993D01*
X152829889Y-27785824D01*
X152938825Y-27923267D01*
X152965463Y-27989077D01*
X152952292Y-28058842D01*
X152936606Y-28082517D01*
X152841207Y-28196208D01*
X152749045Y-28363850D01*
X152747184Y-28369717D01*
X152747183Y-28369719D01*
X152694560Y-28535608D01*
X152691200Y-28546201D01*
X152669876Y-28736314D01*
X152670392Y-28742458D01*
X152683869Y-28902948D01*
X152685884Y-28926948D01*
X152695661Y-28961046D01*
X152730033Y-29080916D01*
X152738614Y-29110843D01*
X152741433Y-29116328D01*
X152823242Y-29275511D01*
X152823245Y-29275516D01*
X152826060Y-29280993D01*
X152944889Y-29430918D01*
X152949583Y-29434913D01*
X152983334Y-29463637D01*
X153090575Y-29554907D01*
X153257570Y-29648237D01*
X153439512Y-29707354D01*
X153629472Y-29730005D01*
X153635607Y-29729533D01*
X153635609Y-29729533D01*
X153814071Y-29715801D01*
X153814075Y-29715800D01*
X153820213Y-29715328D01*
X154004472Y-29663882D01*
X154175228Y-29577627D01*
X154204309Y-29554907D01*
X154321129Y-29463637D01*
X154325979Y-29459848D01*
X154347503Y-29434913D01*
X154446958Y-29319692D01*
X154446959Y-29319691D01*
X154450982Y-29315030D01*
X154545476Y-29148691D01*
X154605861Y-28967166D01*
X154613974Y-28902948D01*
X154629396Y-28780872D01*
X154629397Y-28780863D01*
X154629838Y-28777369D01*
X154630220Y-28750000D01*
X154611552Y-28559608D01*
X154556259Y-28376467D01*
X154466446Y-28207555D01*
X154361150Y-28078449D01*
X154333596Y-28013017D01*
X154345792Y-27943076D01*
X154363412Y-27916482D01*
X154446953Y-27819699D01*
X154446958Y-27819692D01*
X154450982Y-27815030D01*
X154545476Y-27648691D01*
X154549457Y-27636724D01*
X154589941Y-27578401D01*
X154655529Y-27551224D01*
X154669014Y-27550500D01*
X155183026Y-27550500D01*
X155251147Y-27570502D01*
X155295091Y-27618904D01*
X155298353Y-27625250D01*
X155363242Y-27751511D01*
X155363245Y-27751516D01*
X155366060Y-27756993D01*
X155390095Y-27787317D01*
X155478825Y-27899267D01*
X155505463Y-27965077D01*
X155492292Y-28034842D01*
X155476606Y-28058517D01*
X155381207Y-28172208D01*
X155289045Y-28339850D01*
X155287184Y-28345717D01*
X155287183Y-28345719D01*
X155283171Y-28358367D01*
X155231200Y-28522201D01*
X155209876Y-28712314D01*
X155225884Y-28902948D01*
X155278614Y-29086843D01*
X155281433Y-29092328D01*
X155363242Y-29251511D01*
X155363245Y-29251516D01*
X155366060Y-29256993D01*
X155484889Y-29406918D01*
X155489583Y-29410913D01*
X155523334Y-29439637D01*
X155630575Y-29530907D01*
X155635953Y-29533913D01*
X155635955Y-29533914D01*
X155707391Y-29573838D01*
X155797570Y-29624237D01*
X155979512Y-29683354D01*
X156169472Y-29706005D01*
X156175607Y-29705533D01*
X156175609Y-29705533D01*
X156354071Y-29691801D01*
X156354075Y-29691800D01*
X156360213Y-29691328D01*
X156544472Y-29639882D01*
X156715228Y-29553627D01*
X156744309Y-29530907D01*
X156790603Y-29494738D01*
X156865979Y-29435848D01*
X156870235Y-29430918D01*
X156986958Y-29295692D01*
X156986959Y-29295691D01*
X156990982Y-29291030D01*
X157085476Y-29124691D01*
X157145861Y-28943166D01*
X157166364Y-28780872D01*
X157169396Y-28756872D01*
X157169397Y-28756863D01*
X157169838Y-28753369D01*
X157170220Y-28726000D01*
X157151552Y-28535608D01*
X157096259Y-28352467D01*
X157006446Y-28183555D01*
X156901150Y-28054449D01*
X156873596Y-27989017D01*
X156885792Y-27919076D01*
X156903412Y-27892482D01*
X156986953Y-27795699D01*
X156986958Y-27795692D01*
X156990982Y-27791030D01*
X156999355Y-27776292D01*
X157082432Y-27630049D01*
X157085476Y-27624691D01*
X157085754Y-27623856D01*
X157130550Y-27571154D01*
X157199675Y-27550500D01*
X157710691Y-27550500D01*
X157778812Y-27570502D01*
X157822757Y-27618905D01*
X157903242Y-27775511D01*
X157903245Y-27775516D01*
X157906060Y-27780993D01*
X157909889Y-27785824D01*
X158018825Y-27923267D01*
X158045463Y-27989077D01*
X158032292Y-28058842D01*
X158016606Y-28082517D01*
X157921207Y-28196208D01*
X157829045Y-28363850D01*
X157827184Y-28369717D01*
X157827183Y-28369719D01*
X157774560Y-28535608D01*
X157771200Y-28546201D01*
X157749876Y-28736314D01*
X157750392Y-28742458D01*
X157763869Y-28902948D01*
X157765884Y-28926948D01*
X157775661Y-28961046D01*
X157810033Y-29080916D01*
X157818614Y-29110843D01*
X157821433Y-29116328D01*
X157903242Y-29275511D01*
X157903245Y-29275516D01*
X157906060Y-29280993D01*
X158024889Y-29430918D01*
X158029583Y-29434913D01*
X158063334Y-29463637D01*
X158170575Y-29554907D01*
X158337570Y-29648237D01*
X158519512Y-29707354D01*
X158709472Y-29730005D01*
X158715607Y-29729533D01*
X158715609Y-29729533D01*
X158894071Y-29715801D01*
X158894075Y-29715800D01*
X158900213Y-29715328D01*
X159084472Y-29663882D01*
X159255228Y-29577627D01*
X159284309Y-29554907D01*
X159401129Y-29463637D01*
X159405979Y-29459848D01*
X159427503Y-29434913D01*
X159526958Y-29319692D01*
X159526959Y-29319691D01*
X159530982Y-29315030D01*
X159625476Y-29148691D01*
X159685861Y-28967166D01*
X159693974Y-28902948D01*
X159709396Y-28780872D01*
X159709397Y-28780863D01*
X159709838Y-28777369D01*
X159710220Y-28750000D01*
X159691552Y-28559608D01*
X159636259Y-28376467D01*
X159546446Y-28207555D01*
X159441150Y-28078449D01*
X159413596Y-28013017D01*
X159425792Y-27943076D01*
X159443412Y-27916482D01*
X159526953Y-27819699D01*
X159526958Y-27819692D01*
X159530982Y-27815030D01*
X159625476Y-27648691D01*
X159629457Y-27636724D01*
X159669941Y-27578401D01*
X159735529Y-27551224D01*
X159749014Y-27550500D01*
X160250691Y-27550500D01*
X160318812Y-27570502D01*
X160362757Y-27618905D01*
X160443242Y-27775511D01*
X160443245Y-27775516D01*
X160446060Y-27780993D01*
X160449889Y-27785824D01*
X160558825Y-27923267D01*
X160585463Y-27989077D01*
X160572292Y-28058842D01*
X160556606Y-28082517D01*
X160461207Y-28196208D01*
X160369045Y-28363850D01*
X160367184Y-28369717D01*
X160367183Y-28369719D01*
X160314560Y-28535608D01*
X160311200Y-28546201D01*
X160289876Y-28736314D01*
X160290392Y-28742458D01*
X160303869Y-28902948D01*
X160305884Y-28926948D01*
X160315661Y-28961046D01*
X160350033Y-29080916D01*
X160358614Y-29110843D01*
X160361433Y-29116328D01*
X160443242Y-29275511D01*
X160443245Y-29275516D01*
X160446060Y-29280993D01*
X160564889Y-29430918D01*
X160569583Y-29434913D01*
X160603334Y-29463637D01*
X160710575Y-29554907D01*
X160877570Y-29648237D01*
X161059512Y-29707354D01*
X161249472Y-29730005D01*
X161255607Y-29729533D01*
X161255609Y-29729533D01*
X161434071Y-29715801D01*
X161434075Y-29715800D01*
X161440213Y-29715328D01*
X161624472Y-29663882D01*
X161795228Y-29577627D01*
X161824309Y-29554907D01*
X161941129Y-29463637D01*
X161945979Y-29459848D01*
X161967503Y-29434913D01*
X162066958Y-29319692D01*
X162066959Y-29319691D01*
X162070982Y-29315030D01*
X162165476Y-29148691D01*
X162225861Y-28967166D01*
X162233974Y-28902948D01*
X162249396Y-28780872D01*
X162249397Y-28780863D01*
X162249838Y-28777369D01*
X162250220Y-28750000D01*
X162231552Y-28559608D01*
X162176259Y-28376467D01*
X162086446Y-28207555D01*
X161981150Y-28078449D01*
X161953596Y-28013017D01*
X161965792Y-27943076D01*
X161983412Y-27916482D01*
X162066953Y-27819699D01*
X162066958Y-27819692D01*
X162070982Y-27815030D01*
X162165476Y-27648691D01*
X162169457Y-27636724D01*
X162209941Y-27578401D01*
X162275529Y-27551224D01*
X162289014Y-27550500D01*
X162790691Y-27550500D01*
X162858812Y-27570502D01*
X162902757Y-27618905D01*
X162983242Y-27775511D01*
X162983245Y-27775516D01*
X162986060Y-27780993D01*
X162989889Y-27785824D01*
X163098825Y-27923267D01*
X163125463Y-27989077D01*
X163112292Y-28058842D01*
X163096606Y-28082517D01*
X163001207Y-28196208D01*
X162909045Y-28363850D01*
X162907184Y-28369717D01*
X162907183Y-28369719D01*
X162854560Y-28535608D01*
X162851200Y-28546201D01*
X162829876Y-28736314D01*
X162830392Y-28742458D01*
X162843869Y-28902948D01*
X162845884Y-28926948D01*
X162855661Y-28961046D01*
X162890033Y-29080916D01*
X162898614Y-29110843D01*
X162901433Y-29116328D01*
X162983242Y-29275511D01*
X162983245Y-29275516D01*
X162986060Y-29280993D01*
X163104889Y-29430918D01*
X163109583Y-29434913D01*
X163143334Y-29463637D01*
X163250575Y-29554907D01*
X163417570Y-29648237D01*
X163599512Y-29707354D01*
X163789472Y-29730005D01*
X163795607Y-29729533D01*
X163795609Y-29729533D01*
X163974071Y-29715801D01*
X163974075Y-29715800D01*
X163980213Y-29715328D01*
X164164472Y-29663882D01*
X164335228Y-29577627D01*
X164364309Y-29554907D01*
X164481129Y-29463637D01*
X164485979Y-29459848D01*
X164507503Y-29434913D01*
X164606958Y-29319692D01*
X164606959Y-29319691D01*
X164610982Y-29315030D01*
X164705476Y-29148691D01*
X164765861Y-28967166D01*
X164773974Y-28902948D01*
X164789396Y-28780872D01*
X164789397Y-28780863D01*
X164789838Y-28777369D01*
X164790220Y-28750000D01*
X164771552Y-28559608D01*
X164716259Y-28376467D01*
X164626446Y-28207555D01*
X164521150Y-28078449D01*
X164493596Y-28013017D01*
X164505792Y-27943076D01*
X164523412Y-27916482D01*
X164606953Y-27819699D01*
X164606958Y-27819692D01*
X164610982Y-27815030D01*
X164705476Y-27648691D01*
X164709457Y-27636724D01*
X164749941Y-27578401D01*
X164815529Y-27551224D01*
X164829014Y-27550500D01*
X165330691Y-27550500D01*
X165398812Y-27570502D01*
X165442757Y-27618905D01*
X165523242Y-27775511D01*
X165523245Y-27775516D01*
X165526060Y-27780993D01*
X165529889Y-27785824D01*
X165638825Y-27923267D01*
X165665463Y-27989077D01*
X165652292Y-28058842D01*
X165636606Y-28082517D01*
X165541207Y-28196208D01*
X165449045Y-28363850D01*
X165447184Y-28369717D01*
X165447183Y-28369719D01*
X165394560Y-28535608D01*
X165391200Y-28546201D01*
X165369876Y-28736314D01*
X165370392Y-28742458D01*
X165383869Y-28902948D01*
X165385884Y-28926948D01*
X165395661Y-28961046D01*
X165430033Y-29080916D01*
X165438614Y-29110843D01*
X165441433Y-29116328D01*
X165523242Y-29275511D01*
X165523245Y-29275516D01*
X165526060Y-29280993D01*
X165644889Y-29430918D01*
X165649583Y-29434913D01*
X165683334Y-29463637D01*
X165790575Y-29554907D01*
X165957570Y-29648237D01*
X166139512Y-29707354D01*
X166329472Y-29730005D01*
X166335607Y-29729533D01*
X166335609Y-29729533D01*
X166514071Y-29715801D01*
X166514075Y-29715800D01*
X166520213Y-29715328D01*
X166704472Y-29663882D01*
X166875228Y-29577627D01*
X166904309Y-29554907D01*
X167021129Y-29463637D01*
X167025979Y-29459848D01*
X167047503Y-29434913D01*
X167146958Y-29319692D01*
X167146959Y-29319691D01*
X167150982Y-29315030D01*
X167245476Y-29148691D01*
X167305861Y-28967166D01*
X167313974Y-28902948D01*
X167329396Y-28780872D01*
X167329397Y-28780863D01*
X167329838Y-28777369D01*
X167330220Y-28750000D01*
X167311552Y-28559608D01*
X167256259Y-28376467D01*
X167166446Y-28207555D01*
X167061150Y-28078449D01*
X167033596Y-28013017D01*
X167045792Y-27943076D01*
X167063412Y-27916482D01*
X167146953Y-27819699D01*
X167146958Y-27819692D01*
X167150982Y-27815030D01*
X167245476Y-27648691D01*
X167249457Y-27636724D01*
X167289941Y-27578401D01*
X167355529Y-27551224D01*
X167369014Y-27550500D01*
X167870691Y-27550500D01*
X167938812Y-27570502D01*
X167982757Y-27618905D01*
X168063242Y-27775511D01*
X168063245Y-27775516D01*
X168066060Y-27780993D01*
X168069889Y-27785824D01*
X168178825Y-27923267D01*
X168205463Y-27989077D01*
X168192292Y-28058842D01*
X168176606Y-28082517D01*
X168081207Y-28196208D01*
X167989045Y-28363850D01*
X167987184Y-28369717D01*
X167987183Y-28369719D01*
X167934560Y-28535608D01*
X167931200Y-28546201D01*
X167909876Y-28736314D01*
X167910392Y-28742458D01*
X167923869Y-28902948D01*
X167925884Y-28926948D01*
X167935661Y-28961046D01*
X167970033Y-29080916D01*
X167978614Y-29110843D01*
X167981433Y-29116328D01*
X168063242Y-29275511D01*
X168063245Y-29275516D01*
X168066060Y-29280993D01*
X168184889Y-29430918D01*
X168189583Y-29434913D01*
X168223334Y-29463637D01*
X168330575Y-29554907D01*
X168497570Y-29648237D01*
X168679512Y-29707354D01*
X168869472Y-29730005D01*
X168875607Y-29729533D01*
X168875609Y-29729533D01*
X169054071Y-29715801D01*
X169054075Y-29715800D01*
X169060213Y-29715328D01*
X169244472Y-29663882D01*
X169415228Y-29577627D01*
X169444309Y-29554907D01*
X169561129Y-29463637D01*
X169565979Y-29459848D01*
X169587503Y-29434913D01*
X169686958Y-29319692D01*
X169686959Y-29319691D01*
X169690982Y-29315030D01*
X169785476Y-29148691D01*
X169845861Y-28967166D01*
X169853974Y-28902948D01*
X169869396Y-28780872D01*
X169869397Y-28780863D01*
X169869838Y-28777369D01*
X169870220Y-28750000D01*
X169851552Y-28559608D01*
X169796259Y-28376467D01*
X169706446Y-28207555D01*
X169601150Y-28078449D01*
X169573596Y-28013017D01*
X169585792Y-27943076D01*
X169603412Y-27916482D01*
X169686953Y-27819699D01*
X169686958Y-27819692D01*
X169690982Y-27815030D01*
X169785476Y-27648691D01*
X169789457Y-27636724D01*
X169829941Y-27578401D01*
X169895529Y-27551224D01*
X169909014Y-27550500D01*
X172212683Y-27550500D01*
X172234563Y-27552414D01*
X172239145Y-27553222D01*
X172250000Y-27555136D01*
X172259749Y-27553417D01*
X172276977Y-27554773D01*
X172291936Y-27557142D01*
X172329430Y-27569324D01*
X172349484Y-27579542D01*
X172381376Y-27602714D01*
X172397286Y-27618624D01*
X172420458Y-27650516D01*
X172430676Y-27670570D01*
X172442858Y-27708064D01*
X172445227Y-27723023D01*
X172446583Y-27740251D01*
X172444864Y-27750000D01*
X172446778Y-27760855D01*
X172447586Y-27765437D01*
X172449500Y-27787317D01*
X172449500Y-30089979D01*
X172429498Y-30158100D01*
X172381877Y-30201640D01*
X172213268Y-30289787D01*
X172208472Y-30293643D01*
X172208460Y-30293651D01*
X172078186Y-30398395D01*
X172012564Y-30425492D01*
X171942709Y-30412809D01*
X171918919Y-30397284D01*
X171802879Y-30301288D01*
X171798132Y-30297361D01*
X171741730Y-30266864D01*
X171635276Y-30209304D01*
X171635273Y-30209303D01*
X171629851Y-30206371D01*
X171500508Y-30166333D01*
X171452988Y-30151623D01*
X171452985Y-30151622D01*
X171447101Y-30149801D01*
X171440976Y-30149157D01*
X171440975Y-30149157D01*
X171262971Y-30130448D01*
X171262970Y-30130448D01*
X171256843Y-30129804D01*
X171139867Y-30140449D01*
X171072466Y-30146583D01*
X171072465Y-30146583D01*
X171066325Y-30147142D01*
X170882803Y-30201156D01*
X170877338Y-30204013D01*
X170718728Y-30286932D01*
X170718724Y-30286935D01*
X170713268Y-30289787D01*
X170708468Y-30293647D01*
X170708467Y-30293647D01*
X170638378Y-30350000D01*
X170564176Y-30409660D01*
X170441207Y-30556208D01*
X170438237Y-30561611D01*
X170438236Y-30561612D01*
X170415591Y-30602803D01*
X170349045Y-30723850D01*
X170347184Y-30729717D01*
X170347183Y-30729719D01*
X170331778Y-30778282D01*
X170291200Y-30906201D01*
X170269876Y-31096314D01*
X170270392Y-31102458D01*
X170285342Y-31280491D01*
X170285884Y-31286948D01*
X170295661Y-31321046D01*
X170333653Y-31453540D01*
X170338614Y-31470843D01*
X170341433Y-31476328D01*
X170423242Y-31635511D01*
X170423245Y-31635516D01*
X170426060Y-31640993D01*
X170544889Y-31790918D01*
X170549583Y-31794913D01*
X170684180Y-31909464D01*
X170690575Y-31914907D01*
X170695953Y-31917913D01*
X170695955Y-31917914D01*
X170743200Y-31944318D01*
X170857570Y-32008237D01*
X171039512Y-32067354D01*
X171229472Y-32090005D01*
X171235607Y-32089533D01*
X171235609Y-32089533D01*
X171414071Y-32075801D01*
X171414075Y-32075800D01*
X171420213Y-32075328D01*
X171604472Y-32023882D01*
X171775228Y-31937627D01*
X171804309Y-31914907D01*
X171924721Y-31820831D01*
X171990715Y-31794654D01*
X172060386Y-31808312D01*
X172083955Y-31824166D01*
X172152967Y-31882900D01*
X172184180Y-31909464D01*
X172190575Y-31914907D01*
X172195953Y-31917913D01*
X172195955Y-31917914D01*
X172243200Y-31944318D01*
X172357570Y-32008237D01*
X172363431Y-32010141D01*
X172369079Y-32012609D01*
X172368490Y-32013957D01*
X172421041Y-32049890D01*
X172448679Y-32115287D01*
X172449500Y-32129651D01*
X172449500Y-32629979D01*
X172429498Y-32698100D01*
X172381877Y-32741640D01*
X172213268Y-32829787D01*
X172208472Y-32833643D01*
X172208460Y-32833651D01*
X172078186Y-32938395D01*
X172012564Y-32965492D01*
X171942709Y-32952809D01*
X171918919Y-32937284D01*
X171802879Y-32841288D01*
X171798132Y-32837361D01*
X171690938Y-32779401D01*
X171635276Y-32749304D01*
X171635273Y-32749303D01*
X171629851Y-32746371D01*
X171549496Y-32721497D01*
X171452988Y-32691623D01*
X171452985Y-32691622D01*
X171447101Y-32689801D01*
X171440976Y-32689157D01*
X171440975Y-32689157D01*
X171262971Y-32670448D01*
X171262970Y-32670448D01*
X171256843Y-32669804D01*
X171139867Y-32680449D01*
X171072466Y-32686583D01*
X171072465Y-32686583D01*
X171066325Y-32687142D01*
X170882803Y-32741156D01*
X170877338Y-32744013D01*
X170718728Y-32826932D01*
X170718724Y-32826935D01*
X170713268Y-32829787D01*
X170708468Y-32833647D01*
X170708467Y-32833647D01*
X170676447Y-32859392D01*
X170564176Y-32949660D01*
X170441207Y-33096208D01*
X170438237Y-33101611D01*
X170438236Y-33101612D01*
X170408511Y-33155682D01*
X170349045Y-33263850D01*
X170347184Y-33269717D01*
X170347183Y-33269719D01*
X170304395Y-33404604D01*
X170291200Y-33446201D01*
X170269876Y-33636314D01*
X170270392Y-33642458D01*
X170285155Y-33818264D01*
X170285884Y-33826948D01*
X170300650Y-33878443D01*
X170332625Y-33989956D01*
X170338614Y-34010843D01*
X170341433Y-34016328D01*
X170423242Y-34175511D01*
X170423245Y-34175516D01*
X170426060Y-34180993D01*
X170544889Y-34330918D01*
X170549583Y-34334913D01*
X170633036Y-34405937D01*
X170690575Y-34454907D01*
X170695953Y-34457913D01*
X170695955Y-34457914D01*
X170774072Y-34501572D01*
X170857570Y-34548237D01*
X171039512Y-34607354D01*
X171229472Y-34630005D01*
X171235607Y-34629533D01*
X171235609Y-34629533D01*
X171414071Y-34615801D01*
X171414075Y-34615800D01*
X171420213Y-34615328D01*
X171604472Y-34563882D01*
X171775228Y-34477627D01*
X171787246Y-34468238D01*
X171924721Y-34360831D01*
X171990715Y-34334654D01*
X172060386Y-34348312D01*
X172083955Y-34364166D01*
X172190575Y-34454907D01*
X172195953Y-34457913D01*
X172195955Y-34457914D01*
X172274072Y-34501572D01*
X172357570Y-34548237D01*
X172363431Y-34550141D01*
X172369079Y-34552609D01*
X172368490Y-34553957D01*
X172421041Y-34589890D01*
X172448679Y-34655287D01*
X172449500Y-34669651D01*
X172449500Y-35182526D01*
X172429498Y-35250647D01*
X172381875Y-35294188D01*
X172242728Y-35366932D01*
X172242724Y-35366935D01*
X172237268Y-35369787D01*
X172232472Y-35373643D01*
X172232460Y-35373651D01*
X172102186Y-35478395D01*
X172036564Y-35505492D01*
X171966709Y-35492809D01*
X171942919Y-35477284D01*
X171826879Y-35381288D01*
X171822132Y-35377361D01*
X171735449Y-35330491D01*
X171659276Y-35289304D01*
X171659273Y-35289303D01*
X171653851Y-35286371D01*
X171562806Y-35258188D01*
X171476988Y-35231623D01*
X171476985Y-35231622D01*
X171471101Y-35229801D01*
X171464976Y-35229157D01*
X171464975Y-35229157D01*
X171286971Y-35210448D01*
X171286970Y-35210448D01*
X171280843Y-35209804D01*
X171163867Y-35220449D01*
X171096466Y-35226583D01*
X171096465Y-35226583D01*
X171090325Y-35227142D01*
X170906803Y-35281156D01*
X170901338Y-35284013D01*
X170742728Y-35366932D01*
X170742724Y-35366935D01*
X170737268Y-35369787D01*
X170588176Y-35489660D01*
X170465207Y-35636208D01*
X170462237Y-35641611D01*
X170462236Y-35641612D01*
X170433854Y-35693238D01*
X170373045Y-35803850D01*
X170371184Y-35809717D01*
X170371183Y-35809719D01*
X170362808Y-35836122D01*
X170315200Y-35986201D01*
X170293876Y-36176314D01*
X170294392Y-36182458D01*
X170308343Y-36348591D01*
X170309884Y-36366948D01*
X170319661Y-36401046D01*
X170358246Y-36535609D01*
X170362614Y-36550843D01*
X170365433Y-36556328D01*
X170447242Y-36715511D01*
X170447245Y-36715516D01*
X170450060Y-36720993D01*
X170568889Y-36870918D01*
X170573583Y-36874913D01*
X170704253Y-36986122D01*
X170714575Y-36994907D01*
X170719953Y-36997913D01*
X170719955Y-36997914D01*
X170740493Y-37009392D01*
X170881570Y-37088237D01*
X171063512Y-37147354D01*
X171253472Y-37170005D01*
X171259607Y-37169533D01*
X171259609Y-37169533D01*
X171438071Y-37155801D01*
X171438075Y-37155800D01*
X171444213Y-37155328D01*
X171628472Y-37103882D01*
X171799228Y-37017627D01*
X171809769Y-37009392D01*
X171948721Y-36900831D01*
X172014715Y-36874654D01*
X172084386Y-36888312D01*
X172107955Y-36904166D01*
X172214575Y-36994907D01*
X172219953Y-36997913D01*
X172219955Y-36997914D01*
X172381570Y-37088237D01*
X172380654Y-37089875D01*
X172428352Y-37129839D01*
X172449500Y-37199710D01*
X172449500Y-37709979D01*
X172429498Y-37778100D01*
X172381877Y-37821640D01*
X172213268Y-37909787D01*
X172208472Y-37913643D01*
X172208460Y-37913651D01*
X172078186Y-38018395D01*
X172012564Y-38045492D01*
X171942709Y-38032809D01*
X171918919Y-38017284D01*
X171802879Y-37921288D01*
X171798132Y-37917361D01*
X171741730Y-37886864D01*
X171635276Y-37829304D01*
X171635273Y-37829303D01*
X171629851Y-37826371D01*
X171518208Y-37791812D01*
X171452988Y-37771623D01*
X171452985Y-37771622D01*
X171447101Y-37769801D01*
X171440976Y-37769157D01*
X171440975Y-37769157D01*
X171262971Y-37750448D01*
X171262970Y-37750448D01*
X171256843Y-37749804D01*
X171139867Y-37760449D01*
X171072466Y-37766583D01*
X171072465Y-37766583D01*
X171066325Y-37767142D01*
X170882803Y-37821156D01*
X170877338Y-37824013D01*
X170718728Y-37906932D01*
X170718724Y-37906935D01*
X170713268Y-37909787D01*
X170708468Y-37913647D01*
X170708467Y-37913647D01*
X170579569Y-38017284D01*
X170564176Y-38029660D01*
X170441207Y-38176208D01*
X170349045Y-38343850D01*
X170347184Y-38349717D01*
X170347183Y-38349719D01*
X170317875Y-38442109D01*
X170291200Y-38526201D01*
X170269876Y-38716314D01*
X170285884Y-38906948D01*
X170292635Y-38930491D01*
X170332387Y-39069126D01*
X170338614Y-39090843D01*
X170341433Y-39096328D01*
X170423242Y-39255511D01*
X170423245Y-39255516D01*
X170426060Y-39260993D01*
X170544889Y-39410918D01*
X170549583Y-39414913D01*
X170583334Y-39443637D01*
X170690575Y-39534907D01*
X170695953Y-39537913D01*
X170695955Y-39537914D01*
X170772060Y-39580447D01*
X170857570Y-39628237D01*
X171039512Y-39687354D01*
X171229472Y-39710005D01*
X171235607Y-39709533D01*
X171235609Y-39709533D01*
X171414071Y-39695801D01*
X171414075Y-39695800D01*
X171420213Y-39695328D01*
X171604472Y-39643882D01*
X171775228Y-39557627D01*
X171788627Y-39547159D01*
X171924721Y-39440831D01*
X171990715Y-39414654D01*
X172060386Y-39428312D01*
X172083955Y-39444166D01*
X172190575Y-39534907D01*
X172195953Y-39537913D01*
X172195955Y-39537914D01*
X172272060Y-39580447D01*
X172357570Y-39628237D01*
X172363431Y-39630141D01*
X172369079Y-39632609D01*
X172368490Y-39633957D01*
X172421041Y-39669890D01*
X172448679Y-39735287D01*
X172449500Y-39749651D01*
X172449500Y-40249979D01*
X172429498Y-40318100D01*
X172381877Y-40361640D01*
X172213268Y-40449787D01*
X172208472Y-40453643D01*
X172208460Y-40453651D01*
X172078186Y-40558395D01*
X172012564Y-40585492D01*
X171942709Y-40572809D01*
X171918919Y-40557284D01*
X171802879Y-40461288D01*
X171798132Y-40457361D01*
X171729124Y-40420048D01*
X171635276Y-40369304D01*
X171635273Y-40369303D01*
X171629851Y-40366371D01*
X171516751Y-40331361D01*
X171452988Y-40311623D01*
X171452985Y-40311622D01*
X171447101Y-40309801D01*
X171440976Y-40309157D01*
X171440975Y-40309157D01*
X171262971Y-40290448D01*
X171262970Y-40290448D01*
X171256843Y-40289804D01*
X171139867Y-40300449D01*
X171072466Y-40306583D01*
X171072465Y-40306583D01*
X171066325Y-40307142D01*
X170882803Y-40361156D01*
X170877338Y-40364013D01*
X170718728Y-40446932D01*
X170718724Y-40446935D01*
X170713268Y-40449787D01*
X170708468Y-40453647D01*
X170708467Y-40453647D01*
X170611629Y-40531507D01*
X170564176Y-40569660D01*
X170441207Y-40716208D01*
X170438237Y-40721611D01*
X170438236Y-40721612D01*
X170387512Y-40813878D01*
X170349045Y-40883850D01*
X170347184Y-40889717D01*
X170347183Y-40889719D01*
X170301635Y-41033305D01*
X170291200Y-41066201D01*
X170269876Y-41256314D01*
X170270392Y-41262458D01*
X170285124Y-41437894D01*
X170285884Y-41446948D01*
X170294611Y-41477384D01*
X170334965Y-41618116D01*
X170338614Y-41630843D01*
X170341433Y-41636328D01*
X170423242Y-41795511D01*
X170423245Y-41795516D01*
X170426060Y-41800993D01*
X170544889Y-41950918D01*
X170549583Y-41954913D01*
X170663385Y-42051766D01*
X170690575Y-42074907D01*
X170857570Y-42168237D01*
X171039512Y-42227354D01*
X171229472Y-42250005D01*
X171235607Y-42249533D01*
X171235609Y-42249533D01*
X171414071Y-42235801D01*
X171414075Y-42235800D01*
X171420213Y-42235328D01*
X171604472Y-42183882D01*
X171775228Y-42097627D01*
X171804309Y-42074907D01*
X171924721Y-41980831D01*
X171990715Y-41954654D01*
X172060386Y-41968312D01*
X172083955Y-41984166D01*
X172190575Y-42074907D01*
X172357570Y-42168237D01*
X172363431Y-42170141D01*
X172369079Y-42172609D01*
X172368490Y-42173957D01*
X172421041Y-42209890D01*
X172448679Y-42275287D01*
X172449500Y-42289651D01*
X172449500Y-42789979D01*
X172429498Y-42858100D01*
X172381877Y-42901640D01*
X172213268Y-42989787D01*
X172208472Y-42993643D01*
X172208460Y-42993651D01*
X172078186Y-43098395D01*
X172012564Y-43125492D01*
X171942709Y-43112809D01*
X171918919Y-43097284D01*
X171802879Y-43001288D01*
X171798132Y-42997361D01*
X171714783Y-42952294D01*
X171635276Y-42909304D01*
X171635273Y-42909303D01*
X171629851Y-42906371D01*
X171549496Y-42881497D01*
X171452988Y-42851623D01*
X171452985Y-42851622D01*
X171447101Y-42849801D01*
X171440976Y-42849157D01*
X171440975Y-42849157D01*
X171262971Y-42830448D01*
X171262970Y-42830448D01*
X171256843Y-42829804D01*
X171139867Y-42840449D01*
X171072466Y-42846583D01*
X171072465Y-42846583D01*
X171066325Y-42847142D01*
X170882803Y-42901156D01*
X170877338Y-42904013D01*
X170718728Y-42986932D01*
X170718724Y-42986935D01*
X170713268Y-42989787D01*
X170708468Y-42993647D01*
X170708467Y-42993647D01*
X170698964Y-43001288D01*
X170564176Y-43109660D01*
X170512799Y-43170888D01*
X170453692Y-43210213D01*
X170382704Y-43211339D01*
X170322376Y-43173908D01*
X170291863Y-43109803D01*
X170299871Y-43041677D01*
X170331884Y-42964391D01*
X170335044Y-42956762D01*
X170355682Y-42800000D01*
X170335044Y-42643238D01*
X170274536Y-42497159D01*
X170198174Y-42397642D01*
X170183305Y-42378264D01*
X170178282Y-42371718D01*
X170052841Y-42275464D01*
X169906762Y-42214956D01*
X169850265Y-42207518D01*
X169828381Y-42204637D01*
X169750000Y-42194318D01*
X169671619Y-42204637D01*
X169649736Y-42207518D01*
X169593238Y-42214956D01*
X169447159Y-42275464D01*
X169321718Y-42371718D01*
X169316695Y-42378264D01*
X169301826Y-42397642D01*
X169225464Y-42497159D01*
X169164956Y-42643238D01*
X169144318Y-42800000D01*
X169164956Y-42956762D01*
X169225464Y-43102841D01*
X169321718Y-43228282D01*
X169328264Y-43233305D01*
X169352482Y-43251888D01*
X169447159Y-43324536D01*
X169593238Y-43385044D01*
X169750000Y-43405682D01*
X169758188Y-43404604D01*
X169898574Y-43386122D01*
X169906762Y-43385044D01*
X170052841Y-43324536D01*
X170147518Y-43251888D01*
X170171736Y-43233305D01*
X170178282Y-43228282D01*
X170178956Y-43229160D01*
X170234494Y-43198833D01*
X170305309Y-43203898D01*
X170362145Y-43246445D01*
X170386956Y-43312965D01*
X170371692Y-43382655D01*
X170349045Y-43423850D01*
X170347184Y-43429717D01*
X170347183Y-43429719D01*
X170298168Y-43584236D01*
X170291200Y-43606201D01*
X170269876Y-43796314D01*
X170270392Y-43802458D01*
X170284842Y-43974536D01*
X170285884Y-43986948D01*
X170303149Y-44047159D01*
X170335244Y-44159090D01*
X170338614Y-44170843D01*
X170341433Y-44176328D01*
X170423242Y-44335511D01*
X170423245Y-44335516D01*
X170426060Y-44340993D01*
X170544889Y-44490918D01*
X170549583Y-44494913D01*
X170583334Y-44523637D01*
X170690575Y-44614907D01*
X170695953Y-44617913D01*
X170695955Y-44617914D01*
X170744794Y-44645209D01*
X170857570Y-44708237D01*
X171039512Y-44767354D01*
X171229472Y-44790005D01*
X171235607Y-44789533D01*
X171235609Y-44789533D01*
X171414071Y-44775801D01*
X171414075Y-44775800D01*
X171420213Y-44775328D01*
X171604472Y-44723882D01*
X171775228Y-44637627D01*
X171804309Y-44614907D01*
X171924721Y-44520831D01*
X171990715Y-44494654D01*
X172060386Y-44508312D01*
X172083955Y-44524166D01*
X172190575Y-44614907D01*
X172195953Y-44617913D01*
X172195955Y-44617914D01*
X172244794Y-44645209D01*
X172357570Y-44708237D01*
X172363431Y-44710141D01*
X172369079Y-44712609D01*
X172368490Y-44713957D01*
X172421041Y-44749890D01*
X172448679Y-44815287D01*
X172449500Y-44829651D01*
X172449500Y-45329979D01*
X172429498Y-45398100D01*
X172381877Y-45441640D01*
X172213268Y-45529787D01*
X172208472Y-45533643D01*
X172208460Y-45533651D01*
X172078186Y-45638395D01*
X172012564Y-45665492D01*
X171942709Y-45652809D01*
X171918919Y-45637284D01*
X171802879Y-45541288D01*
X171798132Y-45537361D01*
X171709584Y-45489483D01*
X171635276Y-45449304D01*
X171635273Y-45449303D01*
X171629851Y-45446371D01*
X171522824Y-45413241D01*
X171452988Y-45391623D01*
X171452985Y-45391622D01*
X171447101Y-45389801D01*
X171440976Y-45389157D01*
X171440975Y-45389157D01*
X171262971Y-45370448D01*
X171262970Y-45370448D01*
X171256843Y-45369804D01*
X171139867Y-45380449D01*
X171072466Y-45386583D01*
X171072465Y-45386583D01*
X171066325Y-45387142D01*
X170882803Y-45441156D01*
X170877338Y-45444013D01*
X170718728Y-45526932D01*
X170718724Y-45526935D01*
X170713268Y-45529787D01*
X170708468Y-45533647D01*
X170708467Y-45533647D01*
X170685933Y-45551765D01*
X170564176Y-45649660D01*
X170441207Y-45796208D01*
X170438237Y-45801611D01*
X170438236Y-45801612D01*
X170408782Y-45855188D01*
X170349045Y-45963850D01*
X170347184Y-45969717D01*
X170347183Y-45969719D01*
X170336676Y-46002841D01*
X170291200Y-46146201D01*
X170269876Y-46336314D01*
X170272834Y-46371536D01*
X170284309Y-46508188D01*
X170285884Y-46526948D01*
X170338614Y-46710843D01*
X170341433Y-46716328D01*
X170423242Y-46875511D01*
X170423245Y-46875516D01*
X170426060Y-46880993D01*
X170544889Y-47030918D01*
X170549583Y-47034913D01*
X170583334Y-47063637D01*
X170690575Y-47154907D01*
X170695953Y-47157913D01*
X170695955Y-47157914D01*
X170754446Y-47190603D01*
X170857570Y-47248237D01*
X171039512Y-47307354D01*
X171229472Y-47330005D01*
X171235607Y-47329533D01*
X171235609Y-47329533D01*
X171414071Y-47315801D01*
X171414075Y-47315800D01*
X171420213Y-47315328D01*
X171604472Y-47263882D01*
X171775228Y-47177627D01*
X171804309Y-47154907D01*
X171924721Y-47060831D01*
X171990715Y-47034654D01*
X172060386Y-47048312D01*
X172083955Y-47064166D01*
X172190575Y-47154907D01*
X172195953Y-47157913D01*
X172195955Y-47157914D01*
X172254446Y-47190603D01*
X172357570Y-47248237D01*
X172363431Y-47250141D01*
X172369079Y-47252609D01*
X172368490Y-47253957D01*
X172421041Y-47289890D01*
X172448679Y-47355287D01*
X172449500Y-47369651D01*
X172449500Y-47869979D01*
X172429498Y-47938100D01*
X172381877Y-47981640D01*
X172213268Y-48069787D01*
X172208472Y-48073643D01*
X172208460Y-48073651D01*
X172078186Y-48178395D01*
X172012564Y-48205492D01*
X171942709Y-48192809D01*
X171918919Y-48177284D01*
X171802879Y-48081288D01*
X171798132Y-48077361D01*
X171674445Y-48010483D01*
X171635276Y-47989304D01*
X171635273Y-47989303D01*
X171629851Y-47986371D01*
X171549496Y-47961497D01*
X171452988Y-47931623D01*
X171452985Y-47931622D01*
X171447101Y-47929801D01*
X171440976Y-47929157D01*
X171440975Y-47929157D01*
X171262971Y-47910448D01*
X171262970Y-47910448D01*
X171256843Y-47909804D01*
X171139867Y-47920449D01*
X171072466Y-47926583D01*
X171072465Y-47926583D01*
X171066325Y-47927142D01*
X170882803Y-47981156D01*
X170877338Y-47984013D01*
X170718728Y-48066932D01*
X170718724Y-48066935D01*
X170713268Y-48069787D01*
X170708468Y-48073647D01*
X170708467Y-48073647D01*
X170568983Y-48185795D01*
X170564176Y-48189660D01*
X170441207Y-48336208D01*
X170349045Y-48503850D01*
X170347184Y-48509717D01*
X170347183Y-48509719D01*
X170293062Y-48680331D01*
X170291200Y-48686201D01*
X170269876Y-48876314D01*
X170272009Y-48901718D01*
X170285339Y-49060455D01*
X170285884Y-49066948D01*
X170296991Y-49105682D01*
X170333816Y-49234109D01*
X170338614Y-49250843D01*
X170341433Y-49256328D01*
X170423242Y-49415511D01*
X170423245Y-49415516D01*
X170426060Y-49420993D01*
X170544889Y-49570918D01*
X170549583Y-49574913D01*
X170583334Y-49603637D01*
X170690575Y-49694907D01*
X170695953Y-49697913D01*
X170695955Y-49697914D01*
X170774072Y-49741572D01*
X170857570Y-49788237D01*
X171039512Y-49847354D01*
X171229472Y-49870005D01*
X171235607Y-49869533D01*
X171235609Y-49869533D01*
X171414071Y-49855801D01*
X171414075Y-49855800D01*
X171420213Y-49855328D01*
X171604472Y-49803882D01*
X171775228Y-49717627D01*
X171787689Y-49707892D01*
X171924721Y-49600831D01*
X171990715Y-49574654D01*
X172060386Y-49588312D01*
X172083955Y-49604166D01*
X172190575Y-49694907D01*
X172195953Y-49697913D01*
X172195955Y-49697914D01*
X172274072Y-49741572D01*
X172357570Y-49788237D01*
X172363431Y-49790141D01*
X172369079Y-49792609D01*
X172368490Y-49793957D01*
X172421041Y-49829890D01*
X172448679Y-49895287D01*
X172449500Y-49909651D01*
X172449500Y-52212683D01*
X172447586Y-52234563D01*
X172444864Y-52250000D01*
X172446583Y-52259749D01*
X172445227Y-52276977D01*
X172442858Y-52291936D01*
X172430676Y-52329430D01*
X172420458Y-52349484D01*
X172397286Y-52381376D01*
X172381376Y-52397286D01*
X172349484Y-52420458D01*
X172329430Y-52430676D01*
X172291936Y-52442858D01*
X172276977Y-52445227D01*
X172259749Y-52446583D01*
X172250000Y-52444864D01*
X172239145Y-52446778D01*
X172234563Y-52447586D01*
X172212683Y-52449500D01*
X169910060Y-52449500D01*
X169841939Y-52429498D01*
X169797257Y-52375936D01*
X169796259Y-52376467D01*
X169793727Y-52371704D01*
X169793725Y-52371702D01*
X169706446Y-52207555D01*
X169601150Y-52078449D01*
X169573596Y-52013017D01*
X169585792Y-51943076D01*
X169603412Y-51916482D01*
X169686953Y-51819699D01*
X169686958Y-51819692D01*
X169690982Y-51815030D01*
X169785476Y-51648691D01*
X169845861Y-51467166D01*
X169853974Y-51402948D01*
X169869396Y-51280872D01*
X169869397Y-51280863D01*
X169869838Y-51277369D01*
X169870220Y-51250000D01*
X169851552Y-51059608D01*
X169796259Y-50876467D01*
X169706446Y-50707555D01*
X169661248Y-50652137D01*
X169589430Y-50564078D01*
X169589427Y-50564075D01*
X169585535Y-50559303D01*
X169544868Y-50525660D01*
X169442879Y-50441288D01*
X169438132Y-50437361D01*
X169374463Y-50402935D01*
X169275276Y-50349304D01*
X169275273Y-50349303D01*
X169269851Y-50346371D01*
X169175472Y-50317156D01*
X169092988Y-50291623D01*
X169092985Y-50291622D01*
X169087101Y-50289801D01*
X169080976Y-50289157D01*
X169080975Y-50289157D01*
X168902971Y-50270448D01*
X168902970Y-50270448D01*
X168896843Y-50269804D01*
X168779867Y-50280449D01*
X168712466Y-50286583D01*
X168712465Y-50286583D01*
X168706325Y-50287142D01*
X168522803Y-50341156D01*
X168517338Y-50344013D01*
X168358728Y-50426932D01*
X168358724Y-50426935D01*
X168353268Y-50429787D01*
X168348468Y-50433647D01*
X168348467Y-50433647D01*
X168216094Y-50540078D01*
X168204176Y-50549660D01*
X168081207Y-50696208D01*
X167989045Y-50863850D01*
X167987184Y-50869717D01*
X167987183Y-50869719D01*
X167934560Y-51035608D01*
X167931200Y-51046201D01*
X167909876Y-51236314D01*
X167910392Y-51242458D01*
X167923869Y-51402948D01*
X167925884Y-51426948D01*
X167935661Y-51461046D01*
X167970033Y-51580916D01*
X167978614Y-51610843D01*
X167981433Y-51616328D01*
X168063242Y-51775511D01*
X168063245Y-51775516D01*
X168066060Y-51780993D01*
X168069889Y-51785824D01*
X168178825Y-51923267D01*
X168205463Y-51989077D01*
X168192292Y-52058842D01*
X168176606Y-52082517D01*
X168081207Y-52196208D01*
X167989045Y-52363850D01*
X167987181Y-52369727D01*
X167985720Y-52373135D01*
X167940501Y-52427868D01*
X167869908Y-52449500D01*
X167370060Y-52449500D01*
X167301939Y-52429498D01*
X167257257Y-52375936D01*
X167256259Y-52376467D01*
X167253727Y-52371704D01*
X167253725Y-52371702D01*
X167166446Y-52207555D01*
X167061150Y-52078449D01*
X167033596Y-52013017D01*
X167045792Y-51943076D01*
X167063412Y-51916482D01*
X167146953Y-51819699D01*
X167146958Y-51819692D01*
X167150982Y-51815030D01*
X167245476Y-51648691D01*
X167305861Y-51467166D01*
X167313974Y-51402948D01*
X167329396Y-51280872D01*
X167329397Y-51280863D01*
X167329838Y-51277369D01*
X167330220Y-51250000D01*
X167311552Y-51059608D01*
X167256259Y-50876467D01*
X167166446Y-50707555D01*
X167121248Y-50652137D01*
X167049430Y-50564078D01*
X167049427Y-50564075D01*
X167045535Y-50559303D01*
X167004868Y-50525660D01*
X166902879Y-50441288D01*
X166898132Y-50437361D01*
X166834463Y-50402935D01*
X166735276Y-50349304D01*
X166735273Y-50349303D01*
X166729851Y-50346371D01*
X166635472Y-50317156D01*
X166552988Y-50291623D01*
X166552985Y-50291622D01*
X166547101Y-50289801D01*
X166540976Y-50289157D01*
X166540975Y-50289157D01*
X166362971Y-50270448D01*
X166362970Y-50270448D01*
X166356843Y-50269804D01*
X166239867Y-50280449D01*
X166172466Y-50286583D01*
X166172465Y-50286583D01*
X166166325Y-50287142D01*
X165982803Y-50341156D01*
X165977338Y-50344013D01*
X165818728Y-50426932D01*
X165818724Y-50426935D01*
X165813268Y-50429787D01*
X165808468Y-50433647D01*
X165808467Y-50433647D01*
X165676094Y-50540078D01*
X165664176Y-50549660D01*
X165541207Y-50696208D01*
X165449045Y-50863850D01*
X165447184Y-50869717D01*
X165447183Y-50869719D01*
X165394560Y-51035608D01*
X165391200Y-51046201D01*
X165369876Y-51236314D01*
X165370392Y-51242458D01*
X165383869Y-51402948D01*
X165385884Y-51426948D01*
X165395661Y-51461046D01*
X165430033Y-51580916D01*
X165438614Y-51610843D01*
X165441433Y-51616328D01*
X165523242Y-51775511D01*
X165523245Y-51775516D01*
X165526060Y-51780993D01*
X165529889Y-51785824D01*
X165638825Y-51923267D01*
X165665463Y-51989077D01*
X165652292Y-52058842D01*
X165636606Y-52082517D01*
X165541207Y-52196208D01*
X165449045Y-52363850D01*
X165447181Y-52369727D01*
X165445720Y-52373135D01*
X165400501Y-52427868D01*
X165329908Y-52449500D01*
X164830060Y-52449500D01*
X164761939Y-52429498D01*
X164717257Y-52375936D01*
X164716259Y-52376467D01*
X164713727Y-52371704D01*
X164713725Y-52371702D01*
X164626446Y-52207555D01*
X164521150Y-52078449D01*
X164493596Y-52013017D01*
X164505792Y-51943076D01*
X164523412Y-51916482D01*
X164606953Y-51819699D01*
X164606958Y-51819692D01*
X164610982Y-51815030D01*
X164705476Y-51648691D01*
X164765861Y-51467166D01*
X164773974Y-51402948D01*
X164789396Y-51280872D01*
X164789397Y-51280863D01*
X164789838Y-51277369D01*
X164790220Y-51250000D01*
X164771552Y-51059608D01*
X164716259Y-50876467D01*
X164626446Y-50707555D01*
X164581248Y-50652137D01*
X164509430Y-50564078D01*
X164509427Y-50564075D01*
X164505535Y-50559303D01*
X164464868Y-50525660D01*
X164362879Y-50441288D01*
X164358132Y-50437361D01*
X164294463Y-50402935D01*
X164195276Y-50349304D01*
X164195273Y-50349303D01*
X164189851Y-50346371D01*
X164095472Y-50317156D01*
X164012988Y-50291623D01*
X164012985Y-50291622D01*
X164007101Y-50289801D01*
X164000976Y-50289157D01*
X164000975Y-50289157D01*
X163822971Y-50270448D01*
X163822970Y-50270448D01*
X163816843Y-50269804D01*
X163699867Y-50280449D01*
X163632466Y-50286583D01*
X163632465Y-50286583D01*
X163626325Y-50287142D01*
X163442803Y-50341156D01*
X163437338Y-50344013D01*
X163278728Y-50426932D01*
X163278724Y-50426935D01*
X163273268Y-50429787D01*
X163268468Y-50433647D01*
X163268467Y-50433647D01*
X163136094Y-50540078D01*
X163124176Y-50549660D01*
X163001207Y-50696208D01*
X162909045Y-50863850D01*
X162907184Y-50869717D01*
X162907183Y-50869719D01*
X162854560Y-51035608D01*
X162851200Y-51046201D01*
X162829876Y-51236314D01*
X162830392Y-51242458D01*
X162843869Y-51402948D01*
X162845884Y-51426948D01*
X162855661Y-51461046D01*
X162890033Y-51580916D01*
X162898614Y-51610843D01*
X162901433Y-51616328D01*
X162983242Y-51775511D01*
X162983245Y-51775516D01*
X162986060Y-51780993D01*
X162989889Y-51785824D01*
X163098825Y-51923267D01*
X163125463Y-51989077D01*
X163112292Y-52058842D01*
X163096606Y-52082517D01*
X163001207Y-52196208D01*
X162909045Y-52363850D01*
X162907181Y-52369727D01*
X162905720Y-52373135D01*
X162860501Y-52427868D01*
X162789908Y-52449500D01*
X162290060Y-52449500D01*
X162221939Y-52429498D01*
X162177257Y-52375936D01*
X162176259Y-52376467D01*
X162173727Y-52371704D01*
X162173725Y-52371702D01*
X162086446Y-52207555D01*
X161981150Y-52078449D01*
X161953596Y-52013017D01*
X161965792Y-51943076D01*
X161983412Y-51916482D01*
X162066953Y-51819699D01*
X162066958Y-51819692D01*
X162070982Y-51815030D01*
X162165476Y-51648691D01*
X162225861Y-51467166D01*
X162233974Y-51402948D01*
X162249396Y-51280872D01*
X162249397Y-51280863D01*
X162249838Y-51277369D01*
X162250220Y-51250000D01*
X162231552Y-51059608D01*
X162176259Y-50876467D01*
X162086446Y-50707555D01*
X162041248Y-50652137D01*
X161969430Y-50564078D01*
X161969427Y-50564075D01*
X161965535Y-50559303D01*
X161924868Y-50525660D01*
X161822879Y-50441288D01*
X161818132Y-50437361D01*
X161754463Y-50402935D01*
X161655276Y-50349304D01*
X161655273Y-50349303D01*
X161649851Y-50346371D01*
X161555472Y-50317156D01*
X161472988Y-50291623D01*
X161472985Y-50291622D01*
X161467101Y-50289801D01*
X161460976Y-50289157D01*
X161460975Y-50289157D01*
X161282971Y-50270448D01*
X161282970Y-50270448D01*
X161276843Y-50269804D01*
X161159867Y-50280449D01*
X161092466Y-50286583D01*
X161092465Y-50286583D01*
X161086325Y-50287142D01*
X160902803Y-50341156D01*
X160897338Y-50344013D01*
X160738728Y-50426932D01*
X160738724Y-50426935D01*
X160733268Y-50429787D01*
X160728468Y-50433647D01*
X160728467Y-50433647D01*
X160596094Y-50540078D01*
X160584176Y-50549660D01*
X160461207Y-50696208D01*
X160369045Y-50863850D01*
X160367184Y-50869717D01*
X160367183Y-50869719D01*
X160314560Y-51035608D01*
X160311200Y-51046201D01*
X160289876Y-51236314D01*
X160290392Y-51242458D01*
X160303869Y-51402948D01*
X160305884Y-51426948D01*
X160315661Y-51461046D01*
X160350033Y-51580916D01*
X160358614Y-51610843D01*
X160361433Y-51616328D01*
X160443242Y-51775511D01*
X160443245Y-51775516D01*
X160446060Y-51780993D01*
X160449889Y-51785824D01*
X160558825Y-51923267D01*
X160585463Y-51989077D01*
X160572292Y-52058842D01*
X160556606Y-52082517D01*
X160461207Y-52196208D01*
X160369045Y-52363850D01*
X160367181Y-52369727D01*
X160365720Y-52373135D01*
X160320501Y-52427868D01*
X160249908Y-52449500D01*
X159750060Y-52449500D01*
X159681939Y-52429498D01*
X159637257Y-52375936D01*
X159636259Y-52376467D01*
X159633727Y-52371704D01*
X159633725Y-52371702D01*
X159546446Y-52207555D01*
X159441150Y-52078449D01*
X159413596Y-52013017D01*
X159425792Y-51943076D01*
X159443412Y-51916482D01*
X159526953Y-51819699D01*
X159526958Y-51819692D01*
X159530982Y-51815030D01*
X159625476Y-51648691D01*
X159685861Y-51467166D01*
X159693974Y-51402948D01*
X159709396Y-51280872D01*
X159709397Y-51280863D01*
X159709838Y-51277369D01*
X159710220Y-51250000D01*
X159691552Y-51059608D01*
X159636259Y-50876467D01*
X159546446Y-50707555D01*
X159501248Y-50652137D01*
X159429430Y-50564078D01*
X159429427Y-50564075D01*
X159425535Y-50559303D01*
X159384868Y-50525660D01*
X159282879Y-50441288D01*
X159278132Y-50437361D01*
X159214463Y-50402935D01*
X159115276Y-50349304D01*
X159115273Y-50349303D01*
X159109851Y-50346371D01*
X159015472Y-50317156D01*
X158932988Y-50291623D01*
X158932985Y-50291622D01*
X158927101Y-50289801D01*
X158920976Y-50289157D01*
X158920975Y-50289157D01*
X158742971Y-50270448D01*
X158742970Y-50270448D01*
X158736843Y-50269804D01*
X158619867Y-50280449D01*
X158552466Y-50286583D01*
X158552465Y-50286583D01*
X158546325Y-50287142D01*
X158362803Y-50341156D01*
X158357338Y-50344013D01*
X158198728Y-50426932D01*
X158198724Y-50426935D01*
X158193268Y-50429787D01*
X158188468Y-50433647D01*
X158188467Y-50433647D01*
X158056094Y-50540078D01*
X158044176Y-50549660D01*
X157921207Y-50696208D01*
X157829045Y-50863850D01*
X157827184Y-50869717D01*
X157827183Y-50869719D01*
X157774560Y-51035608D01*
X157771200Y-51046201D01*
X157749876Y-51236314D01*
X157750392Y-51242458D01*
X157763869Y-51402948D01*
X157765884Y-51426948D01*
X157775661Y-51461046D01*
X157810033Y-51580916D01*
X157818614Y-51610843D01*
X157821433Y-51616328D01*
X157903242Y-51775511D01*
X157903245Y-51775516D01*
X157906060Y-51780993D01*
X157909889Y-51785824D01*
X158018825Y-51923267D01*
X158045463Y-51989077D01*
X158032292Y-52058842D01*
X158016606Y-52082517D01*
X157921207Y-52196208D01*
X157829045Y-52363850D01*
X157827181Y-52369727D01*
X157825720Y-52373135D01*
X157780501Y-52427868D01*
X157709908Y-52449500D01*
X157219131Y-52449500D01*
X157151010Y-52429498D01*
X157104517Y-52375842D01*
X157098511Y-52359924D01*
X157098042Y-52358372D01*
X157098041Y-52358370D01*
X157096259Y-52352467D01*
X157075752Y-52313900D01*
X157009342Y-52189001D01*
X157009341Y-52188999D01*
X157006446Y-52183555D01*
X156901150Y-52054449D01*
X156873596Y-51989017D01*
X156885792Y-51919076D01*
X156903412Y-51892482D01*
X156986953Y-51795699D01*
X156986958Y-51795692D01*
X156990982Y-51791030D01*
X157085476Y-51624691D01*
X157145861Y-51443166D01*
X157166364Y-51280872D01*
X157169396Y-51256872D01*
X157169397Y-51256863D01*
X157169838Y-51253369D01*
X157170220Y-51226000D01*
X157151552Y-51035608D01*
X157096259Y-50852467D01*
X157013174Y-50696208D01*
X157009342Y-50689001D01*
X157009341Y-50688999D01*
X157006446Y-50683555D01*
X156961248Y-50628137D01*
X156889430Y-50540078D01*
X156889427Y-50540075D01*
X156885535Y-50535303D01*
X156738132Y-50413361D01*
X156614238Y-50346371D01*
X156575276Y-50325304D01*
X156575273Y-50325303D01*
X156569851Y-50322371D01*
X156470519Y-50291623D01*
X156392988Y-50267623D01*
X156392985Y-50267622D01*
X156387101Y-50265801D01*
X156380976Y-50265157D01*
X156380975Y-50265157D01*
X156202971Y-50246448D01*
X156202970Y-50246448D01*
X156196843Y-50245804D01*
X156190703Y-50246363D01*
X156184548Y-50246320D01*
X156184567Y-50243527D01*
X156126685Y-50232098D01*
X156075525Y-50182872D01*
X156059100Y-50113801D01*
X156082625Y-50046816D01*
X156108225Y-50020405D01*
X156221736Y-49933305D01*
X156228282Y-49928282D01*
X156324536Y-49802841D01*
X156385044Y-49656762D01*
X156403369Y-49517566D01*
X156419260Y-49481644D01*
X156413192Y-49468356D01*
X156630740Y-49468356D01*
X156653213Y-49517566D01*
X156663878Y-49598574D01*
X156664956Y-49606762D01*
X156725464Y-49752841D01*
X156821718Y-49878282D01*
X156947159Y-49974536D01*
X157093238Y-50035044D01*
X157250000Y-50055682D01*
X157258188Y-50054604D01*
X157398574Y-50036122D01*
X157406762Y-50035044D01*
X157552841Y-49974536D01*
X157678282Y-49878282D01*
X157774536Y-49752841D01*
X157835044Y-49606762D01*
X157836568Y-49595190D01*
X157854604Y-49458188D01*
X157855682Y-49450000D01*
X157835044Y-49293238D01*
X157774536Y-49147159D01*
X157678282Y-49021718D01*
X157552841Y-48925464D01*
X157406762Y-48864956D01*
X157250000Y-48844318D01*
X157093238Y-48864956D01*
X156947159Y-48925464D01*
X156821718Y-49021718D01*
X156725464Y-49147159D01*
X156664956Y-49293238D01*
X156657296Y-49351426D01*
X156646631Y-49432433D01*
X156630740Y-49468356D01*
X156413192Y-49468356D01*
X156396787Y-49432434D01*
X156386122Y-49351426D01*
X156385044Y-49343238D01*
X156324536Y-49197159D01*
X156228282Y-49071718D01*
X156214063Y-49060807D01*
X156166793Y-49024536D01*
X156102841Y-48975464D01*
X155973130Y-48921736D01*
X155964391Y-48918116D01*
X155956762Y-48914956D01*
X155800000Y-48894318D01*
X155643238Y-48914956D01*
X155635609Y-48918116D01*
X155626870Y-48921736D01*
X155497159Y-48975464D01*
X155433207Y-49024536D01*
X155385938Y-49060807D01*
X155371718Y-49071718D01*
X155275464Y-49197159D01*
X155214956Y-49343238D01*
X155194318Y-49500000D01*
X155214956Y-49656762D01*
X155275464Y-49802841D01*
X155371718Y-49928282D01*
X155497159Y-50024536D01*
X155643238Y-50085044D01*
X155746354Y-50098619D01*
X155811280Y-50127341D01*
X155850372Y-50186606D01*
X155851217Y-50257598D01*
X155813547Y-50317777D01*
X155788285Y-50335202D01*
X155653268Y-50405787D01*
X155504176Y-50525660D01*
X155381207Y-50672208D01*
X155378237Y-50677611D01*
X155378236Y-50677612D01*
X155368013Y-50696208D01*
X155289045Y-50839850D01*
X155287184Y-50845717D01*
X155287183Y-50845719D01*
X155283171Y-50858367D01*
X155231200Y-51022201D01*
X155209876Y-51212314D01*
X155225884Y-51402948D01*
X155278614Y-51586843D01*
X155281433Y-51592328D01*
X155363242Y-51751511D01*
X155363245Y-51751516D01*
X155366060Y-51756993D01*
X155369889Y-51761824D01*
X155478825Y-51899267D01*
X155505463Y-51965077D01*
X155492292Y-52034842D01*
X155476606Y-52058517D01*
X155381207Y-52172208D01*
X155289045Y-52339850D01*
X155287184Y-52345716D01*
X155287182Y-52345721D01*
X155282146Y-52361598D01*
X155242483Y-52420482D01*
X155177281Y-52448575D01*
X155162044Y-52449500D01*
X154670060Y-52449500D01*
X154601939Y-52429498D01*
X154557257Y-52375936D01*
X154556259Y-52376467D01*
X154553727Y-52371704D01*
X154553725Y-52371702D01*
X154466446Y-52207555D01*
X154361150Y-52078449D01*
X154333596Y-52013017D01*
X154345792Y-51943076D01*
X154363412Y-51916482D01*
X154446953Y-51819699D01*
X154446958Y-51819692D01*
X154450982Y-51815030D01*
X154545476Y-51648691D01*
X154605861Y-51467166D01*
X154613974Y-51402948D01*
X154629396Y-51280872D01*
X154629397Y-51280863D01*
X154629838Y-51277369D01*
X154630220Y-51250000D01*
X154611552Y-51059608D01*
X154556259Y-50876467D01*
X154466446Y-50707555D01*
X154421248Y-50652137D01*
X154349430Y-50564078D01*
X154349427Y-50564075D01*
X154345535Y-50559303D01*
X154304868Y-50525660D01*
X154202879Y-50441288D01*
X154198132Y-50437361D01*
X154134463Y-50402935D01*
X154035276Y-50349304D01*
X154035273Y-50349303D01*
X154029851Y-50346371D01*
X153935472Y-50317156D01*
X153852988Y-50291623D01*
X153852985Y-50291622D01*
X153847101Y-50289801D01*
X153840976Y-50289157D01*
X153840975Y-50289157D01*
X153662971Y-50270448D01*
X153662970Y-50270448D01*
X153656843Y-50269804D01*
X153539867Y-50280449D01*
X153472466Y-50286583D01*
X153472465Y-50286583D01*
X153466325Y-50287142D01*
X153282803Y-50341156D01*
X153277338Y-50344013D01*
X153118728Y-50426932D01*
X153118724Y-50426935D01*
X153113268Y-50429787D01*
X153108468Y-50433647D01*
X153108467Y-50433647D01*
X152976094Y-50540078D01*
X152964176Y-50549660D01*
X152841207Y-50696208D01*
X152749045Y-50863850D01*
X152747184Y-50869717D01*
X152747183Y-50869719D01*
X152694560Y-51035608D01*
X152691200Y-51046201D01*
X152669876Y-51236314D01*
X152670392Y-51242458D01*
X152683869Y-51402948D01*
X152685884Y-51426948D01*
X152695661Y-51461046D01*
X152730033Y-51580916D01*
X152738614Y-51610843D01*
X152741433Y-51616328D01*
X152823242Y-51775511D01*
X152823245Y-51775516D01*
X152826060Y-51780993D01*
X152829889Y-51785824D01*
X152938825Y-51923267D01*
X152965463Y-51989077D01*
X152952292Y-52058842D01*
X152936606Y-52082517D01*
X152841207Y-52196208D01*
X152749045Y-52363850D01*
X152747181Y-52369727D01*
X152745720Y-52373135D01*
X152700501Y-52427868D01*
X152629908Y-52449500D01*
X152130060Y-52449500D01*
X152061939Y-52429498D01*
X152017257Y-52375936D01*
X152016259Y-52376467D01*
X152013727Y-52371704D01*
X152013725Y-52371702D01*
X151926446Y-52207555D01*
X151821150Y-52078449D01*
X151793596Y-52013017D01*
X151805792Y-51943076D01*
X151823412Y-51916482D01*
X151906953Y-51819699D01*
X151906958Y-51819692D01*
X151910982Y-51815030D01*
X152005476Y-51648691D01*
X152065861Y-51467166D01*
X152073974Y-51402948D01*
X152089396Y-51280872D01*
X152089397Y-51280863D01*
X152089838Y-51277369D01*
X152090220Y-51250000D01*
X152073009Y-51074471D01*
X152086268Y-51004724D01*
X152109313Y-50973081D01*
X154788529Y-48293865D01*
X161009683Y-48293865D01*
X161030321Y-48450627D01*
X161090829Y-48596706D01*
X161142765Y-48664391D01*
X161165260Y-48693706D01*
X161187083Y-48722147D01*
X161312524Y-48818401D01*
X161458603Y-48878909D01*
X161615365Y-48899547D01*
X161623553Y-48898469D01*
X161763939Y-48879987D01*
X161772127Y-48878909D01*
X161918206Y-48818401D01*
X161952811Y-48791848D01*
X162019030Y-48766247D01*
X162088579Y-48780511D01*
X162139375Y-48830112D01*
X162154437Y-48875363D01*
X162157479Y-48898469D01*
X162164956Y-48955262D01*
X162225464Y-49101341D01*
X162321718Y-49226782D01*
X162447159Y-49323036D01*
X162593238Y-49383544D01*
X162750000Y-49404182D01*
X162758188Y-49403104D01*
X162793159Y-49398500D01*
X166144318Y-49398500D01*
X166164956Y-49555262D01*
X166225464Y-49701341D01*
X166321718Y-49826782D01*
X166447159Y-49923036D01*
X166593238Y-49983544D01*
X166750000Y-50004182D01*
X166758188Y-50003104D01*
X166898574Y-49984622D01*
X166906762Y-49983544D01*
X167052841Y-49923036D01*
X167178282Y-49826782D01*
X167274536Y-49701341D01*
X167335044Y-49555262D01*
X167355682Y-49398500D01*
X167342902Y-49301426D01*
X167336122Y-49249926D01*
X167335044Y-49241738D01*
X167274536Y-49095659D01*
X167178282Y-48970218D01*
X167052841Y-48873964D01*
X166906762Y-48813456D01*
X166884241Y-48810491D01*
X166758188Y-48793896D01*
X166750000Y-48792818D01*
X166741812Y-48793896D01*
X166615760Y-48810491D01*
X166593238Y-48813456D01*
X166447159Y-48873964D01*
X166321718Y-48970218D01*
X166225464Y-49095659D01*
X166164956Y-49241738D01*
X166163878Y-49249926D01*
X166157098Y-49301426D01*
X166144318Y-49398500D01*
X162793159Y-49398500D01*
X162898574Y-49384622D01*
X162906762Y-49383544D01*
X163052841Y-49323036D01*
X163178282Y-49226782D01*
X163274536Y-49101341D01*
X163335044Y-48955262D01*
X163355682Y-48798500D01*
X163349437Y-48751063D01*
X164646178Y-48751063D01*
X164647256Y-48759251D01*
X164662668Y-48876314D01*
X164666816Y-48907825D01*
X164727324Y-49053904D01*
X164823578Y-49179345D01*
X164949019Y-49275599D01*
X165095098Y-49336107D01*
X165251860Y-49356745D01*
X165260048Y-49355667D01*
X165400434Y-49337185D01*
X165408622Y-49336107D01*
X165554701Y-49275599D01*
X165680142Y-49179345D01*
X165776396Y-49053904D01*
X165836904Y-48907825D01*
X165841053Y-48876314D01*
X165856464Y-48759251D01*
X165857542Y-48751063D01*
X165836904Y-48594301D01*
X165797843Y-48500000D01*
X168544318Y-48500000D01*
X168564956Y-48656762D01*
X168625464Y-48802841D01*
X168681112Y-48875363D01*
X168697481Y-48896695D01*
X168721718Y-48928282D01*
X168847159Y-49024536D01*
X168993238Y-49085044D01*
X169150000Y-49105682D01*
X169158188Y-49104604D01*
X169298574Y-49086122D01*
X169306762Y-49085044D01*
X169452841Y-49024536D01*
X169578282Y-48928282D01*
X169602520Y-48896695D01*
X169618888Y-48875363D01*
X169674536Y-48802841D01*
X169735044Y-48656762D01*
X169755682Y-48500000D01*
X169735044Y-48343238D01*
X169674536Y-48197159D01*
X169582108Y-48076704D01*
X169556508Y-48010483D01*
X169570773Y-47940935D01*
X169582108Y-47923296D01*
X169623039Y-47869953D01*
X169674536Y-47802841D01*
X169735044Y-47656762D01*
X169755682Y-47500000D01*
X169735044Y-47343238D01*
X169674536Y-47197159D01*
X169669508Y-47190606D01*
X169669506Y-47190603D01*
X169604242Y-47105549D01*
X169578641Y-47039329D01*
X169592906Y-46969780D01*
X169617475Y-46940734D01*
X169615891Y-46939150D01*
X169621736Y-46933305D01*
X169628282Y-46928282D01*
X169724536Y-46802841D01*
X169785044Y-46656762D01*
X169805682Y-46500000D01*
X169789073Y-46373845D01*
X169786122Y-46351426D01*
X169785044Y-46343238D01*
X169724536Y-46197159D01*
X169651729Y-46102275D01*
X169633305Y-46078264D01*
X169628282Y-46071718D01*
X169502841Y-45975464D01*
X169356762Y-45914956D01*
X169200000Y-45894318D01*
X169043238Y-45914956D01*
X168897159Y-45975464D01*
X168771718Y-46071718D01*
X168766695Y-46078264D01*
X168748271Y-46102275D01*
X168675464Y-46197159D01*
X168614956Y-46343238D01*
X168613878Y-46351426D01*
X168610927Y-46373845D01*
X168594318Y-46500000D01*
X168614956Y-46656762D01*
X168675464Y-46802841D01*
X168680491Y-46809392D01*
X168680494Y-46809397D01*
X168745758Y-46894451D01*
X168771359Y-46960671D01*
X168757094Y-47030220D01*
X168732525Y-47059266D01*
X168734109Y-47060850D01*
X168728264Y-47066695D01*
X168721718Y-47071718D01*
X168625464Y-47197159D01*
X168564956Y-47343238D01*
X168544318Y-47500000D01*
X168564956Y-47656762D01*
X168625464Y-47802841D01*
X168676961Y-47869953D01*
X168717892Y-47923296D01*
X168743492Y-47989517D01*
X168729227Y-48059065D01*
X168717892Y-48076704D01*
X168625464Y-48197159D01*
X168564956Y-48343238D01*
X168544318Y-48500000D01*
X165797843Y-48500000D01*
X165776396Y-48448222D01*
X165695485Y-48342776D01*
X165685165Y-48329327D01*
X165680142Y-48322781D01*
X165673596Y-48317758D01*
X165673592Y-48317754D01*
X165576240Y-48243053D01*
X165534373Y-48185715D01*
X165530151Y-48114844D01*
X165564915Y-48052942D01*
X165576240Y-48043128D01*
X165652584Y-47984548D01*
X165682219Y-47961808D01*
X165689826Y-47955971D01*
X165696372Y-47950948D01*
X165703801Y-47941267D01*
X165756852Y-47872129D01*
X165792626Y-47825507D01*
X165853134Y-47679428D01*
X165873772Y-47522666D01*
X165853134Y-47365904D01*
X165792626Y-47219825D01*
X165696372Y-47094384D01*
X165570931Y-46998130D01*
X165424852Y-46937622D01*
X165268090Y-46916984D01*
X165111328Y-46937622D01*
X164965249Y-46998130D01*
X164839808Y-47094384D01*
X164743554Y-47219825D01*
X164683046Y-47365904D01*
X164662408Y-47522666D01*
X164683046Y-47679428D01*
X164743554Y-47825507D01*
X164779328Y-47872129D01*
X164832380Y-47941267D01*
X164839808Y-47950948D01*
X164846354Y-47955971D01*
X164846358Y-47955975D01*
X164943710Y-48030676D01*
X164985577Y-48088014D01*
X164989799Y-48158885D01*
X164955035Y-48220787D01*
X164943713Y-48230599D01*
X164823578Y-48322781D01*
X164818555Y-48329327D01*
X164808235Y-48342776D01*
X164727324Y-48448222D01*
X164666816Y-48594301D01*
X164646178Y-48751063D01*
X163349437Y-48751063D01*
X163335044Y-48641738D01*
X163274536Y-48495659D01*
X163178282Y-48370218D01*
X163052841Y-48273964D01*
X162906762Y-48213456D01*
X162750000Y-48192818D01*
X162593238Y-48213456D01*
X162447159Y-48273964D01*
X162412554Y-48300517D01*
X162346335Y-48326118D01*
X162276786Y-48311854D01*
X162225990Y-48262253D01*
X162210928Y-48217002D01*
X162201487Y-48145291D01*
X162200409Y-48137103D01*
X162139901Y-47991024D01*
X162043647Y-47865583D01*
X161918206Y-47769329D01*
X161772127Y-47708821D01*
X161615365Y-47688183D01*
X161458603Y-47708821D01*
X161312524Y-47769329D01*
X161187083Y-47865583D01*
X161090829Y-47991024D01*
X161030321Y-48137103D01*
X161009683Y-48293865D01*
X154788529Y-48293865D01*
X155448528Y-47633866D01*
X155459423Y-47612483D01*
X155469747Y-47595637D01*
X155478020Y-47584250D01*
X155483849Y-47576227D01*
X155486913Y-47566796D01*
X155486915Y-47566793D01*
X155491264Y-47553409D01*
X155498828Y-47535148D01*
X155505216Y-47522610D01*
X155505216Y-47522609D01*
X155509719Y-47513772D01*
X155513472Y-47490075D01*
X155518086Y-47470856D01*
X155525500Y-47448039D01*
X155525500Y-46950000D01*
X158694318Y-46950000D01*
X158695396Y-46958188D01*
X158709279Y-47063637D01*
X158714956Y-47106762D01*
X158775464Y-47252841D01*
X158834312Y-47329533D01*
X158864336Y-47368661D01*
X158871718Y-47378282D01*
X158997159Y-47474536D01*
X159143238Y-47535044D01*
X159300000Y-47555682D01*
X159308188Y-47554604D01*
X159448574Y-47536122D01*
X159456762Y-47535044D01*
X159602841Y-47474536D01*
X159728282Y-47378282D01*
X159735665Y-47368661D01*
X159765688Y-47329533D01*
X159824536Y-47252841D01*
X159885044Y-47106762D01*
X159890722Y-47063637D01*
X159904604Y-46958188D01*
X159905682Y-46950000D01*
X159885044Y-46793238D01*
X159824536Y-46647159D01*
X159728282Y-46521718D01*
X159699979Y-46500000D01*
X159673398Y-46479604D01*
X159602841Y-46425464D01*
X159475053Y-46372532D01*
X159464391Y-46368116D01*
X159456762Y-46364956D01*
X159300000Y-46344318D01*
X159143238Y-46364956D01*
X159135609Y-46368116D01*
X159124947Y-46372532D01*
X158997159Y-46425464D01*
X158926602Y-46479604D01*
X158900022Y-46500000D01*
X158871718Y-46521718D01*
X158775464Y-46647159D01*
X158714956Y-46793238D01*
X158694318Y-46950000D01*
X155525500Y-46950000D01*
X155525500Y-45497671D01*
X160713145Y-45497671D01*
X160733783Y-45654433D01*
X160794291Y-45800512D01*
X160853516Y-45877696D01*
X160881280Y-45913878D01*
X160890545Y-45925953D01*
X160897091Y-45930976D01*
X160903838Y-45936153D01*
X161015986Y-46022207D01*
X161162065Y-46082715D01*
X161318827Y-46103353D01*
X161327015Y-46102275D01*
X161467401Y-46083793D01*
X161475589Y-46082715D01*
X161621668Y-46022207D01*
X161733816Y-45936153D01*
X161740563Y-45930976D01*
X161747109Y-45925953D01*
X161756375Y-45913878D01*
X161784138Y-45877696D01*
X161807692Y-45847000D01*
X162309918Y-45847000D01*
X162310996Y-45855188D01*
X162326831Y-45975464D01*
X162330556Y-46003762D01*
X162391064Y-46149841D01*
X162487318Y-46275282D01*
X162612759Y-46371536D01*
X162668221Y-46394509D01*
X162742953Y-46425464D01*
X162758838Y-46432044D01*
X162915600Y-46452682D01*
X162923788Y-46451604D01*
X163064174Y-46433122D01*
X163072362Y-46432044D01*
X163088248Y-46425464D01*
X163162979Y-46394509D01*
X163218441Y-46371536D01*
X163343882Y-46275282D01*
X163440136Y-46149841D01*
X163500644Y-46003762D01*
X163504370Y-45975464D01*
X163520204Y-45855188D01*
X163521282Y-45847000D01*
X163500644Y-45690238D01*
X163440136Y-45544159D01*
X163365101Y-45446371D01*
X163348905Y-45425264D01*
X163343882Y-45418718D01*
X163218441Y-45322464D01*
X163072362Y-45261956D01*
X163049712Y-45258974D01*
X162923788Y-45242396D01*
X162915600Y-45241318D01*
X162907412Y-45242396D01*
X162907411Y-45242396D01*
X162894027Y-45244158D01*
X162823878Y-45233218D01*
X162780452Y-45194675D01*
X162768198Y-45234642D01*
X162711237Y-45281673D01*
X162612759Y-45322464D01*
X162487318Y-45418718D01*
X162482295Y-45425264D01*
X162466099Y-45446371D01*
X162391064Y-45544159D01*
X162330556Y-45690238D01*
X162309918Y-45847000D01*
X161807692Y-45847000D01*
X161843363Y-45800512D01*
X161903871Y-45654433D01*
X161924509Y-45497671D01*
X161903871Y-45340909D01*
X161843363Y-45194830D01*
X161747109Y-45069389D01*
X161621668Y-44973135D01*
X161475589Y-44912627D01*
X161318827Y-44891989D01*
X161162065Y-44912627D01*
X161015986Y-44973135D01*
X160890545Y-45069389D01*
X160794291Y-45194830D01*
X160733783Y-45340909D01*
X160713145Y-45497671D01*
X155525500Y-45497671D01*
X155525500Y-45274679D01*
X155545502Y-45206558D01*
X155551538Y-45197975D01*
X155619506Y-45109397D01*
X155619508Y-45109394D01*
X155624536Y-45102841D01*
X155685044Y-44956762D01*
X155705682Y-44800000D01*
X155685044Y-44643238D01*
X155667918Y-44601891D01*
X155631535Y-44514056D01*
X155623946Y-44443466D01*
X155655725Y-44379979D01*
X155707340Y-44348939D01*
X155706762Y-44347544D01*
X155760413Y-44325321D01*
X155852841Y-44287036D01*
X155947953Y-44214054D01*
X155971736Y-44195805D01*
X155978282Y-44190782D01*
X156074536Y-44065341D01*
X156135044Y-43919262D01*
X156145990Y-43836122D01*
X156150696Y-43800374D01*
X156179418Y-43735446D01*
X156186523Y-43727725D01*
X156296058Y-43618190D01*
X156358370Y-43584164D01*
X156429185Y-43589229D01*
X156485116Y-43630581D01*
X156521718Y-43678282D01*
X156647159Y-43774536D01*
X156793238Y-43835044D01*
X156950000Y-43855682D01*
X156958188Y-43854604D01*
X156997854Y-43849382D01*
X157106762Y-43835044D01*
X157252841Y-43774536D01*
X157377401Y-43678958D01*
X157443622Y-43653358D01*
X157513170Y-43667623D01*
X157530809Y-43678958D01*
X157647159Y-43768236D01*
X157793238Y-43828744D01*
X157801426Y-43829822D01*
X157849280Y-43836122D01*
X157950000Y-43849382D01*
X157958188Y-43848304D01*
X158098574Y-43829822D01*
X158106762Y-43828744D01*
X158252841Y-43768236D01*
X158378282Y-43671982D01*
X158474536Y-43546541D01*
X158535044Y-43400462D01*
X158555682Y-43243700D01*
X158549000Y-43192946D01*
X158559939Y-43122798D01*
X158607067Y-43069699D01*
X158673922Y-43050500D01*
X160820282Y-43050500D01*
X160888403Y-43070502D01*
X160934896Y-43124158D01*
X160945000Y-43194432D01*
X160915506Y-43259012D01*
X160896986Y-43276463D01*
X160841134Y-43319320D01*
X160821718Y-43334218D01*
X160725464Y-43459659D01*
X160664956Y-43605738D01*
X160644318Y-43762500D01*
X160664956Y-43919262D01*
X160725464Y-44065341D01*
X160821718Y-44190782D01*
X160828264Y-44195805D01*
X160852047Y-44214054D01*
X160947159Y-44287036D01*
X161039587Y-44325321D01*
X161077423Y-44340993D01*
X161093238Y-44347544D01*
X161250000Y-44368182D01*
X161258188Y-44367104D01*
X161398574Y-44348622D01*
X161406762Y-44347544D01*
X161422578Y-44340993D01*
X161460413Y-44325321D01*
X161552841Y-44287036D01*
X161647953Y-44214054D01*
X161671736Y-44195805D01*
X161678282Y-44190782D01*
X161774536Y-44065341D01*
X161835044Y-43919262D01*
X161855682Y-43762500D01*
X161835044Y-43605738D01*
X161774536Y-43459659D01*
X161678282Y-43334218D01*
X161658867Y-43319320D01*
X161640385Y-43305139D01*
X161552841Y-43237964D01*
X161406762Y-43177456D01*
X161322103Y-43166310D01*
X161257176Y-43137589D01*
X161218084Y-43078324D01*
X161217239Y-43007333D01*
X161249454Y-42952294D01*
X161960204Y-42241544D01*
X162022516Y-42207518D01*
X162093331Y-42212583D01*
X162149262Y-42253936D01*
X162191692Y-42309233D01*
X162191695Y-42309236D01*
X162196718Y-42315782D01*
X162322159Y-42412036D01*
X162329789Y-42415197D01*
X162330973Y-42415880D01*
X162379967Y-42467262D01*
X162393404Y-42536976D01*
X162367018Y-42602887D01*
X162330973Y-42634120D01*
X162329789Y-42634803D01*
X162322159Y-42637964D01*
X162196718Y-42734218D01*
X162100464Y-42859659D01*
X162039956Y-43005738D01*
X162019318Y-43162500D01*
X162020396Y-43170688D01*
X162035526Y-43285609D01*
X162039956Y-43319262D01*
X162100464Y-43465341D01*
X162196718Y-43590782D01*
X162203264Y-43595805D01*
X162216209Y-43605738D01*
X162322159Y-43687036D01*
X162329789Y-43690197D01*
X162330973Y-43690880D01*
X162379967Y-43742262D01*
X162393404Y-43811976D01*
X162367018Y-43877887D01*
X162330973Y-43909120D01*
X162329789Y-43909803D01*
X162322159Y-43912964D01*
X162261799Y-43959280D01*
X162211978Y-43997509D01*
X162196718Y-44009218D01*
X162100464Y-44134659D01*
X162039956Y-44280738D01*
X162019318Y-44437500D01*
X162039956Y-44594262D01*
X162100464Y-44740341D01*
X162196718Y-44865782D01*
X162322159Y-44962036D01*
X162468238Y-45022544D01*
X162625000Y-45043182D01*
X162633188Y-45042104D01*
X162633189Y-45042104D01*
X162646573Y-45040342D01*
X162716722Y-45051282D01*
X162760148Y-45089825D01*
X162772402Y-45049858D01*
X162829363Y-45002827D01*
X162888909Y-44978162D01*
X162927841Y-44962036D01*
X163053282Y-44865782D01*
X163149536Y-44740341D01*
X163152697Y-44732711D01*
X163153380Y-44731527D01*
X163204762Y-44682533D01*
X163274476Y-44669096D01*
X163340387Y-44695482D01*
X163371620Y-44731527D01*
X163372303Y-44732711D01*
X163375464Y-44740341D01*
X163471718Y-44865782D01*
X163597159Y-44962036D01*
X163743238Y-45022544D01*
X163900000Y-45043182D01*
X163908188Y-45042104D01*
X163919590Y-45040603D01*
X163932054Y-45038962D01*
X164002202Y-45049901D01*
X164055301Y-45097029D01*
X164074500Y-45163884D01*
X164074500Y-45225321D01*
X164054498Y-45293442D01*
X164048462Y-45302025D01*
X163980494Y-45390603D01*
X163980492Y-45390606D01*
X163975464Y-45397159D01*
X163914956Y-45543238D01*
X163894318Y-45700000D01*
X163914956Y-45856762D01*
X163975464Y-46002841D01*
X164071718Y-46128282D01*
X164197159Y-46224536D01*
X164343238Y-46285044D01*
X164500000Y-46305682D01*
X164508188Y-46304604D01*
X164648574Y-46286122D01*
X164656762Y-46285044D01*
X164802841Y-46224536D01*
X164928282Y-46128282D01*
X165024536Y-46002841D01*
X165025779Y-46003795D01*
X165070409Y-45961246D01*
X165144583Y-45948321D01*
X165192310Y-45954604D01*
X165192312Y-45954604D01*
X165200500Y-45955682D01*
X165208688Y-45954604D01*
X165349074Y-45936122D01*
X165357262Y-45935044D01*
X165503341Y-45874536D01*
X165628782Y-45778282D01*
X165725036Y-45652841D01*
X165785544Y-45506762D01*
X165806182Y-45350000D01*
X165785544Y-45193238D01*
X165725036Y-45047159D01*
X165720008Y-45040606D01*
X165720006Y-45040603D01*
X165653429Y-44953838D01*
X165627828Y-44887618D01*
X165642093Y-44818069D01*
X165653429Y-44800430D01*
X165694506Y-44746897D01*
X165694509Y-44746892D01*
X165699536Y-44740341D01*
X165760044Y-44594262D01*
X165780682Y-44437500D01*
X165762026Y-44295793D01*
X165772965Y-44225646D01*
X165820093Y-44172547D01*
X165888447Y-44153357D01*
X165903394Y-44154426D01*
X165947009Y-44160168D01*
X165955197Y-44159090D01*
X165986067Y-44155026D01*
X166103771Y-44139530D01*
X166249850Y-44079022D01*
X166375291Y-43982768D01*
X166471545Y-43857327D01*
X166532053Y-43711248D01*
X166533131Y-43703060D01*
X166548552Y-43585926D01*
X166577274Y-43520998D01*
X166625254Y-43485964D01*
X166645208Y-43477698D01*
X166645210Y-43477697D01*
X166652841Y-43474536D01*
X166778282Y-43378282D01*
X166874536Y-43252841D01*
X166935044Y-43106762D01*
X166955682Y-42950000D01*
X166942926Y-42853108D01*
X166936122Y-42801426D01*
X166935044Y-42793238D01*
X166874536Y-42647159D01*
X166869506Y-42640604D01*
X166865380Y-42633457D01*
X166866744Y-42632670D01*
X166844521Y-42575183D01*
X166860365Y-42504389D01*
X166861552Y-42502841D01*
X166866698Y-42490419D01*
X166918900Y-42364391D01*
X166922060Y-42356762D01*
X166942698Y-42200000D01*
X166922060Y-42043238D01*
X166861552Y-41897159D01*
X166765298Y-41771718D01*
X166639857Y-41675464D01*
X166493778Y-41614956D01*
X166337016Y-41594318D01*
X166180254Y-41614956D01*
X166034175Y-41675464D01*
X165948382Y-41741295D01*
X165939059Y-41748449D01*
X165872839Y-41774049D01*
X165803290Y-41759784D01*
X165752494Y-41710183D01*
X165745950Y-41696713D01*
X165699536Y-41584659D01*
X165615042Y-41474544D01*
X165608305Y-41465764D01*
X165603282Y-41459218D01*
X165526107Y-41400000D01*
X167994318Y-41400000D01*
X168014956Y-41556762D01*
X168075464Y-41702841D01*
X168171718Y-41828282D01*
X168297159Y-41924536D01*
X168443238Y-41985044D01*
X168600000Y-42005682D01*
X168608188Y-42004604D01*
X168748574Y-41986122D01*
X168756762Y-41985044D01*
X168902841Y-41924536D01*
X169028282Y-41828282D01*
X169124536Y-41702841D01*
X169185044Y-41556762D01*
X169205682Y-41400000D01*
X169190679Y-41286038D01*
X169186122Y-41251426D01*
X169185044Y-41243238D01*
X169124536Y-41097159D01*
X169028282Y-40971718D01*
X168902841Y-40875464D01*
X168756762Y-40814956D01*
X168600000Y-40794318D01*
X168443238Y-40814956D01*
X168297159Y-40875464D01*
X168171718Y-40971718D01*
X168075464Y-41097159D01*
X168014956Y-41243238D01*
X168013878Y-41251426D01*
X168009321Y-41286038D01*
X167994318Y-41400000D01*
X165526107Y-41400000D01*
X165477841Y-41362964D01*
X165331762Y-41302456D01*
X165175000Y-41281818D01*
X165067945Y-41295912D01*
X164997798Y-41284973D01*
X164944699Y-41237845D01*
X164925500Y-41170990D01*
X164925500Y-41063679D01*
X164945502Y-40995558D01*
X164951538Y-40986975D01*
X165019506Y-40898397D01*
X165019508Y-40898394D01*
X165024536Y-40891841D01*
X165085044Y-40745762D01*
X165105682Y-40589000D01*
X165089343Y-40464894D01*
X165086122Y-40440426D01*
X165085044Y-40432238D01*
X165024536Y-40286159D01*
X164954063Y-40194317D01*
X164933305Y-40167264D01*
X164928282Y-40160718D01*
X164918017Y-40152841D01*
X164861893Y-40109776D01*
X164802841Y-40064464D01*
X164656762Y-40003956D01*
X164615882Y-39998574D01*
X164508188Y-39984396D01*
X164500000Y-39983318D01*
X164491812Y-39984396D01*
X164384119Y-39998574D01*
X164343238Y-40003956D01*
X164197159Y-40064464D01*
X164138107Y-40109776D01*
X164081984Y-40152841D01*
X164071718Y-40160718D01*
X164066695Y-40167264D01*
X164045937Y-40194317D01*
X163975464Y-40286159D01*
X163914956Y-40432238D01*
X163913878Y-40440426D01*
X163910657Y-40464894D01*
X163894318Y-40589000D01*
X163914956Y-40745762D01*
X163975464Y-40891841D01*
X163980492Y-40898394D01*
X163980494Y-40898397D01*
X164048462Y-40986975D01*
X164074063Y-41053195D01*
X164074500Y-41063679D01*
X164074500Y-41161116D01*
X164054498Y-41229237D01*
X164000842Y-41275730D01*
X163932054Y-41286038D01*
X163900000Y-41281818D01*
X163743238Y-41302456D01*
X163597159Y-41362964D01*
X163471718Y-41459218D01*
X163466695Y-41465764D01*
X163459958Y-41474544D01*
X163375464Y-41584659D01*
X163372303Y-41592289D01*
X163371620Y-41593473D01*
X163320238Y-41642467D01*
X163250524Y-41655904D01*
X163184613Y-41629518D01*
X163153380Y-41593473D01*
X163152697Y-41592289D01*
X163149536Y-41584659D01*
X163065042Y-41474544D01*
X163058305Y-41465764D01*
X163053282Y-41459218D01*
X163046736Y-41454195D01*
X163046732Y-41454191D01*
X163004784Y-41422003D01*
X162962917Y-41364665D01*
X162958695Y-41293794D01*
X162993459Y-41231891D01*
X163056172Y-41198610D01*
X163065039Y-41197119D01*
X163156762Y-41185044D01*
X163302841Y-41124536D01*
X163428282Y-41028282D01*
X163438989Y-41014329D01*
X163492024Y-40945211D01*
X163524536Y-40902841D01*
X163585044Y-40756762D01*
X163605682Y-40600000D01*
X163585044Y-40443238D01*
X163524536Y-40297159D01*
X163428282Y-40171718D01*
X163413947Y-40160718D01*
X163358764Y-40118375D01*
X163302841Y-40075464D01*
X163156762Y-40014956D01*
X163000000Y-39994318D01*
X162843238Y-40014956D01*
X162697159Y-40075464D01*
X162673056Y-40093959D01*
X162654172Y-40108449D01*
X162587951Y-40134049D01*
X162518403Y-40119784D01*
X162500764Y-40108448D01*
X162449998Y-40069494D01*
X162449993Y-40069491D01*
X162443442Y-40064464D01*
X162297363Y-40003956D01*
X162256483Y-39998574D01*
X162148789Y-39984396D01*
X162140601Y-39983318D01*
X162132413Y-39984396D01*
X162024720Y-39998574D01*
X161983839Y-40003956D01*
X161837760Y-40064464D01*
X161836780Y-40065216D01*
X161770950Y-40081187D01*
X161717771Y-40065572D01*
X161716940Y-40064935D01*
X161570861Y-40004427D01*
X161414099Y-39983789D01*
X161257337Y-40004427D01*
X161111258Y-40064935D01*
X161040865Y-40118949D01*
X161003312Y-40147765D01*
X160985817Y-40161189D01*
X160889563Y-40286630D01*
X160829055Y-40432709D01*
X160827977Y-40440897D01*
X160824818Y-40464894D01*
X160808417Y-40589471D01*
X160829055Y-40746233D01*
X160889563Y-40892312D01*
X160936008Y-40952841D01*
X160979972Y-41010135D01*
X160985817Y-41017753D01*
X161111258Y-41114007D01*
X161257337Y-41174515D01*
X161414099Y-41195153D01*
X161422287Y-41194075D01*
X161494069Y-41184625D01*
X161564218Y-41195565D01*
X161617316Y-41242693D01*
X161636506Y-41311047D01*
X161615695Y-41378925D01*
X161599610Y-41398642D01*
X160835657Y-42162595D01*
X160773345Y-42196621D01*
X160746562Y-42199500D01*
X156620107Y-42199500D01*
X156597290Y-42206914D01*
X156578071Y-42211528D01*
X156554374Y-42215281D01*
X156545537Y-42219784D01*
X156545536Y-42219784D01*
X156532998Y-42226172D01*
X156514737Y-42233736D01*
X156501353Y-42238085D01*
X156501350Y-42238087D01*
X156491919Y-42241151D01*
X156474322Y-42253936D01*
X156472509Y-42255253D01*
X156455663Y-42265577D01*
X156434280Y-42276472D01*
X155584775Y-43125977D01*
X155522463Y-43160003D01*
X155512126Y-43161804D01*
X155475014Y-43166690D01*
X155393238Y-43177456D01*
X155247159Y-43237964D01*
X155159615Y-43305139D01*
X155141134Y-43319320D01*
X155121718Y-43334218D01*
X155025464Y-43459659D01*
X154964956Y-43605738D01*
X154963878Y-43613926D01*
X154949304Y-43724626D01*
X154920581Y-43789553D01*
X154913477Y-43797274D01*
X154758488Y-43952263D01*
X154758485Y-43952267D01*
X154751472Y-43959280D01*
X154740577Y-43980663D01*
X154730253Y-43997509D01*
X154716151Y-44016919D01*
X154713087Y-44026350D01*
X154713085Y-44026353D01*
X154708736Y-44039737D01*
X154701172Y-44057998D01*
X154690281Y-44079374D01*
X154688730Y-44089168D01*
X154686528Y-44103070D01*
X154681914Y-44122290D01*
X154674500Y-44145107D01*
X154674500Y-44325321D01*
X154654498Y-44393442D01*
X154648462Y-44402025D01*
X154580497Y-44490598D01*
X154580493Y-44490605D01*
X154575464Y-44497159D01*
X154514956Y-44643238D01*
X154494318Y-44800000D01*
X154514956Y-44956762D01*
X154575464Y-45102841D01*
X154580492Y-45109394D01*
X154580494Y-45109397D01*
X154648462Y-45197975D01*
X154674063Y-45264195D01*
X154674500Y-45274679D01*
X154674500Y-47152208D01*
X154654498Y-47220329D01*
X154637595Y-47241303D01*
X151576185Y-50302713D01*
X151513873Y-50336739D01*
X151449831Y-50333983D01*
X151312988Y-50291623D01*
X151312985Y-50291622D01*
X151307101Y-50289801D01*
X151300976Y-50289157D01*
X151300975Y-50289157D01*
X151122971Y-50270448D01*
X151122970Y-50270448D01*
X151116843Y-50269804D01*
X150999867Y-50280449D01*
X150932466Y-50286583D01*
X150932465Y-50286583D01*
X150926325Y-50287142D01*
X150742803Y-50341156D01*
X150737338Y-50344013D01*
X150578728Y-50426932D01*
X150578724Y-50426935D01*
X150573268Y-50429787D01*
X150568468Y-50433647D01*
X150568467Y-50433647D01*
X150436094Y-50540078D01*
X150424176Y-50549660D01*
X150301207Y-50696208D01*
X150209045Y-50863850D01*
X150207184Y-50869717D01*
X150207183Y-50869719D01*
X150154560Y-51035608D01*
X150151200Y-51046201D01*
X150129876Y-51236314D01*
X150130392Y-51242458D01*
X150143869Y-51402948D01*
X150145884Y-51426948D01*
X150155661Y-51461046D01*
X150190033Y-51580916D01*
X150198614Y-51610843D01*
X150201433Y-51616328D01*
X150283242Y-51775511D01*
X150283245Y-51775516D01*
X150286060Y-51780993D01*
X150289889Y-51785824D01*
X150398825Y-51923267D01*
X150425463Y-51989077D01*
X150412292Y-52058842D01*
X150396606Y-52082517D01*
X150301207Y-52196208D01*
X150209045Y-52363850D01*
X150207181Y-52369727D01*
X150205720Y-52373135D01*
X150160501Y-52427868D01*
X150089908Y-52449500D01*
X147787317Y-52449500D01*
X147765437Y-52447586D01*
X147760855Y-52446778D01*
X147750000Y-52444864D01*
X147740251Y-52446583D01*
X147723023Y-52445227D01*
X147708064Y-52442858D01*
X147670570Y-52430676D01*
X147650516Y-52420458D01*
X147618624Y-52397286D01*
X147602714Y-52381376D01*
X147579542Y-52349484D01*
X147569324Y-52329430D01*
X147557142Y-52291936D01*
X147554773Y-52276977D01*
X147553417Y-52259749D01*
X147555136Y-52250000D01*
X147552414Y-52234563D01*
X147550500Y-52212683D01*
X147550500Y-49908661D01*
X147570502Y-49840540D01*
X147619690Y-49796195D01*
X147769731Y-49720404D01*
X147769734Y-49720402D01*
X147775228Y-49717627D01*
X147787689Y-49707892D01*
X147924721Y-49600831D01*
X147990715Y-49574654D01*
X148060386Y-49588312D01*
X148083955Y-49604166D01*
X148190575Y-49694907D01*
X148195953Y-49697913D01*
X148195955Y-49697914D01*
X148274072Y-49741572D01*
X148357570Y-49788237D01*
X148539512Y-49847354D01*
X148729472Y-49870005D01*
X148735607Y-49869533D01*
X148735609Y-49869533D01*
X148914071Y-49855801D01*
X148914075Y-49855800D01*
X148920213Y-49855328D01*
X149104472Y-49803882D01*
X149275228Y-49717627D01*
X149287689Y-49707892D01*
X149393516Y-49625211D01*
X149425979Y-49599848D01*
X149447503Y-49574913D01*
X149546958Y-49459692D01*
X149546959Y-49459691D01*
X149550982Y-49455030D01*
X149563819Y-49432434D01*
X149614489Y-49343238D01*
X149622009Y-49330000D01*
X150274318Y-49330000D01*
X150294956Y-49486762D01*
X150355464Y-49632841D01*
X150451718Y-49758282D01*
X150577159Y-49854536D01*
X150723238Y-49915044D01*
X150731426Y-49916122D01*
X150774069Y-49921736D01*
X150880000Y-49935682D01*
X150888188Y-49934604D01*
X151028574Y-49916122D01*
X151036762Y-49915044D01*
X151182841Y-49854536D01*
X151308282Y-49758282D01*
X151404536Y-49632841D01*
X151465044Y-49486762D01*
X151485682Y-49330000D01*
X151465044Y-49173238D01*
X151404536Y-49027159D01*
X151336059Y-48937918D01*
X151313305Y-48908264D01*
X151308282Y-48901718D01*
X151182841Y-48805464D01*
X151036762Y-48744956D01*
X150880000Y-48724318D01*
X150723238Y-48744956D01*
X150577159Y-48805464D01*
X150451718Y-48901718D01*
X150446695Y-48908264D01*
X150423941Y-48937918D01*
X150355464Y-49027159D01*
X150294956Y-49173238D01*
X150274318Y-49330000D01*
X149622009Y-49330000D01*
X149645476Y-49288691D01*
X149705861Y-49107166D01*
X149712590Y-49053904D01*
X149729396Y-48920872D01*
X149729397Y-48920863D01*
X149729838Y-48917369D01*
X149730220Y-48890000D01*
X149711552Y-48699608D01*
X149656259Y-48516467D01*
X149581977Y-48376764D01*
X149569342Y-48353001D01*
X149569341Y-48352999D01*
X149566446Y-48347555D01*
X149471061Y-48230601D01*
X149449430Y-48204078D01*
X149449427Y-48204075D01*
X149445535Y-48199303D01*
X149420262Y-48178395D01*
X149302879Y-48081288D01*
X149298132Y-48077361D01*
X149174445Y-48010483D01*
X149135276Y-47989304D01*
X149135273Y-47989303D01*
X149129851Y-47986371D01*
X149049496Y-47961497D01*
X148952988Y-47931623D01*
X148952985Y-47931622D01*
X148947101Y-47929801D01*
X148940976Y-47929157D01*
X148940975Y-47929157D01*
X148762971Y-47910448D01*
X148762970Y-47910448D01*
X148756843Y-47909804D01*
X148639867Y-47920449D01*
X148572466Y-47926583D01*
X148572465Y-47926583D01*
X148566325Y-47927142D01*
X148382803Y-47981156D01*
X148377338Y-47984013D01*
X148218728Y-48066932D01*
X148218724Y-48066935D01*
X148213268Y-48069787D01*
X148208472Y-48073643D01*
X148208460Y-48073651D01*
X148078186Y-48178395D01*
X148012564Y-48205492D01*
X147942709Y-48192809D01*
X147918919Y-48177284D01*
X147802879Y-48081288D01*
X147798132Y-48077361D01*
X147652568Y-47998654D01*
X147635274Y-47989303D01*
X147635272Y-47989302D01*
X147629851Y-47986371D01*
X147626856Y-47985444D01*
X147572623Y-47941267D01*
X147550500Y-47869953D01*
X147550500Y-47368661D01*
X147570502Y-47300540D01*
X147619690Y-47256195D01*
X147769731Y-47180404D01*
X147769734Y-47180402D01*
X147775228Y-47177627D01*
X147804309Y-47154907D01*
X147924721Y-47060831D01*
X147990715Y-47034654D01*
X148060386Y-47048312D01*
X148083955Y-47064166D01*
X148190575Y-47154907D01*
X148195953Y-47157913D01*
X148195955Y-47157914D01*
X148254446Y-47190603D01*
X148357570Y-47248237D01*
X148539512Y-47307354D01*
X148729472Y-47330005D01*
X148735607Y-47329533D01*
X148735609Y-47329533D01*
X148914071Y-47315801D01*
X148914075Y-47315800D01*
X148920213Y-47315328D01*
X149104472Y-47263882D01*
X149275228Y-47177627D01*
X149304309Y-47154907D01*
X149356167Y-47114391D01*
X149425979Y-47059848D01*
X149443691Y-47039329D01*
X149546958Y-46919692D01*
X149546959Y-46919691D01*
X149550982Y-46915030D01*
X149645476Y-46748691D01*
X149705861Y-46567166D01*
X149714346Y-46500000D01*
X149729396Y-46380872D01*
X149729397Y-46380863D01*
X149729838Y-46377369D01*
X149730220Y-46350000D01*
X149711552Y-46159608D01*
X149656259Y-45976467D01*
X149641293Y-45948321D01*
X149602307Y-45875000D01*
X152294318Y-45875000D01*
X152314956Y-46031762D01*
X152375464Y-46177841D01*
X152390287Y-46197159D01*
X152457724Y-46285044D01*
X152471718Y-46303282D01*
X152597159Y-46399536D01*
X152743238Y-46460044D01*
X152900000Y-46480682D01*
X152908188Y-46479604D01*
X153048574Y-46461122D01*
X153056762Y-46460044D01*
X153202841Y-46399536D01*
X153328282Y-46303282D01*
X153342277Y-46285044D01*
X153409713Y-46197159D01*
X153424536Y-46177841D01*
X153485044Y-46031762D01*
X153505682Y-45875000D01*
X153485044Y-45718238D01*
X153424536Y-45572159D01*
X153419509Y-45565607D01*
X153415379Y-45558454D01*
X153417677Y-45557127D01*
X153396822Y-45503184D01*
X153411087Y-45433635D01*
X153415384Y-45426949D01*
X153415379Y-45426946D01*
X153419509Y-45419793D01*
X153424536Y-45413241D01*
X153485044Y-45267162D01*
X153488305Y-45242396D01*
X153504604Y-45118588D01*
X153505682Y-45110400D01*
X153485044Y-44953638D01*
X153424536Y-44807559D01*
X153419506Y-44801004D01*
X153415380Y-44793857D01*
X153418325Y-44792157D01*
X153398429Y-44740639D01*
X153412718Y-44671096D01*
X153415573Y-44666654D01*
X153415380Y-44666543D01*
X153419506Y-44659396D01*
X153424536Y-44652841D01*
X153485044Y-44506762D01*
X153505682Y-44350000D01*
X153497809Y-44290196D01*
X153485139Y-44193957D01*
X153496078Y-44123808D01*
X153543207Y-44070710D01*
X153611561Y-44051520D01*
X153626504Y-44052589D01*
X153650000Y-44055682D01*
X153658188Y-44054604D01*
X153798574Y-44036122D01*
X153806762Y-44035044D01*
X153952841Y-43974536D01*
X154078282Y-43878282D01*
X154174536Y-43752841D01*
X154235044Y-43606762D01*
X154255682Y-43450000D01*
X154239580Y-43327696D01*
X154236122Y-43301426D01*
X154235044Y-43293238D01*
X154174536Y-43147159D01*
X154078282Y-43021718D01*
X153952841Y-42925464D01*
X153806762Y-42864956D01*
X153650000Y-42844318D01*
X153493238Y-42864956D01*
X153347159Y-42925464D01*
X153221718Y-43021718D01*
X153125464Y-43147159D01*
X153064956Y-43293238D01*
X153063878Y-43301426D01*
X153060420Y-43327696D01*
X153044318Y-43450000D01*
X153045396Y-43458188D01*
X153064861Y-43606043D01*
X153053922Y-43676192D01*
X153006793Y-43729290D01*
X152938439Y-43748480D01*
X152923496Y-43747411D01*
X152900000Y-43744318D01*
X152743238Y-43764956D01*
X152597159Y-43825464D01*
X152547097Y-43863878D01*
X152485590Y-43911074D01*
X152471718Y-43921718D01*
X152375464Y-44047159D01*
X152314956Y-44193238D01*
X152294318Y-44350000D01*
X152314956Y-44506762D01*
X152375464Y-44652841D01*
X152380494Y-44659396D01*
X152384620Y-44666543D01*
X152381675Y-44668243D01*
X152401571Y-44719761D01*
X152387282Y-44789304D01*
X152384427Y-44793746D01*
X152384620Y-44793857D01*
X152380494Y-44801004D01*
X152375464Y-44807559D01*
X152314956Y-44953638D01*
X152294318Y-45110400D01*
X152295396Y-45118588D01*
X152311696Y-45242396D01*
X152314956Y-45267162D01*
X152375464Y-45413241D01*
X152380491Y-45419793D01*
X152384621Y-45426946D01*
X152382323Y-45428273D01*
X152403178Y-45482216D01*
X152388913Y-45551765D01*
X152384616Y-45558451D01*
X152384621Y-45558454D01*
X152380491Y-45565607D01*
X152375464Y-45572159D01*
X152314956Y-45718238D01*
X152294318Y-45875000D01*
X149602307Y-45875000D01*
X149569342Y-45813001D01*
X149569341Y-45812999D01*
X149566446Y-45807555D01*
X149450583Y-45665492D01*
X149449430Y-45664078D01*
X149449427Y-45664075D01*
X149445535Y-45659303D01*
X149439649Y-45654433D01*
X149302879Y-45541288D01*
X149298132Y-45537361D01*
X149209584Y-45489483D01*
X149135276Y-45449304D01*
X149135273Y-45449303D01*
X149129851Y-45446371D01*
X149022824Y-45413241D01*
X148952988Y-45391623D01*
X148952985Y-45391622D01*
X148947101Y-45389801D01*
X148940976Y-45389157D01*
X148940975Y-45389157D01*
X148762971Y-45370448D01*
X148762970Y-45370448D01*
X148756843Y-45369804D01*
X148639867Y-45380449D01*
X148572466Y-45386583D01*
X148572465Y-45386583D01*
X148566325Y-45387142D01*
X148382803Y-45441156D01*
X148377338Y-45444013D01*
X148218728Y-45526932D01*
X148218724Y-45526935D01*
X148213268Y-45529787D01*
X148208472Y-45533643D01*
X148208460Y-45533651D01*
X148078186Y-45638395D01*
X148012564Y-45665492D01*
X147942709Y-45652809D01*
X147918919Y-45637284D01*
X147802879Y-45541288D01*
X147798132Y-45537361D01*
X147709584Y-45489483D01*
X147635274Y-45449303D01*
X147635272Y-45449302D01*
X147629851Y-45446371D01*
X147626856Y-45445444D01*
X147572623Y-45401267D01*
X147550500Y-45329953D01*
X147550500Y-44828661D01*
X147570502Y-44760540D01*
X147619690Y-44716195D01*
X147769731Y-44640404D01*
X147769734Y-44640402D01*
X147775228Y-44637627D01*
X147804309Y-44614907D01*
X147924721Y-44520831D01*
X147990715Y-44494654D01*
X148060386Y-44508312D01*
X148083955Y-44524166D01*
X148190575Y-44614907D01*
X148195953Y-44617913D01*
X148195955Y-44617914D01*
X148244794Y-44645209D01*
X148357570Y-44708237D01*
X148539512Y-44767354D01*
X148729472Y-44790005D01*
X148735607Y-44789533D01*
X148735609Y-44789533D01*
X148914071Y-44775801D01*
X148914075Y-44775800D01*
X148920213Y-44775328D01*
X149104472Y-44723882D01*
X149275228Y-44637627D01*
X149304309Y-44614907D01*
X149350604Y-44578737D01*
X149425979Y-44519848D01*
X149430690Y-44514391D01*
X149546958Y-44379692D01*
X149546959Y-44379691D01*
X149550982Y-44375030D01*
X149554077Y-44369583D01*
X149595994Y-44295794D01*
X149645476Y-44208691D01*
X149705861Y-44027166D01*
X149714437Y-43959280D01*
X149729396Y-43840872D01*
X149729397Y-43840863D01*
X149729838Y-43837369D01*
X149730220Y-43810000D01*
X149711552Y-43619608D01*
X149656259Y-43436467D01*
X149627646Y-43382655D01*
X149569342Y-43273001D01*
X149569341Y-43272999D01*
X149566446Y-43267555D01*
X149506809Y-43194432D01*
X149449430Y-43124078D01*
X149449427Y-43124075D01*
X149445535Y-43119303D01*
X149439598Y-43114391D01*
X149313323Y-43009928D01*
X151283266Y-43009928D01*
X151303904Y-43166690D01*
X151364412Y-43312769D01*
X151385893Y-43340764D01*
X151455154Y-43431026D01*
X151460666Y-43438210D01*
X151467212Y-43443233D01*
X151484537Y-43456527D01*
X151586107Y-43534464D01*
X151732186Y-43594972D01*
X151888948Y-43615610D01*
X151897136Y-43614532D01*
X152037522Y-43596050D01*
X152045710Y-43594972D01*
X152191789Y-43534464D01*
X152293359Y-43456527D01*
X152310684Y-43443233D01*
X152317230Y-43438210D01*
X152322743Y-43431026D01*
X152392003Y-43340764D01*
X152413484Y-43312769D01*
X152473992Y-43166690D01*
X152494630Y-43009928D01*
X152473992Y-42853166D01*
X152413484Y-42707087D01*
X152317230Y-42581646D01*
X152191789Y-42485392D01*
X152045710Y-42424884D01*
X152020166Y-42421521D01*
X151897136Y-42405324D01*
X151888948Y-42404246D01*
X151880760Y-42405324D01*
X151757731Y-42421521D01*
X151732186Y-42424884D01*
X151586107Y-42485392D01*
X151460666Y-42581646D01*
X151364412Y-42707087D01*
X151303904Y-42853166D01*
X151283266Y-43009928D01*
X149313323Y-43009928D01*
X149302879Y-43001288D01*
X149298132Y-42997361D01*
X149214783Y-42952294D01*
X149135276Y-42909304D01*
X149135273Y-42909303D01*
X149129851Y-42906371D01*
X149049496Y-42881497D01*
X148952988Y-42851623D01*
X148952985Y-42851622D01*
X148947101Y-42849801D01*
X148940976Y-42849157D01*
X148940975Y-42849157D01*
X148762971Y-42830448D01*
X148762970Y-42830448D01*
X148756843Y-42829804D01*
X148639867Y-42840449D01*
X148572466Y-42846583D01*
X148572465Y-42846583D01*
X148566325Y-42847142D01*
X148382803Y-42901156D01*
X148377338Y-42904013D01*
X148218728Y-42986932D01*
X148218724Y-42986935D01*
X148213268Y-42989787D01*
X148208472Y-42993643D01*
X148208460Y-42993651D01*
X148078186Y-43098395D01*
X148012564Y-43125492D01*
X147942709Y-43112809D01*
X147918919Y-43097284D01*
X147802879Y-43001288D01*
X147798132Y-42997361D01*
X147714783Y-42952294D01*
X147635274Y-42909303D01*
X147635272Y-42909302D01*
X147629851Y-42906371D01*
X147626856Y-42905444D01*
X147572623Y-42861267D01*
X147550500Y-42789953D01*
X147550500Y-42507673D01*
X147570502Y-42439552D01*
X147624158Y-42393059D01*
X147635998Y-42388360D01*
X147727762Y-42357210D01*
X147738274Y-42352530D01*
X147917882Y-42251944D01*
X147932132Y-42242151D01*
X147933671Y-42244390D01*
X147988267Y-42220742D01*
X148058329Y-42232226D01*
X148073745Y-42241023D01*
X148178299Y-42310884D01*
X148188409Y-42316374D01*
X148377566Y-42397642D01*
X148388499Y-42401194D01*
X148478332Y-42421521D01*
X148492405Y-42420632D01*
X148496000Y-42411233D01*
X148496000Y-42410512D01*
X149004000Y-42410512D01*
X149007966Y-42424018D01*
X149021883Y-42426011D01*
X149032817Y-42423386D01*
X149227763Y-42357210D01*
X149238272Y-42352531D01*
X149417882Y-42251944D01*
X149427375Y-42245420D01*
X149585653Y-42113782D01*
X149593782Y-42105653D01*
X149725420Y-41947375D01*
X149731944Y-41937882D01*
X149832531Y-41758272D01*
X149837210Y-41747763D01*
X149903386Y-41552817D01*
X149906017Y-41541857D01*
X149904040Y-41527992D01*
X149890474Y-41524000D01*
X149022115Y-41524000D01*
X149006876Y-41528475D01*
X149005671Y-41529865D01*
X149004000Y-41537548D01*
X149004000Y-42410512D01*
X148496000Y-42410512D01*
X148496000Y-41542115D01*
X148491525Y-41526876D01*
X148490135Y-41525671D01*
X148482452Y-41524000D01*
X147676500Y-41524000D01*
X147608379Y-41503998D01*
X147561886Y-41450342D01*
X147550500Y-41398000D01*
X147550500Y-41142000D01*
X147570502Y-41073879D01*
X147624158Y-41027386D01*
X147676500Y-41016000D01*
X148477885Y-41016000D01*
X148493124Y-41011525D01*
X148494329Y-41010135D01*
X148496000Y-41002452D01*
X148496000Y-40997885D01*
X149004000Y-40997885D01*
X149008475Y-41013124D01*
X149009865Y-41014329D01*
X149017548Y-41016000D01*
X149889485Y-41016000D01*
X149903016Y-41012027D01*
X149904185Y-41003892D01*
X149860725Y-40849794D01*
X149856603Y-40839055D01*
X149765549Y-40654417D01*
X149762842Y-40650000D01*
X150694318Y-40650000D01*
X150695396Y-40658188D01*
X150712463Y-40787822D01*
X150714956Y-40806762D01*
X150775464Y-40952841D01*
X150871718Y-41078282D01*
X150997159Y-41174536D01*
X151143238Y-41235044D01*
X151160891Y-41237368D01*
X151225818Y-41266091D01*
X151264909Y-41325356D01*
X151269366Y-41378735D01*
X151266567Y-41400000D01*
X151260500Y-41446084D01*
X151281138Y-41602846D01*
X151341646Y-41748925D01*
X151437900Y-41874366D01*
X151563341Y-41970620D01*
X151709420Y-42031128D01*
X151866182Y-42051766D01*
X151874370Y-42050688D01*
X152014756Y-42032206D01*
X152022944Y-42031128D01*
X152169023Y-41970620D01*
X152294464Y-41874366D01*
X152390718Y-41748925D01*
X152451226Y-41602846D01*
X152471864Y-41446084D01*
X152451226Y-41289322D01*
X152390718Y-41143243D01*
X152294464Y-41017802D01*
X152274460Y-41002452D01*
X152175574Y-40926575D01*
X152169023Y-40921548D01*
X152022944Y-40861040D01*
X152005291Y-40858716D01*
X151940364Y-40829993D01*
X151901273Y-40770728D01*
X151896816Y-40717349D01*
X151904604Y-40658190D01*
X151904604Y-40658188D01*
X151905682Y-40650000D01*
X151889524Y-40527269D01*
X151886122Y-40501426D01*
X151885044Y-40493238D01*
X151824536Y-40347159D01*
X151728282Y-40221718D01*
X151602841Y-40125464D01*
X151467718Y-40069494D01*
X151464391Y-40068116D01*
X151456762Y-40064956D01*
X151300000Y-40044318D01*
X151143238Y-40064956D01*
X151135609Y-40068116D01*
X151132282Y-40069494D01*
X150997159Y-40125464D01*
X150871718Y-40221718D01*
X150775464Y-40347159D01*
X150714956Y-40493238D01*
X150713878Y-40501426D01*
X150710476Y-40527269D01*
X150694318Y-40650000D01*
X149762842Y-40650000D01*
X149759538Y-40644608D01*
X149636360Y-40479651D01*
X149628671Y-40471111D01*
X149477490Y-40331361D01*
X149468365Y-40324360D01*
X149294255Y-40214505D01*
X149284008Y-40209284D01*
X149092793Y-40132997D01*
X149081767Y-40129730D01*
X149021770Y-40117797D01*
X149008894Y-40118949D01*
X149004000Y-40134102D01*
X149004000Y-40997885D01*
X148496000Y-40997885D01*
X148496000Y-40131337D01*
X148492194Y-40118375D01*
X148477278Y-40116439D01*
X148448202Y-40121435D01*
X148437082Y-40124415D01*
X148243940Y-40195669D01*
X148233562Y-40200619D01*
X148062486Y-40302399D01*
X147993716Y-40320039D01*
X147930828Y-40300676D01*
X147794255Y-40214505D01*
X147784008Y-40209284D01*
X147629810Y-40147765D01*
X147573950Y-40103944D01*
X147550500Y-40030735D01*
X147550500Y-39748661D01*
X147570502Y-39680540D01*
X147619690Y-39636195D01*
X147769731Y-39560404D01*
X147769734Y-39560402D01*
X147775228Y-39557627D01*
X147788627Y-39547159D01*
X147924721Y-39440831D01*
X147990715Y-39414654D01*
X148060386Y-39428312D01*
X148083955Y-39444166D01*
X148190575Y-39534907D01*
X148195953Y-39537913D01*
X148195955Y-39537914D01*
X148272060Y-39580447D01*
X148357570Y-39628237D01*
X148539512Y-39687354D01*
X148729472Y-39710005D01*
X148735607Y-39709533D01*
X148735609Y-39709533D01*
X148914071Y-39695801D01*
X148914075Y-39695800D01*
X148920213Y-39695328D01*
X149104472Y-39643882D01*
X149213843Y-39588635D01*
X154505683Y-39588635D01*
X154508069Y-39606762D01*
X154518776Y-39688083D01*
X154526321Y-39745397D01*
X154586829Y-39891476D01*
X154591856Y-39898027D01*
X154672311Y-40002878D01*
X154683083Y-40016917D01*
X154689629Y-40021940D01*
X154718793Y-40044318D01*
X154808524Y-40113171D01*
X154885880Y-40145213D01*
X154910220Y-40155295D01*
X154965500Y-40199844D01*
X154987921Y-40267207D01*
X154970362Y-40335999D01*
X154918400Y-40384377D01*
X154910231Y-40388108D01*
X154833120Y-40420048D01*
X154707679Y-40516302D01*
X154611425Y-40641743D01*
X154550917Y-40787822D01*
X154549839Y-40796010D01*
X154547487Y-40813878D01*
X154530279Y-40944584D01*
X154550917Y-41101346D01*
X154611425Y-41247425D01*
X154707679Y-41372866D01*
X154833120Y-41469120D01*
X154979199Y-41529628D01*
X154987387Y-41530706D01*
X155026156Y-41535810D01*
X155135961Y-41550266D01*
X155144149Y-41549188D01*
X155284535Y-41530706D01*
X155292723Y-41529628D01*
X155438802Y-41469120D01*
X155445353Y-41464093D01*
X155445357Y-41464091D01*
X155453316Y-41457984D01*
X155519537Y-41432385D01*
X155589085Y-41446651D01*
X155606722Y-41457986D01*
X155621746Y-41469514D01*
X155621749Y-41469516D01*
X155628302Y-41474544D01*
X155747699Y-41524000D01*
X155765980Y-41531572D01*
X155774381Y-41535052D01*
X155782569Y-41536130D01*
X155793340Y-41537548D01*
X155931143Y-41555690D01*
X155939331Y-41554612D01*
X155972343Y-41550266D01*
X156068946Y-41537548D01*
X156079717Y-41536130D01*
X156087905Y-41535052D01*
X156095534Y-41531892D01*
X156226356Y-41477704D01*
X156226358Y-41477703D01*
X156233984Y-41474544D01*
X156234880Y-41473857D01*
X156300666Y-41457897D01*
X156353893Y-41473525D01*
X156354804Y-41474224D01*
X156500883Y-41534732D01*
X156657645Y-41555370D01*
X156665833Y-41554292D01*
X156806219Y-41535810D01*
X156814407Y-41534732D01*
X156953609Y-41477072D01*
X156953611Y-41477072D01*
X156960486Y-41474224D01*
X156960930Y-41475296D01*
X157022237Y-41460419D01*
X157077439Y-41476627D01*
X157081287Y-41479580D01*
X157198164Y-41527992D01*
X157217811Y-41536130D01*
X157227366Y-41540088D01*
X157235554Y-41541166D01*
X157291824Y-41548574D01*
X157384128Y-41560726D01*
X157392316Y-41559648D01*
X157532702Y-41541166D01*
X157540890Y-41540088D01*
X157550446Y-41536130D01*
X157570092Y-41527992D01*
X157686969Y-41479580D01*
X157812410Y-41383326D01*
X157908664Y-41257885D01*
X157969172Y-41111806D01*
X157973586Y-41078282D01*
X157988732Y-40963232D01*
X157989810Y-40955044D01*
X157969172Y-40798282D01*
X157908664Y-40652203D01*
X157812410Y-40526762D01*
X157686969Y-40430508D01*
X157540890Y-40370000D01*
X157384128Y-40349362D01*
X157227366Y-40370000D01*
X157088164Y-40427660D01*
X157088162Y-40427660D01*
X157081287Y-40430508D01*
X157080843Y-40429436D01*
X157019536Y-40444313D01*
X156964334Y-40428105D01*
X156960486Y-40425152D01*
X156814407Y-40364644D01*
X156657645Y-40344006D01*
X156646109Y-40345525D01*
X156643282Y-40345084D01*
X156641199Y-40345084D01*
X156641199Y-40344759D01*
X156575961Y-40334586D01*
X156522862Y-40287459D01*
X156503671Y-40219105D01*
X156520353Y-40158293D01*
X156524536Y-40152841D01*
X156533444Y-40131337D01*
X156581884Y-40014391D01*
X156585044Y-40006762D01*
X156605682Y-39850000D01*
X156585044Y-39693238D01*
X156524536Y-39547159D01*
X156456059Y-39457918D01*
X156449983Y-39450000D01*
X158844318Y-39450000D01*
X158845396Y-39458188D01*
X158863648Y-39596823D01*
X158864956Y-39606762D01*
X158925464Y-39752841D01*
X158959203Y-39796811D01*
X159000017Y-39850000D01*
X159021718Y-39878282D01*
X159147159Y-39974536D01*
X159293238Y-40035044D01*
X159450000Y-40055682D01*
X159458188Y-40054604D01*
X159598574Y-40036122D01*
X159606762Y-40035044D01*
X159752841Y-39974536D01*
X159790831Y-39945385D01*
X167289703Y-39945385D01*
X167310341Y-40102147D01*
X167370849Y-40248226D01*
X167467103Y-40373667D01*
X167473649Y-40378690D01*
X167482841Y-40385743D01*
X167592544Y-40469921D01*
X167738623Y-40530429D01*
X167895385Y-40551067D01*
X167903573Y-40549989D01*
X168043959Y-40531507D01*
X168052147Y-40530429D01*
X168198226Y-40469921D01*
X168307929Y-40385743D01*
X168317121Y-40378690D01*
X168323667Y-40373667D01*
X168419921Y-40248226D01*
X168480429Y-40102147D01*
X168501067Y-39945385D01*
X168480429Y-39788623D01*
X168419921Y-39642544D01*
X168339636Y-39537914D01*
X168328690Y-39523649D01*
X168323667Y-39517103D01*
X168198226Y-39420849D01*
X168052147Y-39360341D01*
X167895385Y-39339703D01*
X167738623Y-39360341D01*
X167592544Y-39420849D01*
X167467103Y-39517103D01*
X167462080Y-39523649D01*
X167451134Y-39537914D01*
X167370849Y-39642544D01*
X167310341Y-39788623D01*
X167289703Y-39945385D01*
X159790831Y-39945385D01*
X159878282Y-39878282D01*
X159899984Y-39850000D01*
X159940797Y-39796811D01*
X159974536Y-39752841D01*
X160035044Y-39606762D01*
X160036353Y-39596823D01*
X160054604Y-39458188D01*
X160055682Y-39450000D01*
X160035044Y-39293238D01*
X159974536Y-39147159D01*
X159878282Y-39021718D01*
X159853254Y-39002513D01*
X159788750Y-38953018D01*
X159752841Y-38925464D01*
X159606762Y-38864956D01*
X159450000Y-38844318D01*
X159293238Y-38864956D01*
X159147159Y-38925464D01*
X159111250Y-38953018D01*
X159046747Y-39002513D01*
X159021718Y-39021718D01*
X158925464Y-39147159D01*
X158864956Y-39293238D01*
X158844318Y-39450000D01*
X156449983Y-39450000D01*
X156433305Y-39428264D01*
X156428282Y-39421718D01*
X156302841Y-39325464D01*
X156156762Y-39264956D01*
X156000000Y-39244318D01*
X155843238Y-39264956D01*
X155835611Y-39268115D01*
X155835608Y-39268116D01*
X155763097Y-39298151D01*
X155692507Y-39305740D01*
X155629020Y-39273960D01*
X155614916Y-39258446D01*
X155604903Y-39245396D01*
X155539647Y-39160353D01*
X155414206Y-39064099D01*
X155268127Y-39003591D01*
X155111365Y-38982953D01*
X154954603Y-39003591D01*
X154808524Y-39064099D01*
X154683083Y-39160353D01*
X154586829Y-39285794D01*
X154526321Y-39431873D01*
X154525243Y-39440061D01*
X154524772Y-39443637D01*
X154505683Y-39588635D01*
X149213843Y-39588635D01*
X149275228Y-39557627D01*
X149288627Y-39547159D01*
X149412985Y-39450000D01*
X149425979Y-39439848D01*
X149438040Y-39425876D01*
X149546958Y-39299692D01*
X149546959Y-39299691D01*
X149550982Y-39295030D01*
X149556043Y-39286122D01*
X149609770Y-39191544D01*
X149645476Y-39128691D01*
X149705861Y-38947166D01*
X149729094Y-38763262D01*
X149729396Y-38760872D01*
X149729397Y-38760863D01*
X149729838Y-38757369D01*
X149730220Y-38730000D01*
X149711552Y-38539608D01*
X149656259Y-38356467D01*
X149644778Y-38334874D01*
X149569342Y-38193001D01*
X149569341Y-38192999D01*
X149566446Y-38187555D01*
X149491283Y-38095396D01*
X149449430Y-38044078D01*
X149449427Y-38044075D01*
X149445535Y-38039303D01*
X149427782Y-38024616D01*
X149302879Y-37921288D01*
X149298132Y-37917361D01*
X149266024Y-37900000D01*
X150144318Y-37900000D01*
X150164956Y-38056762D01*
X150225464Y-38202841D01*
X150321718Y-38328282D01*
X150447159Y-38424536D01*
X150593238Y-38485044D01*
X150601427Y-38486122D01*
X150602005Y-38486277D01*
X150662628Y-38523227D01*
X150693651Y-38587087D01*
X150694902Y-38602066D01*
X150694318Y-38606500D01*
X150714956Y-38763262D01*
X150775464Y-38909341D01*
X150871718Y-39034782D01*
X150997159Y-39131036D01*
X151143238Y-39191544D01*
X151300000Y-39212182D01*
X151308188Y-39211104D01*
X151448574Y-39192622D01*
X151456762Y-39191544D01*
X151602841Y-39131036D01*
X151728282Y-39034782D01*
X151824536Y-38909341D01*
X151885044Y-38763262D01*
X151893373Y-38700000D01*
X168144318Y-38700000D01*
X168164956Y-38856762D01*
X168225464Y-39002841D01*
X168321718Y-39128282D01*
X168447159Y-39224536D01*
X168593238Y-39285044D01*
X168750000Y-39305682D01*
X168758188Y-39304604D01*
X168898574Y-39286122D01*
X168906762Y-39285044D01*
X169052841Y-39224536D01*
X169178282Y-39128282D01*
X169274536Y-39002841D01*
X169335044Y-38856762D01*
X169355682Y-38700000D01*
X169335044Y-38543238D01*
X169274536Y-38397159D01*
X169178282Y-38271718D01*
X169052841Y-38175464D01*
X168906762Y-38114956D01*
X168873493Y-38110576D01*
X168758188Y-38095396D01*
X168750000Y-38094318D01*
X168741812Y-38095396D01*
X168626508Y-38110576D01*
X168593238Y-38114956D01*
X168447159Y-38175464D01*
X168321718Y-38271718D01*
X168225464Y-38397159D01*
X168164956Y-38543238D01*
X168144318Y-38700000D01*
X151893373Y-38700000D01*
X151905682Y-38606500D01*
X151885044Y-38449738D01*
X151824536Y-38303659D01*
X151728282Y-38178218D01*
X151602841Y-38081964D01*
X151456762Y-38021456D01*
X151448573Y-38020378D01*
X151447995Y-38020223D01*
X151387372Y-37983273D01*
X151356349Y-37919413D01*
X151355098Y-37904434D01*
X151355682Y-37900000D01*
X151344540Y-37815365D01*
X152852647Y-37815365D01*
X152873285Y-37972127D01*
X152933793Y-38118206D01*
X153030047Y-38243647D01*
X153155488Y-38339901D01*
X153301567Y-38400409D01*
X153309755Y-38401487D01*
X153379948Y-38410728D01*
X153458329Y-38421047D01*
X153466517Y-38419969D01*
X153606903Y-38401487D01*
X153615091Y-38400409D01*
X153761170Y-38339901D01*
X153767725Y-38334871D01*
X153774872Y-38330745D01*
X153775985Y-38332673D01*
X153831325Y-38311272D01*
X153896603Y-38325878D01*
X153897159Y-38324536D01*
X154043238Y-38385044D01*
X154200000Y-38405682D01*
X154208188Y-38404604D01*
X154240053Y-38400409D01*
X154356762Y-38385044D01*
X154502841Y-38324536D01*
X154628282Y-38228282D01*
X154724536Y-38102841D01*
X154785044Y-37956762D01*
X154805682Y-37800000D01*
X158144318Y-37800000D01*
X158164956Y-37956762D01*
X158225464Y-38102841D01*
X158321718Y-38228282D01*
X158447159Y-38324536D01*
X158593238Y-38385044D01*
X158750000Y-38405682D01*
X158758188Y-38404604D01*
X158790053Y-38400409D01*
X158906762Y-38385044D01*
X159052841Y-38324536D01*
X159178282Y-38228282D01*
X159274536Y-38102841D01*
X159335044Y-37956762D01*
X159355682Y-37800000D01*
X159335044Y-37643238D01*
X159274536Y-37497159D01*
X159178282Y-37371718D01*
X159052841Y-37275464D01*
X158906762Y-37214956D01*
X158866710Y-37209683D01*
X158814739Y-37202841D01*
X158750000Y-37194318D01*
X158685261Y-37202841D01*
X158633291Y-37209683D01*
X158593238Y-37214956D01*
X158447159Y-37275464D01*
X158321718Y-37371718D01*
X158225464Y-37497159D01*
X158164956Y-37643238D01*
X158144318Y-37800000D01*
X154805682Y-37800000D01*
X154785044Y-37643238D01*
X154724536Y-37497159D01*
X154628282Y-37371718D01*
X154502841Y-37275464D01*
X154356762Y-37214956D01*
X154316710Y-37209683D01*
X154264739Y-37202841D01*
X154200000Y-37194318D01*
X154135261Y-37202841D01*
X154083291Y-37209683D01*
X154043238Y-37214956D01*
X153897159Y-37275464D01*
X153890604Y-37280494D01*
X153883457Y-37284620D01*
X153882344Y-37282692D01*
X153827004Y-37304093D01*
X153761726Y-37289487D01*
X153761170Y-37290829D01*
X153622720Y-37233481D01*
X153615091Y-37230321D01*
X153458329Y-37209683D01*
X153301567Y-37230321D01*
X153155488Y-37290829D01*
X153030047Y-37387083D01*
X153025024Y-37393629D01*
X153011712Y-37410978D01*
X152933793Y-37512524D01*
X152873285Y-37658603D01*
X152852647Y-37815365D01*
X151344540Y-37815365D01*
X151335044Y-37743238D01*
X151274536Y-37597159D01*
X151178282Y-37471718D01*
X151052841Y-37375464D01*
X150906762Y-37314956D01*
X150750000Y-37294318D01*
X150593238Y-37314956D01*
X150447159Y-37375464D01*
X150321718Y-37471718D01*
X150225464Y-37597159D01*
X150164956Y-37743238D01*
X150144318Y-37900000D01*
X149266024Y-37900000D01*
X149241730Y-37886864D01*
X149135276Y-37829304D01*
X149135273Y-37829303D01*
X149129851Y-37826371D01*
X149018208Y-37791812D01*
X148952988Y-37771623D01*
X148952985Y-37771622D01*
X148947101Y-37769801D01*
X148940976Y-37769157D01*
X148940975Y-37769157D01*
X148762971Y-37750448D01*
X148762970Y-37750448D01*
X148756843Y-37749804D01*
X148639867Y-37760449D01*
X148572466Y-37766583D01*
X148572465Y-37766583D01*
X148566325Y-37767142D01*
X148382803Y-37821156D01*
X148377338Y-37824013D01*
X148218728Y-37906932D01*
X148218724Y-37906935D01*
X148213268Y-37909787D01*
X148208472Y-37913643D01*
X148208460Y-37913651D01*
X148078186Y-38018395D01*
X148012564Y-38045492D01*
X147942709Y-38032809D01*
X147918919Y-38017284D01*
X147802879Y-37921288D01*
X147798132Y-37917361D01*
X147730827Y-37880969D01*
X147635274Y-37829303D01*
X147635272Y-37829302D01*
X147629851Y-37826371D01*
X147626856Y-37825444D01*
X147572623Y-37781267D01*
X147550500Y-37709953D01*
X147550500Y-37219755D01*
X147570502Y-37151634D01*
X147624158Y-37105141D01*
X147624540Y-37104980D01*
X147628472Y-37103882D01*
X147799228Y-37017627D01*
X147809769Y-37009392D01*
X147948721Y-36900831D01*
X148014715Y-36874654D01*
X148084386Y-36888312D01*
X148107955Y-36904166D01*
X148214575Y-36994907D01*
X148219953Y-36997913D01*
X148219955Y-36997914D01*
X148240493Y-37009392D01*
X148381570Y-37088237D01*
X148563512Y-37147354D01*
X148753472Y-37170005D01*
X148759607Y-37169533D01*
X148759609Y-37169533D01*
X148938071Y-37155801D01*
X148938075Y-37155800D01*
X148944213Y-37155328D01*
X149128472Y-37103882D01*
X149299228Y-37017627D01*
X149309769Y-37009392D01*
X149414335Y-36927696D01*
X149449979Y-36899848D01*
X149456916Y-36891812D01*
X149570958Y-36759692D01*
X149570959Y-36759691D01*
X149574982Y-36755030D01*
X149606244Y-36700000D01*
X149633837Y-36651426D01*
X149669476Y-36588691D01*
X149729861Y-36407166D01*
X149739547Y-36330491D01*
X149753396Y-36220872D01*
X149753397Y-36220863D01*
X149753838Y-36217369D01*
X149754220Y-36190000D01*
X149735552Y-35999608D01*
X149690383Y-35850000D01*
X150194318Y-35850000D01*
X150214956Y-36006762D01*
X150275464Y-36152841D01*
X150322274Y-36213845D01*
X150350017Y-36250000D01*
X150371718Y-36278282D01*
X150497159Y-36374536D01*
X150643238Y-36435044D01*
X150800000Y-36455682D01*
X150808188Y-36454604D01*
X150948574Y-36436122D01*
X150956762Y-36435044D01*
X151041366Y-36400000D01*
X152094318Y-36400000D01*
X152114956Y-36556762D01*
X152175464Y-36702841D01*
X152215510Y-36755030D01*
X152250017Y-36800000D01*
X152271718Y-36828282D01*
X152397159Y-36924536D01*
X152543238Y-36985044D01*
X152700000Y-37005682D01*
X152708188Y-37004604D01*
X152721580Y-37002841D01*
X152856762Y-36985044D01*
X153002841Y-36924536D01*
X153128282Y-36828282D01*
X153149984Y-36800000D01*
X153184490Y-36755030D01*
X153224536Y-36702841D01*
X153225713Y-36700000D01*
X155419318Y-36700000D01*
X155439956Y-36856762D01*
X155500464Y-37002841D01*
X155596718Y-37128282D01*
X155722159Y-37224536D01*
X155868238Y-37285044D01*
X156025000Y-37305682D01*
X156033188Y-37304604D01*
X156037070Y-37304093D01*
X156181762Y-37285044D01*
X156327841Y-37224536D01*
X156453282Y-37128282D01*
X156549536Y-37002841D01*
X156592134Y-36900000D01*
X165694318Y-36900000D01*
X165714956Y-37056762D01*
X165775464Y-37202841D01*
X165871718Y-37328282D01*
X165997159Y-37424536D01*
X166143238Y-37485044D01*
X166300000Y-37505682D01*
X166308188Y-37504604D01*
X166448574Y-37486122D01*
X166456762Y-37485044D01*
X166602841Y-37424536D01*
X166620512Y-37410977D01*
X166686729Y-37385377D01*
X166745430Y-37394531D01*
X166843238Y-37435044D01*
X167000000Y-37455682D01*
X167008188Y-37454604D01*
X167148574Y-37436122D01*
X167156762Y-37435044D01*
X167302841Y-37374536D01*
X167405979Y-37295396D01*
X167423296Y-37282108D01*
X167489517Y-37256508D01*
X167559065Y-37270773D01*
X167576704Y-37282108D01*
X167594021Y-37295396D01*
X167697159Y-37374536D01*
X167843238Y-37435044D01*
X168000000Y-37455682D01*
X168008188Y-37454604D01*
X168148574Y-37436122D01*
X168156762Y-37435044D01*
X168302841Y-37374536D01*
X168428282Y-37278282D01*
X168446855Y-37254077D01*
X168504193Y-37212210D01*
X168575064Y-37207988D01*
X168623521Y-37230818D01*
X168739104Y-37319507D01*
X168739108Y-37319509D01*
X168745659Y-37324536D01*
X168891738Y-37385044D01*
X169048500Y-37405682D01*
X169056688Y-37404604D01*
X169197074Y-37386122D01*
X169205262Y-37385044D01*
X169351341Y-37324536D01*
X169476782Y-37228282D01*
X169489115Y-37212210D01*
X169521499Y-37170005D01*
X169573036Y-37102841D01*
X169633544Y-36956762D01*
X169654182Y-36800000D01*
X169633544Y-36643238D01*
X169573036Y-36497159D01*
X169499286Y-36401046D01*
X169481805Y-36378264D01*
X169481804Y-36378263D01*
X169476782Y-36371718D01*
X169462563Y-36360807D01*
X169371060Y-36290595D01*
X169351341Y-36275464D01*
X169223553Y-36222532D01*
X169212891Y-36218116D01*
X169205262Y-36214956D01*
X169048500Y-36194318D01*
X168891738Y-36214956D01*
X168884109Y-36218116D01*
X168873447Y-36222532D01*
X168745659Y-36275464D01*
X168725940Y-36290595D01*
X168634438Y-36360807D01*
X168620218Y-36371718D01*
X168615196Y-36378263D01*
X168601645Y-36395923D01*
X168544307Y-36437790D01*
X168473436Y-36442012D01*
X168424979Y-36419182D01*
X168309396Y-36330493D01*
X168309392Y-36330491D01*
X168302841Y-36325464D01*
X168156762Y-36264956D01*
X168000000Y-36244318D01*
X167843238Y-36264956D01*
X167697159Y-36325464D01*
X167636116Y-36372304D01*
X167576704Y-36417892D01*
X167510483Y-36443492D01*
X167440935Y-36429227D01*
X167423296Y-36417892D01*
X167363884Y-36372304D01*
X167302841Y-36325464D01*
X167156762Y-36264956D01*
X167000000Y-36244318D01*
X166843238Y-36264956D01*
X166697159Y-36325464D01*
X166679488Y-36339023D01*
X166613271Y-36364623D01*
X166554570Y-36355469D01*
X166456762Y-36314956D01*
X166300000Y-36294318D01*
X166143238Y-36314956D01*
X165997159Y-36375464D01*
X165871718Y-36471718D01*
X165775464Y-36597159D01*
X165714956Y-36743238D01*
X165694318Y-36900000D01*
X156592134Y-36900000D01*
X156610044Y-36856762D01*
X156630682Y-36700000D01*
X156615257Y-36582838D01*
X156611122Y-36551426D01*
X156610044Y-36543238D01*
X156549536Y-36397159D01*
X156453282Y-36271718D01*
X156424979Y-36250000D01*
X156366784Y-36205346D01*
X156327841Y-36175464D01*
X156181762Y-36114956D01*
X156025000Y-36094318D01*
X155868238Y-36114956D01*
X155722159Y-36175464D01*
X155683216Y-36205346D01*
X155625022Y-36250000D01*
X155596718Y-36271718D01*
X155500464Y-36397159D01*
X155439956Y-36543238D01*
X155438878Y-36551426D01*
X155434743Y-36582838D01*
X155419318Y-36700000D01*
X153225713Y-36700000D01*
X153285044Y-36556762D01*
X153305682Y-36400000D01*
X153285044Y-36243238D01*
X153224536Y-36097159D01*
X153180062Y-36039199D01*
X157769032Y-36039199D01*
X157770110Y-36047387D01*
X157786556Y-36172304D01*
X157789670Y-36195961D01*
X157850178Y-36342040D01*
X157946432Y-36467481D01*
X158071873Y-36563735D01*
X158217952Y-36624243D01*
X158374714Y-36644881D01*
X158382902Y-36643803D01*
X158523288Y-36625321D01*
X158531476Y-36624243D01*
X158677555Y-36563735D01*
X158802996Y-36467481D01*
X158899250Y-36342040D01*
X158959758Y-36195961D01*
X158962873Y-36172304D01*
X158979318Y-36047387D01*
X158980396Y-36039199D01*
X158959758Y-35882437D01*
X158899250Y-35736358D01*
X158832985Y-35650000D01*
X161694318Y-35650000D01*
X161714956Y-35806762D01*
X161775464Y-35952841D01*
X161871718Y-36078282D01*
X161997159Y-36174536D01*
X162143238Y-36235044D01*
X162300000Y-36255682D01*
X162308188Y-36254604D01*
X162448574Y-36236122D01*
X162456762Y-36235044D01*
X162464389Y-36231885D01*
X162464392Y-36231884D01*
X162528460Y-36205346D01*
X162599050Y-36197757D01*
X162662537Y-36229537D01*
X162698764Y-36290595D01*
X162701599Y-36305301D01*
X162714956Y-36406762D01*
X162775464Y-36552841D01*
X162871718Y-36678282D01*
X162878264Y-36683305D01*
X162903724Y-36702841D01*
X162997159Y-36774536D01*
X163143238Y-36835044D01*
X163300000Y-36855682D01*
X163308188Y-36854604D01*
X163448574Y-36836122D01*
X163456762Y-36835044D01*
X163602841Y-36774536D01*
X163696276Y-36702841D01*
X163723296Y-36682108D01*
X163789517Y-36656508D01*
X163859065Y-36670773D01*
X163876704Y-36682108D01*
X163903724Y-36702841D01*
X163997159Y-36774536D01*
X164143238Y-36835044D01*
X164300000Y-36855682D01*
X164308188Y-36854604D01*
X164448574Y-36836122D01*
X164456762Y-36835044D01*
X164602841Y-36774536D01*
X164696276Y-36702841D01*
X164721736Y-36683305D01*
X164728282Y-36678282D01*
X164824536Y-36552841D01*
X164885044Y-36406762D01*
X164905682Y-36250000D01*
X164885044Y-36093238D01*
X164824536Y-35947159D01*
X164753516Y-35854604D01*
X164733305Y-35828264D01*
X164728282Y-35821718D01*
X164602841Y-35725464D01*
X164456762Y-35664956D01*
X164300000Y-35644318D01*
X164143238Y-35664956D01*
X163997159Y-35725464D01*
X163990608Y-35730491D01*
X163876704Y-35817892D01*
X163810483Y-35843492D01*
X163740935Y-35829227D01*
X163723296Y-35817892D01*
X163609392Y-35730491D01*
X163602841Y-35725464D01*
X163456762Y-35664956D01*
X163300000Y-35644318D01*
X163143238Y-35664956D01*
X163135611Y-35668115D01*
X163135608Y-35668116D01*
X163071540Y-35694654D01*
X163000950Y-35702243D01*
X162937463Y-35670463D01*
X162901236Y-35609405D01*
X162898400Y-35594691D01*
X162886122Y-35501426D01*
X162885044Y-35493238D01*
X162824536Y-35347159D01*
X162750480Y-35250647D01*
X162749984Y-35250000D01*
X166360818Y-35250000D01*
X166381456Y-35406762D01*
X166441964Y-35552841D01*
X166446991Y-35559392D01*
X166516517Y-35650000D01*
X166538218Y-35678282D01*
X166663659Y-35774536D01*
X166809738Y-35835044D01*
X166966500Y-35855682D01*
X166974688Y-35854604D01*
X167115074Y-35836122D01*
X167123262Y-35835044D01*
X167269341Y-35774536D01*
X167394782Y-35678282D01*
X167416484Y-35650000D01*
X167486009Y-35559392D01*
X167491036Y-35552841D01*
X167551544Y-35406762D01*
X167572182Y-35250000D01*
X167551544Y-35093238D01*
X167491036Y-34947159D01*
X167394782Y-34821718D01*
X167269341Y-34725464D01*
X167123262Y-34664956D01*
X166966500Y-34644318D01*
X166809738Y-34664956D01*
X166663659Y-34725464D01*
X166538218Y-34821718D01*
X166441964Y-34947159D01*
X166381456Y-35093238D01*
X166360818Y-35250000D01*
X162749984Y-35250000D01*
X162733305Y-35228264D01*
X162728282Y-35221718D01*
X162602841Y-35125464D01*
X162456762Y-35064956D01*
X162300000Y-35044318D01*
X162143238Y-35064956D01*
X161997159Y-35125464D01*
X161871718Y-35221718D01*
X161866695Y-35228264D01*
X161849520Y-35250647D01*
X161775464Y-35347159D01*
X161714956Y-35493238D01*
X161694318Y-35650000D01*
X158832985Y-35650000D01*
X158802996Y-35610917D01*
X158677555Y-35514663D01*
X158531476Y-35454155D01*
X158374714Y-35433517D01*
X158217952Y-35454155D01*
X158071873Y-35514663D01*
X157946432Y-35610917D01*
X157850178Y-35736358D01*
X157789670Y-35882437D01*
X157769032Y-36039199D01*
X153180062Y-36039199D01*
X153128282Y-35971718D01*
X153002841Y-35875464D01*
X152856762Y-35814956D01*
X152700000Y-35794318D01*
X152543238Y-35814956D01*
X152397159Y-35875464D01*
X152271718Y-35971718D01*
X152175464Y-36097159D01*
X152114956Y-36243238D01*
X152094318Y-36400000D01*
X151041366Y-36400000D01*
X151102841Y-36374536D01*
X151228282Y-36278282D01*
X151249984Y-36250000D01*
X151277726Y-36213845D01*
X151324536Y-36152841D01*
X151385044Y-36006762D01*
X151405682Y-35850000D01*
X151385044Y-35693238D01*
X151324536Y-35547159D01*
X151228282Y-35421718D01*
X151102841Y-35325464D01*
X150956762Y-35264956D01*
X150800000Y-35244318D01*
X150643238Y-35264956D01*
X150497159Y-35325464D01*
X150371718Y-35421718D01*
X150275464Y-35547159D01*
X150214956Y-35693238D01*
X150194318Y-35850000D01*
X149690383Y-35850000D01*
X149680259Y-35816467D01*
X149634181Y-35729807D01*
X149593342Y-35653001D01*
X149593341Y-35652999D01*
X149590446Y-35647555D01*
X149514788Y-35554789D01*
X149473430Y-35504078D01*
X149473427Y-35504075D01*
X149469535Y-35499303D01*
X149444262Y-35478395D01*
X149326879Y-35381288D01*
X149322132Y-35377361D01*
X149235449Y-35330491D01*
X149159276Y-35289304D01*
X149159273Y-35289303D01*
X149153851Y-35286371D01*
X149062806Y-35258188D01*
X148976988Y-35231623D01*
X148976985Y-35231622D01*
X148971101Y-35229801D01*
X148964976Y-35229157D01*
X148964975Y-35229157D01*
X148786971Y-35210448D01*
X148786970Y-35210448D01*
X148780843Y-35209804D01*
X148663867Y-35220449D01*
X148596466Y-35226583D01*
X148596465Y-35226583D01*
X148590325Y-35227142D01*
X148406803Y-35281156D01*
X148401338Y-35284013D01*
X148242728Y-35366932D01*
X148242724Y-35366935D01*
X148237268Y-35369787D01*
X148232472Y-35373643D01*
X148232460Y-35373651D01*
X148102186Y-35478395D01*
X148036564Y-35505492D01*
X147966709Y-35492809D01*
X147942919Y-35477284D01*
X147826879Y-35381288D01*
X147822132Y-35377361D01*
X147735449Y-35330491D01*
X147659276Y-35289304D01*
X147659273Y-35289303D01*
X147653851Y-35286371D01*
X147639244Y-35281850D01*
X147580084Y-35242601D01*
X147551535Y-35177598D01*
X147550500Y-35161484D01*
X147550500Y-34668661D01*
X147570502Y-34600540D01*
X147619690Y-34556195D01*
X147769731Y-34480404D01*
X147769734Y-34480402D01*
X147775228Y-34477627D01*
X147787246Y-34468238D01*
X147924721Y-34360831D01*
X147990715Y-34334654D01*
X148060386Y-34348312D01*
X148083955Y-34364166D01*
X148190575Y-34454907D01*
X148195953Y-34457913D01*
X148195955Y-34457914D01*
X148274072Y-34501572D01*
X148357570Y-34548237D01*
X148539512Y-34607354D01*
X148729472Y-34630005D01*
X148735607Y-34629533D01*
X148735609Y-34629533D01*
X148794520Y-34625000D01*
X152969318Y-34625000D01*
X152989956Y-34781762D01*
X153050464Y-34927841D01*
X153146718Y-35053282D01*
X153272159Y-35149536D01*
X153418238Y-35210044D01*
X153575000Y-35230682D01*
X153583188Y-35229604D01*
X153586584Y-35229157D01*
X153731762Y-35210044D01*
X153877841Y-35149536D01*
X154003282Y-35053282D01*
X154099536Y-34927841D01*
X154160044Y-34781762D01*
X154180682Y-34625000D01*
X154174099Y-34575000D01*
X156194318Y-34575000D01*
X156214956Y-34731762D01*
X156275464Y-34877841D01*
X156294647Y-34902841D01*
X156363726Y-34992866D01*
X156371718Y-35003282D01*
X156497159Y-35099536D01*
X156643238Y-35160044D01*
X156800000Y-35180682D01*
X156808188Y-35179604D01*
X156948574Y-35161122D01*
X156956762Y-35160044D01*
X157102841Y-35099536D01*
X157168093Y-35049467D01*
X157208494Y-35018466D01*
X157274715Y-34992866D01*
X157344263Y-35007131D01*
X157370207Y-35026313D01*
X157371718Y-35028282D01*
X157497159Y-35124536D01*
X157643238Y-35185044D01*
X157800000Y-35205682D01*
X157808188Y-35204604D01*
X157948574Y-35186122D01*
X157956762Y-35185044D01*
X158102841Y-35124536D01*
X158228282Y-35028282D01*
X158324536Y-34902841D01*
X158385044Y-34756762D01*
X158389413Y-34723574D01*
X158395876Y-34674485D01*
X158424598Y-34609557D01*
X158483864Y-34570466D01*
X158554855Y-34569621D01*
X158569016Y-34574522D01*
X158698589Y-34628193D01*
X158706777Y-34629271D01*
X158736530Y-34633188D01*
X158855351Y-34648831D01*
X158863539Y-34647753D01*
X158881443Y-34645396D01*
X158974172Y-34633188D01*
X159003925Y-34629271D01*
X159012113Y-34628193D01*
X159019822Y-34625000D01*
X163144318Y-34625000D01*
X163164956Y-34781762D01*
X163225464Y-34927841D01*
X163321718Y-35053282D01*
X163447159Y-35149536D01*
X163593238Y-35210044D01*
X163750000Y-35230682D01*
X163758188Y-35229604D01*
X163761584Y-35229157D01*
X163906762Y-35210044D01*
X164052841Y-35149536D01*
X164178282Y-35053282D01*
X164274536Y-34927841D01*
X164335044Y-34781762D01*
X164355682Y-34625000D01*
X164335044Y-34468238D01*
X164274536Y-34322159D01*
X164178282Y-34196718D01*
X164052841Y-34100464D01*
X163906762Y-34039956D01*
X163887514Y-34037422D01*
X163822587Y-34008700D01*
X163783495Y-33949435D01*
X163782650Y-33878443D01*
X163820320Y-33818264D01*
X163857394Y-33801333D01*
X164558068Y-33801333D01*
X164578706Y-33958095D01*
X164639214Y-34104174D01*
X164735468Y-34229615D01*
X164860909Y-34325869D01*
X165006988Y-34386377D01*
X165163750Y-34407015D01*
X165171938Y-34405937D01*
X165312324Y-34387455D01*
X165320512Y-34386377D01*
X165466591Y-34325869D01*
X165512046Y-34290990D01*
X165578266Y-34265389D01*
X165647815Y-34279654D01*
X165665453Y-34290989D01*
X165710909Y-34325869D01*
X165856988Y-34386377D01*
X166013750Y-34407015D01*
X166021938Y-34405937D01*
X166162324Y-34387455D01*
X166170512Y-34386377D01*
X166316591Y-34325869D01*
X166442032Y-34229615D01*
X166538286Y-34104174D01*
X166598794Y-33958095D01*
X166619432Y-33801333D01*
X166598794Y-33644571D01*
X166538286Y-33498492D01*
X166442032Y-33373051D01*
X166316591Y-33276797D01*
X166170512Y-33216289D01*
X166108979Y-33208188D01*
X166021938Y-33196729D01*
X166013750Y-33195651D01*
X166005562Y-33196729D01*
X165918522Y-33208188D01*
X165856988Y-33216289D01*
X165710909Y-33276797D01*
X165682529Y-33298574D01*
X165665454Y-33311676D01*
X165599234Y-33337277D01*
X165529685Y-33323012D01*
X165512046Y-33311676D01*
X165494971Y-33298574D01*
X165466591Y-33276797D01*
X165320512Y-33216289D01*
X165258979Y-33208188D01*
X165171938Y-33196729D01*
X165163750Y-33195651D01*
X165155562Y-33196729D01*
X165068522Y-33208188D01*
X165006988Y-33216289D01*
X164860909Y-33276797D01*
X164735468Y-33373051D01*
X164639214Y-33498492D01*
X164578706Y-33644571D01*
X164558068Y-33801333D01*
X163857394Y-33801333D01*
X163887514Y-33787578D01*
X163898574Y-33786122D01*
X163906762Y-33785044D01*
X164052841Y-33724536D01*
X164146383Y-33652759D01*
X164171736Y-33633305D01*
X164178282Y-33628282D01*
X164274536Y-33502841D01*
X164335044Y-33356762D01*
X164355682Y-33200000D01*
X164349099Y-33150000D01*
X167694318Y-33150000D01*
X167714956Y-33306762D01*
X167775464Y-33452841D01*
X167871718Y-33578282D01*
X167997159Y-33674536D01*
X168143238Y-33735044D01*
X168300000Y-33755682D01*
X168308188Y-33754604D01*
X168448574Y-33736122D01*
X168456762Y-33735044D01*
X168602841Y-33674536D01*
X168728282Y-33578282D01*
X168824536Y-33452841D01*
X168885044Y-33306762D01*
X168905682Y-33150000D01*
X168909047Y-33150443D01*
X168924606Y-33097454D01*
X168978262Y-33050961D01*
X169014157Y-33040653D01*
X169048574Y-33036122D01*
X169056762Y-33035044D01*
X169202841Y-32974536D01*
X169304700Y-32896377D01*
X169321736Y-32883305D01*
X169328282Y-32878282D01*
X169424536Y-32752841D01*
X169485044Y-32606762D01*
X169505682Y-32450000D01*
X169485044Y-32293238D01*
X169424536Y-32147159D01*
X169328282Y-32021718D01*
X169299979Y-32000000D01*
X169243408Y-31956592D01*
X169202841Y-31925464D01*
X169056762Y-31864956D01*
X168900000Y-31844318D01*
X168743238Y-31864956D01*
X168597159Y-31925464D01*
X168556592Y-31956592D01*
X168500022Y-32000000D01*
X168471718Y-32021718D01*
X168375464Y-32147159D01*
X168314956Y-32293238D01*
X168294318Y-32450000D01*
X168290953Y-32449557D01*
X168275394Y-32502546D01*
X168221738Y-32549039D01*
X168185843Y-32559347D01*
X168143238Y-32564956D01*
X167997159Y-32625464D01*
X167871718Y-32721718D01*
X167775464Y-32847159D01*
X167714956Y-32993238D01*
X167694318Y-33150000D01*
X164349099Y-33150000D01*
X164335044Y-33043238D01*
X164274536Y-32897159D01*
X164206059Y-32807918D01*
X164183305Y-32778264D01*
X164178282Y-32771718D01*
X164052841Y-32675464D01*
X163906762Y-32614956D01*
X163750000Y-32594318D01*
X163593238Y-32614956D01*
X163447159Y-32675464D01*
X163321718Y-32771718D01*
X163225464Y-32897159D01*
X163224445Y-32896377D01*
X163199560Y-32920105D01*
X163201084Y-32952085D01*
X163195044Y-32970599D01*
X163185667Y-32993238D01*
X163164956Y-33043238D01*
X163144318Y-33200000D01*
X163164956Y-33356762D01*
X163225464Y-33502841D01*
X163321718Y-33628282D01*
X163328264Y-33633305D01*
X163353617Y-33652759D01*
X163447159Y-33724536D01*
X163593238Y-33785044D01*
X163601426Y-33786122D01*
X163612486Y-33787578D01*
X163677413Y-33816300D01*
X163716505Y-33875565D01*
X163717350Y-33946557D01*
X163679680Y-34006736D01*
X163612486Y-34037422D01*
X163593238Y-34039956D01*
X163447159Y-34100464D01*
X163321718Y-34196718D01*
X163225464Y-34322159D01*
X163164956Y-34468238D01*
X163144318Y-34625000D01*
X159019822Y-34625000D01*
X159158192Y-34567685D01*
X159283633Y-34471431D01*
X159379887Y-34345990D01*
X159432819Y-34218202D01*
X159437235Y-34207540D01*
X159440395Y-34199911D01*
X159461033Y-34043149D01*
X159440395Y-33886387D01*
X159437105Y-33878443D01*
X159418228Y-33832872D01*
X159379887Y-33740308D01*
X159283633Y-33614867D01*
X159158192Y-33518613D01*
X159012113Y-33458105D01*
X158855351Y-33437467D01*
X158698589Y-33458105D01*
X158600221Y-33498850D01*
X158529634Y-33506439D01*
X158475301Y-33482403D01*
X158371934Y-33403087D01*
X158371929Y-33403084D01*
X158365378Y-33398057D01*
X158219299Y-33337549D01*
X158062537Y-33316911D01*
X157905775Y-33337549D01*
X157759696Y-33398057D01*
X157634255Y-33494311D01*
X157538001Y-33619752D01*
X157477493Y-33765831D01*
X157456855Y-33922593D01*
X157469196Y-34016328D01*
X157469337Y-34017401D01*
X157458398Y-34087550D01*
X157421119Y-34133810D01*
X157391506Y-34156533D01*
X157325286Y-34182134D01*
X157255737Y-34167869D01*
X157229793Y-34148687D01*
X157228282Y-34146718D01*
X157102841Y-34050464D01*
X156956762Y-33989956D01*
X156800000Y-33969318D01*
X156643238Y-33989956D01*
X156497159Y-34050464D01*
X156371718Y-34146718D01*
X156275464Y-34272159D01*
X156214956Y-34418238D01*
X156194318Y-34575000D01*
X154174099Y-34575000D01*
X154160044Y-34468238D01*
X154099536Y-34322159D01*
X154003282Y-34196718D01*
X153877841Y-34100464D01*
X153731762Y-34039956D01*
X153575000Y-34019318D01*
X153418238Y-34039956D01*
X153272159Y-34100464D01*
X153146718Y-34196718D01*
X153050464Y-34322159D01*
X152989956Y-34468238D01*
X152969318Y-34625000D01*
X148794520Y-34625000D01*
X148914071Y-34615801D01*
X148914075Y-34615800D01*
X148920213Y-34615328D01*
X149104472Y-34563882D01*
X149275228Y-34477627D01*
X149287246Y-34468238D01*
X149396068Y-34383217D01*
X149425979Y-34359848D01*
X149432287Y-34352541D01*
X149546958Y-34219692D01*
X149546959Y-34219691D01*
X149550982Y-34215030D01*
X149645476Y-34048691D01*
X149705861Y-33867166D01*
X149716099Y-33786122D01*
X149729396Y-33680872D01*
X149729397Y-33680863D01*
X149729838Y-33677369D01*
X149730220Y-33650000D01*
X149711552Y-33459608D01*
X149656259Y-33276467D01*
X149625942Y-33219449D01*
X149569342Y-33113001D01*
X149569341Y-33112999D01*
X149566446Y-33107555D01*
X149520289Y-33050961D01*
X149449430Y-32964078D01*
X149449427Y-32964075D01*
X149445535Y-32959303D01*
X149420262Y-32938395D01*
X149302879Y-32841288D01*
X149298132Y-32837361D01*
X149229035Y-32800000D01*
X154944318Y-32800000D01*
X154964956Y-32956762D01*
X155025464Y-33102841D01*
X155061650Y-33150000D01*
X155100017Y-33200000D01*
X155121718Y-33228282D01*
X155247159Y-33324536D01*
X155393238Y-33385044D01*
X155550000Y-33405682D01*
X155558188Y-33404604D01*
X155698574Y-33386122D01*
X155706762Y-33385044D01*
X155852841Y-33324536D01*
X155978282Y-33228282D01*
X155999984Y-33200000D01*
X156038350Y-33150000D01*
X156074536Y-33102841D01*
X156135044Y-32956762D01*
X156149134Y-32849741D01*
X156177855Y-32784815D01*
X156237120Y-32745723D01*
X156290500Y-32741266D01*
X156400000Y-32755682D01*
X156408188Y-32754604D01*
X156421580Y-32752841D01*
X156510337Y-32741156D01*
X156548574Y-32736122D01*
X156556762Y-32735044D01*
X156702841Y-32674536D01*
X156828282Y-32578282D01*
X156849984Y-32550000D01*
X156919509Y-32459392D01*
X156924536Y-32452841D01*
X156985044Y-32306762D01*
X157005682Y-32150000D01*
X156989655Y-32028264D01*
X156986122Y-32001426D01*
X156985934Y-32000000D01*
X160494318Y-32000000D01*
X160514956Y-32156762D01*
X160575464Y-32302841D01*
X160671718Y-32428282D01*
X160678264Y-32433305D01*
X160703724Y-32452841D01*
X160797159Y-32524536D01*
X160943238Y-32585044D01*
X161100000Y-32605682D01*
X161108188Y-32604604D01*
X161248574Y-32586122D01*
X161256762Y-32585044D01*
X161341366Y-32550000D01*
X161844318Y-32550000D01*
X161864956Y-32706762D01*
X161925464Y-32852841D01*
X162021718Y-32978282D01*
X162147159Y-33074536D01*
X162293238Y-33135044D01*
X162450000Y-33155682D01*
X162458188Y-33154604D01*
X162598574Y-33136122D01*
X162606762Y-33135044D01*
X162752841Y-33074536D01*
X162878282Y-32978282D01*
X162974536Y-32852841D01*
X162975555Y-32853623D01*
X163000440Y-32829895D01*
X162998916Y-32797915D01*
X163004956Y-32779401D01*
X163031884Y-32714392D01*
X163031885Y-32714389D01*
X163035044Y-32706762D01*
X163055682Y-32550000D01*
X163042517Y-32450000D01*
X163036122Y-32401426D01*
X163035044Y-32393238D01*
X162974536Y-32247159D01*
X162903658Y-32154789D01*
X162883305Y-32128264D01*
X162878282Y-32121718D01*
X162752841Y-32025464D01*
X162606762Y-31964956D01*
X162450000Y-31944318D01*
X162293238Y-31964956D01*
X162147159Y-32025464D01*
X162021718Y-32121718D01*
X162016695Y-32128264D01*
X161996342Y-32154789D01*
X161925464Y-32247159D01*
X161864956Y-32393238D01*
X161863878Y-32401426D01*
X161857483Y-32450000D01*
X161844318Y-32550000D01*
X161341366Y-32550000D01*
X161402841Y-32524536D01*
X161496276Y-32452841D01*
X161521736Y-32433305D01*
X161528282Y-32428282D01*
X161624536Y-32302841D01*
X161685044Y-32156762D01*
X161705682Y-32000000D01*
X161685044Y-31843238D01*
X161624536Y-31697159D01*
X161528282Y-31571718D01*
X161402841Y-31475464D01*
X161256762Y-31414956D01*
X161100000Y-31394318D01*
X160943238Y-31414956D01*
X160797159Y-31475464D01*
X160671718Y-31571718D01*
X160575464Y-31697159D01*
X160514956Y-31843238D01*
X160494318Y-32000000D01*
X156985934Y-32000000D01*
X156985044Y-31993238D01*
X156924536Y-31847159D01*
X156856059Y-31757918D01*
X156833305Y-31728264D01*
X156828282Y-31721718D01*
X156702841Y-31625464D01*
X156556762Y-31564956D01*
X156400000Y-31544318D01*
X156391812Y-31545396D01*
X156391811Y-31545396D01*
X156370102Y-31548254D01*
X156299953Y-31537314D01*
X156246855Y-31490186D01*
X156227665Y-31421832D01*
X156228734Y-31406886D01*
X156242152Y-31304966D01*
X156243230Y-31296778D01*
X156222592Y-31140016D01*
X156162084Y-30993937D01*
X156157057Y-30987386D01*
X156157055Y-30987382D01*
X156144029Y-30970406D01*
X156118429Y-30904186D01*
X156127583Y-30845485D01*
X156181884Y-30714391D01*
X156185044Y-30706762D01*
X156205682Y-30550000D01*
X156185044Y-30393238D01*
X156167134Y-30350000D01*
X156794318Y-30350000D01*
X156795396Y-30358188D01*
X156812238Y-30486113D01*
X156814956Y-30506762D01*
X156875464Y-30652841D01*
X156971718Y-30778282D01*
X157097159Y-30874536D01*
X157243238Y-30935044D01*
X157400000Y-30955682D01*
X157408188Y-30954604D01*
X157421580Y-30952841D01*
X157556762Y-30935044D01*
X157702841Y-30874536D01*
X157828282Y-30778282D01*
X157924536Y-30652841D01*
X157925713Y-30650000D01*
X159794318Y-30650000D01*
X159814956Y-30806762D01*
X159875464Y-30952841D01*
X159971718Y-31078282D01*
X159978264Y-31083305D01*
X159995218Y-31096314D01*
X160097159Y-31174536D01*
X160243238Y-31235044D01*
X160400000Y-31255682D01*
X160408188Y-31254604D01*
X160548574Y-31236122D01*
X160556762Y-31235044D01*
X160702841Y-31174536D01*
X160804782Y-31096314D01*
X160821736Y-31083305D01*
X160828282Y-31078282D01*
X160924536Y-30952841D01*
X160985044Y-30806762D01*
X161005682Y-30650000D01*
X160998390Y-30594615D01*
X161799703Y-30594615D01*
X161820341Y-30751377D01*
X161880849Y-30897456D01*
X161977103Y-31022897D01*
X162102544Y-31119151D01*
X162248623Y-31179659D01*
X162405385Y-31200297D01*
X162413573Y-31199219D01*
X162553959Y-31180737D01*
X162562147Y-31179659D01*
X162708226Y-31119151D01*
X162833667Y-31022897D01*
X162929921Y-30897456D01*
X162990429Y-30751377D01*
X163011067Y-30594615D01*
X162990429Y-30437853D01*
X162929921Y-30291774D01*
X162833667Y-30166333D01*
X162708226Y-30070079D01*
X162562147Y-30009571D01*
X162405385Y-29988933D01*
X162248623Y-30009571D01*
X162102544Y-30070079D01*
X161977103Y-30166333D01*
X161880849Y-30291774D01*
X161820341Y-30437853D01*
X161799703Y-30594615D01*
X160998390Y-30594615D01*
X160985044Y-30493238D01*
X160924536Y-30347159D01*
X160828282Y-30221718D01*
X160702841Y-30125464D01*
X160556762Y-30064956D01*
X160400000Y-30044318D01*
X160243238Y-30064956D01*
X160097159Y-30125464D01*
X159971718Y-30221718D01*
X159875464Y-30347159D01*
X159814956Y-30493238D01*
X159794318Y-30650000D01*
X157925713Y-30650000D01*
X157985044Y-30506762D01*
X157987763Y-30486113D01*
X158004604Y-30358188D01*
X158005682Y-30350000D01*
X157985044Y-30193238D01*
X157924536Y-30047159D01*
X157828282Y-29921718D01*
X157702841Y-29825464D01*
X157556762Y-29764956D01*
X157400000Y-29744318D01*
X157243238Y-29764956D01*
X157097159Y-29825464D01*
X156971718Y-29921718D01*
X156875464Y-30047159D01*
X156814956Y-30193238D01*
X156794318Y-30350000D01*
X156167134Y-30350000D01*
X156124536Y-30247159D01*
X156049126Y-30148883D01*
X156033305Y-30128264D01*
X156028282Y-30121718D01*
X155902841Y-30025464D01*
X155756762Y-29964956D01*
X155600000Y-29944318D01*
X155443238Y-29964956D01*
X155297159Y-30025464D01*
X155171718Y-30121718D01*
X155166695Y-30128264D01*
X155150874Y-30148883D01*
X155075464Y-30247159D01*
X155014956Y-30393238D01*
X154994318Y-30550000D01*
X155014956Y-30706762D01*
X155075464Y-30852841D01*
X155080491Y-30859392D01*
X155080493Y-30859396D01*
X155093519Y-30876372D01*
X155119119Y-30942592D01*
X155109965Y-31001293D01*
X155075995Y-31083305D01*
X155052504Y-31140016D01*
X155031866Y-31296778D01*
X155052504Y-31453540D01*
X155113012Y-31599619D01*
X155209266Y-31725060D01*
X155334707Y-31821314D01*
X155480786Y-31881822D01*
X155637548Y-31902460D01*
X155645736Y-31901382D01*
X155645737Y-31901382D01*
X155667446Y-31898524D01*
X155737595Y-31909464D01*
X155790693Y-31956592D01*
X155809883Y-32024946D01*
X155808814Y-32039891D01*
X155802217Y-32090005D01*
X155800867Y-32100258D01*
X155772145Y-32165185D01*
X155712880Y-32204277D01*
X155659500Y-32208734D01*
X155550000Y-32194318D01*
X155393238Y-32214956D01*
X155247159Y-32275464D01*
X155121718Y-32371718D01*
X155025464Y-32497159D01*
X154964956Y-32643238D01*
X154944318Y-32800000D01*
X149229035Y-32800000D01*
X149190938Y-32779401D01*
X149135276Y-32749304D01*
X149135273Y-32749303D01*
X149129851Y-32746371D01*
X149049496Y-32721497D01*
X148952988Y-32691623D01*
X148952985Y-32691622D01*
X148947101Y-32689801D01*
X148940976Y-32689157D01*
X148940975Y-32689157D01*
X148762971Y-32670448D01*
X148762970Y-32670448D01*
X148756843Y-32669804D01*
X148639867Y-32680449D01*
X148572466Y-32686583D01*
X148572465Y-32686583D01*
X148566325Y-32687142D01*
X148382803Y-32741156D01*
X148377338Y-32744013D01*
X148218728Y-32826932D01*
X148218724Y-32826935D01*
X148213268Y-32829787D01*
X148208472Y-32833643D01*
X148208460Y-32833651D01*
X148078186Y-32938395D01*
X148012564Y-32965492D01*
X147942709Y-32952809D01*
X147918919Y-32937284D01*
X147802879Y-32841288D01*
X147798132Y-32837361D01*
X147690938Y-32779401D01*
X147635274Y-32749303D01*
X147635272Y-32749302D01*
X147629851Y-32746371D01*
X147626856Y-32745444D01*
X147572623Y-32701267D01*
X147550500Y-32629953D01*
X147550500Y-32128661D01*
X147570502Y-32060540D01*
X147619690Y-32016195D01*
X147769731Y-31940404D01*
X147769734Y-31940402D01*
X147775228Y-31937627D01*
X147804309Y-31914907D01*
X147924721Y-31820831D01*
X147990715Y-31794654D01*
X148060386Y-31808312D01*
X148083955Y-31824166D01*
X148152967Y-31882900D01*
X148184180Y-31909464D01*
X148190575Y-31914907D01*
X148195953Y-31917913D01*
X148195955Y-31917914D01*
X148243200Y-31944318D01*
X148357570Y-32008237D01*
X148539512Y-32067354D01*
X148729472Y-32090005D01*
X148735607Y-32089533D01*
X148735609Y-32089533D01*
X148914071Y-32075801D01*
X148914075Y-32075800D01*
X148920213Y-32075328D01*
X149104472Y-32023882D01*
X149275228Y-31937627D01*
X149304309Y-31914907D01*
X149393279Y-31845396D01*
X149425979Y-31819848D01*
X149443112Y-31800000D01*
X150143818Y-31800000D01*
X150164456Y-31956762D01*
X150224964Y-32102841D01*
X150321218Y-32228282D01*
X150446659Y-32324536D01*
X150592738Y-32385044D01*
X150749500Y-32405682D01*
X150757688Y-32404604D01*
X150898074Y-32386122D01*
X150906262Y-32385044D01*
X151052341Y-32324536D01*
X151177782Y-32228282D01*
X151274036Y-32102841D01*
X151334544Y-31956762D01*
X151355182Y-31800000D01*
X151334544Y-31643238D01*
X151274036Y-31497159D01*
X151177782Y-31371718D01*
X151052341Y-31275464D01*
X150906262Y-31214956D01*
X150749500Y-31194318D01*
X150592738Y-31214956D01*
X150446659Y-31275464D01*
X150321218Y-31371718D01*
X150224964Y-31497159D01*
X150164456Y-31643238D01*
X150143818Y-31800000D01*
X149443112Y-31800000D01*
X149546958Y-31679692D01*
X149546959Y-31679691D01*
X149550982Y-31675030D01*
X149569043Y-31643238D01*
X149590100Y-31606170D01*
X149645476Y-31508691D01*
X149705861Y-31327166D01*
X149711757Y-31280491D01*
X149729396Y-31140872D01*
X149729397Y-31140863D01*
X149729838Y-31137369D01*
X149730220Y-31110000D01*
X149711552Y-30919608D01*
X149656259Y-30736467D01*
X149644521Y-30714391D01*
X149569342Y-30573001D01*
X149569341Y-30572999D01*
X149566446Y-30567555D01*
X149450583Y-30425492D01*
X149449430Y-30424078D01*
X149449427Y-30424075D01*
X149445535Y-30419303D01*
X149423926Y-30401426D01*
X149302879Y-30301288D01*
X149298132Y-30297361D01*
X149241730Y-30266864D01*
X149135276Y-30209304D01*
X149135273Y-30209303D01*
X149129851Y-30206371D01*
X149000508Y-30166333D01*
X148952988Y-30151623D01*
X148952985Y-30151622D01*
X148947101Y-30149801D01*
X148940976Y-30149157D01*
X148940975Y-30149157D01*
X148762971Y-30130448D01*
X148762970Y-30130448D01*
X148756843Y-30129804D01*
X148639867Y-30140449D01*
X148572466Y-30146583D01*
X148572465Y-30146583D01*
X148566325Y-30147142D01*
X148382803Y-30201156D01*
X148377338Y-30204013D01*
X148218728Y-30286932D01*
X148218724Y-30286935D01*
X148213268Y-30289787D01*
X148208472Y-30293643D01*
X148208460Y-30293651D01*
X148078186Y-30398395D01*
X148012564Y-30425492D01*
X147942709Y-30412809D01*
X147918919Y-30397284D01*
X147802879Y-30301288D01*
X147798132Y-30297361D01*
X147705286Y-30247159D01*
X147635274Y-30209303D01*
X147635272Y-30209302D01*
X147629851Y-30206371D01*
X147626856Y-30205444D01*
X147572623Y-30161267D01*
X147550500Y-30089953D01*
X147550500Y-27787317D01*
X147552414Y-27765437D01*
X147553222Y-27760855D01*
X147555136Y-27750000D01*
X147553417Y-27740251D01*
X147554773Y-27723023D01*
X147557142Y-27708064D01*
X147569324Y-27670570D01*
X147579542Y-27650516D01*
X147602714Y-27618624D01*
X147618624Y-27602714D01*
X147650516Y-27579542D01*
X147670570Y-27569324D01*
X147708064Y-27557142D01*
X147723023Y-27554773D01*
X147740251Y-27553417D01*
X147750000Y-27555136D01*
X147765437Y-27552414D01*
X147787317Y-27550500D01*
X150090691Y-27550500D01*
X150158812Y-27570502D01*
G37*
G04 #@! TD.AperFunction*
G04 #@! TD*
M02*
