M48
METRIC,TZ
T1C0.300
T2C0.350
T3C1.000
%
G90
G05
T1
X150750Y-31800
X150750Y-33850
X150750Y-37900
X150751Y-42700
X150800Y-34900
X150800Y-35850
X150880Y-49330
X151300Y-38607
X151300Y-40650
X151866Y-41446
X151889Y-43010
X151946Y-49340
X152550Y-31150
X152700Y-36400
X152900Y-44350
X152900Y-45110
X152900Y-45875
X153458Y-37815
X153575Y-34625
X153645Y-40255
X153650Y-43450
X154160Y-31143
X154200Y-37800
X154251Y-33564
X155100Y-44800
X155111Y-39589
X155136Y-40945
X155550Y-32800
X155550Y-43762
X155600Y-30550
X155638Y-31297
X155800Y-49500
X155931Y-40950
X155950Y-39050
X156000Y-39850
X156025Y-36700
X156400Y-32150
X156658Y-40950
X156703Y-37727
X156800Y-34575
X156950Y-43250
X157250Y-49450
X157277Y-35382
X157384Y-40955
X157400Y-30350
X157447Y-33537
X157574Y-38687
X157800Y-34600
X157950Y-43244
X158063Y-33923
X158375Y-36039
X158500Y-40450
X158750Y-37800
X158855Y-34043
X158950Y-43244
X159300Y-46950
X159400Y-30650
X159450Y-39450
X160400Y-30650
X161100Y-32000
X161250Y-43762
X161319Y-45498
X161414Y-40589
X161615Y-48294
X162141Y-40589
X162300Y-35650
X162405Y-30595
X162450Y-32550
X162450Y-33500
X162750Y-48798
X162916Y-45847
X163000Y-40600
X163300Y-36250
X163750Y-33200
X163750Y-34625
X163750Y-48798
X163800Y-37700
X164300Y-36250
X164500Y-40589
X164500Y-45700
X165164Y-33801
X165201Y-45350
X165252Y-48751
X165268Y-47523
X165947Y-43554
X166014Y-33801
X166300Y-36900
X166337Y-42200
X166350Y-42950
X166400Y-40900
X166450Y-33150
X166500Y-44150
X166750Y-49399
X166967Y-34250
X166967Y-35250
X167000Y-36850
X167300Y-38600
X167750Y-39150
X167895Y-39945
X168000Y-36850
X168300Y-33150
X168600Y-41400
X168750Y-38700
X168900Y-32450
X169049Y-36800
X169150Y-43800
X169150Y-47500
X169150Y-48500
X169200Y-45500
X169200Y-46500
X169750Y-42800
T2
X162625Y-41887
X162625Y-43163
X162625Y-44438
X163900Y-41887
X163900Y-43163
X163900Y-44438
X165175Y-41887
X165175Y-43163
X165175Y-44438
T3
X147250Y-31110
X147250Y-33650
X147250Y-38730
X147250Y-41270
X147250Y-43810
X147250Y-46350
X147250Y-48890
X147274Y-36190
X148750Y-31110
X148750Y-33650
X148750Y-38730
X148750Y-41270
X148750Y-43810
X148750Y-46350
X148750Y-48890
X148774Y-36190
X151110Y-27250
X151110Y-28750
X151110Y-51250
X151110Y-52750
X153650Y-27250
X153650Y-28750
X153650Y-51250
X153650Y-52750
X156190Y-27226
X156190Y-28726
X156190Y-51226
X156190Y-52726
X158730Y-27250
X158730Y-28750
X158730Y-51250
X158730Y-52750
X161270Y-27250
X161270Y-28750
X161270Y-51250
X161270Y-52750
X163810Y-27250
X163810Y-28750
X163810Y-51250
X163810Y-52750
X166350Y-27250
X166350Y-28750
X166350Y-51250
X166350Y-52750
X168890Y-27250
X168890Y-28750
X168890Y-51250
X168890Y-52750
X171250Y-31110
X171250Y-33650
X171250Y-38730
X171250Y-41270
X171250Y-43810
X171250Y-46350
X171250Y-48890
X171274Y-36190
X172750Y-31110
X172750Y-33650
X172750Y-38730
X172750Y-41270
X172750Y-43810
X172750Y-46350
X172750Y-48890
X172774Y-36190
T0
M30
