G04 #@! TF.GenerationSoftware,KiCad,Pcbnew,(6.0.7)*
G04 #@! TF.CreationDate,2022-09-17T21:46:44-05:00*
G04 #@! TF.ProjectId,picofusion,7069636f-6675-4736-996f-6e2e6b696361,rev?*
G04 #@! TF.SameCoordinates,Original*
G04 #@! TF.FileFunction,Soldermask,Top*
G04 #@! TF.FilePolarity,Negative*
%FSLAX46Y46*%
G04 Gerber Fmt 4.6, Leading zero omitted, Abs format (unit mm)*
G04 Created by KiCad (PCBNEW (6.0.7)) date 2022-09-17 21:46:44*
%MOMM*%
%LPD*%
G01*
G04 APERTURE LIST*
G04 Aperture macros list*
%AMRoundRect*
0 Rectangle with rounded corners*
0 $1 Rounding radius*
0 $2 $3 $4 $5 $6 $7 $8 $9 X,Y pos of 4 corners*
0 Add a 4 corners polygon primitive as box body*
4,1,4,$2,$3,$4,$5,$6,$7,$8,$9,$2,$3,0*
0 Add four circle primitives for the rounded corners*
1,1,$1+$1,$2,$3*
1,1,$1+$1,$4,$5*
1,1,$1+$1,$6,$7*
1,1,$1+$1,$8,$9*
0 Add four rect primitives between the rounded corners*
20,1,$1+$1,$2,$3,$4,$5,0*
20,1,$1+$1,$4,$5,$6,$7,0*
20,1,$1+$1,$6,$7,$8,$9,0*
20,1,$1+$1,$8,$9,$2,$3,0*%
%AMRotRect*
0 Rectangle, with rotation*
0 The origin of the aperture is its center*
0 $1 length*
0 $2 width*
0 $3 Rotation angle, in degrees counterclockwise*
0 Add horizontal line*
21,1,$1,$2,0,0,$3*%
%AMFreePoly0*
4,1,6,0.180000,-0.105000,-0.180000,-0.105000,-0.180000,-0.075000,0.000000,0.105000,0.180000,0.105000,0.180000,-0.105000,0.180000,-0.105000,$1*%
%AMFreePoly1*
4,1,6,0.180000,-0.075000,0.180000,-0.105000,-0.180000,-0.105000,-0.180000,0.105000,0.000000,0.105000,0.180000,-0.075000,0.180000,-0.075000,$1*%
%AMFreePoly2*
4,1,6,0.180000,-0.105000,0.000000,-0.105000,-0.180000,0.075000,-0.180000,0.105000,0.180000,0.105000,0.180000,-0.105000,0.180000,-0.105000,$1*%
%AMFreePoly3*
4,1,6,0.180000,0.075000,0.000000,-0.105000,-0.180000,-0.105000,-0.180000,0.105000,0.180000,0.105000,0.180000,0.075000,0.180000,0.075000,$1*%
G04 Aperture macros list end*
%ADD10RoundRect,0.140000X-0.170000X0.140000X-0.170000X-0.140000X0.170000X-0.140000X0.170000X0.140000X0*%
%ADD11RoundRect,0.135000X-0.135000X-0.185000X0.135000X-0.185000X0.135000X0.185000X-0.135000X0.185000X0*%
%ADD12RoundRect,0.135000X0.185000X-0.135000X0.185000X0.135000X-0.185000X0.135000X-0.185000X-0.135000X0*%
%ADD13RoundRect,0.140000X0.170000X-0.140000X0.170000X0.140000X-0.170000X0.140000X-0.170000X-0.140000X0*%
%ADD14RoundRect,0.140000X-0.140000X-0.170000X0.140000X-0.170000X0.140000X0.170000X-0.140000X0.170000X0*%
%ADD15RoundRect,0.147500X0.147500X0.172500X-0.147500X0.172500X-0.147500X-0.172500X0.147500X-0.172500X0*%
%ADD16RoundRect,0.135000X-0.185000X0.135000X-0.185000X-0.135000X0.185000X-0.135000X0.185000X0.135000X0*%
%ADD17R,0.700000X0.600000*%
%ADD18FreePoly0,90.000000*%
%ADD19FreePoly1,90.000000*%
%ADD20FreePoly2,90.000000*%
%ADD21FreePoly3,90.000000*%
%ADD22RotRect,0.450000X0.450000X135.000000*%
%ADD23R,1.600000X0.200000*%
%ADD24R,0.250000X0.300000*%
%ADD25C,1.350000*%
%ADD26R,1.600000X3.000000*%
%ADD27O,1.350000X1.350000*%
%ADD28RoundRect,0.031500X-0.273500X-0.143500X0.273500X-0.143500X0.273500X0.143500X-0.273500X0.143500X0*%
%ADD29RoundRect,0.031500X0.143500X-0.273500X0.143500X0.273500X-0.143500X0.273500X-0.143500X-0.273500X0*%
%ADD30RoundRect,0.031500X0.273500X0.143500X-0.273500X0.143500X-0.273500X-0.143500X0.273500X-0.143500X0*%
%ADD31RoundRect,0.031500X-0.143500X0.273500X-0.143500X-0.273500X0.143500X-0.273500X0.143500X0.273500X0*%
%ADD32R,0.450000X0.300000*%
%ADD33R,0.300000X0.450000*%
%ADD34R,3.000000X1.600000*%
%ADD35RoundRect,0.140000X0.140000X0.170000X-0.140000X0.170000X-0.140000X-0.170000X0.140000X-0.170000X0*%
%ADD36RoundRect,0.014000X-0.181000X-0.161000X0.181000X-0.161000X0.181000X0.161000X-0.181000X0.161000X0*%
%ADD37RoundRect,0.017500X-0.157500X-0.177500X0.157500X-0.177500X0.157500X0.177500X-0.157500X0.177500X0*%
%ADD38RoundRect,0.135000X0.135000X0.185000X-0.135000X0.185000X-0.135000X-0.185000X0.135000X-0.185000X0*%
%ADD39R,0.650000X0.350000*%
%ADD40R,1.550000X2.400000*%
%ADD41R,1.000000X1.150000*%
%ADD42RoundRect,0.050000X-0.387500X-0.050000X0.387500X-0.050000X0.387500X0.050000X-0.387500X0.050000X0*%
%ADD43RoundRect,0.050000X-0.050000X-0.387500X0.050000X-0.387500X0.050000X0.387500X-0.050000X0.387500X0*%
%ADD44RoundRect,0.144000X-1.456000X-1.456000X1.456000X-1.456000X1.456000X1.456000X-1.456000X1.456000X0*%
G04 APERTURE END LIST*
D10*
G04 #@! TO.C,C11*
X156400000Y-30757500D03*
X156400000Y-31717500D03*
G04 #@! TD*
D11*
G04 #@! TO.C,R9*
X152545000Y-31650000D03*
X153565000Y-31650000D03*
G04 #@! TD*
D12*
G04 #@! TO.C,R15*
X151300000Y-39960000D03*
X151300000Y-38940000D03*
G04 #@! TD*
G04 #@! TO.C,R24*
X168680000Y-48510000D03*
X168680000Y-47490000D03*
G04 #@! TD*
G04 #@! TO.C,R21*
X158000000Y-40460000D03*
X158000000Y-39440000D03*
G04 #@! TD*
D13*
G04 #@! TO.C,C1*
X162300000Y-37100000D03*
X162300000Y-36140000D03*
G04 #@! TD*
D14*
G04 #@! TO.C,C19*
X154220000Y-40100000D03*
X155180000Y-40100000D03*
G04 #@! TD*
D15*
G04 #@! TO.C,D2*
X168385000Y-34250000D03*
X167415000Y-34250000D03*
G04 #@! TD*
D16*
G04 #@! TO.C,R14*
X151300000Y-30790000D03*
X151300000Y-31810000D03*
G04 #@! TD*
D13*
G04 #@! TO.C,C10*
X163300000Y-37680000D03*
X163300000Y-36720000D03*
G04 #@! TD*
D12*
G04 #@! TO.C,R7*
X156400000Y-35935000D03*
X156400000Y-34915000D03*
G04 #@! TD*
D17*
G04 #@! TO.C,D1*
X163750000Y-32700000D03*
X163750000Y-34100000D03*
G04 #@! TD*
D16*
G04 #@! TO.C,R16*
X151300000Y-36890000D03*
X151300000Y-37910000D03*
G04 #@! TD*
D18*
G04 #@! TO.C,U3*
X167725000Y-31070000D03*
D19*
X167725000Y-31930000D03*
D20*
X167075000Y-31070000D03*
D21*
X167075000Y-31930000D03*
D22*
X167400000Y-31500000D03*
G04 #@! TD*
D23*
G04 #@! TO.C,U1*
X159900000Y-36600000D03*
D24*
X159150000Y-37800000D03*
X159650000Y-37800000D03*
X160150000Y-37800000D03*
X160650000Y-37800000D03*
X160650000Y-35400000D03*
X160150000Y-35400000D03*
X159650000Y-35400000D03*
X159150000Y-35400000D03*
G04 #@! TD*
D25*
G04 #@! TO.C,J4*
X151110000Y-52750000D03*
X151110000Y-51250000D03*
D26*
X151110000Y-52000000D03*
D27*
X153650000Y-52750000D03*
D26*
X153650000Y-52000000D03*
D27*
X153650000Y-51250000D03*
D26*
X156190000Y-51976000D03*
D27*
X156190000Y-51226000D03*
X156190000Y-52726000D03*
X158730000Y-51250000D03*
X158730000Y-52750000D03*
D26*
X158730000Y-52000000D03*
D27*
X161270000Y-51250000D03*
X161270000Y-52750000D03*
D26*
X161270000Y-52000000D03*
D27*
X163810000Y-51250000D03*
X163810000Y-52750000D03*
D26*
X163810000Y-52000000D03*
X166350000Y-52000000D03*
D27*
X166350000Y-52750000D03*
X166350000Y-51250000D03*
X168890000Y-52750000D03*
D26*
X168890000Y-52000000D03*
D27*
X168890000Y-51250000D03*
G04 #@! TD*
D10*
G04 #@! TO.C,C4*
X157900000Y-35400000D03*
X157900000Y-36360000D03*
G04 #@! TD*
D12*
G04 #@! TO.C,R11*
X151950000Y-48860000D03*
X151950000Y-47840000D03*
G04 #@! TD*
D28*
G04 #@! TO.C,U4*
X152715000Y-37100000D03*
X152715000Y-37600000D03*
X152715000Y-38100000D03*
X152715000Y-38600000D03*
D29*
X153375000Y-38760000D03*
X153875000Y-38760000D03*
X154375000Y-38760000D03*
D30*
X155035000Y-38600000D03*
X155035000Y-38100000D03*
X155035000Y-37600000D03*
X155035000Y-37100000D03*
D31*
X154375000Y-36940000D03*
X153875000Y-36940000D03*
X153375000Y-36940000D03*
G04 #@! TD*
D10*
G04 #@! TO.C,C5*
X155800000Y-48110000D03*
X155800000Y-49070000D03*
G04 #@! TD*
D13*
G04 #@! TO.C,C25*
X168000000Y-38300000D03*
X168000000Y-37340000D03*
G04 #@! TD*
D32*
G04 #@! TO.C,U5*
X152600000Y-33437500D03*
X152600000Y-33937500D03*
X152600000Y-34437500D03*
X152600000Y-34937500D03*
D33*
X153125000Y-35462500D03*
X153625000Y-35462500D03*
X154125000Y-35462500D03*
X154625000Y-35462500D03*
D32*
X155150000Y-34937500D03*
X155150000Y-34437500D03*
X155150000Y-33937500D03*
X155150000Y-33437500D03*
D33*
X154625000Y-32912500D03*
X154125000Y-32912500D03*
X153625000Y-32912500D03*
X153125000Y-32912500D03*
G04 #@! TD*
D25*
G04 #@! TO.C,J2*
X171250000Y-31110000D03*
X172750000Y-31110000D03*
D34*
X172000000Y-31110000D03*
X172000000Y-33650000D03*
D27*
X172750000Y-33650000D03*
X171250000Y-33650000D03*
X172774000Y-36190000D03*
D34*
X172024000Y-36190000D03*
D27*
X171274000Y-36190000D03*
X172750000Y-38730000D03*
X171250000Y-38730000D03*
D34*
X172000000Y-38730000D03*
D27*
X172750000Y-41270000D03*
X171250000Y-41270000D03*
D34*
X172000000Y-41270000D03*
D27*
X172750000Y-43810000D03*
D34*
X172000000Y-43810000D03*
D27*
X171250000Y-43810000D03*
D34*
X172000000Y-46350000D03*
D27*
X172750000Y-46350000D03*
X171250000Y-46350000D03*
D34*
X172000000Y-48890000D03*
D27*
X172750000Y-48890000D03*
X171250000Y-48890000D03*
G04 #@! TD*
D35*
G04 #@! TO.C,C9*
X163730000Y-48300000D03*
X162770000Y-48300000D03*
G04 #@! TD*
D13*
G04 #@! TO.C,C17*
X156400000Y-40130000D03*
X156400000Y-39170000D03*
G04 #@! TD*
D14*
G04 #@! TO.C,C28*
X155995000Y-43762500D03*
X156955000Y-43762500D03*
G04 #@! TD*
D10*
G04 #@! TO.C,C18*
X156400000Y-37020000D03*
X156400000Y-37980000D03*
G04 #@! TD*
D12*
G04 #@! TO.C,R2*
X165057500Y-35700000D03*
X165057500Y-34680000D03*
G04 #@! TD*
D13*
G04 #@! TO.C,C26*
X164300000Y-37680000D03*
X164300000Y-36720000D03*
G04 #@! TD*
D14*
G04 #@! TO.C,C8*
X160210000Y-48300000D03*
X161170000Y-48300000D03*
G04 #@! TD*
D13*
G04 #@! TO.C,C20*
X156400000Y-33827500D03*
X156400000Y-32867500D03*
G04 #@! TD*
D35*
G04 #@! TO.C,C6*
X158930000Y-43762500D03*
X157970000Y-43762500D03*
G04 #@! TD*
D36*
G04 #@! TO.C,U6*
X159130000Y-32850000D03*
X159130000Y-33350000D03*
D37*
X159410000Y-33880000D03*
X159910000Y-33880000D03*
X160410000Y-33880000D03*
D36*
X160690000Y-33350000D03*
X160690000Y-32850000D03*
D37*
X160410000Y-32320000D03*
X159910000Y-32320000D03*
X159410000Y-32320000D03*
G04 #@! TD*
D10*
G04 #@! TO.C,C14*
X168900000Y-31020000D03*
X168900000Y-31980000D03*
G04 #@! TD*
D38*
G04 #@! TO.C,R22*
X154210000Y-41650000D03*
X153190000Y-41650000D03*
G04 #@! TD*
D12*
G04 #@! TO.C,R8*
X151300000Y-33870000D03*
X151300000Y-32850000D03*
G04 #@! TD*
D14*
G04 #@! TO.C,C16*
X166920000Y-33150000D03*
X167880000Y-33150000D03*
G04 #@! TD*
D25*
G04 #@! TO.C,J3*
X147250000Y-31110000D03*
D34*
X148000000Y-31110000D03*
D25*
X148750000Y-31110000D03*
D34*
X148000000Y-33650000D03*
D27*
X147250000Y-33650000D03*
X148750000Y-33650000D03*
X148774000Y-36190000D03*
X147274000Y-36190000D03*
D34*
X148024000Y-36190000D03*
X148000000Y-38730000D03*
D27*
X147250000Y-38730000D03*
X148750000Y-38730000D03*
D34*
X148000000Y-41270000D03*
D27*
X148750000Y-41270000D03*
X147250000Y-41270000D03*
X148750000Y-43810000D03*
D34*
X148000000Y-43810000D03*
D27*
X147250000Y-43810000D03*
X147250000Y-46350000D03*
X148750000Y-46350000D03*
D34*
X148000000Y-46350000D03*
D27*
X147250000Y-48890000D03*
X148750000Y-48890000D03*
D34*
X148000000Y-48890000D03*
G04 #@! TD*
D14*
G04 #@! TO.C,C21*
X154470000Y-31650000D03*
X155430000Y-31650000D03*
G04 #@! TD*
D38*
G04 #@! TO.C,R20*
X158410000Y-31150000D03*
X157390000Y-31150000D03*
G04 #@! TD*
D10*
G04 #@! TO.C,C15*
X168680000Y-45520000D03*
X168680000Y-46480000D03*
G04 #@! TD*
D16*
G04 #@! TO.C,R5*
X168690000Y-43090000D03*
X168690000Y-44110000D03*
G04 #@! TD*
G04 #@! TO.C,R18*
X167150000Y-47890000D03*
X167150000Y-48910000D03*
G04 #@! TD*
D14*
G04 #@! TO.C,C27*
X151200000Y-42700000D03*
X152160000Y-42700000D03*
G04 #@! TD*
D38*
G04 #@! TO.C,R13*
X154200000Y-42700000D03*
X153180000Y-42700000D03*
G04 #@! TD*
D13*
G04 #@! TO.C,C7*
X159000000Y-40432500D03*
X159000000Y-39472500D03*
G04 #@! TD*
G04 #@! TO.C,C12*
X151290000Y-35880000D03*
X151290000Y-34920000D03*
G04 #@! TD*
D38*
G04 #@! TO.C,R17*
X152190000Y-41650000D03*
X151170000Y-41650000D03*
G04 #@! TD*
D25*
G04 #@! TO.C,J1*
X151110000Y-27250000D03*
X151110000Y-28750000D03*
D26*
X151110000Y-28000000D03*
D27*
X153650000Y-28750000D03*
D26*
X153650000Y-28000000D03*
D27*
X153650000Y-27250000D03*
X156190000Y-27226000D03*
D26*
X156190000Y-27976000D03*
D27*
X156190000Y-28726000D03*
D26*
X158730000Y-28000000D03*
D27*
X158730000Y-27250000D03*
X158730000Y-28750000D03*
D26*
X161270000Y-28000000D03*
D27*
X161270000Y-27250000D03*
X161270000Y-28750000D03*
X163810000Y-28750000D03*
D26*
X163810000Y-28000000D03*
D27*
X163810000Y-27250000D03*
X166350000Y-28750000D03*
D26*
X166350000Y-28000000D03*
D27*
X166350000Y-27250000D03*
X168890000Y-27250000D03*
D26*
X168890000Y-28000000D03*
D27*
X168890000Y-28750000D03*
G04 #@! TD*
D13*
G04 #@! TO.C,C13*
X167000000Y-38300000D03*
X167000000Y-37340000D03*
G04 #@! TD*
D39*
G04 #@! TO.C,U7*
X154450000Y-46085400D03*
X154450000Y-45435400D03*
X154450000Y-44785400D03*
X154450000Y-44135400D03*
X151350000Y-44135400D03*
X151350000Y-44785400D03*
X151350000Y-45435400D03*
X151350000Y-46085400D03*
D40*
X152900000Y-45110400D03*
G04 #@! TD*
D12*
G04 #@! TO.C,R4*
X169050000Y-38310000D03*
X169050000Y-37290000D03*
G04 #@! TD*
D38*
G04 #@! TO.C,R6*
X168410000Y-35250000D03*
X167390000Y-35250000D03*
G04 #@! TD*
D12*
G04 #@! TO.C,R23*
X157900000Y-38360000D03*
X157900000Y-37340000D03*
G04 #@! TD*
D13*
G04 #@! TO.C,C24*
X168680000Y-40432500D03*
X168680000Y-39472500D03*
G04 #@! TD*
D10*
G04 #@! TO.C,C22*
X161950000Y-32540000D03*
X161950000Y-33500000D03*
G04 #@! TD*
D41*
G04 #@! TO.C,Y1*
X157260000Y-46925000D03*
X157260000Y-48675000D03*
X158660000Y-48675000D03*
X158660000Y-46925000D03*
G04 #@! TD*
D14*
G04 #@! TO.C,C23*
X159415000Y-31150000D03*
X160375000Y-31150000D03*
G04 #@! TD*
G04 #@! TO.C,C2*
X164620000Y-48300000D03*
X165580000Y-48300000D03*
G04 #@! TD*
D16*
G04 #@! TO.C,R10*
X150900000Y-47830000D03*
X150900000Y-48850000D03*
G04 #@! TD*
D38*
G04 #@! TO.C,R12*
X154200000Y-47600000D03*
X153180000Y-47600000D03*
G04 #@! TD*
D11*
G04 #@! TO.C,R19*
X161390000Y-31150000D03*
X162410000Y-31150000D03*
G04 #@! TD*
D12*
G04 #@! TO.C,R1*
X157450000Y-33160000D03*
X157450000Y-32140000D03*
G04 #@! TD*
D13*
G04 #@! TO.C,C3*
X166000000Y-38300000D03*
X166000000Y-37340000D03*
G04 #@! TD*
D42*
G04 #@! TO.C,U2*
X160462500Y-40562500D03*
X160462500Y-40962500D03*
X160462500Y-41362500D03*
X160462500Y-41762500D03*
X160462500Y-42162500D03*
X160462500Y-42562500D03*
X160462500Y-42962500D03*
X160462500Y-43362500D03*
X160462500Y-43762500D03*
X160462500Y-44162500D03*
X160462500Y-44562500D03*
X160462500Y-44962500D03*
X160462500Y-45362500D03*
X160462500Y-45762500D03*
D43*
X161300000Y-46600000D03*
X161700000Y-46600000D03*
X162100000Y-46600000D03*
X162500000Y-46600000D03*
X162900000Y-46600000D03*
X163300000Y-46600000D03*
X163700000Y-46600000D03*
X164100000Y-46600000D03*
X164500000Y-46600000D03*
X164900000Y-46600000D03*
X165300000Y-46600000D03*
X165700000Y-46600000D03*
X166100000Y-46600000D03*
X166500000Y-46600000D03*
D42*
X167337500Y-45762500D03*
X167337500Y-45362500D03*
X167337500Y-44962500D03*
X167337500Y-44562500D03*
X167337500Y-44162500D03*
X167337500Y-43762500D03*
X167337500Y-43362500D03*
X167337500Y-42962500D03*
X167337500Y-42562500D03*
X167337500Y-42162500D03*
X167337500Y-41762500D03*
X167337500Y-41362500D03*
X167337500Y-40962500D03*
X167337500Y-40562500D03*
D43*
X166500000Y-39725000D03*
X166100000Y-39725000D03*
X165700000Y-39725000D03*
X165300000Y-39725000D03*
X164900000Y-39725000D03*
X164500000Y-39725000D03*
X164100000Y-39725000D03*
X163700000Y-39725000D03*
X163300000Y-39725000D03*
X162900000Y-39725000D03*
X162500000Y-39725000D03*
X162100000Y-39725000D03*
X161700000Y-39725000D03*
X161300000Y-39725000D03*
D44*
X163900000Y-43162500D03*
G04 #@! TD*
D12*
G04 #@! TO.C,R3*
X166120000Y-35700000D03*
X166120000Y-34680000D03*
G04 #@! TD*
D17*
G04 #@! TO.C,D3*
X165600000Y-32700000D03*
X165600000Y-31300000D03*
G04 #@! TD*
M02*
