G04 #@! TF.GenerationSoftware,KiCad,Pcbnew,(6.0.7)*
G04 #@! TF.CreationDate,2022-09-17T21:46:44-05:00*
G04 #@! TF.ProjectId,picofusion,7069636f-6675-4736-996f-6e2e6b696361,rev?*
G04 #@! TF.SameCoordinates,Original*
G04 #@! TF.FileFunction,Copper,L1,Top*
G04 #@! TF.FilePolarity,Positive*
%FSLAX46Y46*%
G04 Gerber Fmt 4.6, Leading zero omitted, Abs format (unit mm)*
G04 Created by KiCad (PCBNEW (6.0.7)) date 2022-09-17 21:46:44*
%MOMM*%
%LPD*%
G01*
G04 APERTURE LIST*
G04 Aperture macros list*
%AMRoundRect*
0 Rectangle with rounded corners*
0 $1 Rounding radius*
0 $2 $3 $4 $5 $6 $7 $8 $9 X,Y pos of 4 corners*
0 Add a 4 corners polygon primitive as box body*
4,1,4,$2,$3,$4,$5,$6,$7,$8,$9,$2,$3,0*
0 Add four circle primitives for the rounded corners*
1,1,$1+$1,$2,$3*
1,1,$1+$1,$4,$5*
1,1,$1+$1,$6,$7*
1,1,$1+$1,$8,$9*
0 Add four rect primitives between the rounded corners*
20,1,$1+$1,$2,$3,$4,$5,0*
20,1,$1+$1,$4,$5,$6,$7,0*
20,1,$1+$1,$6,$7,$8,$9,0*
20,1,$1+$1,$8,$9,$2,$3,0*%
%AMRotRect*
0 Rectangle, with rotation*
0 The origin of the aperture is its center*
0 $1 length*
0 $2 width*
0 $3 Rotation angle, in degrees counterclockwise*
0 Add horizontal line*
21,1,$1,$2,0,0,$3*%
%AMFreePoly0*
4,1,6,0.230000,0.054289,0.020711,-0.155000,-0.230000,-0.155000,-0.230000,0.155000,0.230000,0.155000,0.230000,0.054289,0.230000,0.054289,$1*%
%AMFreePoly1*
4,1,6,0.230000,-0.054289,0.230000,-0.155000,-0.230000,-0.155000,-0.230000,0.155000,0.020711,0.155000,0.230000,-0.054289,0.230000,-0.054289,$1*%
%AMFreePoly2*
4,1,6,0.230000,-0.155000,-0.230000,-0.155000,-0.230000,-0.054289,-0.020711,0.155000,0.230000,0.155000,0.230000,-0.155000,0.230000,-0.155000,$1*%
%AMFreePoly3*
4,1,6,0.230000,-0.155000,-0.020711,-0.155000,-0.230000,0.054289,-0.230000,0.155000,0.230000,0.155000,0.230000,-0.155000,0.230000,-0.155000,$1*%
G04 Aperture macros list end*
G04 #@! TA.AperFunction,SMDPad,CuDef*
%ADD10RoundRect,0.140000X-0.170000X0.140000X-0.170000X-0.140000X0.170000X-0.140000X0.170000X0.140000X0*%
G04 #@! TD*
G04 #@! TA.AperFunction,SMDPad,CuDef*
%ADD11RoundRect,0.135000X-0.135000X-0.185000X0.135000X-0.185000X0.135000X0.185000X-0.135000X0.185000X0*%
G04 #@! TD*
G04 #@! TA.AperFunction,SMDPad,CuDef*
%ADD12RoundRect,0.135000X0.185000X-0.135000X0.185000X0.135000X-0.185000X0.135000X-0.185000X-0.135000X0*%
G04 #@! TD*
G04 #@! TA.AperFunction,SMDPad,CuDef*
%ADD13RoundRect,0.140000X0.170000X-0.140000X0.170000X0.140000X-0.170000X0.140000X-0.170000X-0.140000X0*%
G04 #@! TD*
G04 #@! TA.AperFunction,SMDPad,CuDef*
%ADD14RoundRect,0.140000X-0.140000X-0.170000X0.140000X-0.170000X0.140000X0.170000X-0.140000X0.170000X0*%
G04 #@! TD*
G04 #@! TA.AperFunction,SMDPad,CuDef*
%ADD15RoundRect,0.147500X0.147500X0.172500X-0.147500X0.172500X-0.147500X-0.172500X0.147500X-0.172500X0*%
G04 #@! TD*
G04 #@! TA.AperFunction,SMDPad,CuDef*
%ADD16RoundRect,0.135000X-0.185000X0.135000X-0.185000X-0.135000X0.185000X-0.135000X0.185000X0.135000X0*%
G04 #@! TD*
G04 #@! TA.AperFunction,SMDPad,CuDef*
%ADD17R,0.700000X0.600000*%
G04 #@! TD*
G04 #@! TA.AperFunction,SMDPad,CuDef*
%ADD18FreePoly0,90.000000*%
G04 #@! TD*
G04 #@! TA.AperFunction,SMDPad,CuDef*
%ADD19FreePoly1,90.000000*%
G04 #@! TD*
G04 #@! TA.AperFunction,SMDPad,CuDef*
%ADD20FreePoly2,90.000000*%
G04 #@! TD*
G04 #@! TA.AperFunction,SMDPad,CuDef*
%ADD21FreePoly3,90.000000*%
G04 #@! TD*
G04 #@! TA.AperFunction,SMDPad,CuDef*
%ADD22RotRect,0.550000X0.550000X135.000000*%
G04 #@! TD*
G04 #@! TA.AperFunction,SMDPad,CuDef*
%ADD23R,1.600000X0.200000*%
G04 #@! TD*
G04 #@! TA.AperFunction,SMDPad,CuDef*
%ADD24R,0.250000X0.300000*%
G04 #@! TD*
G04 #@! TA.AperFunction,ComponentPad*
%ADD25C,1.350000*%
G04 #@! TD*
G04 #@! TA.AperFunction,SMDPad,CuDef*
%ADD26R,1.600000X3.000000*%
G04 #@! TD*
G04 #@! TA.AperFunction,ComponentPad*
%ADD27O,1.350000X1.350000*%
G04 #@! TD*
G04 #@! TA.AperFunction,SMDPad,CuDef*
%ADD28RoundRect,0.031500X-0.273500X-0.143500X0.273500X-0.143500X0.273500X0.143500X-0.273500X0.143500X0*%
G04 #@! TD*
G04 #@! TA.AperFunction,SMDPad,CuDef*
%ADD29RoundRect,0.031500X0.143500X-0.273500X0.143500X0.273500X-0.143500X0.273500X-0.143500X-0.273500X0*%
G04 #@! TD*
G04 #@! TA.AperFunction,SMDPad,CuDef*
%ADD30RoundRect,0.031500X0.273500X0.143500X-0.273500X0.143500X-0.273500X-0.143500X0.273500X-0.143500X0*%
G04 #@! TD*
G04 #@! TA.AperFunction,SMDPad,CuDef*
%ADD31RoundRect,0.031500X-0.143500X0.273500X-0.143500X-0.273500X0.143500X-0.273500X0.143500X0.273500X0*%
G04 #@! TD*
G04 #@! TA.AperFunction,SMDPad,CuDef*
%ADD32R,0.450000X0.300000*%
G04 #@! TD*
G04 #@! TA.AperFunction,SMDPad,CuDef*
%ADD33R,0.300000X0.450000*%
G04 #@! TD*
G04 #@! TA.AperFunction,SMDPad,CuDef*
%ADD34R,3.000000X1.600000*%
G04 #@! TD*
G04 #@! TA.AperFunction,SMDPad,CuDef*
%ADD35RoundRect,0.140000X0.140000X0.170000X-0.140000X0.170000X-0.140000X-0.170000X0.140000X-0.170000X0*%
G04 #@! TD*
G04 #@! TA.AperFunction,SMDPad,CuDef*
%ADD36RoundRect,0.014000X-0.181000X-0.161000X0.181000X-0.161000X0.181000X0.161000X-0.181000X0.161000X0*%
G04 #@! TD*
G04 #@! TA.AperFunction,SMDPad,CuDef*
%ADD37RoundRect,0.017500X-0.157500X-0.177500X0.157500X-0.177500X0.157500X0.177500X-0.157500X0.177500X0*%
G04 #@! TD*
G04 #@! TA.AperFunction,SMDPad,CuDef*
%ADD38RoundRect,0.135000X0.135000X0.185000X-0.135000X0.185000X-0.135000X-0.185000X0.135000X-0.185000X0*%
G04 #@! TD*
G04 #@! TA.AperFunction,SMDPad,CuDef*
%ADD39R,0.650000X0.350000*%
G04 #@! TD*
G04 #@! TA.AperFunction,SMDPad,CuDef*
%ADD40R,1.550000X2.400000*%
G04 #@! TD*
G04 #@! TA.AperFunction,SMDPad,CuDef*
%ADD41R,1.000000X1.150000*%
G04 #@! TD*
G04 #@! TA.AperFunction,SMDPad,CuDef*
%ADD42RoundRect,0.050000X-0.387500X-0.050000X0.387500X-0.050000X0.387500X0.050000X-0.387500X0.050000X0*%
G04 #@! TD*
G04 #@! TA.AperFunction,SMDPad,CuDef*
%ADD43RoundRect,0.050000X-0.050000X-0.387500X0.050000X-0.387500X0.050000X0.387500X-0.050000X0.387500X0*%
G04 #@! TD*
G04 #@! TA.AperFunction,ComponentPad*
%ADD44C,0.600000*%
G04 #@! TD*
G04 #@! TA.AperFunction,SMDPad,CuDef*
%ADD45RoundRect,0.144000X-1.456000X-1.456000X1.456000X-1.456000X1.456000X1.456000X-1.456000X1.456000X0*%
G04 #@! TD*
G04 #@! TA.AperFunction,ViaPad*
%ADD46C,0.600000*%
G04 #@! TD*
G04 #@! TA.AperFunction,Conductor*
%ADD47C,0.250000*%
G04 #@! TD*
G04 #@! TA.AperFunction,Conductor*
%ADD48C,0.150000*%
G04 #@! TD*
G04 APERTURE END LIST*
D10*
G04 #@! TO.P,C11,1*
G04 #@! TO.N,/RUN*
X156400000Y-30757500D03*
G04 #@! TO.P,C11,2*
G04 #@! TO.N,GND*
X156400000Y-31717500D03*
G04 #@! TD*
D11*
G04 #@! TO.P,R9,1*
G04 #@! TO.N,+3V3*
X152545000Y-31650000D03*
G04 #@! TO.P,R9,2*
G04 #@! TO.N,/I2C0_SDA*
X153565000Y-31650000D03*
G04 #@! TD*
D12*
G04 #@! TO.P,R15,1*
G04 #@! TO.N,/SPI0_PICO*
X151300000Y-39960000D03*
G04 #@! TO.P,R15,2*
G04 #@! TO.N,/SDA{slash}SDI*
X151300000Y-38940000D03*
G04 #@! TD*
G04 #@! TO.P,R24,1*
G04 #@! TO.N,/SPI0_nCS*
X168680000Y-48510000D03*
G04 #@! TO.P,R24,2*
G04 #@! TO.N,/SD_nCD*
X168680000Y-47490000D03*
G04 #@! TD*
G04 #@! TO.P,R21,1*
G04 #@! TO.N,+3V3*
X158000000Y-40460000D03*
G04 #@! TO.P,R21,2*
G04 #@! TO.N,/QSPI_nCS*
X158000000Y-39440000D03*
G04 #@! TD*
D13*
G04 #@! TO.P,C1,1*
G04 #@! TO.N,+1V1*
X162300000Y-37100000D03*
G04 #@! TO.P,C1,2*
G04 #@! TO.N,GND*
X162300000Y-36140000D03*
G04 #@! TD*
D14*
G04 #@! TO.P,C19,1*
G04 #@! TO.N,+3V3*
X154220000Y-40100000D03*
G04 #@! TO.P,C19,2*
G04 #@! TO.N,GND*
X155180000Y-40100000D03*
G04 #@! TD*
D15*
G04 #@! TO.P,D2,1,K*
G04 #@! TO.N,Net-(D2-Pad1)*
X168385000Y-34250000D03*
G04 #@! TO.P,D2,2,A*
G04 #@! TO.N,+3V3*
X167415000Y-34250000D03*
G04 #@! TD*
D16*
G04 #@! TO.P,R14,1*
G04 #@! TO.N,/I2C0_SDA*
X151300000Y-30790000D03*
G04 #@! TO.P,R14,2*
G04 #@! TO.N,/SDA{slash}SDI*
X151300000Y-31810000D03*
G04 #@! TD*
D13*
G04 #@! TO.P,C10,1*
G04 #@! TO.N,+3V3*
X163300000Y-37680000D03*
G04 #@! TO.P,C10,2*
G04 #@! TO.N,GND*
X163300000Y-36720000D03*
G04 #@! TD*
D12*
G04 #@! TO.P,R7,1*
G04 #@! TO.N,/SPI0_nCS*
X156400000Y-35935000D03*
G04 #@! TO.P,R7,2*
G04 #@! TO.N,GND*
X156400000Y-34915000D03*
G04 #@! TD*
D17*
G04 #@! TO.P,D1,1,K*
G04 #@! TO.N,+5V*
X163750000Y-32700000D03*
G04 #@! TO.P,D1,2,A*
G04 #@! TO.N,GND*
X163750000Y-34100000D03*
G04 #@! TD*
D16*
G04 #@! TO.P,R16,1*
G04 #@! TO.N,/I2C0_SCL*
X151300000Y-36890000D03*
G04 #@! TO.P,R16,2*
G04 #@! TO.N,/SCL{slash}SCK*
X151300000Y-37910000D03*
G04 #@! TD*
D18*
G04 #@! TO.P,U3,1,OUT*
G04 #@! TO.N,+3V3*
X167075000Y-31930000D03*
D19*
G04 #@! TO.P,U3,2,GND*
G04 #@! TO.N,GND*
X167725000Y-31930000D03*
D20*
G04 #@! TO.P,U3,3,EN*
G04 #@! TO.N,Net-(C14-Pad1)*
X167725000Y-31070000D03*
D21*
G04 #@! TO.P,U3,4,IN*
X167075000Y-31070000D03*
D22*
G04 #@! TO.P,U3,5,GND*
G04 #@! TO.N,GND*
X167400000Y-31500000D03*
G04 #@! TD*
D23*
G04 #@! TO.P,U1,*
G04 #@! TO.N,*
X159900000Y-36600000D03*
D24*
G04 #@! TO.P,U1,1,~{CS}*
G04 #@! TO.N,/QSPI_nCS*
X159150000Y-37800000D03*
G04 #@! TO.P,U1,2,DO(IO1)*
G04 #@! TO.N,/QSPI_SD1*
X159650000Y-37800000D03*
G04 #@! TO.P,U1,3,IO2*
G04 #@! TO.N,/QSPI_SD2*
X160150000Y-37800000D03*
G04 #@! TO.P,U1,4,GND*
G04 #@! TO.N,GND*
X160650000Y-37800000D03*
G04 #@! TO.P,U1,5,DI(IO0)*
G04 #@! TO.N,/QSPI_SD0*
X160650000Y-35400000D03*
G04 #@! TO.P,U1,6,CLK*
G04 #@! TO.N,/QSPI_SCLK*
X160150000Y-35400000D03*
G04 #@! TO.P,U1,7,IO3*
G04 #@! TO.N,/QSPI_SD3*
X159650000Y-35400000D03*
G04 #@! TO.P,U1,8,VCC*
G04 #@! TO.N,+3V3*
X159150000Y-35400000D03*
G04 #@! TD*
D25*
G04 #@! TO.P,J4,1,Pin_1*
G04 #@! TO.N,+5V*
X151110000Y-52750000D03*
X151110000Y-51250000D03*
D26*
X151110000Y-52000000D03*
D27*
G04 #@! TO.P,J4,2,Pin_2*
G04 #@! TO.N,/IMU_HEATER*
X153650000Y-52750000D03*
D26*
X153650000Y-52000000D03*
D27*
X153650000Y-51250000D03*
D26*
G04 #@! TO.P,J4,3,Pin_3*
G04 #@! TO.N,/BUZZER*
X156190000Y-51976000D03*
D27*
X156190000Y-51226000D03*
X156190000Y-52726000D03*
G04 #@! TO.P,J4,4,Pin_4*
G04 #@! TO.N,/UART0_TX_TELEM*
X158730000Y-51250000D03*
X158730000Y-52750000D03*
D26*
X158730000Y-52000000D03*
D27*
G04 #@! TO.P,J4,5,Pin_5*
G04 #@! TO.N,/UART0_RX_TELEM*
X161270000Y-51250000D03*
X161270000Y-52750000D03*
D26*
X161270000Y-52000000D03*
D27*
G04 #@! TO.P,J4,6,Pin_6*
G04 #@! TO.N,/UART0_CTS_TELEM*
X163810000Y-51250000D03*
X163810000Y-52750000D03*
D26*
X163810000Y-52000000D03*
G04 #@! TO.P,J4,7,Pin_7*
G04 #@! TO.N,/UART0_RTS_TELEM*
X166350000Y-52000000D03*
D27*
X166350000Y-52750000D03*
X166350000Y-51250000D03*
G04 #@! TO.P,J4,8,Pin_8*
G04 #@! TO.N,GND*
X168890000Y-52750000D03*
D26*
X168890000Y-52000000D03*
D27*
X168890000Y-51250000D03*
G04 #@! TD*
D10*
G04 #@! TO.P,C4,1*
G04 #@! TO.N,+3V3*
X157900000Y-35400000D03*
G04 #@! TO.P,C4,2*
G04 #@! TO.N,GND*
X157900000Y-36360000D03*
G04 #@! TD*
D12*
G04 #@! TO.P,R11,1*
G04 #@! TO.N,+3V3*
X151950000Y-48860000D03*
G04 #@! TO.P,R11,2*
G04 #@! TO.N,/CAN_SILENT*
X151950000Y-47840000D03*
G04 #@! TD*
D28*
G04 #@! TO.P,U4,1,AD0/SDO*
G04 #@! TO.N,/SPI0_POCI*
X152715000Y-37100000D03*
G04 #@! TO.P,U4,2,RESV*
G04 #@! TO.N,unconnected-(U4-Pad2)*
X152715000Y-37600000D03*
G04 #@! TO.P,U4,3,RESV*
G04 #@! TO.N,unconnected-(U4-Pad3)*
X152715000Y-38100000D03*
G04 #@! TO.P,U4,4,INT*
G04 #@! TO.N,/DRDY_ICM42605*
X152715000Y-38600000D03*
D29*
G04 #@! TO.P,U4,5,VDDIO*
G04 #@! TO.N,+3V3*
X153375000Y-38760000D03*
G04 #@! TO.P,U4,6,GND*
G04 #@! TO.N,GND*
X153875000Y-38760000D03*
G04 #@! TO.P,U4,7,RESV*
G04 #@! TO.N,unconnected-(U4-Pad7)*
X154375000Y-38760000D03*
D30*
G04 #@! TO.P,U4,8,VDD*
G04 #@! TO.N,+3V3*
X155035000Y-38600000D03*
G04 #@! TO.P,U4,9,FSYNC*
G04 #@! TO.N,GND*
X155035000Y-38100000D03*
G04 #@! TO.P,U4,10,RESV*
G04 #@! TO.N,unconnected-(U4-Pad10)*
X155035000Y-37600000D03*
G04 #@! TO.P,U4,11,RESV*
G04 #@! TO.N,unconnected-(U4-Pad11)*
X155035000Y-37100000D03*
D31*
G04 #@! TO.P,U4,12,nCS*
G04 #@! TO.N,/SPI0_nCS*
X154375000Y-36940000D03*
G04 #@! TO.P,U4,13,SCL/SCLK*
G04 #@! TO.N,/SPI0_SCK*
X153875000Y-36940000D03*
G04 #@! TO.P,U4,14,SDA/SDI*
G04 #@! TO.N,/SPI0_PICO*
X153375000Y-36940000D03*
G04 #@! TD*
D10*
G04 #@! TO.P,C5,1*
G04 #@! TO.N,/XIN*
X155800000Y-48110000D03*
G04 #@! TO.P,C5,2*
G04 #@! TO.N,GND*
X155800000Y-49070000D03*
G04 #@! TD*
D13*
G04 #@! TO.P,C25,1*
G04 #@! TO.N,+3V3*
X168000000Y-38300000D03*
G04 #@! TO.P,C25,2*
G04 #@! TO.N,GND*
X168000000Y-37340000D03*
G04 #@! TD*
D32*
G04 #@! TO.P,U5,1,SCL*
G04 #@! TO.N,/I2C0_SCL*
X152600000Y-33437500D03*
G04 #@! TO.P,U5,2,VDD*
G04 #@! TO.N,+3V3*
X152600000Y-33937500D03*
G04 #@! TO.P,U5,3*
G04 #@! TO.N,N/C*
X152600000Y-34437500D03*
G04 #@! TO.P,U5,4,~{CS}*
G04 #@! TO.N,+3V3*
X152600000Y-34937500D03*
D33*
G04 #@! TO.P,U5,5,SDO*
G04 #@! TO.N,unconnected-(U5-Pad5)*
X153125000Y-35462500D03*
G04 #@! TO.P,U5,6*
G04 #@! TO.N,N/C*
X153625000Y-35462500D03*
G04 #@! TO.P,U5,7*
X154125000Y-35462500D03*
G04 #@! TO.P,U5,8*
X154625000Y-35462500D03*
D32*
G04 #@! TO.P,U5,9,GND*
G04 #@! TO.N,GND*
X155150000Y-34937500D03*
G04 #@! TO.P,U5,10,CAP*
G04 #@! TO.N,Net-(C20-Pad1)*
X155150000Y-34437500D03*
G04 #@! TO.P,U5,11,GND*
G04 #@! TO.N,GND*
X155150000Y-33937500D03*
G04 #@! TO.P,U5,12*
G04 #@! TO.N,N/C*
X155150000Y-33437500D03*
D33*
G04 #@! TO.P,U5,13,VDDIO*
G04 #@! TO.N,+3V3*
X154625000Y-32912500D03*
G04 #@! TO.P,U5,14*
G04 #@! TO.N,N/C*
X154125000Y-32912500D03*
G04 #@! TO.P,U5,15,INT*
G04 #@! TO.N,unconnected-(U5-Pad15)*
X153625000Y-32912500D03*
G04 #@! TO.P,U5,16,SDA*
G04 #@! TO.N,/I2C0_SDA*
X153125000Y-32912500D03*
G04 #@! TD*
D25*
G04 #@! TO.P,J2,1,Pin_1*
G04 #@! TO.N,/SPI1_SCK_SD*
X171250000Y-31110000D03*
X172750000Y-31110000D03*
D34*
X172000000Y-31110000D03*
G04 #@! TO.P,J2,2,Pin_2*
G04 #@! TO.N,/SPI1_POCI_SD*
X172000000Y-33650000D03*
D27*
X172750000Y-33650000D03*
X171250000Y-33650000D03*
G04 #@! TO.P,J2,3,Pin_3*
G04 #@! TO.N,/SPI1_PICO_SD*
X172774000Y-36190000D03*
D34*
X172024000Y-36190000D03*
D27*
X171274000Y-36190000D03*
G04 #@! TO.P,J2,4,Pin_4*
G04 #@! TO.N,/SPI1_nCS_SD*
X172750000Y-38730000D03*
X171250000Y-38730000D03*
D34*
X172000000Y-38730000D03*
D27*
G04 #@! TO.P,J2,5,Pin_5*
G04 #@! TO.N,/SD_nCD*
X172750000Y-41270000D03*
X171250000Y-41270000D03*
D34*
X172000000Y-41270000D03*
D27*
G04 #@! TO.P,J2,6,Pin_6*
G04 #@! TO.N,/UART1_RX_GNSS*
X172750000Y-43810000D03*
D34*
X172000000Y-43810000D03*
D27*
X171250000Y-43810000D03*
D34*
G04 #@! TO.P,J2,7,Pin_7*
G04 #@! TO.N,/UART1_TX_GNSS*
X172000000Y-46350000D03*
D27*
X172750000Y-46350000D03*
X171250000Y-46350000D03*
D34*
G04 #@! TO.P,J2,8,Pin_8*
G04 #@! TO.N,GND*
X172000000Y-48890000D03*
D27*
X172750000Y-48890000D03*
X171250000Y-48890000D03*
G04 #@! TD*
D35*
G04 #@! TO.P,C9,1*
G04 #@! TO.N,+3V3*
X163730000Y-48300000D03*
G04 #@! TO.P,C9,2*
G04 #@! TO.N,GND*
X162770000Y-48300000D03*
G04 #@! TD*
D13*
G04 #@! TO.P,C17,1*
G04 #@! TO.N,GND*
X156400000Y-40130000D03*
G04 #@! TO.P,C17,2*
G04 #@! TO.N,+3V3*
X156400000Y-39170000D03*
G04 #@! TD*
D14*
G04 #@! TO.P,C28,1*
G04 #@! TO.N,+5V*
X155995000Y-43762500D03*
G04 #@! TO.P,C28,2*
G04 #@! TO.N,GND*
X156955000Y-43762500D03*
G04 #@! TD*
D10*
G04 #@! TO.P,C18,1*
G04 #@! TO.N,GND*
X156400000Y-37020000D03*
G04 #@! TO.P,C18,2*
G04 #@! TO.N,+3V3*
X156400000Y-37980000D03*
G04 #@! TD*
D12*
G04 #@! TO.P,R2,1*
G04 #@! TO.N,/USB_MCU_DP*
X165057500Y-35700000D03*
G04 #@! TO.P,R2,2*
G04 #@! TO.N,/USB_DP*
X165057500Y-34680000D03*
G04 #@! TD*
D13*
G04 #@! TO.P,C26,1*
G04 #@! TO.N,+3V3*
X164300000Y-37680000D03*
G04 #@! TO.P,C26,2*
G04 #@! TO.N,GND*
X164300000Y-36720000D03*
G04 #@! TD*
D14*
G04 #@! TO.P,C8,1*
G04 #@! TO.N,/XOUT*
X160210000Y-48300000D03*
G04 #@! TO.P,C8,2*
G04 #@! TO.N,GND*
X161170000Y-48300000D03*
G04 #@! TD*
D13*
G04 #@! TO.P,C20,1*
G04 #@! TO.N,Net-(C20-Pad1)*
X156400000Y-33827500D03*
G04 #@! TO.P,C20,2*
G04 #@! TO.N,GND*
X156400000Y-32867500D03*
G04 #@! TD*
D35*
G04 #@! TO.P,C6,1*
G04 #@! TO.N,+3V3*
X158930000Y-43762500D03*
G04 #@! TO.P,C6,2*
G04 #@! TO.N,GND*
X157970000Y-43762500D03*
G04 #@! TD*
D36*
G04 #@! TO.P,U6,1,CSB*
G04 #@! TO.N,+3V3*
X159130000Y-32850000D03*
G04 #@! TO.P,U6,2,SCL/SCLK*
G04 #@! TO.N,/I2C0_SCL*
X159130000Y-33350000D03*
D37*
G04 #@! TO.P,U6,3,VSS*
G04 #@! TO.N,GND*
X159410000Y-33880000D03*
G04 #@! TO.P,U6,4,SDA/SDI*
G04 #@! TO.N,/I2C0_SDA*
X159910000Y-33880000D03*
G04 #@! TO.P,U6,5,VDD*
G04 #@! TO.N,+3V3*
X160410000Y-33880000D03*
D36*
G04 #@! TO.P,U6,6,AD0/SDO*
G04 #@! TO.N,GND*
X160690000Y-33350000D03*
G04 #@! TO.P,U6,7,INT*
G04 #@! TO.N,unconnected-(U6-Pad7)*
X160690000Y-32850000D03*
D37*
G04 #@! TO.P,U6,8,RESV*
G04 #@! TO.N,GND*
X160410000Y-32320000D03*
G04 #@! TO.P,U6,9,RESV*
X159910000Y-32320000D03*
G04 #@! TO.P,U6,10,VDDIO*
G04 #@! TO.N,+3V3*
X159410000Y-32320000D03*
G04 #@! TD*
D10*
G04 #@! TO.P,C14,1*
G04 #@! TO.N,Net-(C14-Pad1)*
X168900000Y-31020000D03*
G04 #@! TO.P,C14,2*
G04 #@! TO.N,GND*
X168900000Y-31980000D03*
G04 #@! TD*
D38*
G04 #@! TO.P,R22,1*
G04 #@! TO.N,/DRDY_ICM42605*
X154210000Y-41650000D03*
G04 #@! TO.P,R22,2*
G04 #@! TO.N,/NEOPIXEL*
X153190000Y-41650000D03*
G04 #@! TD*
D12*
G04 #@! TO.P,R8,1*
G04 #@! TO.N,+3V3*
X151300000Y-33870000D03*
G04 #@! TO.P,R8,2*
G04 #@! TO.N,/I2C0_SCL*
X151300000Y-32850000D03*
G04 #@! TD*
D14*
G04 #@! TO.P,C16,1*
G04 #@! TO.N,+3V3*
X166920000Y-33150000D03*
G04 #@! TO.P,C16,2*
G04 #@! TO.N,GND*
X167880000Y-33150000D03*
G04 #@! TD*
D25*
G04 #@! TO.P,J3,1,Pin_1*
G04 #@! TO.N,/SDA{slash}SDI*
X147250000Y-31110000D03*
D34*
X148000000Y-31110000D03*
D25*
X148750000Y-31110000D03*
D34*
G04 #@! TO.P,J3,2,Pin_2*
G04 #@! TO.N,/SCL{slash}SCK*
X148000000Y-33650000D03*
D27*
X147250000Y-33650000D03*
X148750000Y-33650000D03*
G04 #@! TO.P,J3,3,Pin_3*
G04 #@! TO.N,/SPI0_POCI*
X148774000Y-36190000D03*
X147274000Y-36190000D03*
D34*
X148024000Y-36190000D03*
G04 #@! TO.P,J3,4,Pin_4*
G04 #@! TO.N,/NEOPIXEL*
X148000000Y-38730000D03*
D27*
X147250000Y-38730000D03*
X148750000Y-38730000D03*
D34*
G04 #@! TO.P,J3,5,Pin_5*
G04 #@! TO.N,+3V3*
X148000000Y-41270000D03*
D27*
X148750000Y-41270000D03*
X147250000Y-41270000D03*
G04 #@! TO.P,J3,6,Pin_6*
G04 #@! TO.N,/CAN_N*
X148750000Y-43810000D03*
D34*
X148000000Y-43810000D03*
D27*
X147250000Y-43810000D03*
G04 #@! TO.P,J3,7,Pin_7*
G04 #@! TO.N,/CAN_P*
X147250000Y-46350000D03*
X148750000Y-46350000D03*
D34*
X148000000Y-46350000D03*
D27*
G04 #@! TO.P,J3,8,Pin_8*
G04 #@! TO.N,GND*
X147250000Y-48890000D03*
X148750000Y-48890000D03*
D34*
X148000000Y-48890000D03*
G04 #@! TD*
D14*
G04 #@! TO.P,C21,1*
G04 #@! TO.N,+3V3*
X154470000Y-31650000D03*
G04 #@! TO.P,C21,2*
G04 #@! TO.N,GND*
X155430000Y-31650000D03*
G04 #@! TD*
D38*
G04 #@! TO.P,R20,1*
G04 #@! TO.N,/BOOTSEL*
X158410000Y-31150000D03*
G04 #@! TO.P,R20,2*
G04 #@! TO.N,/QSPI_nCS*
X157390000Y-31150000D03*
G04 #@! TD*
D10*
G04 #@! TO.P,C15,1*
G04 #@! TO.N,+3V3*
X168680000Y-45520000D03*
G04 #@! TO.P,C15,2*
G04 #@! TO.N,GND*
X168680000Y-46480000D03*
G04 #@! TD*
D16*
G04 #@! TO.P,R5,1*
G04 #@! TO.N,/SD_nCD*
X168690000Y-43090000D03*
G04 #@! TO.P,R5,2*
G04 #@! TO.N,+3V3*
X168690000Y-44110000D03*
G04 #@! TD*
G04 #@! TO.P,R18,1*
G04 #@! TO.N,/RUN*
X167150000Y-47890000D03*
G04 #@! TO.P,R18,2*
G04 #@! TO.N,GND*
X167150000Y-48910000D03*
G04 #@! TD*
D14*
G04 #@! TO.P,C27,1*
G04 #@! TO.N,+3V3*
X151200000Y-42700000D03*
G04 #@! TO.P,C27,2*
G04 #@! TO.N,GND*
X152160000Y-42700000D03*
G04 #@! TD*
D38*
G04 #@! TO.P,R13,1*
G04 #@! TO.N,/PIO0_CAN_RX*
X154200000Y-42700000D03*
G04 #@! TO.P,R13,2*
G04 #@! TO.N,/CAN_N*
X153180000Y-42700000D03*
G04 #@! TD*
D13*
G04 #@! TO.P,C7,1*
G04 #@! TO.N,+3V3*
X159000000Y-40432500D03*
G04 #@! TO.P,C7,2*
G04 #@! TO.N,GND*
X159000000Y-39472500D03*
G04 #@! TD*
G04 #@! TO.P,C12,1*
G04 #@! TO.N,GND*
X151290000Y-35880000D03*
G04 #@! TO.P,C12,2*
G04 #@! TO.N,+3V3*
X151290000Y-34920000D03*
G04 #@! TD*
D38*
G04 #@! TO.P,R17,1*
G04 #@! TO.N,/SPI0_SCK*
X152190000Y-41650000D03*
G04 #@! TO.P,R17,2*
G04 #@! TO.N,/SCL{slash}SCK*
X151170000Y-41650000D03*
G04 #@! TD*
D25*
G04 #@! TO.P,J1,1,Pin_1*
G04 #@! TO.N,/SWCLK*
X151110000Y-27250000D03*
X151110000Y-28750000D03*
D26*
X151110000Y-28000000D03*
D27*
G04 #@! TO.P,J1,2,Pin_2*
G04 #@! TO.N,/SWDIO*
X153650000Y-28750000D03*
D26*
X153650000Y-28000000D03*
D27*
X153650000Y-27250000D03*
G04 #@! TO.P,J1,3,Pin_3*
G04 #@! TO.N,/RUN*
X156190000Y-27226000D03*
D26*
X156190000Y-27976000D03*
D27*
X156190000Y-28726000D03*
D26*
G04 #@! TO.P,J1,4,Pin_4*
G04 #@! TO.N,/BOOTSEL*
X158730000Y-28000000D03*
D27*
X158730000Y-27250000D03*
X158730000Y-28750000D03*
D26*
G04 #@! TO.P,J1,5,Pin_5*
G04 #@! TO.N,/USB_DP*
X161270000Y-28000000D03*
D27*
X161270000Y-27250000D03*
X161270000Y-28750000D03*
G04 #@! TO.P,J1,6,Pin_6*
G04 #@! TO.N,/USB_DN*
X163810000Y-28750000D03*
D26*
X163810000Y-28000000D03*
D27*
X163810000Y-27250000D03*
G04 #@! TO.P,J1,7,Pin_7*
G04 #@! TO.N,+5V*
X166350000Y-28750000D03*
D26*
X166350000Y-28000000D03*
D27*
X166350000Y-27250000D03*
G04 #@! TO.P,J1,8,Pin_8*
G04 #@! TO.N,GND*
X168890000Y-27250000D03*
D26*
X168890000Y-28000000D03*
D27*
X168890000Y-28750000D03*
G04 #@! TD*
D13*
G04 #@! TO.P,C13,1*
G04 #@! TO.N,+3V3*
X167000000Y-38300000D03*
G04 #@! TO.P,C13,2*
G04 #@! TO.N,GND*
X167000000Y-37340000D03*
G04 #@! TD*
D39*
G04 #@! TO.P,U7,1,TXD*
G04 #@! TO.N,/PIO0_CAN_TX*
X154450000Y-46085400D03*
G04 #@! TO.P,U7,2,GND*
G04 #@! TO.N,GND*
X154450000Y-45435400D03*
G04 #@! TO.P,U7,3,VCC*
G04 #@! TO.N,+5V*
X154450000Y-44785400D03*
G04 #@! TO.P,U7,4,RXD*
G04 #@! TO.N,/PIO0_CAN_RX*
X154450000Y-44135400D03*
G04 #@! TO.P,U7,5,VIO*
G04 #@! TO.N,+3V3*
X151350000Y-44135400D03*
G04 #@! TO.P,U7,6,CANL*
G04 #@! TO.N,/CAN_N*
X151350000Y-44785400D03*
G04 #@! TO.P,U7,7,CANH*
G04 #@! TO.N,/CAN_P*
X151350000Y-45435400D03*
G04 #@! TO.P,U7,8,S*
G04 #@! TO.N,/CAN_SILENT*
X151350000Y-46085400D03*
D40*
G04 #@! TO.P,U7,9,GND*
G04 #@! TO.N,GND*
X152900000Y-45110400D03*
G04 #@! TD*
D12*
G04 #@! TO.P,R4,1*
G04 #@! TO.N,/SPI1_nCS_SD*
X169050000Y-38310000D03*
G04 #@! TO.P,R4,2*
G04 #@! TO.N,GND*
X169050000Y-37290000D03*
G04 #@! TD*
D38*
G04 #@! TO.P,R6,1*
G04 #@! TO.N,Net-(D2-Pad1)*
X168410000Y-35250000D03*
G04 #@! TO.P,R6,2*
G04 #@! TO.N,GND*
X167390000Y-35250000D03*
G04 #@! TD*
D12*
G04 #@! TO.P,R23,1*
G04 #@! TO.N,+3V3*
X157900000Y-38360000D03*
G04 #@! TO.P,R23,2*
G04 #@! TO.N,/SPI0_nCS*
X157900000Y-37340000D03*
G04 #@! TD*
D13*
G04 #@! TO.P,C24,1*
G04 #@! TO.N,+3V3*
X168680000Y-40432500D03*
G04 #@! TO.P,C24,2*
G04 #@! TO.N,GND*
X168680000Y-39472500D03*
G04 #@! TD*
D10*
G04 #@! TO.P,C22,1*
G04 #@! TO.N,GND*
X161950000Y-32540000D03*
G04 #@! TO.P,C22,2*
G04 #@! TO.N,+3V3*
X161950000Y-33500000D03*
G04 #@! TD*
D41*
G04 #@! TO.P,Y1,1,1*
G04 #@! TO.N,/XIN*
X157260000Y-46925000D03*
G04 #@! TO.P,Y1,2,2*
G04 #@! TO.N,GND*
X157260000Y-48675000D03*
G04 #@! TO.P,Y1,3,3*
G04 #@! TO.N,/XOUT*
X158660000Y-48675000D03*
G04 #@! TO.P,Y1,4,4*
G04 #@! TO.N,GND*
X158660000Y-46925000D03*
G04 #@! TD*
D14*
G04 #@! TO.P,C23,1*
G04 #@! TO.N,+3V3*
X159415000Y-31150000D03*
G04 #@! TO.P,C23,2*
G04 #@! TO.N,GND*
X160375000Y-31150000D03*
G04 #@! TD*
G04 #@! TO.P,C2,1*
G04 #@! TO.N,+1V1*
X164620000Y-48300000D03*
G04 #@! TO.P,C2,2*
G04 #@! TO.N,GND*
X165580000Y-48300000D03*
G04 #@! TD*
D16*
G04 #@! TO.P,R10,1*
G04 #@! TO.N,/CAN_SILENT*
X150900000Y-47830000D03*
G04 #@! TO.P,R10,2*
G04 #@! TO.N,GND*
X150900000Y-48850000D03*
G04 #@! TD*
D38*
G04 #@! TO.P,R12,1*
G04 #@! TO.N,/PIO0_CAN_TX*
X154200000Y-47600000D03*
G04 #@! TO.P,R12,2*
G04 #@! TO.N,/CAN_P*
X153180000Y-47600000D03*
G04 #@! TD*
D11*
G04 #@! TO.P,R19,1*
G04 #@! TO.N,/BOOTSEL*
X161390000Y-31150000D03*
G04 #@! TO.P,R19,2*
G04 #@! TO.N,GND*
X162410000Y-31150000D03*
G04 #@! TD*
D12*
G04 #@! TO.P,R1,1*
G04 #@! TO.N,+3V3*
X157450000Y-33160000D03*
G04 #@! TO.P,R1,2*
G04 #@! TO.N,/RUN*
X157450000Y-32140000D03*
G04 #@! TD*
D13*
G04 #@! TO.P,C3,1*
G04 #@! TO.N,+1V1*
X166000000Y-38300000D03*
G04 #@! TO.P,C3,2*
G04 #@! TO.N,GND*
X166000000Y-37340000D03*
G04 #@! TD*
D42*
G04 #@! TO.P,U2,1,IOVDD*
G04 #@! TO.N,+3V3*
X160462500Y-40562500D03*
G04 #@! TO.P,U2,2,GPIO0*
G04 #@! TO.N,/SPI0_POCI*
X160462500Y-40962500D03*
G04 #@! TO.P,U2,3,GPIO1*
G04 #@! TO.N,/SPI0_nCS*
X160462500Y-41362500D03*
G04 #@! TO.P,U2,4,GPIO2*
G04 #@! TO.N,/SPI0_SCK*
X160462500Y-41762500D03*
G04 #@! TO.P,U2,5,GPIO3*
G04 #@! TO.N,/SPI0_PICO*
X160462500Y-42162500D03*
G04 #@! TO.P,U2,6,GPIO4*
G04 #@! TO.N,/I2C0_SDA*
X160462500Y-42562500D03*
G04 #@! TO.P,U2,7,GPIO5*
G04 #@! TO.N,/I2C0_SCL*
X160462500Y-42962500D03*
G04 #@! TO.P,U2,8,GPIO6*
G04 #@! TO.N,/DRDY_ICM42605*
X160462500Y-43362500D03*
G04 #@! TO.P,U2,9,GPIO7*
G04 #@! TO.N,/NEOPIXEL*
X160462500Y-43762500D03*
G04 #@! TO.P,U2,10,IOVDD*
G04 #@! TO.N,+3V3*
X160462500Y-44162500D03*
G04 #@! TO.P,U2,11,GPIO8*
G04 #@! TO.N,/PIO0_CAN_RX*
X160462500Y-44562500D03*
G04 #@! TO.P,U2,12,GPIO9*
G04 #@! TO.N,/PIO0_CAN_TX*
X160462500Y-44962500D03*
G04 #@! TO.P,U2,13,GPIO10*
G04 #@! TO.N,/CAN_SILENT*
X160462500Y-45362500D03*
G04 #@! TO.P,U2,14,GPIO11*
G04 #@! TO.N,/IMU_HEATER*
X160462500Y-45762500D03*
D43*
G04 #@! TO.P,U2,15,GPIO12*
G04 #@! TO.N,unconnected-(U2-Pad15)*
X161300000Y-46600000D03*
G04 #@! TO.P,U2,16,GPIO13*
G04 #@! TO.N,/BUZZER*
X161700000Y-46600000D03*
G04 #@! TO.P,U2,17,GPIO14*
G04 #@! TO.N,unconnected-(U2-Pad17)*
X162100000Y-46600000D03*
G04 #@! TO.P,U2,18,GPIO15*
G04 #@! TO.N,unconnected-(U2-Pad18)*
X162500000Y-46600000D03*
G04 #@! TO.P,U2,19,TESTEN*
G04 #@! TO.N,GND*
X162900000Y-46600000D03*
G04 #@! TO.P,U2,20,XIN*
G04 #@! TO.N,/XIN*
X163300000Y-46600000D03*
G04 #@! TO.P,U2,21,XOUT*
G04 #@! TO.N,/XOUT*
X163700000Y-46600000D03*
G04 #@! TO.P,U2,22,IOVDD*
G04 #@! TO.N,+3V3*
X164100000Y-46600000D03*
G04 #@! TO.P,U2,23,DVDD*
G04 #@! TO.N,+1V1*
X164500000Y-46600000D03*
G04 #@! TO.P,U2,24,SWCLK*
G04 #@! TO.N,/SWCLK*
X164900000Y-46600000D03*
G04 #@! TO.P,U2,25,SWD*
G04 #@! TO.N,/SWDIO*
X165300000Y-46600000D03*
G04 #@! TO.P,U2,26,RUN*
G04 #@! TO.N,/RUN*
X165700000Y-46600000D03*
G04 #@! TO.P,U2,27,GPIO16*
G04 #@! TO.N,/UART0_TX_TELEM*
X166100000Y-46600000D03*
G04 #@! TO.P,U2,28,GPIO17*
G04 #@! TO.N,/UART0_RX_TELEM*
X166500000Y-46600000D03*
D42*
G04 #@! TO.P,U2,29,GPIO18*
G04 #@! TO.N,/UART0_CTS_TELEM*
X167337500Y-45762500D03*
G04 #@! TO.P,U2,30,GPIO19*
G04 #@! TO.N,/UART0_RTS_TELEM*
X167337500Y-45362500D03*
G04 #@! TO.P,U2,31,GPIO20*
G04 #@! TO.N,/UART1_TX_GNSS*
X167337500Y-44962500D03*
G04 #@! TO.P,U2,32,GPIO21*
G04 #@! TO.N,/UART1_RX_GNSS*
X167337500Y-44562500D03*
G04 #@! TO.P,U2,33,IOVDD*
G04 #@! TO.N,+3V3*
X167337500Y-44162500D03*
G04 #@! TO.P,U2,34,GPIO22*
G04 #@! TO.N,unconnected-(U2-Pad34)*
X167337500Y-43762500D03*
G04 #@! TO.P,U2,35,GPIO23*
G04 #@! TO.N,/SD_nCD*
X167337500Y-43362500D03*
G04 #@! TO.P,U2,36,GPIO24*
G04 #@! TO.N,/SPI1_POCI_SD*
X167337500Y-42962500D03*
G04 #@! TO.P,U2,37,GPIO25*
G04 #@! TO.N,/SPI1_nCS_SD*
X167337500Y-42562500D03*
G04 #@! TO.P,U2,38,GPIO26_ADC0*
G04 #@! TO.N,/SPI1_SCK_SD*
X167337500Y-42162500D03*
G04 #@! TO.P,U2,39,GPIO27_ADC1*
G04 #@! TO.N,/SPI1_PICO_SD*
X167337500Y-41762500D03*
G04 #@! TO.P,U2,40,GPIO28_ADC2*
G04 #@! TO.N,unconnected-(U2-Pad40)*
X167337500Y-41362500D03*
G04 #@! TO.P,U2,41,GPIO29_ADC3*
G04 #@! TO.N,unconnected-(U2-Pad41)*
X167337500Y-40962500D03*
G04 #@! TO.P,U2,42,IOVDD*
G04 #@! TO.N,+3V3*
X167337500Y-40562500D03*
D43*
G04 #@! TO.P,U2,43,ADC_AVDD*
X166500000Y-39725000D03*
G04 #@! TO.P,U2,44,VREG_IN*
X166100000Y-39725000D03*
G04 #@! TO.P,U2,45,VREG_VOUT*
G04 #@! TO.N,+1V1*
X165700000Y-39725000D03*
G04 #@! TO.P,U2,46,USB_DM*
G04 #@! TO.N,/USB_MCU_DN*
X165300000Y-39725000D03*
G04 #@! TO.P,U2,47,USB_DP*
G04 #@! TO.N,/USB_MCU_DP*
X164900000Y-39725000D03*
G04 #@! TO.P,U2,48,USB_VDD*
G04 #@! TO.N,+3V3*
X164500000Y-39725000D03*
G04 #@! TO.P,U2,49,IOVDD*
X164100000Y-39725000D03*
G04 #@! TO.P,U2,50,DVDD*
G04 #@! TO.N,+1V1*
X163700000Y-39725000D03*
G04 #@! TO.P,U2,51,QSPI_SD3*
G04 #@! TO.N,/QSPI_SD3*
X163300000Y-39725000D03*
G04 #@! TO.P,U2,52,QSPI_SCLK*
G04 #@! TO.N,/QSPI_SCLK*
X162900000Y-39725000D03*
G04 #@! TO.P,U2,53,QSPI_SD0*
G04 #@! TO.N,/QSPI_SD0*
X162500000Y-39725000D03*
G04 #@! TO.P,U2,54,QSPI_SD2*
G04 #@! TO.N,/QSPI_SD2*
X162100000Y-39725000D03*
G04 #@! TO.P,U2,55,QSPI_SD1*
G04 #@! TO.N,/QSPI_SD1*
X161700000Y-39725000D03*
G04 #@! TO.P,U2,56,QSPI_SS*
G04 #@! TO.N,/QSPI_nCS*
X161300000Y-39725000D03*
D44*
G04 #@! TO.P,U2,57,GND*
G04 #@! TO.N,GND*
X162625000Y-44437500D03*
X165175000Y-44437500D03*
X162625000Y-41887500D03*
D45*
X163900000Y-43162500D03*
D44*
X162625000Y-43162500D03*
X163900000Y-43162500D03*
X165175000Y-41887500D03*
X163900000Y-41887500D03*
X163900000Y-44437500D03*
X165175000Y-43162500D03*
G04 #@! TD*
D12*
G04 #@! TO.P,R3,1*
G04 #@! TO.N,/USB_MCU_DN*
X166120000Y-35700000D03*
G04 #@! TO.P,R3,2*
G04 #@! TO.N,/USB_DN*
X166120000Y-34680000D03*
G04 #@! TD*
D17*
G04 #@! TO.P,D3,1,K*
G04 #@! TO.N,Net-(C14-Pad1)*
X165600000Y-32700000D03*
G04 #@! TO.P,D3,2,A*
G04 #@! TO.N,+5V*
X165600000Y-31300000D03*
G04 #@! TD*
D46*
G04 #@! TO.N,+1V1*
X164500000Y-40589000D03*
X164500000Y-45700000D03*
G04 #@! TO.N,GND*
X159300000Y-46950000D03*
X162915600Y-45847000D03*
X161100000Y-32000000D03*
X169048500Y-36800000D03*
X152900000Y-45110400D03*
X165251860Y-48751063D03*
X156000000Y-39850000D03*
X152900000Y-45875000D03*
X168900000Y-32450000D03*
X158374714Y-36039199D03*
X156025000Y-36700000D03*
X153575000Y-34625000D03*
X162405385Y-30594615D03*
X155637548Y-31296778D03*
X169200000Y-46500000D03*
X168300000Y-33150000D03*
X159450000Y-39450000D03*
X167895385Y-39945385D03*
X150800000Y-35850000D03*
X166300000Y-36900000D03*
X158855351Y-34043149D03*
X157250000Y-49450000D03*
X156800000Y-34575000D03*
X168000000Y-36850000D03*
X156950000Y-43250000D03*
X163750000Y-34625000D03*
X163300000Y-36250000D03*
X156400000Y-32150000D03*
X155111365Y-39588635D03*
X162300000Y-35650000D03*
X152900000Y-44350000D03*
X161615365Y-48293865D03*
X164300000Y-36250000D03*
X167000000Y-36850000D03*
X162750000Y-48798500D03*
X160400000Y-30650000D03*
X150880000Y-49330000D03*
X157950000Y-43243700D03*
X166966500Y-35250000D03*
X151888948Y-43009928D03*
X155800000Y-49500000D03*
X166750000Y-49398500D03*
X162450000Y-32550000D03*
G04 #@! TO.N,+3V3*
X166966500Y-34250000D03*
X154159999Y-31143001D03*
X163800000Y-37700000D03*
X156702677Y-37726728D03*
X166500000Y-44150000D03*
X153645366Y-40254634D03*
X157446584Y-33537355D03*
X167750000Y-39150000D03*
X166400000Y-40900000D03*
X150751500Y-42700000D03*
X167300000Y-38600000D03*
X166450000Y-33150000D03*
X169150000Y-43800000D03*
X150800000Y-34900000D03*
X152550000Y-31150000D03*
X157276800Y-35382200D03*
X159400000Y-30650000D03*
X158500000Y-40450000D03*
X157573500Y-38686655D03*
X163750000Y-48798500D03*
X162450000Y-33500000D03*
X150750000Y-33850000D03*
X151946000Y-49340000D03*
X158950000Y-43243700D03*
X169200000Y-45500000D03*
X154250500Y-33564002D03*
X155950000Y-39050000D03*
G04 #@! TO.N,/RUN*
X165947009Y-43554486D03*
G04 #@! TO.N,+5V*
X163000000Y-40600000D03*
X163750000Y-33200000D03*
X155100000Y-44800000D03*
X155550000Y-43762500D03*
G04 #@! TO.N,/SPI0_nCS*
X156657645Y-40949688D03*
X169150000Y-48500000D03*
G04 #@! TO.N,/NEOPIXEL*
X153650000Y-43450000D03*
X161250000Y-43762500D03*
G04 #@! TO.N,/SPI0_POCI*
X152700000Y-36400000D03*
X157384128Y-40955044D03*
G04 #@! TO.N,/SPI1_nCS_SD*
X168750000Y-38700000D03*
X166337016Y-42200000D03*
G04 #@! TO.N,/SD_nCD*
X169150000Y-47500000D03*
X169750000Y-42800000D03*
G04 #@! TO.N,/USB_DP*
X165163750Y-33801333D03*
G04 #@! TO.N,/USB_DN*
X166013750Y-33801333D03*
G04 #@! TO.N,/SPI0_SCK*
X151866182Y-41446084D03*
X154200000Y-37800000D03*
X155931143Y-40950008D03*
G04 #@! TO.N,/I2C0_SDA*
X155550000Y-32800000D03*
X161414099Y-40589471D03*
X157800000Y-34600000D03*
G04 #@! TO.N,/I2C0_SCL*
X155600000Y-30550000D03*
X158062537Y-33922593D03*
X162140601Y-40589000D03*
G04 #@! TO.N,/BUZZER*
X161318827Y-45497671D03*
G04 #@! TO.N,/SWCLK*
X165268090Y-47522666D03*
G04 #@! TO.N,/SWDIO*
X165200500Y-45350000D03*
G04 #@! TO.N,/SPI0_PICO*
X153458329Y-37815365D03*
X151300000Y-40650000D03*
X155135961Y-40944584D03*
G04 #@! TO.N,/SPI1_POCI_SD*
X166350000Y-42950000D03*
G04 #@! TO.N,/SDA{slash}SDI*
X151300000Y-38606500D03*
X150749500Y-31800000D03*
G04 #@! TO.N,/SCL{slash}SCK*
X150750000Y-37900000D03*
G04 #@! TO.N,/SPI1_PICO_SD*
X168600000Y-41400000D03*
G04 #@! TO.N,/QSPI_nCS*
X157400000Y-30350000D03*
X158750000Y-37800000D03*
G04 #@! TD*
D47*
G04 #@! TO.N,+1V1*
X163700000Y-40400000D02*
X163889000Y-40589000D01*
X164500000Y-46600000D02*
X164500000Y-45700000D01*
X164620000Y-47670000D02*
X164620000Y-48300000D01*
X165461000Y-40589000D02*
X164500000Y-40589000D01*
X163700000Y-39725000D02*
X163700000Y-39106872D01*
X164500000Y-46600000D02*
X164500000Y-47550000D01*
X162300000Y-37706872D02*
X162300000Y-37080000D01*
X163700000Y-39106872D02*
X162300000Y-37706872D01*
X165700000Y-39725000D02*
X165700000Y-40350000D01*
X164500000Y-47550000D02*
X164620000Y-47670000D01*
X163700000Y-40400000D02*
X163700000Y-39725000D01*
X165700000Y-38600000D02*
X166000000Y-38300000D01*
X165700000Y-40350000D02*
X165461000Y-40589000D01*
X164500000Y-40589000D02*
X163889000Y-40589000D01*
X165700000Y-39725000D02*
X165700000Y-38600000D01*
G04 #@! TO.N,GND*
X162410000Y-31150000D02*
X162410000Y-30599230D01*
X155800000Y-33666500D02*
X155529000Y-33937500D01*
X162770000Y-48300000D02*
X162770000Y-48778500D01*
X154212552Y-39425000D02*
X154947730Y-39425000D01*
X157260000Y-49440000D02*
X157250000Y-49450000D01*
X168900000Y-31980000D02*
X168900000Y-32450000D01*
X153875000Y-39087448D02*
X154212552Y-39425000D01*
X163750000Y-34100000D02*
X163750000Y-34625000D01*
X150830000Y-35880000D02*
X150800000Y-35850000D01*
X156460000Y-34915000D02*
X156800000Y-34575000D01*
X160375000Y-30675000D02*
X160400000Y-30650000D01*
X157260000Y-48675000D02*
X157260000Y-49440000D01*
X153887500Y-34937500D02*
X153575000Y-34625000D01*
X158660000Y-46925000D02*
X159275000Y-46925000D01*
X169050000Y-37290000D02*
X169050000Y-36801500D01*
X160410000Y-32320000D02*
X160780000Y-32320000D01*
X168680000Y-46480000D02*
X169180000Y-46480000D01*
X155800000Y-49070000D02*
X155800000Y-49500000D01*
X155800000Y-33762500D02*
X155800000Y-33467500D01*
X161609230Y-48300000D02*
X161130000Y-48300000D01*
X168680000Y-39472500D02*
X168368270Y-39472500D01*
X157970000Y-43762500D02*
X157970000Y-43263700D01*
X161615365Y-48293865D02*
X161609230Y-48300000D01*
X155180000Y-39657270D02*
X155111365Y-39588635D01*
X150900000Y-49310000D02*
X150880000Y-49330000D01*
X155529000Y-33937500D02*
X155150000Y-33937500D01*
X162300000Y-36140000D02*
X162300000Y-35650000D01*
X159910000Y-32320000D02*
X160410000Y-32320000D01*
X151290000Y-35880000D02*
X150830000Y-35880000D01*
X154450000Y-45435400D02*
X153225000Y-45435400D01*
X154947730Y-39425000D02*
X155111365Y-39588635D01*
X156955000Y-43762500D02*
X156955000Y-43255000D01*
X155800000Y-33467500D02*
X156400000Y-32867500D01*
X158690000Y-37150000D02*
X157900000Y-36360000D01*
X163300000Y-36250000D02*
X163300000Y-36720000D01*
X159018500Y-33880000D02*
X158855351Y-34043149D01*
X165580000Y-48422923D02*
X165251860Y-48751063D01*
X156280000Y-40130000D02*
X156000000Y-39850000D01*
X162900000Y-45862600D02*
X162915600Y-45847000D01*
X156955000Y-43255000D02*
X156950000Y-43250000D01*
X159000000Y-39472500D02*
X159427500Y-39472500D01*
X159427500Y-39472500D02*
X159450000Y-39450000D01*
X169050000Y-36801500D02*
X169048500Y-36800000D01*
X169180000Y-46480000D02*
X169200000Y-46500000D01*
X158053913Y-36360000D02*
X158374714Y-36039199D01*
X156400000Y-32867500D02*
X156400000Y-32150000D01*
X155180000Y-40100000D02*
X155180000Y-39657270D01*
X167390000Y-35250000D02*
X166966500Y-35250000D01*
X167880000Y-33150000D02*
X168300000Y-33150000D01*
X162410000Y-30599230D02*
X162405385Y-30594615D01*
X164300000Y-36250000D02*
X164300000Y-36720000D01*
X167150000Y-48998500D02*
X166750000Y-49398500D01*
X166300000Y-36900000D02*
X166000000Y-37200000D01*
X156345000Y-37020000D02*
X156025000Y-36700000D01*
X150900000Y-48850000D02*
X150900000Y-49310000D01*
X162440000Y-32540000D02*
X162450000Y-32550000D01*
X161140000Y-33350000D02*
X161950000Y-32540000D01*
X155625000Y-33937500D02*
X155800000Y-33762500D01*
X162770000Y-48778500D02*
X162750000Y-48798500D01*
X160375000Y-31150000D02*
X160375000Y-30675000D01*
X160780000Y-32320000D02*
X161100000Y-32000000D01*
X160650000Y-37800000D02*
X160650000Y-37400000D01*
X156400000Y-31717500D02*
X156400000Y-32150000D01*
X151888948Y-42971052D02*
X152160000Y-42700000D01*
X161950000Y-32540000D02*
X162440000Y-32540000D01*
X153875000Y-38762500D02*
X153875000Y-39087448D01*
X155037500Y-38100000D02*
X155375000Y-38100000D01*
X155430000Y-31504326D02*
X155637548Y-31296778D01*
X160650000Y-37400000D02*
X160400000Y-37150000D01*
X168368270Y-39472500D02*
X167895385Y-39945385D01*
X162900000Y-46600000D02*
X162900000Y-45862600D01*
X151888948Y-43009928D02*
X151888948Y-42971052D01*
X157970000Y-43263700D02*
X157950000Y-43243700D01*
X159275000Y-46925000D02*
X159300000Y-46950000D01*
X155375000Y-38100000D02*
X156400000Y-37075000D01*
X155150000Y-34937500D02*
X153887500Y-34937500D01*
X155800000Y-33467500D02*
X155800000Y-33666500D01*
X159410000Y-33880000D02*
X159018500Y-33880000D01*
X167000000Y-36850000D02*
X167000000Y-37340000D01*
X155150000Y-33937500D02*
X155625000Y-33937500D01*
X160690000Y-33350000D02*
X161140000Y-33350000D01*
X168000000Y-36850000D02*
X168000000Y-37340000D01*
X160400000Y-37150000D02*
X158690000Y-37150000D01*
G04 #@! TO.N,+3V3*
X152545000Y-31650000D02*
X152545000Y-31155000D01*
X152600000Y-34937500D02*
X151307500Y-34937500D01*
X164300000Y-37680000D02*
X163820000Y-37680000D01*
X168680000Y-45520000D02*
X169180000Y-45520000D01*
X164100000Y-39725000D02*
X164100000Y-38900000D01*
X166512500Y-44162500D02*
X166500000Y-44150000D01*
X168167500Y-40432500D02*
X168680000Y-40432500D01*
X158517500Y-40432500D02*
X158500000Y-40450000D01*
X154159999Y-31143001D02*
X154470000Y-31453002D01*
X160462500Y-44162500D02*
X159330000Y-44162500D01*
X159410000Y-32570000D02*
X159130000Y-32850000D01*
X166100000Y-39200000D02*
X167000000Y-38300000D01*
X163300000Y-38100000D02*
X163300000Y-37680000D01*
X150820000Y-34920000D02*
X150800000Y-34900000D01*
X164100000Y-38900000D02*
X163300000Y-38100000D01*
X159150000Y-35400000D02*
X157900000Y-35400000D01*
X155780000Y-38600000D02*
X156400000Y-37980000D01*
X159532500Y-40432500D02*
X159000000Y-40432500D01*
X163730000Y-47820000D02*
X163730000Y-48300000D01*
X154470000Y-31453002D02*
X154470000Y-31650000D01*
X169180000Y-45520000D02*
X169200000Y-45500000D01*
X160410000Y-33880000D02*
X161570000Y-33880000D01*
X154625000Y-33189502D02*
X154625000Y-32912500D01*
X159410000Y-32320000D02*
X159410000Y-31155000D01*
X166500000Y-39725000D02*
X167175000Y-39725000D01*
X151350000Y-43450000D02*
X151200000Y-43300000D01*
X164100000Y-46600000D02*
X164100000Y-47450000D01*
X160462500Y-40562500D02*
X159662500Y-40562500D01*
X158930000Y-43263700D02*
X158930000Y-43762500D01*
X155037500Y-38600000D02*
X155780000Y-38600000D01*
X166737500Y-40562500D02*
X166400000Y-40900000D01*
X163730000Y-48778500D02*
X163750000Y-48798500D01*
X164300000Y-38400000D02*
X164300000Y-37680000D01*
X159662500Y-40562500D02*
X159532500Y-40432500D01*
X151950000Y-48860000D02*
X151950000Y-49336000D01*
X156070000Y-39170000D02*
X156400000Y-39170000D01*
X157900000Y-35400000D02*
X157294600Y-35400000D01*
X153800000Y-40100000D02*
X154220000Y-40100000D01*
X157294600Y-35400000D02*
X157276800Y-35382200D01*
X152545000Y-31155000D02*
X152550000Y-31150000D01*
X155950000Y-39050000D02*
X156070000Y-39170000D01*
X163730000Y-48300000D02*
X163730000Y-48778500D01*
X167000000Y-38300000D02*
X167300000Y-38600000D01*
X154250500Y-33564002D02*
X154625000Y-33189502D01*
X157632115Y-38686655D02*
X157900000Y-38418770D01*
X151300000Y-33870000D02*
X150770000Y-33870000D01*
X157450000Y-33533939D02*
X157446584Y-33537355D01*
X168840000Y-44110000D02*
X169150000Y-43800000D01*
X164500000Y-38600000D02*
X164300000Y-38400000D01*
X151350000Y-44135400D02*
X151350000Y-43450000D01*
X164100000Y-47450000D02*
X163730000Y-47820000D01*
X156702677Y-37726728D02*
X156449405Y-37980000D01*
X167337500Y-40562500D02*
X166737500Y-40562500D01*
X158950000Y-43243700D02*
X158930000Y-43263700D01*
X166920000Y-32530000D02*
X167075000Y-32375000D01*
X163300000Y-37680000D02*
X163780000Y-37680000D01*
X159415000Y-30665000D02*
X159400000Y-30650000D01*
X163820000Y-37680000D02*
X163800000Y-37700000D01*
X152600000Y-33937500D02*
X152272500Y-33937500D01*
X161570000Y-33880000D02*
X161950000Y-33500000D01*
X166920000Y-33150000D02*
X166450000Y-33150000D01*
X167337500Y-40562500D02*
X168037500Y-40562500D01*
X151200000Y-43300000D02*
X151200000Y-42700000D01*
X167337500Y-44162500D02*
X166512500Y-44162500D01*
X151950000Y-49336000D02*
X151946000Y-49340000D01*
X151290000Y-34920000D02*
X150820000Y-34920000D01*
X164500000Y-39725000D02*
X164500000Y-38600000D01*
X167075000Y-32375000D02*
X167075000Y-31941506D01*
X168037500Y-40562500D02*
X168167500Y-40432500D01*
X161950000Y-33500000D02*
X162450000Y-33500000D01*
X167415000Y-34250000D02*
X166966500Y-34250000D01*
X151200000Y-42700000D02*
X150751500Y-42700000D01*
X157573500Y-38686655D02*
X157632115Y-38686655D01*
X152272500Y-33937500D02*
X151290000Y-34920000D01*
X159415000Y-31150000D02*
X159415000Y-30665000D01*
X167750000Y-39150000D02*
X168000000Y-38900000D01*
X166920000Y-33150000D02*
X166920000Y-32530000D01*
X157450000Y-33160000D02*
X157450000Y-33533939D01*
X153375000Y-38762500D02*
X153375000Y-39675000D01*
X159410000Y-32320000D02*
X159410000Y-32570000D01*
X159330000Y-44162500D02*
X158930000Y-43762500D01*
X163780000Y-37680000D02*
X163800000Y-37700000D01*
X153375000Y-39675000D02*
X153800000Y-40100000D01*
X150770000Y-33870000D02*
X150750000Y-33850000D01*
X168000000Y-38900000D02*
X168000000Y-38300000D01*
X166100000Y-39725000D02*
X166100000Y-39200000D01*
X153800000Y-40100000D02*
X153645366Y-40254634D01*
X167175000Y-39725000D02*
X167750000Y-39150000D01*
X159000000Y-40432500D02*
X158517500Y-40432500D01*
D48*
G04 #@! TO.N,/XIN*
X163300000Y-47200000D02*
X163000000Y-47500000D01*
X163300000Y-46600000D02*
X163300000Y-47200000D01*
X158135000Y-47800000D02*
X157260000Y-46925000D01*
X163000000Y-47500000D02*
X159600000Y-47500000D01*
X155800000Y-47450000D02*
X155800000Y-48110000D01*
X156325000Y-46925000D02*
X155800000Y-47450000D01*
X159600000Y-47500000D02*
X159300000Y-47800000D01*
X158135000Y-47800000D02*
X159300000Y-47800000D01*
X157260000Y-46925000D02*
X156325000Y-46925000D01*
G04 #@! TO.N,/XOUT*
X163700000Y-46600000D02*
X163700000Y-47300000D01*
X160733000Y-47777000D02*
X160210000Y-48300000D01*
X163223000Y-47777000D02*
X160733000Y-47777000D01*
X163700000Y-47300000D02*
X163223000Y-47777000D01*
X158660000Y-48675000D02*
X159835000Y-48675000D01*
X159835000Y-48675000D02*
X160210000Y-48300000D01*
G04 #@! TO.N,/RUN*
X165700000Y-45800000D02*
X165947009Y-45552991D01*
X166252991Y-45552991D02*
X166900000Y-46200000D01*
X167150000Y-47890000D02*
X167150000Y-47200000D01*
X157450000Y-32140000D02*
X156918000Y-31608000D01*
X156918000Y-31608000D02*
X156918000Y-31275500D01*
X156918000Y-31275500D02*
X156400000Y-30757500D01*
X165700000Y-46600000D02*
X165700000Y-45800000D01*
X156190000Y-28726000D02*
X156190000Y-29890000D01*
X165947009Y-45552991D02*
X166252991Y-45552991D01*
X167150000Y-47200000D02*
X166900000Y-46950000D01*
X166900000Y-46950000D02*
X166900000Y-46200000D01*
X156190000Y-29890000D02*
X156400000Y-30100000D01*
X165947009Y-45552991D02*
X165947009Y-43554486D01*
X156400000Y-30100000D02*
X156400000Y-30757500D01*
D47*
G04 #@! TO.N,+5V*
X163750000Y-32700000D02*
X163750000Y-33200000D01*
X155085400Y-44785400D02*
X155100000Y-44800000D01*
X155995000Y-43762500D02*
X155575000Y-43762500D01*
X165600000Y-31300000D02*
X164050000Y-31300000D01*
X165600000Y-31300000D02*
X165600000Y-30450000D01*
X165600000Y-30450000D02*
X166350000Y-29700000D01*
X166350000Y-29700000D02*
X166350000Y-28750000D01*
X163750000Y-31600000D02*
X163750000Y-32700000D01*
X164050000Y-31300000D02*
X163750000Y-31600000D01*
X155575000Y-43775000D02*
X155550000Y-43750000D01*
X154450000Y-44785400D02*
X155085400Y-44785400D01*
D48*
G04 #@! TO.N,/SPI0_nCS*
X157204677Y-36204677D02*
X156935000Y-35935000D01*
X156657645Y-41307645D02*
X156657645Y-40949688D01*
X156400000Y-35935000D02*
X154640000Y-35935000D01*
X156657645Y-40942355D02*
X157071500Y-40528500D01*
X157215000Y-37340000D02*
X157204677Y-37329677D01*
X156935000Y-35935000D02*
X156400000Y-35935000D01*
X154640000Y-35935000D02*
X154375000Y-36200000D01*
X157204677Y-37329677D02*
X157204677Y-36204677D01*
X157642956Y-41457044D02*
X156807044Y-41457044D01*
X156657645Y-40949688D02*
X156657645Y-40942355D01*
X160462500Y-41362500D02*
X157737500Y-41362500D01*
X156807044Y-41457044D02*
X156657645Y-41307645D01*
X157900000Y-37340000D02*
X157215000Y-37340000D01*
X157204677Y-38035323D02*
X157204677Y-37329677D01*
X157071500Y-40528500D02*
X157071500Y-38168500D01*
X169150000Y-48500000D02*
X168690000Y-48500000D01*
X157071500Y-38168500D02*
X157204677Y-38035323D01*
X157737500Y-41362500D02*
X157642956Y-41457044D01*
X154375000Y-36200000D02*
X154375000Y-36937500D01*
G04 #@! TO.N,/NEOPIXEL*
X160462500Y-43762500D02*
X161250000Y-43762500D01*
X153652000Y-43448000D02*
X153652000Y-42112000D01*
X153652000Y-42112000D02*
X153190000Y-41650000D01*
X153650000Y-43450000D02*
X153652000Y-43448000D01*
D47*
G04 #@! TO.N,Net-(D2-Pad1)*
X168410000Y-34760000D02*
X168410000Y-35250000D01*
X168385000Y-34250000D02*
X168385000Y-34735000D01*
X168385000Y-34735000D02*
X168410000Y-34760000D01*
D48*
G04 #@! TO.N,/SPI0_POCI*
X149982000Y-37398000D02*
X151952000Y-37398000D01*
X152712500Y-37100000D02*
X152250000Y-37100000D01*
X157391584Y-40962500D02*
X157384128Y-40955044D01*
X152250000Y-37100000D02*
X151952000Y-37398000D01*
X152712500Y-37100000D02*
X152712500Y-36412500D01*
X148774000Y-36190000D02*
X149982000Y-37398000D01*
X160462500Y-40962500D02*
X157391584Y-40962500D01*
X152712500Y-36412500D02*
X152700000Y-36400000D01*
G04 #@! TO.N,/SPI1_nCS_SD*
X167337500Y-42562500D02*
X166699516Y-42562500D01*
X169050000Y-38400000D02*
X168750000Y-38700000D01*
X170025000Y-40000000D02*
X171295000Y-38730000D01*
X170025000Y-41650000D02*
X170025000Y-40000000D01*
X169112500Y-42562500D02*
X170025000Y-41650000D01*
X167337500Y-42562500D02*
X169112500Y-42562500D01*
X166699516Y-42562500D02*
X166337016Y-42200000D01*
G04 #@! TO.N,/SPI1_SCK_SD*
X169550000Y-39525000D02*
X169975000Y-39100000D01*
X167337500Y-42162500D02*
X168662500Y-42162500D01*
X168662500Y-42162500D02*
X169550000Y-41275000D01*
X169550000Y-41275000D02*
X169550000Y-39525000D01*
X169975000Y-32450000D02*
X171250000Y-31175000D01*
X169975000Y-39100000D02*
X169975000Y-32450000D01*
G04 #@! TO.N,/SD_nCD*
X169460000Y-43090000D02*
X168690000Y-43090000D01*
X168160000Y-43090000D02*
X168690000Y-43090000D01*
X169750000Y-42770000D02*
X171250000Y-41270000D01*
X167337500Y-43362500D02*
X167887500Y-43362500D01*
X167887500Y-43362500D02*
X168160000Y-43090000D01*
X169750000Y-42800000D02*
X169460000Y-43090000D01*
X169750000Y-42800000D02*
X169750000Y-42770000D01*
X169150000Y-47500000D02*
X168690000Y-47500000D01*
G04 #@! TO.N,/UART0_TX_TELEM*
X166100000Y-46600000D02*
X166100000Y-48683262D01*
X165483262Y-49300000D02*
X159500000Y-49300000D01*
X159500000Y-49300000D02*
X158730000Y-50070000D01*
X166100000Y-48683262D02*
X165483262Y-49300000D01*
X158730000Y-50070000D02*
X158730000Y-51250000D01*
G04 #@! TO.N,/UART0_RX_TELEM*
X165800000Y-49600000D02*
X161650000Y-49600000D01*
X161270000Y-49980000D02*
X161270000Y-51250000D01*
X161650000Y-49600000D02*
X161270000Y-49980000D01*
X166500000Y-46600000D02*
X166500000Y-48900000D01*
X166500000Y-48900000D02*
X165800000Y-49600000D01*
G04 #@! TO.N,/UART0_CTS_TELEM*
X163810000Y-51250000D02*
X163810000Y-50340000D01*
X167337500Y-46837500D02*
X167337500Y-45762500D01*
X164250000Y-49900000D02*
X167100000Y-49900000D01*
X163810000Y-50340000D02*
X164250000Y-49900000D01*
X167100000Y-49900000D02*
X167798000Y-49202000D01*
X167798000Y-47298000D02*
X167337500Y-46837500D01*
X167798000Y-49202000D02*
X167798000Y-47298000D01*
G04 #@! TO.N,/UART0_RTS_TELEM*
X168075000Y-45545000D02*
X167892500Y-45362500D01*
X168075000Y-49525000D02*
X168075000Y-45545000D01*
X166350000Y-51250000D02*
X168075000Y-49525000D01*
X167892500Y-45362500D02*
X167337500Y-45362500D01*
G04 #@! TO.N,/UART1_TX_GNSS*
X169862500Y-44962500D02*
X171250000Y-46350000D01*
X167337500Y-44962500D02*
X169862500Y-44962500D01*
G04 #@! TO.N,/UART1_RX_GNSS*
X167357000Y-44582000D02*
X170478000Y-44582000D01*
X170478000Y-44582000D02*
X171250000Y-43810000D01*
G04 #@! TO.N,/USB_MCU_DP*
X165363749Y-36368051D02*
X165363749Y-36006249D01*
X164874999Y-36856801D02*
X165363749Y-36368051D01*
X165363749Y-36006249D02*
X165057500Y-35700000D01*
X164874999Y-39699999D02*
X164874999Y-36856801D01*
G04 #@! TO.N,/USB_DP*
X165057500Y-34680000D02*
X165388750Y-34348750D01*
X165388750Y-34026333D02*
X165163750Y-33801333D01*
X165388750Y-34348750D02*
X165388750Y-34026333D01*
G04 #@! TO.N,/USB_MCU_DN*
X165813751Y-36006249D02*
X166120000Y-35700000D01*
X165325001Y-37043199D02*
X165813751Y-36554449D01*
X165813751Y-36554449D02*
X165813751Y-36006249D01*
X165325001Y-39699999D02*
X165325001Y-37043199D01*
G04 #@! TO.N,/USB_DN*
X165788750Y-34026333D02*
X166013750Y-33801333D01*
X165788750Y-34348750D02*
X165788750Y-34026333D01*
X166120000Y-34680000D02*
X165788750Y-34348750D01*
G04 #@! TO.N,/IMU_HEATER*
X156737500Y-45762500D02*
X155200000Y-47300000D01*
X155200000Y-47300000D02*
X155200000Y-49750000D01*
X155200000Y-49750000D02*
X153650000Y-51300000D01*
X160462500Y-45762500D02*
X156737500Y-45762500D01*
G04 #@! TO.N,/QSPI_SCLK*
X161100000Y-34900000D02*
X160400000Y-34900000D01*
X160400000Y-34900000D02*
X160150000Y-35150000D01*
X161400000Y-37700000D02*
X161400000Y-35200000D01*
X162900000Y-39200000D02*
X161400000Y-37700000D01*
X162900000Y-39725000D02*
X162900000Y-39200000D01*
X161400000Y-35200000D02*
X161100000Y-34900000D01*
X160150000Y-35150000D02*
X160150000Y-35400000D01*
G04 #@! TO.N,/BOOTSEL*
X158410000Y-30290000D02*
X158650000Y-30050000D01*
X161390000Y-31150000D02*
X161390000Y-30390000D01*
X158730000Y-28750000D02*
X158730000Y-29970000D01*
X158700000Y-30000000D02*
X158650000Y-30050000D01*
X158760000Y-30000000D02*
X158730000Y-29970000D01*
X158850000Y-30000000D02*
X158700000Y-30000000D01*
X158730000Y-29970000D02*
X158650000Y-30050000D01*
X161000000Y-30000000D02*
X158850000Y-30000000D01*
X161390000Y-30390000D02*
X161000000Y-30000000D01*
X158410000Y-31150000D02*
X158410000Y-30290000D01*
X158850000Y-30000000D02*
X158760000Y-30000000D01*
G04 #@! TO.N,/QSPI_SD1*
X161022881Y-38577119D02*
X159877119Y-38577119D01*
X159650000Y-38350000D02*
X159650000Y-37800000D01*
X161700000Y-39254238D02*
X161022881Y-38577119D01*
X159877119Y-38577119D02*
X159650000Y-38350000D01*
X161700000Y-39725000D02*
X161700000Y-39254238D01*
G04 #@! TO.N,/QSPI_SD2*
X160150000Y-38100000D02*
X160150000Y-37800000D01*
X161137500Y-38300000D02*
X160350000Y-38300000D01*
X160350000Y-38300000D02*
X160150000Y-38100000D01*
X162100000Y-39262500D02*
X161137500Y-38300000D01*
X162100000Y-39725000D02*
X162100000Y-39262500D01*
G04 #@! TO.N,/QSPI_SD0*
X162500000Y-39200000D02*
X161100000Y-37800000D01*
X161100000Y-37800000D02*
X161100000Y-36500000D01*
X161100000Y-36500000D02*
X160650000Y-36050000D01*
X162500000Y-39725000D02*
X162500000Y-39200000D01*
X160650000Y-36050000D02*
X160650000Y-35400000D01*
G04 #@! TO.N,/QSPI_SD3*
X161214737Y-34623000D02*
X160077000Y-34623000D01*
X159650000Y-35050000D02*
X159650000Y-35400000D01*
X160077000Y-34623000D02*
X159650000Y-35050000D01*
X161677000Y-35085262D02*
X161214737Y-34623000D01*
X163300000Y-39200000D02*
X161677000Y-37577000D01*
X161677000Y-37577000D02*
X161677000Y-35085262D01*
X163300000Y-39725000D02*
X163300000Y-39200000D01*
G04 #@! TO.N,/SPI0_SCK*
X156112724Y-41762500D02*
X160462500Y-41762500D01*
X152070098Y-41650000D02*
X151866182Y-41446084D01*
X155931143Y-41580919D02*
X156112724Y-41762500D01*
X154200000Y-37800000D02*
X153875000Y-37475000D01*
X153875000Y-37475000D02*
X153875000Y-36937500D01*
X155931143Y-40950008D02*
X155931143Y-41580919D01*
G04 #@! TO.N,/I2C0_SDA*
X153125000Y-32090000D02*
X153565000Y-31650000D01*
X161087500Y-42562500D02*
X161414099Y-42235901D01*
X155550000Y-32800000D02*
X155000000Y-32250000D01*
X153125000Y-32912500D02*
X153125000Y-32090000D01*
X151740000Y-30790000D02*
X151300000Y-30790000D01*
X153125000Y-32912500D02*
X152562500Y-32912500D01*
X152562500Y-32912500D02*
X151950000Y-32300000D01*
X151950000Y-31000000D02*
X151740000Y-30790000D01*
X159500000Y-34600000D02*
X159910000Y-34190000D01*
X157800000Y-34600000D02*
X159500000Y-34600000D01*
X161414099Y-42235901D02*
X161414099Y-40589471D01*
X159910000Y-34190000D02*
X159910000Y-33880000D01*
X160462500Y-42562500D02*
X161087500Y-42562500D01*
X151950000Y-32300000D02*
X151950000Y-31000000D01*
X155000000Y-32250000D02*
X154165000Y-32250000D01*
X154165000Y-32250000D02*
X153565000Y-31650000D01*
G04 #@! TO.N,/I2C0_SCL*
X161875000Y-40854601D02*
X162140601Y-40589000D01*
X150248000Y-30552000D02*
X150550000Y-30250000D01*
X161437500Y-42962500D02*
X161875000Y-42525000D01*
X152150000Y-30250000D02*
X152450000Y-30550000D01*
X150248000Y-36298000D02*
X150248000Y-32848000D01*
X158062537Y-33922593D02*
X158635130Y-33350000D01*
X151300000Y-32850000D02*
X150250000Y-32850000D01*
X151300000Y-36890000D02*
X150840000Y-36890000D01*
X150840000Y-36890000D02*
X150248000Y-36298000D01*
X158635130Y-33350000D02*
X159130000Y-33350000D01*
X150248000Y-32848000D02*
X150248000Y-30552000D01*
X161875000Y-42525000D02*
X161875000Y-40854601D01*
X160462500Y-42962500D02*
X161437500Y-42962500D01*
X152450000Y-30550000D02*
X155600000Y-30550000D01*
X151887500Y-33437500D02*
X151300000Y-32850000D01*
X150550000Y-30250000D02*
X152150000Y-30250000D01*
X152600000Y-33437500D02*
X151887500Y-33437500D01*
X150250000Y-32850000D02*
X150248000Y-32848000D01*
G04 #@! TO.N,/BUZZER*
X161700000Y-45878844D02*
X161318827Y-45497671D01*
X161700000Y-46600000D02*
X161700000Y-45878844D01*
G04 #@! TO.N,/SWCLK*
X165268090Y-47522666D02*
X165222666Y-47522666D01*
X165222666Y-47522666D02*
X164900000Y-47200000D01*
X164900000Y-47200000D02*
X164900000Y-46600000D01*
G04 #@! TO.N,/SWDIO*
X165200500Y-45350000D02*
X165200500Y-46050500D01*
X165200500Y-46050500D02*
X165300000Y-46150000D01*
X165300000Y-46150000D02*
X165300000Y-46600000D01*
G04 #@! TO.N,/PIO0_CAN_TX*
X154200000Y-46850000D02*
X154450000Y-46600000D01*
X154450000Y-46600000D02*
X154450000Y-46085400D01*
X160462500Y-44962500D02*
X156087500Y-44962500D01*
X154200000Y-47600000D02*
X154200000Y-46850000D01*
X154450000Y-46085400D02*
X154964600Y-46085400D01*
X154964600Y-46085400D02*
X156087500Y-44962500D01*
G04 #@! TO.N,/DRDY_ICM42605*
X159124100Y-42624100D02*
X155184100Y-42624100D01*
X154025000Y-40850000D02*
X153000000Y-40850000D01*
X160462500Y-43362500D02*
X159862500Y-43362500D01*
X153000000Y-40850000D02*
X152715000Y-40565000D01*
X154210000Y-41650000D02*
X154210000Y-41035000D01*
X159862500Y-43362500D02*
X159124100Y-42624100D01*
X154210000Y-41035000D02*
X154025000Y-40850000D01*
X152715000Y-40565000D02*
X152715000Y-38600000D01*
X155184100Y-42624100D02*
X154210000Y-41650000D01*
G04 #@! TO.N,/PIO0_CAN_RX*
X154200000Y-43250000D02*
X154200000Y-42700000D01*
X155185400Y-44135400D02*
X154450000Y-44135400D01*
X160462500Y-44562500D02*
X155612500Y-44562500D01*
X155612500Y-44562500D02*
X155185400Y-44135400D01*
X154450000Y-44135400D02*
X154450000Y-43500000D01*
X154450000Y-43500000D02*
X154200000Y-43250000D01*
G04 #@! TO.N,/CAN_SILENT*
X160462500Y-45362500D02*
X156362500Y-45362500D01*
X156362500Y-45362500D02*
X154700000Y-47025000D01*
X151350000Y-46085400D02*
X151350000Y-46850000D01*
X151350000Y-46850000D02*
X150900000Y-47300000D01*
X151950000Y-47840000D02*
X150910000Y-47840000D01*
X152460000Y-48350000D02*
X151950000Y-47840000D01*
X154700000Y-48150000D02*
X154500000Y-48350000D01*
X150900000Y-47300000D02*
X150900000Y-47830000D01*
X154700000Y-47025000D02*
X154700000Y-48150000D01*
X154500000Y-48350000D02*
X152460000Y-48350000D01*
D47*
G04 #@! TO.N,Net-(C20-Pad1)*
X155790000Y-34437500D02*
X156400000Y-33827500D01*
X155150000Y-34437500D02*
X155790000Y-34437500D01*
D48*
G04 #@! TO.N,/SPI0_PICO*
X155662500Y-42162500D02*
X160462500Y-42162500D01*
X153375000Y-37375000D02*
X153375000Y-36937500D01*
X155135961Y-41635961D02*
X155662500Y-42162500D01*
X151300000Y-40650000D02*
X151301500Y-40648500D01*
X153458329Y-37815365D02*
X153458329Y-37458329D01*
X155135961Y-40944584D02*
X155135961Y-41635961D01*
X151301500Y-40648500D02*
X151301500Y-39961500D01*
X153458329Y-37458329D02*
X153375000Y-37375000D01*
G04 #@! TO.N,/CAN_N*
X149850400Y-44910400D02*
X148750000Y-43810000D01*
X151350000Y-44785400D02*
X150862499Y-44785400D01*
X150862499Y-44785400D02*
X150737499Y-44910400D01*
X151350000Y-44785400D02*
X151714600Y-44785400D01*
X152300000Y-43350000D02*
X152350000Y-43350000D01*
X152350000Y-43350000D02*
X152530000Y-43350000D01*
X150737499Y-44910400D02*
X149850400Y-44910400D01*
X151900000Y-43750000D02*
X152300000Y-43350000D01*
X151900000Y-44600000D02*
X151900000Y-43750000D01*
X151714600Y-44785400D02*
X151900000Y-44600000D01*
X152530000Y-43350000D02*
X153180000Y-42700000D01*
G04 #@! TO.N,/CAN_P*
X151900000Y-45600000D02*
X151900000Y-46700000D01*
X151350000Y-45435400D02*
X150862499Y-45435400D01*
X151735400Y-45435400D02*
X151900000Y-45600000D01*
X149789600Y-45310400D02*
X148750000Y-46350000D01*
X151900000Y-46700000D02*
X152800000Y-47600000D01*
X150862499Y-45435400D02*
X150737499Y-45310400D01*
X152800000Y-47600000D02*
X153180000Y-47600000D01*
X151350000Y-45435400D02*
X151735400Y-45435400D01*
X150737499Y-45310400D02*
X149789600Y-45310400D01*
G04 #@! TO.N,/SPI1_POCI_SD*
X166931118Y-42950000D02*
X166943618Y-42962500D01*
X166943618Y-42962500D02*
X167337500Y-42962500D01*
X166350000Y-42950000D02*
X166931118Y-42950000D01*
G04 #@! TO.N,/SDA{slash}SDI*
X151300000Y-38940000D02*
X151300000Y-38606500D01*
G04 #@! TO.N,/SCL{slash}SCK*
X150760000Y-37910000D02*
X150750000Y-37900000D01*
X151300000Y-37910000D02*
X150760000Y-37910000D01*
X150450000Y-38200000D02*
X150750000Y-37900000D01*
X151170000Y-41650000D02*
X150450000Y-40930000D01*
X150450000Y-40930000D02*
X150450000Y-38200000D01*
G04 #@! TO.N,/SPI1_PICO_SD*
X167337500Y-41762500D02*
X168237500Y-41762500D01*
X168237500Y-41762500D02*
X168600000Y-41400000D01*
G04 #@! TO.N,/QSPI_nCS*
X161300000Y-39725000D02*
X161300000Y-39300000D01*
X160854119Y-38854119D02*
X159554119Y-38854119D01*
X159150000Y-38450000D02*
X159150000Y-37800000D01*
X159150000Y-37800000D02*
X158750000Y-37800000D01*
X158000000Y-39440000D02*
X158990000Y-38450000D01*
X157400000Y-30350000D02*
X157400000Y-31140000D01*
X159554119Y-38854119D02*
X159150000Y-38450000D01*
X158990000Y-38450000D02*
X159150000Y-38450000D01*
X161300000Y-39300000D02*
X160854119Y-38854119D01*
G04 #@! TD*
G04 #@! TA.AperFunction,Conductor*
G04 #@! TO.N,GND*
G36*
X167663751Y-31368306D02*
G01*
X167687367Y-31391922D01*
X167729541Y-31420102D01*
X167735574Y-31421302D01*
X167735576Y-31421303D01*
X167763720Y-31426901D01*
X167779289Y-31429998D01*
X167880000Y-31429998D01*
X167895569Y-31426901D01*
X167923713Y-31421303D01*
X167923715Y-31421302D01*
X167929748Y-31420102D01*
X167971922Y-31391922D01*
X167981374Y-31377776D01*
X168021147Y-31351201D01*
X168033340Y-31350000D01*
X168513908Y-31350000D01*
X168548631Y-31360533D01*
X168620508Y-31408560D01*
X168620510Y-31408561D01*
X168625627Y-31411980D01*
X168649271Y-31416683D01*
X168700639Y-31426901D01*
X168700642Y-31426901D01*
X168703652Y-31427500D01*
X169096348Y-31427500D01*
X169099358Y-31426901D01*
X169099361Y-31426901D01*
X169150729Y-31416683D01*
X169174373Y-31411980D01*
X169179490Y-31408561D01*
X169179492Y-31408560D01*
X169202777Y-31393001D01*
X169249693Y-31383669D01*
X169289467Y-31410245D01*
X169300000Y-31444968D01*
X169300000Y-32587500D01*
X169281694Y-32631694D01*
X169237500Y-32650000D01*
X168450000Y-32650000D01*
X168450000Y-33437500D01*
X168431694Y-33481694D01*
X168387500Y-33500000D01*
X167372892Y-33500000D01*
X167328698Y-33481694D01*
X167310392Y-33437500D01*
X167312965Y-33424569D01*
X167311980Y-33424373D01*
X167326901Y-33349361D01*
X167326901Y-33349358D01*
X167327500Y-33346348D01*
X167327500Y-32953652D01*
X167311980Y-32875627D01*
X167252857Y-32787143D01*
X167200277Y-32752010D01*
X167173701Y-32712236D01*
X167172500Y-32700043D01*
X167172500Y-32660477D01*
X167190806Y-32616283D01*
X167231603Y-32575486D01*
X167241074Y-32567713D01*
X167251926Y-32560462D01*
X167257043Y-32557043D01*
X167312850Y-32473521D01*
X167332448Y-32375000D01*
X167328701Y-32356163D01*
X167327500Y-32343970D01*
X167327500Y-32262533D01*
X167338034Y-32227809D01*
X167346683Y-32214865D01*
X167350102Y-32209748D01*
X167351302Y-32203715D01*
X167351303Y-32203713D01*
X167359399Y-32163011D01*
X167359998Y-32160000D01*
X167359998Y-31909289D01*
X167358745Y-31902990D01*
X167351303Y-31865576D01*
X167351302Y-31865574D01*
X167350102Y-31859541D01*
X167321922Y-31817367D01*
X167112633Y-31608078D01*
X167070459Y-31579898D01*
X167064426Y-31578698D01*
X167064424Y-31578697D01*
X167023722Y-31570601D01*
X167020711Y-31570002D01*
X166962500Y-31570002D01*
X166918306Y-31551696D01*
X166900000Y-31507502D01*
X166900000Y-31492498D01*
X166918306Y-31448304D01*
X166962500Y-31429998D01*
X167020711Y-31429998D01*
X167036280Y-31426901D01*
X167064424Y-31421303D01*
X167064426Y-31421302D01*
X167070459Y-31420102D01*
X167112633Y-31391922D01*
X167136249Y-31368306D01*
X167180443Y-31350000D01*
X167619557Y-31350000D01*
X167663751Y-31368306D01*
G37*
G04 #@! TD.AperFunction*
G04 #@! TD*
G04 #@! TA.AperFunction,Conductor*
G04 #@! TO.N,Net-(C14-Pad1)*
G36*
X169281694Y-30118306D02*
G01*
X169300000Y-30162500D01*
X169300000Y-31192188D01*
X169281694Y-31236382D01*
X169237500Y-31254688D01*
X169231942Y-31254440D01*
X169223844Y-31253715D01*
X169176928Y-31263047D01*
X169129164Y-31282831D01*
X169128133Y-31283520D01*
X169112012Y-31289289D01*
X169102368Y-31291207D01*
X169089336Y-31293799D01*
X169077144Y-31295000D01*
X168722856Y-31295000D01*
X168710665Y-31293799D01*
X168694868Y-31290657D01*
X168689519Y-31289593D01*
X168666992Y-31280261D01*
X168624169Y-31251649D01*
X168624167Y-31251648D01*
X168622244Y-31250363D01*
X168620161Y-31249378D01*
X168620156Y-31249375D01*
X168592683Y-31236382D01*
X168587093Y-31233738D01*
X168584898Y-31233072D01*
X168584895Y-31233071D01*
X168566415Y-31227465D01*
X168552370Y-31223205D01*
X168533902Y-31220466D01*
X168516183Y-31217837D01*
X168516177Y-31217837D01*
X168513908Y-31217500D01*
X168033340Y-31217500D01*
X168026846Y-31217819D01*
X168021097Y-31218101D01*
X168021081Y-31218102D01*
X168020352Y-31218138D01*
X168019625Y-31218210D01*
X168019606Y-31218211D01*
X168015726Y-31218594D01*
X168008159Y-31219339D01*
X167947535Y-31241031D01*
X167944345Y-31243163D01*
X167944344Y-31243163D01*
X167912830Y-31264220D01*
X167907762Y-31267606D01*
X167896176Y-31279192D01*
X167851982Y-31297498D01*
X167806215Y-31297498D01*
X167762021Y-31279192D01*
X167757443Y-31274614D01*
X167750206Y-31269778D01*
X167721551Y-31250632D01*
X167712080Y-31242859D01*
X167481276Y-31012055D01*
X167449748Y-30990989D01*
X167400000Y-30981094D01*
X167350252Y-30990989D01*
X167318724Y-31012055D01*
X167087920Y-31242859D01*
X167078449Y-31250632D01*
X167049795Y-31269778D01*
X167042557Y-31274614D01*
X167037979Y-31279192D01*
X166993785Y-31297498D01*
X166962500Y-31297498D01*
X166959490Y-31298097D01*
X166959487Y-31298097D01*
X166914803Y-31306985D01*
X166914798Y-31306986D01*
X166911794Y-31307584D01*
X166867600Y-31325890D01*
X166842739Y-31339465D01*
X166842015Y-31338139D01*
X166809328Y-31350000D01*
X166500000Y-31350000D01*
X166500000Y-32659880D01*
X166481694Y-32704074D01*
X166437119Y-32722379D01*
X166395838Y-32722127D01*
X166395837Y-32722127D01*
X166391385Y-32722100D01*
X166273644Y-32755751D01*
X166170080Y-32821095D01*
X166167137Y-32824427D01*
X166167135Y-32824429D01*
X166091965Y-32909542D01*
X166089018Y-32912879D01*
X166087126Y-32916909D01*
X166038868Y-33019695D01*
X166038867Y-33019698D01*
X166036976Y-33023726D01*
X166018136Y-33144724D01*
X166034014Y-33266145D01*
X166035807Y-33270221D01*
X166035808Y-33270223D01*
X166042726Y-33285946D01*
X166043769Y-33333770D01*
X166010690Y-33368324D01*
X165985138Y-33373616D01*
X165959589Y-33373460D01*
X165959588Y-33373460D01*
X165955135Y-33373433D01*
X165837394Y-33407084D01*
X165733830Y-33472428D01*
X165730887Y-33475760D01*
X165730885Y-33475762D01*
X165728138Y-33478873D01*
X165681292Y-33500000D01*
X165497106Y-33500000D01*
X165455150Y-33480772D01*
X165453929Y-33482172D01*
X165450576Y-33479247D01*
X165447668Y-33475872D01*
X165344910Y-33409268D01*
X165227588Y-33374181D01*
X165166361Y-33373807D01*
X165109588Y-33373460D01*
X165109587Y-33373460D01*
X165105135Y-33373433D01*
X164987394Y-33407084D01*
X164883830Y-33472428D01*
X164880887Y-33475760D01*
X164880885Y-33475762D01*
X164878138Y-33478873D01*
X164831292Y-33500000D01*
X164812500Y-33500000D01*
X164768306Y-33481694D01*
X164750000Y-33437500D01*
X164750000Y-31615000D01*
X164768306Y-31570806D01*
X164812500Y-31552500D01*
X165060241Y-31552500D01*
X165104435Y-31570806D01*
X165122440Y-31608877D01*
X165122500Y-31609486D01*
X165122500Y-31612558D01*
X165129898Y-31649748D01*
X165158078Y-31691922D01*
X165200252Y-31720102D01*
X165206285Y-31721302D01*
X165206287Y-31721303D01*
X165232384Y-31726494D01*
X165237442Y-31727500D01*
X165962558Y-31727500D01*
X165967616Y-31726494D01*
X165993713Y-31721303D01*
X165993715Y-31721302D01*
X165999748Y-31720102D01*
X166041922Y-31691922D01*
X166070102Y-31649748D01*
X166073972Y-31630297D01*
X166076901Y-31615569D01*
X166076901Y-31615567D01*
X166077500Y-31612558D01*
X166077500Y-30987442D01*
X166070102Y-30950252D01*
X166041922Y-30908078D01*
X165999748Y-30879898D01*
X165993715Y-30878698D01*
X165993713Y-30878697D01*
X165965569Y-30873099D01*
X165962558Y-30872500D01*
X165915000Y-30872500D01*
X165870806Y-30854194D01*
X165852500Y-30810000D01*
X165852500Y-30580477D01*
X165870806Y-30536283D01*
X166288783Y-30118306D01*
X166332977Y-30100000D01*
X169237500Y-30100000D01*
X169281694Y-30118306D01*
G37*
G04 #@! TD.AperFunction*
G04 #@! TD*
M02*
