G04 #@! TF.GenerationSoftware,KiCad,Pcbnew,(6.0.7)*
G04 #@! TF.CreationDate,2022-09-17T21:46:44-05:00*
G04 #@! TF.ProjectId,picofusion,7069636f-6675-4736-996f-6e2e6b696361,rev?*
G04 #@! TF.SameCoordinates,Original*
G04 #@! TF.FileFunction,Legend,Bot*
G04 #@! TF.FilePolarity,Positive*
%FSLAX46Y46*%
G04 Gerber Fmt 4.6, Leading zero omitted, Abs format (unit mm)*
G04 Created by KiCad (PCBNEW (6.0.7)) date 2022-09-17 21:46:44*
%MOMM*%
%LPD*%
G01*
G04 APERTURE LIST*
%ADD10C,0.150000*%
%ADD11C,0.200000*%
G04 APERTURE END LIST*
D10*
X169282142Y-48057142D02*
X169282142Y-47157142D01*
X168982142Y-47800000D01*
X168682142Y-47157142D01*
X168682142Y-48057142D01*
X168082142Y-47157142D02*
X167910714Y-47157142D01*
X167825000Y-47200000D01*
X167739285Y-47285714D01*
X167696428Y-47457142D01*
X167696428Y-47757142D01*
X167739285Y-47928571D01*
X167825000Y-48014285D01*
X167910714Y-48057142D01*
X168082142Y-48057142D01*
X168167857Y-48014285D01*
X168253571Y-47928571D01*
X168296428Y-47757142D01*
X168296428Y-47457142D01*
X168253571Y-47285714D01*
X168167857Y-47200000D01*
X168082142Y-47157142D01*
X167310714Y-48057142D02*
X167310714Y-47157142D01*
X167096428Y-47157142D01*
X166967857Y-47200000D01*
X166882142Y-47285714D01*
X166839285Y-47371428D01*
X166796428Y-47542857D01*
X166796428Y-47671428D01*
X166839285Y-47842857D01*
X166882142Y-47928571D01*
X166967857Y-48014285D01*
X167096428Y-48057142D01*
X167310714Y-48057142D01*
X166410714Y-47714285D02*
X165725000Y-47714285D01*
X165296428Y-48057142D02*
X165296428Y-47157142D01*
X164953571Y-47157142D01*
X164867857Y-47200000D01*
X164825000Y-47242857D01*
X164782142Y-47328571D01*
X164782142Y-47457142D01*
X164825000Y-47542857D01*
X164867857Y-47585714D01*
X164953571Y-47628571D01*
X165296428Y-47628571D01*
X164396428Y-48057142D02*
X164396428Y-47157142D01*
X163453571Y-47971428D02*
X163496428Y-48014285D01*
X163625000Y-48057142D01*
X163710714Y-48057142D01*
X163839285Y-48014285D01*
X163925000Y-47928571D01*
X163967857Y-47842857D01*
X164010714Y-47671428D01*
X164010714Y-47542857D01*
X163967857Y-47371428D01*
X163925000Y-47285714D01*
X163839285Y-47200000D01*
X163710714Y-47157142D01*
X163625000Y-47157142D01*
X163496428Y-47200000D01*
X163453571Y-47242857D01*
X162896428Y-47157142D02*
X162725000Y-47157142D01*
X162639285Y-47200000D01*
X162553571Y-47285714D01*
X162510714Y-47457142D01*
X162510714Y-47757142D01*
X162553571Y-47928571D01*
X162639285Y-48014285D01*
X162725000Y-48057142D01*
X162896428Y-48057142D01*
X162982142Y-48014285D01*
X163067857Y-47928571D01*
X163110714Y-47757142D01*
X163110714Y-47457142D01*
X163067857Y-47285714D01*
X162982142Y-47200000D01*
X162896428Y-47157142D01*
X161825000Y-47585714D02*
X162125000Y-47585714D01*
X162125000Y-48057142D02*
X162125000Y-47157142D01*
X161696428Y-47157142D01*
X161353571Y-47157142D02*
X161353571Y-47885714D01*
X161310714Y-47971428D01*
X161267857Y-48014285D01*
X161182142Y-48057142D01*
X161010714Y-48057142D01*
X160925000Y-48014285D01*
X160882142Y-47971428D01*
X160839285Y-47885714D01*
X160839285Y-47157142D01*
X160453571Y-48014285D02*
X160325000Y-48057142D01*
X160110714Y-48057142D01*
X160025000Y-48014285D01*
X159982142Y-47971428D01*
X159939285Y-47885714D01*
X159939285Y-47800000D01*
X159982142Y-47714285D01*
X160025000Y-47671428D01*
X160110714Y-47628571D01*
X160282142Y-47585714D01*
X160367857Y-47542857D01*
X160410714Y-47500000D01*
X160453571Y-47414285D01*
X160453571Y-47328571D01*
X160410714Y-47242857D01*
X160367857Y-47200000D01*
X160282142Y-47157142D01*
X160067857Y-47157142D01*
X159939285Y-47200000D01*
X159553571Y-48057142D02*
X159553571Y-47157142D01*
X158953571Y-47157142D02*
X158782142Y-47157142D01*
X158696428Y-47200000D01*
X158610714Y-47285714D01*
X158567857Y-47457142D01*
X158567857Y-47757142D01*
X158610714Y-47928571D01*
X158696428Y-48014285D01*
X158782142Y-48057142D01*
X158953571Y-48057142D01*
X159039285Y-48014285D01*
X159125000Y-47928571D01*
X159167857Y-47757142D01*
X159167857Y-47457142D01*
X159125000Y-47285714D01*
X159039285Y-47200000D01*
X158953571Y-47157142D01*
X158182142Y-48057142D02*
X158182142Y-47157142D01*
X157667857Y-48057142D01*
X157667857Y-47157142D01*
X157239285Y-47714285D02*
X156553571Y-47714285D01*
X155610714Y-48057142D02*
X155910714Y-47628571D01*
X156125000Y-48057142D02*
X156125000Y-47157142D01*
X155782142Y-47157142D01*
X155696428Y-47200000D01*
X155653571Y-47242857D01*
X155610714Y-47328571D01*
X155610714Y-47457142D01*
X155653571Y-47542857D01*
X155696428Y-47585714D01*
X155782142Y-47628571D01*
X156125000Y-47628571D01*
X155053571Y-47157142D02*
X154967857Y-47157142D01*
X154882142Y-47200000D01*
X154839285Y-47242857D01*
X154796428Y-47328571D01*
X154753571Y-47500000D01*
X154753571Y-47714285D01*
X154796428Y-47885714D01*
X154839285Y-47971428D01*
X154882142Y-48014285D01*
X154967857Y-48057142D01*
X155053571Y-48057142D01*
X155139285Y-48014285D01*
X155182142Y-47971428D01*
X155225000Y-47885714D01*
X155267857Y-47714285D01*
X155267857Y-47500000D01*
X155225000Y-47328571D01*
X155182142Y-47242857D01*
X155139285Y-47200000D01*
X155053571Y-47157142D01*
X154410714Y-47242857D02*
X154367857Y-47200000D01*
X154282142Y-47157142D01*
X154067857Y-47157142D01*
X153982142Y-47200000D01*
X153939285Y-47242857D01*
X153896428Y-47328571D01*
X153896428Y-47414285D01*
X153939285Y-47542857D01*
X154453571Y-48057142D01*
X153896428Y-48057142D01*
X153553571Y-47800000D02*
X153125000Y-47800000D01*
X153639285Y-48057142D02*
X153339285Y-47157142D01*
X153039285Y-48057142D01*
X169036905Y-48652380D02*
X169036905Y-49366666D01*
X169084524Y-49509523D01*
X169179762Y-49604761D01*
X169322619Y-49652380D01*
X169417858Y-49652380D01*
X168084524Y-49652380D02*
X168560715Y-49652380D01*
X168560715Y-48652380D01*
X167179762Y-49557142D02*
X167227381Y-49604761D01*
X167370238Y-49652380D01*
X167465477Y-49652380D01*
X167608334Y-49604761D01*
X167703572Y-49509523D01*
X167751191Y-49414285D01*
X167798810Y-49223809D01*
X167798810Y-49080952D01*
X167751191Y-48890476D01*
X167703572Y-48795238D01*
X167608334Y-48700000D01*
X167465477Y-48652380D01*
X167370238Y-48652380D01*
X167227381Y-48700000D01*
X167179762Y-48747619D01*
X166465477Y-48652380D02*
X166465477Y-49366666D01*
X166513096Y-49509523D01*
X166608334Y-49604761D01*
X166751191Y-49652380D01*
X166846429Y-49652380D01*
X165513096Y-49652380D02*
X165989286Y-49652380D01*
X165989286Y-48652380D01*
X164608334Y-49557142D02*
X164655953Y-49604761D01*
X164798810Y-49652380D01*
X164894048Y-49652380D01*
X165036905Y-49604761D01*
X165132143Y-49509523D01*
X165179762Y-49414285D01*
X165227381Y-49223809D01*
X165227381Y-49080952D01*
X165179762Y-48890476D01*
X165132143Y-48795238D01*
X165036905Y-48700000D01*
X164894048Y-48652380D01*
X164798810Y-48652380D01*
X164655953Y-48700000D01*
X164608334Y-48747619D01*
X163894048Y-48652380D02*
X163894048Y-49366666D01*
X163941667Y-49509523D01*
X164036905Y-49604761D01*
X164179762Y-49652380D01*
X164275000Y-49652380D01*
X162941667Y-49652380D02*
X163417858Y-49652380D01*
X163417858Y-48652380D01*
X162036905Y-49557142D02*
X162084524Y-49604761D01*
X162227381Y-49652380D01*
X162322619Y-49652380D01*
X162465477Y-49604761D01*
X162560715Y-49509523D01*
X162608334Y-49414285D01*
X162655953Y-49223809D01*
X162655953Y-49080952D01*
X162608334Y-48890476D01*
X162560715Y-48795238D01*
X162465477Y-48700000D01*
X162322619Y-48652380D01*
X162227381Y-48652380D01*
X162084524Y-48700000D01*
X162036905Y-48747619D01*
X161322619Y-48652380D02*
X161322619Y-49366666D01*
X161370238Y-49509523D01*
X161465477Y-49604761D01*
X161608334Y-49652380D01*
X161703572Y-49652380D01*
X160370238Y-49652380D02*
X160846429Y-49652380D01*
X160846429Y-48652380D01*
X159465477Y-49557142D02*
X159513096Y-49604761D01*
X159655953Y-49652380D01*
X159751191Y-49652380D01*
X159894048Y-49604761D01*
X159989286Y-49509523D01*
X160036905Y-49414285D01*
X160084524Y-49223809D01*
X160084524Y-49080952D01*
X160036905Y-48890476D01*
X159989286Y-48795238D01*
X159894048Y-48700000D01*
X159751191Y-48652380D01*
X159655953Y-48652380D01*
X159513096Y-48700000D01*
X159465477Y-48747619D01*
D11*
X169178571Y-32728571D02*
X169178571Y-31228571D01*
X168607142Y-31228571D01*
X168464285Y-31300000D01*
X168392857Y-31371428D01*
X168321428Y-31514285D01*
X168321428Y-31728571D01*
X168392857Y-31871428D01*
X168464285Y-31942857D01*
X168607142Y-32014285D01*
X169178571Y-32014285D01*
X167678571Y-32728571D02*
X167678571Y-31728571D01*
X167678571Y-31228571D02*
X167750000Y-31300000D01*
X167678571Y-31371428D01*
X167607142Y-31300000D01*
X167678571Y-31228571D01*
X167678571Y-31371428D01*
X166321428Y-32657142D02*
X166464285Y-32728571D01*
X166750000Y-32728571D01*
X166892857Y-32657142D01*
X166964285Y-32585714D01*
X167035714Y-32442857D01*
X167035714Y-32014285D01*
X166964285Y-31871428D01*
X166892857Y-31800000D01*
X166750000Y-31728571D01*
X166464285Y-31728571D01*
X166321428Y-31800000D01*
X165464285Y-32728571D02*
X165607142Y-32657142D01*
X165678571Y-32585714D01*
X165750000Y-32442857D01*
X165750000Y-32014285D01*
X165678571Y-31871428D01*
X165607142Y-31800000D01*
X165464285Y-31728571D01*
X165250000Y-31728571D01*
X165107142Y-31800000D01*
X165035714Y-31871428D01*
X164964285Y-32014285D01*
X164964285Y-32442857D01*
X165035714Y-32585714D01*
X165107142Y-32657142D01*
X165250000Y-32728571D01*
X165464285Y-32728571D01*
X163821428Y-31942857D02*
X164321428Y-31942857D01*
X164321428Y-32728571D02*
X164321428Y-31228571D01*
X163607142Y-31228571D01*
X162392857Y-31728571D02*
X162392857Y-32728571D01*
X163035714Y-31728571D02*
X163035714Y-32514285D01*
X162964285Y-32657142D01*
X162821428Y-32728571D01*
X162607142Y-32728571D01*
X162464285Y-32657142D01*
X162392857Y-32585714D01*
X161750000Y-32657142D02*
X161607142Y-32728571D01*
X161321428Y-32728571D01*
X161178571Y-32657142D01*
X161107142Y-32514285D01*
X161107142Y-32442857D01*
X161178571Y-32300000D01*
X161321428Y-32228571D01*
X161535714Y-32228571D01*
X161678571Y-32157142D01*
X161750000Y-32014285D01*
X161750000Y-31942857D01*
X161678571Y-31800000D01*
X161535714Y-31728571D01*
X161321428Y-31728571D01*
X161178571Y-31800000D01*
X160464285Y-32728571D02*
X160464285Y-31728571D01*
X160464285Y-31228571D02*
X160535714Y-31300000D01*
X160464285Y-31371428D01*
X160392857Y-31300000D01*
X160464285Y-31228571D01*
X160464285Y-31371428D01*
X159535714Y-32728571D02*
X159678571Y-32657142D01*
X159750000Y-32585714D01*
X159821428Y-32442857D01*
X159821428Y-32014285D01*
X159750000Y-31871428D01*
X159678571Y-31800000D01*
X159535714Y-31728571D01*
X159321428Y-31728571D01*
X159178571Y-31800000D01*
X159107142Y-31871428D01*
X159035714Y-32014285D01*
X159035714Y-32442857D01*
X159107142Y-32585714D01*
X159178571Y-32657142D01*
X159321428Y-32728571D01*
X159535714Y-32728571D01*
X158392857Y-31728571D02*
X158392857Y-32728571D01*
X158392857Y-31871428D02*
X158321428Y-31800000D01*
X158178571Y-31728571D01*
X157964285Y-31728571D01*
X157821428Y-31800000D01*
X157750000Y-31942857D01*
X157750000Y-32728571D01*
X155964285Y-32300000D02*
X155250000Y-32300000D01*
X156107142Y-32728571D02*
X155607142Y-31228571D01*
X155107142Y-32728571D01*
X154607142Y-32728571D02*
X154607142Y-31228571D01*
X154607142Y-31942857D02*
X153750000Y-31942857D01*
X153750000Y-32728571D02*
X153750000Y-31228571D01*
X152178571Y-32728571D02*
X152678571Y-32014285D01*
X153035714Y-32728571D02*
X153035714Y-31228571D01*
X152464285Y-31228571D01*
X152321428Y-31300000D01*
X152250000Y-31371428D01*
X152178571Y-31514285D01*
X152178571Y-31728571D01*
X152250000Y-31871428D01*
X152321428Y-31942857D01*
X152464285Y-32014285D01*
X153035714Y-32014285D01*
X151607142Y-32657142D02*
X151392857Y-32728571D01*
X151035714Y-32728571D01*
X150892857Y-32657142D01*
X150821428Y-32585714D01*
X150750000Y-32442857D01*
X150750000Y-32300000D01*
X150821428Y-32157142D01*
X150892857Y-32085714D01*
X151035714Y-32014285D01*
X151321428Y-31942857D01*
X151464285Y-31871428D01*
X151535714Y-31800000D01*
X151607142Y-31657142D01*
X151607142Y-31514285D01*
X151535714Y-31371428D01*
X151464285Y-31300000D01*
X151321428Y-31228571D01*
X150964285Y-31228571D01*
X150750000Y-31300000D01*
D10*
X169300119Y-35137380D02*
X169300119Y-34137380D01*
X169062024Y-34137380D01*
X168919167Y-34185000D01*
X168823929Y-34280238D01*
X168776310Y-34375476D01*
X168728691Y-34565952D01*
X168728691Y-34708809D01*
X168776310Y-34899285D01*
X168823929Y-34994523D01*
X168919167Y-35089761D01*
X169062024Y-35137380D01*
X169300119Y-35137380D01*
X167919167Y-35089761D02*
X168014405Y-35137380D01*
X168204881Y-35137380D01*
X168300119Y-35089761D01*
X168347738Y-34994523D01*
X168347738Y-34613571D01*
X168300119Y-34518333D01*
X168204881Y-34470714D01*
X168014405Y-34470714D01*
X167919167Y-34518333D01*
X167871548Y-34613571D01*
X167871548Y-34708809D01*
X168347738Y-34804047D01*
X167490595Y-35089761D02*
X167395357Y-35137380D01*
X167204881Y-35137380D01*
X167109643Y-35089761D01*
X167062024Y-34994523D01*
X167062024Y-34946904D01*
X167109643Y-34851666D01*
X167204881Y-34804047D01*
X167347738Y-34804047D01*
X167442976Y-34756428D01*
X167490595Y-34661190D01*
X167490595Y-34613571D01*
X167442976Y-34518333D01*
X167347738Y-34470714D01*
X167204881Y-34470714D01*
X167109643Y-34518333D01*
X166633453Y-35137380D02*
X166633453Y-34470714D01*
X166633453Y-34137380D02*
X166681072Y-34185000D01*
X166633453Y-34232619D01*
X166585834Y-34185000D01*
X166633453Y-34137380D01*
X166633453Y-34232619D01*
X165728691Y-34470714D02*
X165728691Y-35280238D01*
X165776310Y-35375476D01*
X165823929Y-35423095D01*
X165919167Y-35470714D01*
X166062024Y-35470714D01*
X166157262Y-35423095D01*
X165728691Y-35089761D02*
X165823929Y-35137380D01*
X166014405Y-35137380D01*
X166109643Y-35089761D01*
X166157262Y-35042142D01*
X166204881Y-34946904D01*
X166204881Y-34661190D01*
X166157262Y-34565952D01*
X166109643Y-34518333D01*
X166014405Y-34470714D01*
X165823929Y-34470714D01*
X165728691Y-34518333D01*
X165252500Y-34470714D02*
X165252500Y-35137380D01*
X165252500Y-34565952D02*
X165204881Y-34518333D01*
X165109643Y-34470714D01*
X164966786Y-34470714D01*
X164871548Y-34518333D01*
X164823929Y-34613571D01*
X164823929Y-35137380D01*
X163966786Y-35089761D02*
X164062024Y-35137380D01*
X164252500Y-35137380D01*
X164347738Y-35089761D01*
X164395357Y-34994523D01*
X164395357Y-34613571D01*
X164347738Y-34518333D01*
X164252500Y-34470714D01*
X164062024Y-34470714D01*
X163966786Y-34518333D01*
X163919167Y-34613571D01*
X163919167Y-34708809D01*
X164395357Y-34804047D01*
X163062024Y-35137380D02*
X163062024Y-34137380D01*
X163062024Y-35089761D02*
X163157262Y-35137380D01*
X163347738Y-35137380D01*
X163442976Y-35089761D01*
X163490595Y-35042142D01*
X163538215Y-34946904D01*
X163538215Y-34661190D01*
X163490595Y-34565952D01*
X163442976Y-34518333D01*
X163347738Y-34470714D01*
X163157262Y-34470714D01*
X163062024Y-34518333D01*
X161823929Y-35137380D02*
X161823929Y-34137380D01*
X161823929Y-34518333D02*
X161728691Y-34470714D01*
X161538215Y-34470714D01*
X161442976Y-34518333D01*
X161395357Y-34565952D01*
X161347738Y-34661190D01*
X161347738Y-34946904D01*
X161395357Y-35042142D01*
X161442976Y-35089761D01*
X161538215Y-35137380D01*
X161728691Y-35137380D01*
X161823929Y-35089761D01*
X161014405Y-34470714D02*
X160776310Y-35137380D01*
X160538215Y-34470714D02*
X160776310Y-35137380D01*
X160871548Y-35375476D01*
X160919167Y-35423095D01*
X161014405Y-35470714D01*
X160157262Y-35042142D02*
X160109643Y-35089761D01*
X160157262Y-35137380D01*
X160204881Y-35089761D01*
X160157262Y-35042142D01*
X160157262Y-35137380D01*
X160157262Y-34518333D02*
X160109643Y-34565952D01*
X160157262Y-34613571D01*
X160204881Y-34565952D01*
X160157262Y-34518333D01*
X160157262Y-34613571D01*
X169300119Y-36747380D02*
X169300119Y-35747380D01*
X168728691Y-36747380D02*
X169157262Y-36175952D01*
X168728691Y-35747380D02*
X169300119Y-36318809D01*
X167871548Y-36747380D02*
X167871548Y-36223571D01*
X167919167Y-36128333D01*
X168014405Y-36080714D01*
X168204881Y-36080714D01*
X168300119Y-36128333D01*
X167871548Y-36699761D02*
X167966786Y-36747380D01*
X168204881Y-36747380D01*
X168300119Y-36699761D01*
X168347738Y-36604523D01*
X168347738Y-36509285D01*
X168300119Y-36414047D01*
X168204881Y-36366428D01*
X167966786Y-36366428D01*
X167871548Y-36318809D01*
X167252500Y-36747380D02*
X167347738Y-36699761D01*
X167395357Y-36604523D01*
X167395357Y-35747380D01*
X166966786Y-36080714D02*
X166728691Y-36747380D01*
X166490595Y-36080714D02*
X166728691Y-36747380D01*
X166823929Y-36985476D01*
X166871548Y-37033095D01*
X166966786Y-37080714D01*
X165681072Y-36747380D02*
X165681072Y-36223571D01*
X165728691Y-36128333D01*
X165823929Y-36080714D01*
X166014405Y-36080714D01*
X166109643Y-36128333D01*
X165681072Y-36699761D02*
X165776310Y-36747380D01*
X166014405Y-36747380D01*
X166109643Y-36699761D01*
X166157262Y-36604523D01*
X166157262Y-36509285D01*
X166109643Y-36414047D01*
X166014405Y-36366428D01*
X165776310Y-36366428D01*
X165681072Y-36318809D01*
X165204881Y-36080714D02*
X165204881Y-36747380D01*
X165204881Y-36175952D02*
X165157262Y-36128333D01*
X165062024Y-36080714D01*
X164919167Y-36080714D01*
X164823929Y-36128333D01*
X164776310Y-36223571D01*
X164776310Y-36747380D01*
X163585834Y-36699761D02*
X163442976Y-36747380D01*
X163204881Y-36747380D01*
X163109643Y-36699761D01*
X163062024Y-36652142D01*
X163014405Y-36556904D01*
X163014405Y-36461666D01*
X163062024Y-36366428D01*
X163109643Y-36318809D01*
X163204881Y-36271190D01*
X163395357Y-36223571D01*
X163490595Y-36175952D01*
X163538215Y-36128333D01*
X163585834Y-36033095D01*
X163585834Y-35937857D01*
X163538215Y-35842619D01*
X163490595Y-35795000D01*
X163395357Y-35747380D01*
X163157262Y-35747380D01*
X163014405Y-35795000D01*
X162585834Y-36747380D02*
X162585834Y-36080714D01*
X162585834Y-36271190D02*
X162538215Y-36175952D01*
X162490595Y-36128333D01*
X162395357Y-36080714D01*
X162300119Y-36080714D01*
X161966786Y-36747380D02*
X161966786Y-36080714D01*
X161966786Y-35747380D02*
X162014405Y-35795000D01*
X161966786Y-35842619D01*
X161919167Y-35795000D01*
X161966786Y-35747380D01*
X161966786Y-35842619D01*
X161490595Y-36747380D02*
X161490595Y-36080714D01*
X161490595Y-36271190D02*
X161442976Y-36175952D01*
X161395357Y-36128333D01*
X161300119Y-36080714D01*
X161204881Y-36080714D01*
X160442976Y-36747380D02*
X160442976Y-36223571D01*
X160490595Y-36128333D01*
X160585834Y-36080714D01*
X160776310Y-36080714D01*
X160871548Y-36128333D01*
X160442976Y-36699761D02*
X160538215Y-36747380D01*
X160776310Y-36747380D01*
X160871548Y-36699761D01*
X160919167Y-36604523D01*
X160919167Y-36509285D01*
X160871548Y-36414047D01*
X160776310Y-36366428D01*
X160538215Y-36366428D01*
X160442976Y-36318809D01*
X159966786Y-36747380D02*
X159966786Y-36080714D01*
X159966786Y-36175952D02*
X159919167Y-36128333D01*
X159823929Y-36080714D01*
X159681072Y-36080714D01*
X159585834Y-36128333D01*
X159538215Y-36223571D01*
X159538215Y-36747380D01*
X159538215Y-36223571D02*
X159490595Y-36128333D01*
X159395357Y-36080714D01*
X159252500Y-36080714D01*
X159157262Y-36128333D01*
X159109643Y-36223571D01*
X159109643Y-36747380D01*
X169300119Y-38357380D02*
X169300119Y-37357380D01*
X168728691Y-38357380D02*
X169157262Y-37785952D01*
X168728691Y-37357380D02*
X169300119Y-37928809D01*
X167871548Y-37690714D02*
X167871548Y-38357380D01*
X168300119Y-37690714D02*
X168300119Y-38214523D01*
X168252500Y-38309761D01*
X168157262Y-38357380D01*
X168014405Y-38357380D01*
X167919167Y-38309761D01*
X167871548Y-38262142D01*
X167442976Y-38309761D02*
X167347738Y-38357380D01*
X167157262Y-38357380D01*
X167062024Y-38309761D01*
X167014405Y-38214523D01*
X167014405Y-38166904D01*
X167062024Y-38071666D01*
X167157262Y-38024047D01*
X167300119Y-38024047D01*
X167395357Y-37976428D01*
X167442976Y-37881190D01*
X167442976Y-37833571D01*
X167395357Y-37738333D01*
X167300119Y-37690714D01*
X167157262Y-37690714D01*
X167062024Y-37738333D01*
X166585834Y-38357380D02*
X166585834Y-37357380D01*
X166157262Y-38357380D02*
X166157262Y-37833571D01*
X166204881Y-37738333D01*
X166300119Y-37690714D01*
X166442976Y-37690714D01*
X166538215Y-37738333D01*
X166585834Y-37785952D01*
X164919167Y-38357380D02*
X164919167Y-37357380D01*
X164347738Y-38357380D01*
X164347738Y-37357380D01*
X163442976Y-38357380D02*
X163442976Y-37833571D01*
X163490595Y-37738333D01*
X163585834Y-37690714D01*
X163776310Y-37690714D01*
X163871548Y-37738333D01*
X163442976Y-38309761D02*
X163538215Y-38357380D01*
X163776310Y-38357380D01*
X163871548Y-38309761D01*
X163919167Y-38214523D01*
X163919167Y-38119285D01*
X163871548Y-38024047D01*
X163776310Y-37976428D01*
X163538215Y-37976428D01*
X163442976Y-37928809D01*
X163062024Y-37690714D02*
X162823929Y-38357380D01*
X162585834Y-37690714D02*
X162823929Y-38357380D01*
X162919167Y-38595476D01*
X162966786Y-38643095D01*
X163062024Y-38690714D01*
X161776310Y-38357380D02*
X161776310Y-37833571D01*
X161823929Y-37738333D01*
X161919167Y-37690714D01*
X162109643Y-37690714D01*
X162204881Y-37738333D01*
X161776310Y-38309761D02*
X161871548Y-38357380D01*
X162109643Y-38357380D01*
X162204881Y-38309761D01*
X162252500Y-38214523D01*
X162252500Y-38119285D01*
X162204881Y-38024047D01*
X162109643Y-37976428D01*
X161871548Y-37976428D01*
X161776310Y-37928809D01*
X161300119Y-38357380D02*
X161300119Y-37357380D01*
X161204881Y-37976428D02*
X160919167Y-38357380D01*
X160919167Y-37690714D02*
X161300119Y-38071666D01*
X169442976Y-38967380D02*
X169109643Y-39967380D01*
X168776310Y-38967380D01*
X168442976Y-39967380D02*
X168442976Y-39300714D01*
X168442976Y-38967380D02*
X168490595Y-39015000D01*
X168442976Y-39062619D01*
X168395357Y-39015000D01*
X168442976Y-38967380D01*
X168442976Y-39062619D01*
X167966786Y-39300714D02*
X167966786Y-39967380D01*
X167966786Y-39395952D02*
X167919167Y-39348333D01*
X167823929Y-39300714D01*
X167681072Y-39300714D01*
X167585834Y-39348333D01*
X167538215Y-39443571D01*
X167538215Y-39967380D01*
X166633453Y-39919761D02*
X166728691Y-39967380D01*
X166919167Y-39967380D01*
X167014405Y-39919761D01*
X167062024Y-39872142D01*
X167109643Y-39776904D01*
X167109643Y-39491190D01*
X167062024Y-39395952D01*
X167014405Y-39348333D01*
X166919167Y-39300714D01*
X166728691Y-39300714D01*
X166633453Y-39348333D01*
X165823929Y-39919761D02*
X165919167Y-39967380D01*
X166109643Y-39967380D01*
X166204881Y-39919761D01*
X166252500Y-39824523D01*
X166252500Y-39443571D01*
X166204881Y-39348333D01*
X166109643Y-39300714D01*
X165919167Y-39300714D01*
X165823929Y-39348333D01*
X165776310Y-39443571D01*
X165776310Y-39538809D01*
X166252500Y-39634047D01*
X165347738Y-39300714D02*
X165347738Y-39967380D01*
X165347738Y-39395952D02*
X165300119Y-39348333D01*
X165204881Y-39300714D01*
X165062024Y-39300714D01*
X164966786Y-39348333D01*
X164919167Y-39443571D01*
X164919167Y-39967380D01*
X164585834Y-39300714D02*
X164204881Y-39300714D01*
X164442976Y-38967380D02*
X164442976Y-39824523D01*
X164395357Y-39919761D01*
X164300119Y-39967380D01*
X164204881Y-39967380D01*
X163204881Y-38967380D02*
X162966786Y-39967380D01*
X162776310Y-39253095D01*
X162585834Y-39967380D01*
X162347738Y-38967380D01*
X161538215Y-39967380D02*
X161538215Y-39443571D01*
X161585834Y-39348333D01*
X161681072Y-39300714D01*
X161871548Y-39300714D01*
X161966786Y-39348333D01*
X161538215Y-39919761D02*
X161633453Y-39967380D01*
X161871548Y-39967380D01*
X161966786Y-39919761D01*
X162014405Y-39824523D01*
X162014405Y-39729285D01*
X161966786Y-39634047D01*
X161871548Y-39586428D01*
X161633453Y-39586428D01*
X161538215Y-39538809D01*
X161062024Y-39300714D02*
X161062024Y-39967380D01*
X161062024Y-39395952D02*
X161014405Y-39348333D01*
X160919167Y-39300714D01*
X160776310Y-39300714D01*
X160681072Y-39348333D01*
X160633453Y-39443571D01*
X160633453Y-39967380D01*
X159728691Y-39300714D02*
X159728691Y-40110238D01*
X159776310Y-40205476D01*
X159823929Y-40253095D01*
X159919167Y-40300714D01*
X160062024Y-40300714D01*
X160157262Y-40253095D01*
X159728691Y-39919761D02*
X159823929Y-39967380D01*
X160014405Y-39967380D01*
X160109643Y-39919761D01*
X160157262Y-39872142D01*
X160204881Y-39776904D01*
X160204881Y-39491190D01*
X160157262Y-39395952D01*
X160109643Y-39348333D01*
X160014405Y-39300714D01*
X159823929Y-39300714D01*
X159728691Y-39348333D01*
G04 #@! TO.C,G\u002A\u002A\u002A*
G36*
X155833551Y-35944171D02*
G01*
X155873882Y-36014022D01*
X155965758Y-36173288D01*
X156053283Y-36325212D01*
X156135531Y-36468173D01*
X156211576Y-36600553D01*
X156280489Y-36720732D01*
X156341343Y-36827090D01*
X156393212Y-36918009D01*
X156435169Y-36991867D01*
X156466286Y-37047046D01*
X156485635Y-37081927D01*
X156492291Y-37094889D01*
X156490460Y-37099511D01*
X156477358Y-37124658D01*
X156453036Y-37168827D01*
X156419139Y-37229175D01*
X156377316Y-37302859D01*
X156329211Y-37387037D01*
X156276473Y-37478866D01*
X156220747Y-37575502D01*
X156163680Y-37674104D01*
X156106920Y-37771828D01*
X156052112Y-37865832D01*
X156000903Y-37953273D01*
X155954940Y-38031309D01*
X155915869Y-38097096D01*
X155885338Y-38147792D01*
X155864992Y-38180554D01*
X155856479Y-38192539D01*
X155853340Y-38188669D01*
X155837787Y-38164184D01*
X155810082Y-38118410D01*
X155771072Y-38052802D01*
X155721604Y-37968813D01*
X155662524Y-37867896D01*
X155594679Y-37751506D01*
X155518916Y-37621097D01*
X155436081Y-37478121D01*
X155347022Y-37324032D01*
X155252585Y-37160285D01*
X155153616Y-36988333D01*
X155050964Y-36809630D01*
X154255514Y-35423529D01*
X153898582Y-35422899D01*
X153541649Y-35422270D01*
X153541649Y-36931585D01*
X153541644Y-36980549D01*
X153541511Y-37178952D01*
X153541209Y-37369163D01*
X153540750Y-37549454D01*
X153540145Y-37718097D01*
X153539405Y-37873364D01*
X153538543Y-38013530D01*
X153537570Y-38136865D01*
X153536498Y-38241642D01*
X153535338Y-38326135D01*
X153534103Y-38388615D01*
X153532803Y-38427356D01*
X153531451Y-38440629D01*
X153531450Y-38440629D01*
X153523867Y-38429103D01*
X153503717Y-38395836D01*
X153472044Y-38342626D01*
X153429895Y-38271271D01*
X153378313Y-38183569D01*
X153318345Y-38081319D01*
X153251035Y-37966318D01*
X153177429Y-37840365D01*
X153098573Y-37705257D01*
X153015510Y-37562794D01*
X152929288Y-37414773D01*
X152840951Y-37262991D01*
X152751543Y-37109248D01*
X152662112Y-36955342D01*
X152573701Y-36803070D01*
X152487356Y-36654230D01*
X152404122Y-36510622D01*
X152325045Y-36374042D01*
X152251170Y-36246290D01*
X152183542Y-36129162D01*
X152123206Y-36024459D01*
X152071208Y-35933976D01*
X152028593Y-35859513D01*
X151996406Y-35802868D01*
X151975693Y-35765839D01*
X151967498Y-35750224D01*
X151967923Y-35748334D01*
X151977765Y-35727831D01*
X151999408Y-35687208D01*
X152031422Y-35629025D01*
X152072374Y-35555846D01*
X152120835Y-35470233D01*
X152175375Y-35374748D01*
X152234561Y-35271953D01*
X152505271Y-34803587D01*
X155174811Y-34803587D01*
X155833551Y-35944171D01*
G37*
G36*
X154079223Y-35768262D02*
G01*
X154081977Y-35772518D01*
X154097404Y-35798145D01*
X154125147Y-35845104D01*
X154164331Y-35911895D01*
X154214082Y-35997012D01*
X154273525Y-36098952D01*
X154341784Y-36216213D01*
X154417986Y-36347290D01*
X154501254Y-36490681D01*
X154590716Y-36644881D01*
X154685494Y-36808388D01*
X154784716Y-36979698D01*
X154887505Y-37157308D01*
X155675781Y-38519901D01*
X155531628Y-38769346D01*
X155485810Y-38848628D01*
X155429718Y-38945681D01*
X155373575Y-39042814D01*
X155321934Y-39132153D01*
X155279347Y-39205821D01*
X155171217Y-39392853D01*
X152504641Y-39385921D01*
X151852238Y-38257334D01*
X151818739Y-38199370D01*
X151726811Y-38040160D01*
X151639068Y-37887985D01*
X151556454Y-37744498D01*
X151479915Y-37611346D01*
X151410395Y-37490179D01*
X151348839Y-37382647D01*
X151296191Y-37290399D01*
X151253396Y-37215085D01*
X151221399Y-37158354D01*
X151201144Y-37121856D01*
X151193577Y-37107240D01*
X151195313Y-37099944D01*
X151208439Y-37070652D01*
X151233145Y-37021895D01*
X151268091Y-36956141D01*
X151311939Y-36875860D01*
X151363351Y-36783520D01*
X151420985Y-36681593D01*
X151483505Y-36572546D01*
X151525239Y-36500357D01*
X151592896Y-36384057D01*
X151648836Y-36289088D01*
X151694048Y-36213875D01*
X151729522Y-36156845D01*
X151756248Y-36116424D01*
X151775215Y-36091038D01*
X151787414Y-36079113D01*
X151793834Y-36079075D01*
X151795261Y-36081334D01*
X151808205Y-36103198D01*
X151833532Y-36146609D01*
X151870370Y-36210054D01*
X151917844Y-36292022D01*
X151975080Y-36390998D01*
X152041206Y-36505471D01*
X152115347Y-36633928D01*
X152196630Y-36774855D01*
X152284181Y-36926740D01*
X152377127Y-37088070D01*
X152474594Y-37257333D01*
X152575708Y-37433015D01*
X153343440Y-38767238D01*
X154058351Y-38767238D01*
X154058351Y-37285118D01*
X154765971Y-37285118D01*
X154738223Y-37230728D01*
X154710475Y-37176339D01*
X154058351Y-37176339D01*
X154058784Y-36459074D01*
X154058790Y-36448716D01*
X154058960Y-36291505D01*
X154059290Y-36159367D01*
X154059839Y-36050301D01*
X154060666Y-35962306D01*
X154061831Y-35893381D01*
X154063393Y-35841525D01*
X154065410Y-35804739D01*
X154067943Y-35781020D01*
X154071049Y-35768368D01*
X154074790Y-35764783D01*
X154079223Y-35768262D01*
G37*
G04 #@! TD*
M02*
